<svg width="433" height="250" viewBox="0 0 433 250" fill="none" xmlns="http://www.w3.org/2000/svg">
<path fillRule="evenodd" clipRule="evenodd" d="M178.01 193.742H249.666C252.105 193.742 254.099 195.738 254.099 198.177V234.02C254.099 236.459 252.105 238.453 249.666 238.453H178.01C175.571 238.453 173.576 236.459 173.576 234.02V198.177C173.576 195.738 175.572 193.742 178.01 193.742Z" fill="#262626"/>
<path fillRule="evenodd" clipRule="evenodd" d="M64.438 0.222168H363.235C368.784 0.222168 373.326 4.76264 373.326 10.3133V192.95C373.326 198.501 368.784 203.041 363.235 203.041H64.438C58.8889 203.041 54.3477 198.501 54.3477 192.95V10.3133C54.3477 4.76264 58.8889 0.222168 64.438 0.222168Z" fill="#262626"/>
<path d="M348.366 12.8657H79.3097C72.5058 12.8657 66.9902 18.3813 66.9902 25.1851V178.081C66.9902 184.885 72.5058 190.401 79.3097 190.401H348.366C355.17 190.401 360.686 184.885 360.686 178.081V25.1851C360.686 18.3813 355.17 12.8657 348.366 12.8657Z" fill="#404040"/>
<path fillRule="evenodd" clipRule="evenodd" d="M118.418 199.416H309.26C311.221 199.416 312.828 201.022 312.828 202.984V202.987C312.828 204.948 311.221 206.554 309.26 206.554H118.418C116.456 206.554 114.85 204.948 114.85 202.987V202.984C114.85 201.022 116.456 199.416 118.418 199.416Z" fill="#404040"/>
<path fillRule="evenodd" clipRule="evenodd" d="M148.57 249.309H279.103V241.466C279.103 237.43 275.801 234.128 271.765 234.128H155.909C151.873 234.128 148.57 237.43 148.57 241.466V249.309Z" fill="#404040"/>
<path fillRule="evenodd" clipRule="evenodd" d="M412.026 33.1929C423.43 33.1929 432.674 42.4371 432.674 53.841C432.674 65.2449 423.429 74.4899 412.026 74.4899C400.622 74.4899 391.377 65.2457 391.377 53.841C391.377 42.4371 400.622 33.1929 412.026 33.1929Z" fill="#262626"/>
<path fillRule="evenodd" clipRule="evenodd" d="M408.495 72.297C419.867 72.297 429.143 63.0212 429.143 51.6489C429.143 40.2757 419.867 31 408.495 31C397.121 31 387.846 40.2757 387.846 51.6489C387.846 63.0212 397.122 72.297 408.495 72.297Z" fill="#404040"/>
<path d="M416.418 44.6723H414.935V37.487C414.935 37.1736 414.68 36.9188 414.366 36.9188H402.72C402.407 36.9188 402.152 37.1736 402.152 37.487V44.6723H400.668V37.487C400.668 36.3552 401.589 35.4351 402.72 35.4351H414.366C415.498 35.4351 416.418 36.3559 416.418 37.487V44.6723Z" fill="#525252"/>
<path d="M408.542 67.8821C415.967 67.8821 421.986 61.8628 421.986 54.4377C421.986 47.0126 415.967 40.9934 408.542 40.9934C401.117 40.9934 395.098 47.0126 395.098 54.4377C395.098 61.8628 401.117 67.8821 408.542 67.8821Z" fill="#525252"/>
<path d="M416.1 43.3179C417.566 45.4715 418.425 48.0724 418.425 50.8743C418.425 58.299 412.406 64.3186 404.98 64.3186C402.178 64.3186 399.577 63.4609 397.424 61.9941C399.843 65.5475 403.921 67.882 408.544 67.882C415.968 67.882 421.988 61.8632 421.988 54.4377C421.988 49.814 419.653 45.7371 416.1 43.3179Z" fill="#525252"/>
<path d="M402.865 48.8284C402.09 50.1697 400.618 50.7695 399.575 50.1682C398.534 49.5669 398.317 47.9915 399.091 46.6502C399.866 45.309 401.338 44.7091 402.38 45.3105C403.422 45.9118 403.639 47.4872 402.865 48.8284Z" fill="#737373"/>
<path fillRule="evenodd" clipRule="evenodd" d="M83.3421 180.451H344.334C345.318 180.451 346.215 180.191 346.865 179.774C347.517 179.357 347.92 178.782 347.92 178.151V25.0845C347.92 24.4535 347.517 23.8786 346.865 23.462C346.215 23.0446 345.318 22.7856 344.334 22.7856H83.3421C82.3577 22.7856 81.4608 23.0446 80.8098 23.462C80.1587 23.8786 79.7546 24.4535 79.7546 25.0845V178.151C79.7546 178.782 80.1587 179.357 80.8098 179.774C81.4608 180.192 82.3577 180.451 83.3421 180.451ZM344.334 182.85H83.3421C81.3254 182.85 79.492 182.321 78.1647 181.47C76.8374 180.621 76.0137 179.444 76.0137 178.152V25.0845C76.0137 23.7917 76.8386 22.6165 78.1647 21.7656C79.4908 20.9163 81.3254 20.3875 83.3421 20.3875H344.334C346.351 20.3875 348.184 20.9163 349.51 21.7656C350.837 22.6165 351.661 23.7925 351.661 25.0845V178.151C351.661 179.444 350.837 180.62 349.51 181.469C348.184 182.321 346.351 182.85 344.334 182.85Z" fill="#525252"/>
<path fillRule="evenodd" clipRule="evenodd" d="M81.5467 182.85H346.128C349.17 182.85 351.661 181.245 351.661 179.285V165.141H76.0137V179.285C76.0137 181.245 78.5031 182.85 81.5467 182.85Z" fill="#525252"/>
<path fillRule="evenodd" clipRule="evenodd" d="M98.2464 173.61C97.8737 173.61 97.5723 173.439 97.5723 173.225C97.5723 173.013 97.8737 172.84 98.2464 172.84H344.827C345.198 172.84 345.501 173.012 345.501 173.225C345.501 173.438 345.199 173.61 344.827 173.61H98.2464Z" fill="url(#paint0_linear_12380_189414)" fill-opacity="0.12"/>
<path fillRule="evenodd" clipRule="evenodd" d="M83.1582 177.148V169.052C83.1582 168.388 83.7518 167.85 84.4841 167.85C84.8544 167.85 85.1886 167.987 85.4288 168.21L89.8854 172.25C90.402 172.718 90.402 173.48 89.8854 173.949L85.4211 177.997C84.9029 178.466 84.0645 178.466 83.547 177.997C83.2876 177.763 83.1582 177.456 83.1582 177.148Z" fill="url(#paint1_linear_12380_189414)"/>
<path fillRule="evenodd" clipRule="evenodd" d="M90.2711 73.8044H124.371C125.385 73.8044 126.211 74.6306 126.211 75.6423C126.211 76.6572 125.385 77.4841 124.371 77.4841H90.2711C89.2578 77.4841 88.4316 76.6579 88.4316 75.6423C88.4309 74.6306 89.257 73.8044 90.2711 73.8044Z" fill="#525252"/>
<path fillRule="evenodd" clipRule="evenodd" d="M90.2711 81.8992H109.59C110.603 81.8992 111.429 82.7253 111.429 83.7386C111.429 84.7519 110.603 85.5781 109.59 85.5781H90.2711C89.2578 85.5781 88.4316 84.7519 88.4316 83.7386C88.4309 82.7253 89.257 81.8992 90.2711 81.8992Z" fill="#525252"/>
<path fillRule="evenodd" clipRule="evenodd" d="M90.2711 98.2124H124.371C125.385 98.2124 126.211 99.0386 126.211 100.052C126.211 101.065 125.385 101.891 124.371 101.891H90.2711C89.2578 101.891 88.4316 101.065 88.4316 100.052C88.4309 99.0378 89.257 98.2124 90.2711 98.2124Z" fill="#525252"/>
<path fillRule="evenodd" clipRule="evenodd" d="M90.2711 106.307H109.59C110.603 106.307 111.429 107.133 111.429 108.146C111.429 109.16 110.603 109.985 109.59 109.985H90.2711C89.2578 109.985 88.4316 109.16 88.4316 108.146C88.4309 107.134 89.257 106.307 90.2711 106.307Z" fill="#525252"/>
<path fillRule="evenodd" clipRule="evenodd" d="M116.15 106.307H118.973C119.986 106.307 120.812 107.133 120.812 108.146C120.812 109.16 119.986 109.985 118.973 109.985H116.15C115.137 109.985 114.311 109.16 114.311 108.146C114.311 107.134 115.137 106.307 116.15 106.307Z" fill="#525252"/>
<path fillRule="evenodd" clipRule="evenodd" d="M90.2711 128.631H107.627C108.64 128.631 109.466 127.806 109.466 126.793C109.466 125.779 108.64 124.952 107.627 124.952H90.2711C89.2578 124.952 88.4316 125.778 88.4316 126.793C88.4309 127.806 89.257 128.631 90.2711 128.631Z" fill="#525252"/>
<path fillRule="evenodd" clipRule="evenodd" d="M90.2711 120.537H114.25C115.263 120.537 116.09 119.71 116.09 118.696C116.09 117.684 115.263 116.857 114.25 116.857H90.2711C89.2578 116.857 88.4316 117.683 88.4316 118.696C88.4309 119.71 89.257 120.537 90.2711 120.537Z" fill="#525252"/>
<path fillRule="evenodd" clipRule="evenodd" d="M121.396 120.537H125.536C126.549 120.537 127.376 119.71 127.376 118.696C127.376 117.684 126.549 116.857 125.536 116.857H121.396C120.383 116.857 119.557 117.683 119.557 118.696C119.557 119.71 120.383 120.537 121.396 120.537Z" fill="#525252"/>
<path fillRule="evenodd" clipRule="evenodd" d="M90.2711 137.095H101.738C102.751 137.095 103.578 136.268 103.578 135.255C103.578 134.243 102.751 133.414 101.738 133.414H90.2711C89.2578 133.414 88.4316 134.242 88.4316 135.255C88.4309 136.267 89.257 137.095 90.2711 137.095Z" fill="#525252"/>
<path fillRule="evenodd" clipRule="evenodd" d="M90.2711 145.19H115.722C116.736 145.19 117.562 144.364 117.562 143.351C117.562 142.337 116.736 141.51 115.722 141.51H90.2711C89.2578 141.51 88.4316 142.337 88.4316 143.351C88.4309 144.364 89.257 145.19 90.2711 145.19Z" fill="#525252"/>
<path fillRule="evenodd" clipRule="evenodd" d="M107.32 60.163C115.6 60.163 122.352 53.4104 122.352 45.1318C122.352 36.8532 115.6 30.1006 107.32 30.1006C99.0417 30.1006 92.2891 36.8532 92.2891 45.1318C92.2891 53.4112 99.0409 60.163 107.32 60.163Z" fill="#525252"/>
<path fillRule="evenodd" clipRule="evenodd" d="M115.094 54.985C112.956 56.6743 110.255 57.6822 107.319 57.6822C104.383 57.6822 101.683 56.6743 99.5449 54.985C99.6804 50.8241 103.125 47.4617 107.319 47.4617C111.512 47.4617 114.958 50.8241 115.094 54.985ZM107.32 34.4377C110.404 34.4377 112.905 36.937 112.905 40.0215C112.905 43.1052 110.404 45.6061 107.32 45.6061C104.236 45.6061 101.736 43.106 101.736 40.0215C101.735 36.937 104.236 34.4377 107.32 34.4377Z" fill="#737373"/>
<path fillRule="evenodd" clipRule="evenodd" d="M97.7881 174.9C98.7798 174.9 99.589 174.091 99.589 173.1C99.589 172.107 98.7798 171.298 97.7881 171.298C96.7956 171.298 95.9863 172.107 95.9863 173.1C95.9863 174.091 96.7956 174.9 97.7881 174.9Z" fill="url(#paint2_linear_12380_189414)"/>
<path fillRule="evenodd" clipRule="evenodd" d="M345.885 175.15C346.946 175.15 347.811 174.285 347.811 173.226C347.811 172.165 346.946 171.3 345.885 171.3C344.826 171.3 343.961 172.165 343.961 173.226C343.962 174.285 344.826 175.15 345.885 175.15Z" fill="url(#paint3_linear_12380_189414)"/>
<path fillRule="evenodd" clipRule="evenodd" d="M97.7879 173.901C97.3451 173.901 96.9863 173.542 96.9863 173.1C96.9863 172.658 97.3451 172.3 97.7879 172.3H157.65C158.093 172.3 158.452 172.658 158.452 173.1C158.452 173.542 158.093 173.901 157.65 173.901H97.7879Z" fill="url(#paint4_linear_12380_189414)"/>
<path d="M235.794 99.1238C229.375 97.3699 228.49 81.5195 227.962 69.9084L227.945 69.6702C226.754 69.7554 225.562 69.8406 224.455 69.9084C224.455 69.9084 222.412 80.3621 214.223 80.3621C206.033 80.3621 203.99 69.9084 203.99 69.9084C202.884 69.8406 201.692 69.7554 200.5 69.6702L200.483 69.9084C199.955 81.5195 199.07 97.3699 192.652 99.1238H192.635C192.669 99.8048 192.703 100.554 192.754 101.354C193.009 106.41 193.435 113.476 194.031 119.299C194.678 125.649 194.525 133.787 194.338 139.899H214.223H234.109C233.922 133.787 233.768 125.649 234.415 119.299C235.011 113.476 235.437 106.41 235.692 101.354C235.743 100.554 235.778 99.8048 235.812 99.1238H235.794Z" fill="#262626"/>
<path d="M239.507 103.261C237.567 98.7661 236 94.6289 236 94.6289C236 94.6289 235.932 96.3828 235.813 99.1237C235.779 99.8048 235.745 100.554 235.693 101.354C237.447 105.236 239.711 109.867 242.112 114.055H242.129C242.129 114.055 241.448 107.756 239.507 103.261Z" fill="#FDDED3"/>
<path d="M279.991 76.2081C279.446 73.0243 276.45 69.3125 275.378 69.483C274.322 69.6702 270.441 71.2536 270.441 71.2536C270.441 71.2536 271.053 77.8083 271.496 78.421C271.905 78.9826 272.62 79.5616 274.118 79.783L274.084 79.9877C274.084 79.9877 267.614 87.9212 262.268 94.2887C256.923 100.673 254.3 107.126 254.3 107.126C252.445 96.9954 243.557 83.0862 242.876 81.1109C242.179 79.1188 242.706 73.6027 238.229 70.7598C235.913 69.3125 231.844 69.4145 227.945 69.6702L227.962 69.9084C228.49 81.5195 229.375 97.3698 235.794 99.1237H235.81C235.93 96.3828 235.998 94.6289 235.998 94.6289C235.998 94.6289 237.564 98.7661 239.505 103.261C241.446 107.756 242.127 114.055 242.127 114.055H242.11C245.413 119.758 249.006 124.627 252.104 125.615C260.379 128.288 269.947 104.64 273.386 96.5358C275.769 90.9688 277.438 86.4229 278.255 84.1074C279.106 81.9791 280.349 78.3532 279.991 76.2081Z" fill="#FCD7CB"/>
<path d="M192.448 94.6289C192.448 94.6289 190.881 98.7661 188.94 103.261C186.999 107.756 186.318 114.055 186.318 114.055H186.335C188.736 109.867 191 105.236 192.754 101.354C192.703 100.554 192.668 99.8048 192.634 99.1237C192.516 96.3828 192.448 94.6289 192.448 94.6289Z" fill="#FDDED3"/>
<path d="M214.222 69.9081C216.078 69.9081 218.699 68.3588 221.049 65.4817L220.811 64.2048C218.478 66.1459 216.027 67.1672 214.222 67.1672C212.417 67.1672 209.965 66.1459 207.633 64.2048L207.395 65.4817C209.744 68.3588 212.366 69.9081 214.222 69.9081Z" fill="#FDDED3"/>
<path d="M188.94 103.261C190.881 98.7661 192.447 94.6289 192.447 94.6289C192.447 94.6289 192.515 96.3828 192.634 99.1237H192.651C199.07 97.3699 199.955 81.5195 200.483 69.9084L200.5 69.6702C196.601 69.4145 192.532 69.3125 190.216 70.7598C185.739 73.6034 186.266 79.1194 185.568 81.1109C184.887 83.0862 176 96.9954 174.145 107.126C174.145 107.126 171.522 100.673 166.177 94.2887C160.831 87.9212 154.362 79.9877 154.362 79.9877L154.327 79.783C155.826 79.5616 156.541 78.9826 156.949 78.421C157.392 77.8084 158.004 71.2536 158.004 71.2536C158.004 71.2536 154.123 69.6702 153.067 69.483C151.994 69.3125 148.998 73.0243 148.454 76.2081C148.096 78.3532 149.339 81.9798 150.19 84.1081C151.007 86.4236 152.675 90.9694 155.059 96.5364C158.499 104.64 168.067 128.289 176.341 125.616C179.44 124.628 183.032 119.759 186.335 114.055H186.319C186.319 114.055 186.999 107.756 188.94 103.261Z" fill="#FCD7CB"/>
<path d="M214.223 80.362C222.412 80.362 224.455 69.9083 224.455 69.9083C223.536 69.9767 222.667 70.0103 221.867 70.0103V69.8915L221.05 65.4819C218.7 68.3591 216.078 69.9083 214.223 69.9083C212.367 69.9083 209.745 68.3591 207.395 65.4819L206.578 69.8915V70.0103C205.778 70.0103 204.909 69.9761 203.99 69.9083C203.99 69.9083 206.033 80.362 214.223 80.362Z" fill="#FCD7CB"/>
<path d="M221.605 65.0389C224.199 62.9025 226.66 59.7548 228.167 55.7302C228.167 55.7302 228.167 55.7302 228.186 55.7302C228.415 55.8446 229.598 56.3596 230.265 55.7109C231.009 54.9671 232.23 51.7622 231.2 50.1221C230.875 49.5878 230.494 49.4162 230.17 49.3975C229.961 49.3975 229.77 49.4547 229.598 49.5499C229.464 51.0761 229.178 52.5259 228.797 53.8799C227.499 54.2425 228.034 50.5226 227.9 49.3969C227.748 48.214 226.908 47.7755 225.764 47.2412C224.639 46.6883 225.134 40.2213 223.951 39.6298C222.768 39.0383 217.828 39.6298 214.223 39.6298C210.617 39.6298 205.677 39.0383 204.494 39.6298C203.311 40.2213 203.808 46.6877 202.682 47.2412C201.537 47.7755 200.698 48.214 200.545 49.3969C200.412 50.5226 200.946 54.2419 199.649 53.8799C199.267 52.5253 198.981 51.0755 198.848 49.5499C198.676 49.4547 198.485 49.3975 198.275 49.3975C197.951 49.4168 197.569 49.5885 197.245 50.1221C196.215 51.7628 197.436 54.9671 198.18 55.7109C198.848 56.3596 200.03 55.8446 200.259 55.7302C200.279 55.7302 200.279 55.7302 200.279 55.7302C201.786 59.7548 204.247 62.9025 206.841 65.0389C209.454 67.2138 212.201 68.3582 214.223 68.3582C216.245 68.3582 218.991 67.2138 221.605 65.0389Z" fill="#FCD7CB"/>
<path d="M199.648 53.88C200.945 54.2426 200.411 50.5227 200.545 49.397C200.697 48.2141 201.537 47.7756 202.681 47.2413C203.806 46.6884 203.311 40.2214 204.494 39.6299C205.677 39.0385 210.617 39.6299 214.222 39.6299C217.828 39.6299 222.768 39.0385 223.951 39.6299C225.134 40.2214 224.637 46.6878 225.763 47.2413C226.908 47.7756 227.747 48.2141 227.9 49.397C228.033 50.5227 227.499 54.242 228.796 53.88C229.178 52.5254 229.464 51.0756 229.597 49.55C229.769 49.4548 229.96 49.3976 230.17 49.3976C230.189 49.0164 230.399 44.5906 228.987 41.0237C227.5 37.2659 223.303 32.707 214.223 32.707C205.143 32.707 200.946 37.2659 199.458 41.0237C198.047 44.5912 198.257 49.0164 198.275 49.3976C198.485 49.3976 198.676 49.4548 198.848 49.55C198.981 51.0756 199.267 52.5254 199.648 53.88Z" fill="#262626"/>
<path d="M214.22 56.0487C213.18 56.0487 212.243 55.1724 212.962 55.1724C213.682 55.1724 214.22 55.1724 214.22 55.1724C214.22 55.1724 214.758 55.1724 215.478 55.1724C216.198 55.173 215.26 56.0487 214.22 56.0487Z" fill="#FEC8B4"/>
<path d="M214.22 62.8857C213.18 62.8857 212.243 62.01 212.962 62.01C213.682 62.01 214.22 62.01 214.22 62.01C214.22 62.01 214.758 62.01 215.478 62.01C216.198 62.0094 215.26 62.8857 214.22 62.8857Z" fill="#FDDED3"/>
<path d="M221.91 50.6173C221.91 51.552 221.203 52.3102 220.332 52.3102C219.46 52.3102 218.754 51.5527 218.754 50.6173C218.754 49.6825 219.46 48.9243 220.332 48.9243C221.203 48.9243 221.91 49.6825 221.91 50.6173Z" fill="#262626"/>
<path d="M218.23 46.4901C218.35 45.9502 223.265 46.3165 223.641 46.9117C224.017 47.5063 217.95 47.7483 218.23 46.4901Z" fill="#262626"/>
<path d="M206.539 50.6173C206.539 51.552 207.246 52.3102 208.117 52.3102C208.988 52.3102 209.695 51.5527 209.695 50.6173C209.695 49.6825 208.988 48.9243 208.117 48.9243C207.246 48.9243 206.539 49.6825 206.539 50.6173Z" fill="#262626"/>
<path d="M210.217 46.4901C210.097 45.9502 205.182 46.3165 204.806 46.9117C204.43 47.5063 210.496 47.7483 210.217 46.4901Z" fill="#262626"/>
<path d="M217.649 47.3972C216.639 47.1957 216.197 50.1761 216.3 50.8447C216.404 51.5126 218.791 47.6248 217.649 47.3972Z" fill="#FEC8B4"/>
<path d="M210.791 47.3974C211.801 47.1959 212.244 50.1763 212.14 50.8449C212.036 51.5129 209.649 47.6251 210.791 47.3974Z" fill="#FEC8B4"/>
<path d="M215.413 53.835C215.477 54.3127 215.446 54.7126 215.344 54.7288C215.242 54.7443 215.107 54.3699 215.043 53.8923C214.979 53.4146 215.01 53.0147 215.112 52.9985C215.214 52.983 215.349 53.3574 215.413 53.835Z" fill="#F7ECDF"/>
<path d="M209.264 58.2793C209.264 58.2793 210.506 61.2889 214.224 61.2889C217.943 61.2889 219.185 58.2793 219.185 58.2793H209.264Z" fill="#FEC8B4"/>
<path d="M209.71 59.0376H218.738C219.048 58.6035 219.184 58.2788 219.184 58.2788H209.264C209.264 58.2788 209.4 58.6035 209.71 59.0376Z" fill="white"/>
<path d="M230.163 50.7117C230.407 50.6227 230.692 50.7515 230.844 50.9611C230.997 51.1707 231.04 51.4412 231.04 51.7005C231.04 52.4357 230.729 53.1304 230.425 53.7996C230.311 54.0503 230.195 54.3034 230.024 54.5186C229.852 54.7338 229.617 54.9117 229.346 54.9577C229.318 54.9627 229.287 54.9658 229.26 54.9552C229.211 54.9359 229.188 54.8787 229.176 54.8277C229.112 54.5596 229.162 54.2667 229.311 54.0353C229.435 53.8425 229.621 53.6964 229.757 53.5117C230.18 52.9357 229.449 52.6826 229.584 52.1129C229.684 51.6894 229.665 50.8939 230.163 50.7117Z" fill="#FDDED3"/>
<path d="M198.283 50.7117C198.039 50.6227 197.755 50.7515 197.603 50.9611C197.45 51.1707 197.406 51.4412 197.406 51.7005C197.407 52.4357 197.717 53.1304 198.022 53.7996C198.136 54.0503 198.251 54.3034 198.423 54.5186C198.594 54.7338 198.829 54.9117 199.1 54.9577C199.129 54.9627 199.16 54.9658 199.187 54.9552C199.236 54.9359 199.258 54.8787 199.271 54.8277C199.335 54.5596 199.285 54.2667 199.136 54.0353C199.011 53.8425 198.826 53.6964 198.69 53.5117C198.267 52.9357 198.997 52.6826 198.863 52.1129C198.762 51.6894 198.781 50.8939 198.283 50.7117Z" fill="#FDDED3"/>
<path d="M237.359 163.965C236.115 154.708 234.413 150.303 234.413 148.174C234.413 146.88 234.243 143.798 234.107 139.899H214.222H194.336C194.2 143.798 194.03 146.879 194.03 148.174C194.03 150.303 192.328 154.708 191.084 163.965H237.359Z" fill="#525252"/>
<path d="M331.005 59.3524H290.465C284.74 59.3524 280.055 54.6679 280.055 48.9417V43.1177C280.055 37.3923 284.739 32.707 290.465 32.707H331.005C336.73 32.707 341.415 37.3915 341.415 43.1177V48.9417C341.415 54.6679 336.73 59.3524 331.005 59.3524Z" fill="#525252"/>
<path d="M308.041 58.1721L291.518 72.274L297.272 57.2566L308.041 58.1721Z" fill="#525252"/>
<path d="M329.289 40.2218H292.181C291.683 40.2218 291.275 39.8145 291.275 39.3164C291.275 38.8182 291.683 38.4109 292.181 38.4109H329.289C329.787 38.4109 330.195 38.8182 330.195 39.3164C330.196 39.8145 329.787 40.2218 329.289 40.2218Z" fill="#737373"/>
<path d="M329.289 44.2472H292.181C291.683 44.2472 291.275 43.8399 291.275 43.3418C291.275 42.8436 291.683 42.4363 292.181 42.4363H329.289C329.787 42.4363 330.195 42.8436 330.195 43.3418C330.196 43.8399 329.787 44.2472 329.289 44.2472Z" fill="#737373"/>
<path d="M329.289 48.2726H292.181C291.683 48.2726 291.275 47.8653 291.275 47.3671C291.275 46.869 291.683 46.4617 292.181 46.4617H329.289C329.787 46.4617 330.195 46.869 330.195 47.3671C330.196 47.8653 329.787 48.2726 329.289 48.2726Z" fill="#737373"/>
<path d="M317.293 52.2988H292.025C291.611 52.2988 291.273 51.9608 291.273 51.5473V51.2385C291.273 50.8251 291.611 50.4871 292.025 50.4871H317.293C317.706 50.4871 318.044 50.8251 318.044 51.2385V51.5473C318.044 51.9608 317.706 52.2988 317.293 52.2988Z" fill="#737373"/>
<path d="M275.305 68.8153V66.1328H267.983L256.602 71.642" stroke="#525252" strokeWidth="1.2439" strokeMiterlimit="10" strokeLinecap="round"/>
<path d="M275.305 81.6223V84.3041H267.983L256.602 78.7949" stroke="#525252" strokeWidth="1.2439" strokeMiterlimit="10" strokeLinecap="round"/>
<path d="M256.601 71.1711H252.252V79.3634H256.601V71.1711Z" stroke="#525252" strokeWidth="1.2439" strokeMiterlimit="10" strokeLinecap="round" strokeLinejoin="round"/>
<path d="M275.307 67.9458V82.5889" stroke="#525252" strokeWidth="3.10974" strokeMiterlimit="10" strokeLinecap="round"/>
<path d="M275.373 69.4829C274.317 69.6701 270.436 71.2536 270.436 71.2536C270.436 71.2536 271.048 77.8083 271.491 78.4209C271.741 78.7649 272.108 79.1138 272.697 79.3843L273.673 78.7941C274.253 78.1659 277.401 78.1659 277.401 78.1659L277.124 70.6572C276.425 69.8872 275.768 69.4201 275.373 69.4829Z" fill="#FCD7CB"/>
<path d="M153.131 68.8153V66.1328H160.452L171.834 71.642" stroke="#525252" strokeWidth="1.2439" strokeMiterlimit="10" strokeLinecap="round"/>
<path d="M153.131 81.6223V84.3041H160.452L171.834 78.7949" stroke="#525252" strokeWidth="1.2439" strokeMiterlimit="10" strokeLinecap="round"/>
<path d="M171.834 79.363H176.184V71.1707H171.834V79.363Z" stroke="#525252" strokeWidth="1.2439" strokeMiterlimit="10" strokeLinecap="round" strokeLinejoin="round"/>
<path d="M153.131 67.9458V82.5889" stroke="#525252" strokeWidth="3.10974" strokeMiterlimit="10" strokeLinecap="round"/>
<path d="M153.065 69.4829C154.12 69.6701 158.002 71.2536 158.002 71.2536C158.002 71.2536 157.389 77.8083 156.946 78.4209C156.696 78.7649 156.329 79.1138 155.741 79.3843L154.764 78.7941C154.185 78.1659 150.98 78.3351 150.98 78.3351L151.314 70.6578C152.012 69.8872 152.669 69.4201 153.065 69.4829Z" fill="#FCD7CB"/>
<path d="M175.121 72.5605L252.979 73.5271" stroke="#525252" strokeWidth="0.621949" strokeMiterlimit="10" strokeLinecap="round"/>
<path d="M253.124 75.2673L175.508 78.0698" stroke="#525252" strokeWidth="0.621949" strokeMiterlimit="10" strokeLinecap="round"/>
<path d="M175.121 74.1069C175.121 74.1069 244.909 75.9883 253.196 76.2116" stroke="#525252" strokeWidth="0.621949" strokeMiterlimit="10" strokeLinecap="round"/>
<path d="M253.158 77.9692C248.479 77.8915 180.831 76.7651 175.373 76.6743" stroke="#525252" strokeWidth="0.621949" strokeMiterlimit="10" strokeLinecap="round"/>
<path fillRule="evenodd" clipRule="evenodd" d="M10.2363 186.085V157.036C10.2363 156.49 10.6829 156.044 11.228 156.044H14.7021C15.248 156.044 15.6946 156.49 15.6946 157.036V186.085C15.6946 186.631 15.248 187.078 14.7021 187.078H11.228C10.6829 187.078 10.2363 186.631 10.2363 186.085Z" fill="#262626"/>
<path fillRule="evenodd" clipRule="evenodd" d="M5.84961 196.888V194.034C5.84961 193.586 6.21688 193.218 6.665 193.218H19.2662C19.7144 193.218 20.0816 193.586 20.0816 194.034V196.888C20.0816 197.337 19.7144 197.704 19.2662 197.704H6.665C6.21688 197.704 5.84961 197.337 5.84961 196.888Z" fill="#404040"/>
<path fillRule="evenodd" clipRule="evenodd" d="M5.84961 146.235V149.088C5.84961 149.536 6.21688 149.903 6.665 149.903H19.2662C19.7144 149.903 20.0816 149.536 20.0816 149.088V146.235C20.0816 145.786 19.7144 145.419 19.2662 145.419H6.665C6.21688 145.419 5.84961 145.786 5.84961 146.235Z" fill="#404040"/>
<path fillRule="evenodd" clipRule="evenodd" d="M0 149.805V157.311C0 158.491 0.965538 159.455 2.14512 159.455H23.7865C24.9661 159.455 25.9316 158.491 25.9316 157.311V149.805C25.9316 148.626 24.9661 147.661 23.7865 147.661H2.14512C0.965538 147.661 0 148.626 0 149.805Z" fill="#404040"/>
<path fillRule="evenodd" clipRule="evenodd" d="M0 193.315V185.811C0 184.632 0.965538 183.665 2.14512 183.665H23.7865C24.9661 183.665 25.9316 184.632 25.9316 185.811V193.315C25.9316 194.495 24.9661 195.46 23.7865 195.46H2.14512C0.965538 195.46 0 194.496 0 193.315Z" fill="#404040"/>
<path fillRule="evenodd" clipRule="evenodd" d="M2.9681 149.172C2.56155 149.172 2.23047 149.502 2.23047 149.909C2.23047 150.315 2.56078 150.646 2.9681 150.646H10.2789C10.6862 150.646 11.0158 150.315 11.0158 149.909C11.0158 149.502 10.6862 149.172 10.2789 149.172H2.9681Z" fill="#404040"/>
<path fillRule="evenodd" clipRule="evenodd" d="M2.9681 186.019C2.56155 186.019 2.23047 186.349 2.23047 186.755C2.23047 187.162 2.56078 187.493 2.9681 187.493H10.2789C10.6862 187.493 11.0158 187.162 11.0158 186.755C11.0158 186.349 10.6862 186.019 10.2789 186.019H2.9681Z" fill="#404040"/>
<defs>
<linearGradient id="paint0_linear_12380_189414" x1="221.537" y1="173.61" x2="221.537" y2="172.84" gradientUnits="userSpaceOnUse">
<stop stopColor="#FB923C"/>
<stop offset="1" stopColor="#F43F5E"/>
</linearGradient>
<linearGradient id="paint1_linear_12380_189414" x1="82.8846" y1="174.552" x2="90.5123" y2="174.552" gradientUnits="userSpaceOnUse">
<stop stopColor="#F43F5E"/>
<stop offset="1" stopColor="#FB923C"/>
</linearGradient>
<linearGradient id="paint2_linear_12380_189414" x1="95.8478" y1="173.597" x2="99.7102" y2="173.598" gradientUnits="userSpaceOnUse">
<stop stopColor="#F43F5E"/>
<stop offset="1" stopColor="#FB923C"/>
</linearGradient>
<linearGradient id="paint3_linear_12380_189414" x1="343.813" y1="173.758" x2="347.94" y2="173.758" gradientUnits="userSpaceOnUse">
<stop stopColor="#F43F5E"/>
<stop offset="1" stopColor="#FB923C"/>
</linearGradient>
<linearGradient id="paint4_linear_12380_189414" x1="94.6223" y1="173.322" x2="160.518" y2="173.732" gradientUnits="userSpaceOnUse">
<stop stopColor="#F43F5E"/>
<stop offset="1" stopColor="#FB923C"/>
</linearGradient>
</defs>
</svg>
