<svg width="114" height="114" viewBox="0 0 114 114" fill="none" xmlns="http://www.w3.org/2000/svg">
<g filter="url(#filter0_d_11702_2094)">
<circle cx="57" cy="53" r="42" fill="#171717"/>
</g>
<g filter="url(#filter1_dd_11702_2094)">
<circle cx="57" cy="53" r="35" fill="#171717"/>
</g>
<g clipPath="url(#clip0_11702_2094)">
<mask id="mask0_11702_2094" style="mask-type:luminance" maskUnits="userSpaceOnUse" x="37" y="33" width="40" height="40">
<path d="M37 33H77V73H37V33Z" fill="white"/>
<path fillRule="evenodd" clipRule="evenodd" d="M64.5323 58.874L66.863 50.0032L63.4569 52.1724C62.7777 52.6055 61.9558 52.7549 61.1676 52.5887C60.3794 52.4224 59.6879 51.9537 59.2415 51.2832L57 47.9155L54.7569 51.2847C54.3102 51.955 53.6186 52.4234 52.8305 52.5893C52.0423 52.7553 51.2205 52.6056 50.5415 52.1724L47.1369 50.0032L49.4677 58.874H64.5323ZM47.963 48.7047C46.783 47.9524 45.2923 49.0401 45.6477 50.394L47.98 59.2647C48.0663 59.5935 48.2591 59.8845 48.5282 60.0921C48.7974 60.2997 49.1277 60.4124 49.4677 60.4124H64.5323C64.8722 60.4124 65.2025 60.2997 65.4717 60.0921C65.7408 59.8845 65.9336 59.5935 66.02 59.2647L68.3523 50.394C68.7061 49.0401 67.2169 47.954 66.0369 48.7047L62.6307 50.874C62.2913 51.0906 61.8805 51.1656 61.4864 51.0828C61.0924 50.9999 60.7465 50.7659 60.523 50.4309L58.28 47.0617C58.1395 46.851 57.9491 46.6782 57.7258 46.5587C57.5025 46.4392 57.2532 46.3767 57 46.3767C56.7467 46.3767 56.4974 46.4392 56.2741 46.5587C56.0508 46.6782 55.8605 46.851 55.72 47.0617L53.4769 50.4309C53.2537 50.7661 52.9079 51.0005 52.5138 51.0836C52.1198 51.1668 51.7088 51.092 51.3692 50.8755L47.963 48.7047Z" fill="black"/>
<path d="M58.4522 43.6847C58.4526 44.0703 58.2998 44.4403 58.0274 44.7132C57.7551 44.9861 57.3854 45.1397 56.9998 45.1401C56.6143 45.1405 56.2443 44.9877 55.9714 44.7154C55.6984 44.443 55.5449 44.0734 55.5445 43.6878C55.5441 43.3022 55.6968 42.9323 55.9692 42.6593C56.2416 42.3864 56.6112 42.2328 56.9968 42.2324C57.3824 42.232 57.7523 42.3848 58.0252 42.6572C58.2982 42.9295 58.4517 43.2991 58.4522 43.6847ZM70.0768 46.594C70.0769 46.7849 70.0394 46.974 69.9664 47.1504C69.8934 47.3268 69.7864 47.4871 69.6515 47.6222C69.5166 47.7573 69.3563 47.8645 69.18 47.9376C69.0036 48.0108 68.8146 48.0485 68.6237 48.0486C68.4328 48.0487 68.2437 48.0112 68.0673 47.9382C67.8908 47.8652 67.7305 47.7582 67.5954 47.6233C67.4604 47.4884 67.3532 47.3282 67.28 47.1518C67.2069 46.9755 67.1692 46.7864 67.1691 46.5955C67.1691 46.2099 67.3223 45.8401 67.5949 45.5675C67.8675 45.2948 68.2373 45.1417 68.6229 45.1417C69.0085 45.1417 69.3783 45.2948 69.6509 45.5675C69.9236 45.8401 70.0768 46.2084 70.0768 46.594ZM46.8291 46.594C46.8293 46.9795 46.6763 47.3494 46.4038 47.6222C46.1313 47.895 45.7616 48.0484 45.376 48.0486C45.1851 48.0487 44.996 48.0112 44.8196 47.9382C44.6432 47.8652 44.4828 47.7582 44.3478 47.6233C44.075 47.3508 43.9216 46.9811 43.9214 46.5955C43.9214 46.2099 44.0746 45.8401 44.3472 45.5675C44.6199 45.2948 44.9896 45.1417 45.3752 45.1417C45.7608 45.1417 46.1306 45.2948 46.4033 45.5675C46.6759 45.8401 46.8291 46.2084 46.8291 46.594Z" fill="black"/>
<path fillRule="evenodd" clipRule="evenodd" d="M49.6924 62.2309C49.6924 62.0269 49.7734 61.8312 49.9177 61.687C50.0619 61.5427 50.2576 61.4617 50.4616 61.4617H63.9032C64.1072 61.4617 64.3028 61.5427 64.4471 61.687C64.5913 61.8312 64.6724 62.0269 64.6724 62.2309C64.6724 62.4349 64.5913 62.6306 64.4471 62.7748C64.3028 62.9191 64.1072 63.0001 63.9032 63.0001H50.4616C50.2576 63.0001 50.0619 62.9191 49.9177 62.7748C49.7734 62.6306 49.6924 62.4349 49.6924 62.2309Z" fill="black"/>
</mask>
<g mask="url(#mask0_11702_2094)">
<path d="M57 73C68.0457 73 77 64.0457 77 53C77 41.9543 68.0457 33 57 33C45.9543 33 37 41.9543 37 53C37 64.0457 45.9543 73 57 73Z" fill="url(#paint0_linear_11702_2094)"/>
</g>
</g>
<defs>
<filter id="filter0_d_11702_2094" x="0" y="0" width="114" height="114" filterUnits="userSpaceOnUse" colorInterpolationFilters="sRGB">
<feFlood floodOpacity="0" result="BackgroundImageFix"/>
<feColorMatrix in="SourceAlpha" type="matrix" values="0 0 0 0 0 0 0 0 0 0 0 0 0 0 0 0 0 0 127 0" result="hardAlpha"/>
<feOffset dy="4"/>
<feGaussianBlur stdDeviation="7.5"/>
<feComposite in2="hardAlpha" operator="out"/>
<feColorMatrix type="matrix" values="0 0 0 0 0.968627 0 0 0 0 0.396078 0 0 0 0 0.305882 0 0 0 0.24 0"/>
<feBlend mode="normal" in2="BackgroundImageFix" result="effect1_dropShadow_11702_2094"/>
<feBlend mode="normal" in="SourceGraphic" in2="effect1_dropShadow_11702_2094" result="shape"/>
</filter>
<filter id="filter1_dd_11702_2094" x="17.2" y="10.8" width="79.6" height="84.4" filterUnits="userSpaceOnUse" colorInterpolationFilters="sRGB">
<feFlood floodOpacity="0" result="BackgroundImageFix"/>
<feColorMatrix in="SourceAlpha" type="matrix" values="0 0 0 0 0 0 0 0 0 0 0 0 0 0 0 0 0 0 127 0" result="hardAlpha"/>
<feOffset dy="2.4"/>
<feGaussianBlur stdDeviation="2.4"/>
<feComposite in2="hardAlpha" operator="out"/>
<feColorMatrix type="matrix" values="0 0 0 0 0.968627 0 0 0 0 0.396078 0 0 0 0 0.305882 0 0 0 0.25 0"/>
<feBlend mode="normal" in2="BackgroundImageFix" result="effect1_dropShadow_11702_2094"/>
<feColorMatrix in="SourceAlpha" type="matrix" values="0 0 0 0 0 0 0 0 0 0 0 0 0 0 0 0 0 0 127 0" result="hardAlpha"/>
<feOffset dy="-2.4"/>
<feGaussianBlur stdDeviation="2.4"/>
<feComposite in2="hardAlpha" operator="out"/>
<feColorMatrix type="matrix" values="0 0 0 0 0.968627 0 0 0 0 0.396078 0 0 0 0 0.305882 0 0 0 0.25 0"/>
<feBlend mode="normal" in2="effect1_dropShadow_11702_2094" result="effect2_dropShadow_11702_2094"/>
<feBlend mode="normal" in="SourceGraphic" in2="effect2_dropShadow_11702_2094" result="shape"/>
</filter>
<linearGradient id="paint0_linear_11702_2094" x1="35.4615" y1="58.5319" x2="78.3463" y2="58.5389" gradientUnits="userSpaceOnUse">
<stop stopColor="#F43F5E"/>
<stop offset="1" stopColor="#FB923C"/>
</linearGradient>
<clipPath id="clip0_11702_2094">
<rect width="40" height="40" fill="white" transform="translate(37 33)"/>
</clipPath>
</defs>
</svg>
