<svg width="173" height="174" viewBox="0 0 173 174" fill="none" xmlns="http://www.w3.org/2000/svg">
<g style="mix-blend-mode:luminosity">
<path d="M160.579 88.7223L160.951 88.1037L160.601 87.4725L159.316 85.1532L158.222 85.7592L155.651 81.1206L156.744 80.5146L154.173 75.876L153.08 76.482L150.509 71.8434L151.602 71.2374L149.031 66.5988L147.937 67.2048L145.366 62.5662L146.459 61.9602L143.888 57.3216L142.795 57.9276L140.224 53.289L141.317 52.683L138.746 48.0444L137.652 48.6504L135.081 44.0118L136.175 43.4058L133.603 38.7671L132.51 39.3732L129.939 34.7346L131.032 34.1285L128.461 29.4899L127.368 30.0959L124.796 25.4573L125.89 24.8513L124.604 22.532L124.254 21.9008L123.533 21.8882L120.881 21.8419L120.859 23.0917L115.557 22.9992L115.578 21.7494L110.276 21.6568L110.254 22.9066L104.951 22.8141L104.973 21.5643L99.6701 21.4717L99.6483 22.7215L94.3456 22.6289L94.3674 21.3791L89.0646 21.2866L89.0428 22.5364L83.74 22.4438L83.7618 21.194L78.4591 21.1015L78.4373 22.3513L73.1345 22.2587L73.1563 21.0089L67.8536 20.9163L67.8317 22.1661L62.529 22.0736L62.5508 20.8238L57.248 20.7312L57.2262 21.981L51.9235 21.8885L51.9453 20.6387L49.2939 20.5924L48.5723 20.5798L48.2006 21.1984L46.8348 23.4714L47.9063 24.1152L45.1748 28.6613L44.1033 28.0175L41.3718 32.5635L42.4432 33.2073L39.7117 37.7533L38.6402 37.1096L35.9087 41.6556L36.9801 42.2994L34.2486 46.8454L33.1771 46.2016L30.4456 50.7477L31.5171 51.3915L28.7855 55.9375L27.7141 55.2937L24.9825 59.8398L26.054 60.4836L23.3224 65.0296L22.251 64.3858L19.5194 68.9319L20.5909 69.5757L17.8594 74.1217L16.7879 73.4779L14.0564 78.024L15.1278 78.6678L12.3963 83.2138L11.3248 82.57L9.95903 84.8431L9.58734 85.4617L9.93722 86.0929L11.2228 88.4122L12.3161 87.8062L14.8873 92.4448L13.794 93.0508L16.3653 97.6894L17.4586 97.0834L20.0298 101.722L18.9365 102.328L21.5077 106.967L22.601 106.361L25.1722 110.999L24.0789 111.605L26.6502 116.244L27.7434 115.638L30.3147 120.276L29.2214 120.882L31.7926 125.521L32.8859 124.915L35.4571 129.554L34.3638 130.16L36.9351 134.798L38.0283 134.192L40.5995 138.831L39.5063 139.437L42.0775 144.075L43.1708 143.469L45.742 148.108L44.6487 148.714L45.9343 151.033L46.2842 151.665L47.0058 151.677L49.6572 151.723L49.679 150.474L54.9818 150.566L54.9599 151.816L60.2627 151.909L60.2845 150.659L65.5873 150.751L65.5655 152.001L70.8682 152.094L70.89 150.844L76.1928 150.936L76.171 152.186L81.4738 152.279L81.4956 151.029L86.7983 151.122L86.7765 152.371L92.0793 152.464L92.1011 151.214L97.4039 151.307L97.382 152.556L102.685 152.649L102.707 151.399L108.009 151.492L107.988 152.742L113.29 152.834L113.312 151.584L118.615 151.677L118.593 152.927L121.244 152.973L121.966 152.986L122.338 152.367L123.704 150.094L122.632 149.45L125.364 144.904L126.435 145.548L129.167 141.002L128.095 140.358L130.827 135.812L131.898 136.456L134.63 131.91L133.558 131.266L136.29 126.72L137.361 127.364L140.093 122.818L139.021 122.174L141.753 117.628L142.824 118.272L145.556 113.726L144.484 113.082L147.216 108.536L148.287 109.18L151.019 104.634L149.947 103.99L152.679 99.4437L153.75 100.087L156.482 95.5414L155.411 94.8976L158.142 90.3516L159.214 90.9954L160.579 88.7223Z" fill="url(#paint0_linear_4953_15464)"/>
<path d="M160.579 88.7223L160.951 88.1037L160.601 87.4725L159.316 85.1532L158.222 85.7592L155.651 81.1206L156.744 80.5146L154.173 75.876L153.08 76.482L150.509 71.8434L151.602 71.2374L149.031 66.5988L147.937 67.2048L145.366 62.5662L146.459 61.9602L143.888 57.3216L142.795 57.9276L140.224 53.289L141.317 52.683L138.746 48.0444L137.652 48.6504L135.081 44.0118L136.175 43.4058L133.603 38.7671L132.51 39.3732L129.939 34.7346L131.032 34.1285L128.461 29.4899L127.368 30.0959L124.796 25.4573L125.89 24.8513L124.604 22.532L124.254 21.9008L123.533 21.8882L120.881 21.8419L120.859 23.0917L115.557 22.9992L115.578 21.7494L110.276 21.6568L110.254 22.9066L104.951 22.8141L104.973 21.5643L99.6701 21.4717L99.6483 22.7215L94.3456 22.6289L94.3674 21.3791L89.0646 21.2866L89.0428 22.5364L83.74 22.4438L83.7618 21.194L78.4591 21.1015L78.4373 22.3513L73.1345 22.2587L73.1563 21.0089L67.8536 20.9163L67.8317 22.1661L62.529 22.0736L62.5508 20.8238L57.248 20.7312L57.2262 21.981L51.9235 21.8885L51.9453 20.6387L49.2939 20.5924L48.5723 20.5798L48.2006 21.1984L46.8348 23.4714L47.9063 24.1152L45.1748 28.6613L44.1033 28.0175L41.3718 32.5635L42.4432 33.2073L39.7117 37.7533L38.6402 37.1096L35.9087 41.6556L36.9801 42.2994L34.2486 46.8454L33.1771 46.2016L30.4456 50.7477L31.5171 51.3915L28.7855 55.9375L27.7141 55.2937L24.9825 59.8398L26.054 60.4836L23.3224 65.0296L22.251 64.3858L19.5194 68.9319L20.5909 69.5757L17.8594 74.1217L16.7879 73.4779L14.0564 78.024L15.1278 78.6678L12.3963 83.2138L11.3248 82.57L9.95903 84.8431L9.58734 85.4617L9.93722 86.0929L11.2228 88.4122L12.3161 87.8062L14.8873 92.4448L13.794 93.0508L16.3653 97.6894L17.4586 97.0834L20.0298 101.722L18.9365 102.328L21.5077 106.967L22.601 106.361L25.1722 110.999L24.0789 111.605L26.6502 116.244L27.7434 115.638L30.3147 120.276L29.2214 120.882L31.7926 125.521L32.8859 124.915L35.4571 129.554L34.3638 130.16L36.9351 134.798L38.0283 134.192L40.5995 138.831L39.5063 139.437L42.0775 144.075L43.1708 143.469L45.742 148.108L44.6487 148.714L45.9343 151.033L46.2842 151.665L47.0058 151.677L49.6572 151.723L49.679 150.474L54.9818 150.566L54.9599 151.816L60.2627 151.909L60.2845 150.659L65.5873 150.751L65.5655 152.001L70.8682 152.094L70.89 150.844L76.1928 150.936L76.171 152.186L81.4738 152.279L81.4956 151.029L86.7983 151.122L86.7765 152.371L92.0793 152.464L92.1011 151.214L97.4039 151.307L97.382 152.556L102.685 152.649L102.707 151.399L108.009 151.492L107.988 152.742L113.29 152.834L113.312 151.584L118.615 151.677L118.593 152.927L121.244 152.973L121.966 152.986L122.338 152.367L123.704 150.094L122.632 149.45L125.364 144.904L126.435 145.548L129.167 141.002L128.095 140.358L130.827 135.812L131.898 136.456L134.63 131.91L133.558 131.266L136.29 126.72L137.361 127.364L140.093 122.818L139.021 122.174L141.753 117.628L142.824 118.272L145.556 113.726L144.484 113.082L147.216 108.536L148.287 109.18L151.019 104.634L149.947 103.99L152.679 99.4437L153.75 100.087L156.482 95.5414L155.411 94.8976L158.142 90.3516L159.214 90.9954L160.579 88.7223Z" stroke="#A3A3A3" strokeWidth="2.5" stroke-dasharray="5 5"/>
</g>
<g style="mix-blend-mode:luminosity">
<path d="M63.7497 58.9141V107.672H73.6247V86.7756H93.3747V107.672H103.25V58.9141H93.3747V79.8102H73.6247V58.9141H63.7497ZM53.8747 93.741C53.8747 94.6647 54.2215 95.5505 54.8388 96.2037C55.4561 96.8568 56.2933 97.2237 57.1663 97.2237H60.458V69.3622H57.1663C56.2933 69.3622 55.4561 69.7291 54.8388 70.3822C54.2215 71.0353 53.8747 71.9212 53.8747 72.8448V79.8102H50.583V86.7756H53.8747V93.741ZM113.125 72.8448C113.125 71.9212 112.778 71.0353 112.161 70.3822C111.543 69.7291 110.706 69.3622 109.833 69.3622H106.541V97.2237H109.833C110.706 97.2237 111.543 96.8568 112.161 96.2037C112.778 95.5505 113.125 94.6647 113.125 93.741V86.7756H116.416V79.8102H113.125V72.8448Z" fill="url(#paint1_linear_4953_15464)"/>
</g>
<defs>
<linearGradient id="paint0_linear_4953_15464" x1="9.79143" y1="156.472" x2="20.8056" y2="3.74374" gradientUnits="userSpaceOnUse">
<stop stopColor="#E3206D"/>
<stop offset="1" stopColor="#F16A33"/>
</linearGradient>
<linearGradient id="paint1_linear_4953_15464" x1="50.583" y1="58.9141" x2="69.8577" y2="121.693" gradientUnits="userSpaceOnUse">
<stop stopColor="#E3E3E3" stop-opacity="0.9"/>
<stop offset="1" stopColor="#C16D6D" stop-opacity="0.8"/>
</linearGradient>
</defs>
</svg>
