<svg width="37" height="36" viewBox="0 0 37 36" fill="none" xmlns="http://www.w3.org/2000/svg">
<g clipPath="url(#clip0_6627_38891)">
<path d="M8.86719 10.2656C9.91391 10.2656 10.7656 9.41391 10.7656 8.36719C10.7656 7.32047 9.91391 6.46875 8.86719 6.46875C7.82047 6.46875 6.96875 7.32047 6.96875 8.36719C6.96875 9.41391 7.82047 10.2656 8.86719 10.2656Z" fill="#D4D4D4"/>
<path d="M9.07731 18.8184L8.86719 18.9538L8.65706 18.8184C8.51741 18.7284 6.61709 17.4882 4.75931 15.5546C2.88083 13.5994 1.16667 11.0601 1.16667 8.36719C1.16667 4.12167 4.62167 0.666667 8.86719 0.666667C13.1127 0.666667 16.5677 4.12167 16.5677 8.36719C16.5677 11.0601 14.8535 13.5994 12.9751 15.5546C11.1173 17.4882 9.21696 18.7284 9.07731 18.8184ZM13.5417 8.36719C13.5417 5.7891 11.4453 3.69271 8.86719 3.69271C6.2891 3.69271 4.19271 5.7891 4.19271 8.36719C4.19271 10.9453 6.2891 13.0417 8.86719 13.0417C11.4453 13.0417 13.5417 10.9453 13.5417 8.36719Z" fill="#D4D4D4" stroke="#D4D4D4" strokeWidth="1.33333"/>
<path fillRule="evenodd" clipRule="evenodd" d="M26.1929 22.7031H31.2767C31.8447 22.7031 32.3095 23.1679 32.3095 23.7358V26.0549H30.8741V34.7705C30.8741 34.9641 30.7162 35.1221 30.5225 35.1221C25.7839 35.1221 31.6857 35.1221 26.9471 35.1221C26.7534 35.1221 26.5955 34.9641 26.5955 34.7705V26.0549H25.1602V23.7358C25.1602 23.1678 25.6249 22.7031 26.1929 22.7031Z" fill="#D4D4D4"/>
<path d="M28.7358 21.6082C29.6642 21.6082 30.4168 20.8556 30.4168 19.9272C30.4168 18.9987 29.6642 18.2461 28.7358 18.2461C27.8073 18.2461 27.0547 18.9987 27.0547 19.9272C27.0547 20.8556 27.8073 21.6082 28.7358 21.6082Z" fill="#D4D4D4"/>
<path fillRule="evenodd" clipRule="evenodd" d="M22.4493 22.125H22.9406C23.3279 22.125 23.6439 22.4409 23.6439 22.8282V25.8669C23.6439 26.2542 23.3279 26.5701 22.9406 26.5701H22.4493C22.062 26.5701 21.7461 26.2542 21.7461 25.8669V22.8282C21.7461 22.4409 22.062 22.125 22.4493 22.125ZM34.6641 22.125H35.1554C35.5427 22.125 35.8586 22.4409 35.8586 22.8282V25.8669C35.8586 26.2542 35.5427 26.5701 35.1554 26.5701H34.6641C34.2768 26.5701 33.9608 26.2542 33.9608 25.8669V22.8282C33.9608 22.4409 34.2768 22.125 34.6641 22.125Z" fill="#D4D4D4"/>
<path fillRule="evenodd" clipRule="evenodd" d="M31.5918 23.332C31.197 23.332 30.8741 23.655 30.8741 24.0497V26.0522C30.8741 26.4469 31.197 26.7699 31.5918 26.7699C31.9865 26.7699 32.3095 26.4469 32.3095 26.0522V24.0497C32.3095 23.655 31.9865 23.332 31.5918 23.332ZM25.8778 23.332C26.2726 23.332 26.5955 23.655 26.5955 24.0497V26.0522C26.5955 26.4469 26.2726 26.7699 25.8778 26.7699C25.4831 26.7699 25.1602 26.4469 25.1602 26.0522V24.0497C25.1602 23.655 25.4831 23.332 25.8778 23.332Z" fill="#D4D4D4"/>
<mask id="path-7-inside-1_6627_38891" fill="white">
<path fillRule="evenodd" clipRule="evenodd" d="M32.0643 26.0539C32.0643 26.3141 31.8525 26.5254 31.5928 26.5254C31.3314 26.5254 31.1197 26.3141 31.1197 26.0539V24.0514C31.1197 23.7912 31.3314 23.5796 31.5928 23.5796C31.8525 23.5796 32.0643 23.7912 32.0643 24.0514V26.0539ZM30.6284 34.8749H28.9807V29.7368C28.9807 29.6012 28.8715 29.4909 28.7342 29.4909C28.5986 29.4909 28.4894 29.6012 28.4894 29.7368V34.8749H26.8417V24.5917H30.6284V34.8749ZM25.8789 26.5254C25.6175 26.5254 25.4074 26.3141 25.4074 26.0539V24.0514C25.4074 23.7911 25.6175 23.5796 25.8789 23.5796C26.1387 23.5796 26.3504 23.7912 26.3504 24.0514V26.0539C26.3504 26.3141 26.1387 26.5254 25.8789 26.5254ZM31.2768 22.9481H26.1932C26.0212 22.9481 25.8607 23.0041 25.7317 23.0987C25.7797 23.0912 25.8276 23.0874 25.8789 23.0874C26.41 23.0874 26.8417 23.5198 26.8417 24.0514V24.0995H30.6284V24.0514C30.6284 23.5198 31.0601 23.0874 31.5928 23.0874C31.6424 23.0874 31.6904 23.0912 31.7384 23.0987C31.6094 23.0041 31.4506 22.9481 31.2768 22.9481ZM23.3991 25.8651C23.3991 26.1172 23.194 26.3222 22.9409 26.3222H22.4512C22.1981 26.3222 21.993 26.1172 21.993 25.8651V22.8262C21.993 22.5741 22.1981 22.3691 22.4512 22.3691H22.9409C23.194 22.3691 23.3991 22.5741 23.3991 22.8262L23.3991 25.8651ZM34.2082 22.8262C34.2082 22.5741 34.4134 22.3691 34.6648 22.3691H35.1561C35.4076 22.3691 35.6144 22.5741 35.6144 22.8262V25.8651C35.6144 26.1172 35.4076 26.3222 35.1561 26.3222H34.6648C34.4134 26.3222 34.2082 26.1172 34.2082 25.8651V22.8262ZM33.7152 24.5917V25.8651C33.7152 26.3885 34.142 26.8143 34.6648 26.8143H35.1561C35.6806 26.8143 36.1057 26.3885 36.1057 25.8651V22.8262C36.1057 22.3026 35.6806 21.877 35.1561 21.877H34.6648C34.1421 21.877 33.7152 22.3026 33.7152 22.8262V24.0995H32.5556V23.7351C32.5556 23.0297 31.9816 22.456 31.2768 22.456H26.1932C25.4885 22.456 24.9144 23.0297 24.9144 23.7351V24.0995H23.8904V22.8262C23.8904 22.3026 23.4653 21.877 22.9409 21.877H22.4512C21.9268 21.877 21.5 22.3026 21.5 22.8262V25.8651C21.5 26.3885 21.9268 26.8143 22.4512 26.8143H22.9409C23.4653 26.8143 23.8904 26.3885 23.8904 25.8651V24.5917H24.9144V26.0539C24.9144 26.5851 25.3462 27.0175 25.8789 27.0175C26.0493 27.0175 26.2097 26.9725 26.3504 26.8938V35.121C26.3504 35.2572 26.4596 35.3672 26.5952 35.3672H30.8748C31.0105 35.3672 31.1197 35.2572 31.1197 35.121V26.8938C31.2603 26.9725 31.4207 27.0175 31.5928 27.0175C32.1238 27.0175 32.5556 26.5851 32.5556 26.0539V24.5917H33.7152ZM28.7342 18.4922C29.5266 18.4922 30.1701 19.1358 30.1701 19.9273C30.1701 20.7182 29.5266 21.3623 28.7342 21.3623C27.9435 21.3623 27.2999 20.7182 27.2999 19.9273C27.2999 19.1358 27.9435 18.4922 28.7342 18.4922ZM28.7342 21.8545C29.7979 21.8545 30.6615 20.9896 30.6615 19.9273C30.6615 18.8644 29.7979 18 28.7342 18C27.6722 18 26.8086 18.8644 26.8086 19.9272C26.8086 20.9896 27.6722 21.8545 28.7342 21.8545Z"/>
</mask>
<path d="M30.6284 34.8749V37.8749H33.6284V34.8749H30.6284ZM28.9807 34.8749H25.9807V37.8749H28.9807V34.8749ZM28.4894 34.8749V37.8749H31.4894V34.8749H28.4894ZM26.8417 34.8749H23.8417V37.8749H26.8417V34.8749ZM26.8417 24.5917V21.5917H23.8417V24.5917H26.8417ZM30.6284 24.5917H33.6284V21.5917H30.6284V24.5917ZM25.7317 23.0987L23.9577 20.6794L26.1921 26.0631L25.7317 23.0987ZM26.8417 24.0995H23.8417V27.0995H26.8417V24.0995ZM30.6284 24.0995V27.0995H33.6284V24.0995H30.6284ZM31.7384 23.0987L31.278 26.0631L33.5123 20.6794L31.7384 23.0987ZM23.3991 25.8651H26.3991V25.8651L23.3991 25.8651ZM23.3991 22.8262H20.3991V22.8263L23.3991 22.8262ZM33.7152 24.5917H36.7152V21.5917H33.7152V24.5917ZM33.7152 24.0995V27.0995H36.7152V24.0995H33.7152ZM32.5556 24.0995H29.5556V27.0995H32.5556V24.0995ZM24.9144 24.0995V27.0995H27.9144V24.0995H24.9144ZM23.8904 24.0995H20.8904V27.0995H23.8904V24.0995ZM23.8904 24.5917V21.5917H20.8904V24.5917H23.8904ZM24.9144 24.5917H27.9144V21.5917H24.9144V24.5917ZM26.3504 26.8938H29.3504V21.7754L24.8846 24.2762L26.3504 26.8938ZM31.1197 26.8938L32.5855 24.2762L28.1197 21.7754V26.8938H31.1197ZM32.5556 24.5917V21.5917H29.5556V24.5917H32.5556ZM29.0643 26.0539C29.0643 24.6552 30.1977 23.5254 31.5928 23.5254V29.5254C33.5073 29.5254 35.0643 27.973 35.0643 26.0539H29.0643ZM31.5928 23.5254C32.9794 23.5254 34.1197 24.6484 34.1197 26.0539H28.1197C28.1197 27.9798 29.6834 29.5254 31.5928 29.5254V23.5254ZM34.1197 26.0539V24.0514H28.1197V26.0539H34.1197ZM34.1197 24.0514C34.1197 25.4543 32.982 26.5796 31.5928 26.5796V20.5796C29.6808 20.5796 28.1197 22.1281 28.1197 24.0514H34.1197ZM31.5928 26.5796C30.195 26.5796 29.0643 25.4474 29.0643 24.0514H35.0643C35.0643 22.1351 33.5101 20.5796 31.5928 20.5796V26.5796ZM29.0643 24.0514V26.0539H35.0643V24.0514H29.0643ZM30.6284 31.8749H28.9807V37.8749H30.6284V31.8749ZM31.9807 34.8749V29.7368H25.9807V34.8749H31.9807ZM31.9807 29.7368C31.9807 27.9493 30.5333 26.4909 28.7342 26.4909V32.4909C27.2096 32.4909 25.9807 31.253 25.9807 29.7368H31.9807ZM28.7342 26.4909C26.9236 26.4909 25.4894 27.9625 25.4894 29.7368H31.4894C31.4894 31.2398 30.2736 32.4909 28.7342 32.4909V26.4909ZM25.4894 29.7368V34.8749H31.4894V29.7368H25.4894ZM28.4894 31.8749H26.8417V37.8749H28.4894V31.8749ZM29.8417 34.8749V24.5917H23.8417V34.8749H29.8417ZM26.8417 27.5917H30.6284V21.5917H26.8417V27.5917ZM27.6284 24.5917V34.8749H33.6284V24.5917H27.6284ZM25.8789 23.5254C27.2792 23.5254 28.4074 24.6621 28.4074 26.0539H22.4074C22.4074 27.9661 23.9559 29.5254 25.8789 29.5254V23.5254ZM28.4074 26.0539V24.0514H22.4074V26.0539H28.4074ZM28.4074 24.0514C28.4074 25.4406 27.2818 26.5796 25.8789 26.5796V20.5796C23.9532 20.5796 22.4074 22.1417 22.4074 24.0514H28.4074ZM25.8789 26.5796C24.4811 26.5796 23.3504 25.4473 23.3504 24.0514H29.3504C29.3504 22.1351 27.7962 20.5796 25.8789 20.5796V26.5796ZM23.3504 24.0514V26.0539H29.3504V24.0514H23.3504ZM23.3504 26.0539C23.3504 24.6552 24.4838 23.5254 25.8789 23.5254V29.5254C27.7935 29.5254 29.3504 27.973 29.3504 26.0539H23.3504ZM31.2768 19.9481H26.1932V25.9481H31.2768V19.9481ZM26.1932 19.9481C25.3657 19.9481 24.587 20.2179 23.9577 20.6794L27.5056 25.518C27.1344 25.7902 26.6766 25.9481 26.1932 25.9481V19.9481ZM26.1921 26.0631C26.0874 26.0794 25.9814 26.0874 25.8789 26.0874V20.0874C25.6739 20.0874 25.472 20.103 25.2713 20.1342L26.1921 26.0631ZM25.8789 26.0874C24.7494 26.0874 23.8417 25.173 23.8417 24.0514H29.8417C29.8417 21.8667 28.0705 20.0874 25.8789 20.0874V26.0874ZM23.8417 24.0514V24.0995H29.8417V24.0514H23.8417ZM26.8417 27.0995H30.6284V21.0995H26.8417V27.0995ZM33.6284 24.0995V24.0514H27.6284V24.0995H33.6284ZM33.6284 24.0514C33.6284 25.1763 32.7173 26.0874 31.5928 26.0874V20.0874C29.4029 20.0874 27.6284 21.8634 27.6284 24.0514H33.6284ZM31.5928 26.0874C31.4861 26.0874 31.3801 26.079 31.278 26.0631L32.1988 20.1342C32.0007 20.1034 31.7988 20.0874 31.5928 20.0874V26.0874ZM33.5123 20.6794C32.8858 20.2199 32.1093 19.9481 31.2768 19.9481V25.9481C30.7918 25.9481 30.333 25.7882 29.9644 25.518L33.5123 20.6794ZM20.3991 25.8651C20.3991 24.4547 21.5428 23.3222 22.9409 23.3222V29.3222C24.8452 29.3222 26.3991 27.7798 26.3991 25.8651H20.3991ZM22.9409 23.3222H22.4512V29.3222H22.9409V23.3222ZM22.4512 23.3222C23.8493 23.3222 24.993 24.4547 24.993 25.8651H18.993C18.993 27.7798 20.547 29.3222 22.4512 29.3222V23.3222ZM24.993 25.8651V22.8262H18.993V25.8651H24.993ZM24.993 22.8262C24.993 24.2367 23.8493 25.3691 22.4512 25.3691V19.3691C20.547 19.3691 18.993 20.9116 18.993 22.8262H24.993ZM22.4512 25.3691H22.9409V19.3691H22.4512V25.3691ZM22.9409 25.3691C21.5427 25.3691 20.3991 24.2365 20.3991 22.8262H26.3991C26.3991 20.9117 24.8453 19.3691 22.9409 19.3691V25.3691ZM20.3991 22.8263L20.3991 25.8652L26.3991 25.8651L26.3991 22.8262L20.3991 22.8263ZM37.2082 22.8262C37.2082 24.2296 36.0716 25.3691 34.6648 25.3691V19.3691C32.7552 19.3691 31.2082 20.9186 31.2082 22.8262H37.2082ZM34.6648 25.3691H35.1561V19.3691H34.6648V25.3691ZM35.1561 25.3691C33.7635 25.3691 32.6144 24.2437 32.6144 22.8262H38.6144C38.6144 20.9045 37.0517 19.3691 35.1561 19.3691V25.3691ZM32.6144 22.8262V25.8651H38.6144V22.8262H32.6144ZM32.6144 25.8651C32.6144 24.4476 33.7635 23.3222 35.1561 23.3222V29.3222C37.0517 29.3222 38.6144 27.7868 38.6144 25.8651H32.6144ZM35.1561 23.3222H34.6648V29.3222H35.1561V23.3222ZM34.6648 23.3222C36.0716 23.3222 37.2082 24.4617 37.2082 25.8651H31.2082C31.2082 27.7727 32.7552 29.3222 34.6648 29.3222V23.3222ZM37.2082 25.8651V22.8262H31.2082V25.8651H37.2082ZM30.7152 24.5917V25.8651H36.7152V24.5917H30.7152ZM30.7152 25.8651C30.7152 28.0481 32.4879 29.8143 34.6648 29.8143V23.8143C35.7962 23.8143 36.7152 24.7289 36.7152 25.8651H30.7152ZM34.6648 29.8143H35.1561V23.8143H34.6648V29.8143ZM35.1561 29.8143C37.3381 29.8143 39.1057 28.0447 39.1057 25.8651H33.1057C33.1057 24.7323 34.023 23.8143 35.1561 23.8143V29.8143ZM39.1057 25.8651V22.8262H33.1057V25.8651H39.1057ZM39.1057 22.8262C39.1057 20.6461 37.3377 18.877 35.1561 18.877V24.877C34.0234 24.877 33.1057 23.9592 33.1057 22.8262H39.1057ZM35.1561 18.877H34.6648V24.877H35.1561V18.877ZM34.6648 18.877C32.4884 18.877 30.7152 20.6426 30.7152 22.8262H36.7152C36.7152 23.9627 35.7958 24.877 34.6648 24.877V18.877ZM30.7152 22.8262V24.0995H36.7152V22.8262H30.7152ZM33.7152 21.0995H32.5556V27.0995H33.7152V21.0995ZM35.5556 24.0995V23.7351H29.5556V24.0995H35.5556ZM35.5556 23.7351C35.5556 21.3728 33.6384 19.456 31.2768 19.456V25.456C30.3247 25.456 29.5556 24.6866 29.5556 23.7351H35.5556ZM31.2768 19.456H26.1932V25.456H31.2768V19.456ZM26.1932 19.456C23.8317 19.456 21.9144 21.3728 21.9144 23.7351H27.9144C27.9144 24.6866 27.1453 25.456 26.1932 25.456V19.456ZM21.9144 23.7351V24.0995H27.9144V23.7351H21.9144ZM24.9144 21.0995H23.8904V27.0995H24.9144V21.0995ZM26.8904 24.0995V22.8262H20.8904V24.0995H26.8904ZM26.8904 22.8262C26.8904 20.6461 25.1225 18.877 22.9409 18.877V24.877C21.8082 24.877 20.8904 23.9592 20.8904 22.8262H26.8904ZM22.9409 18.877H22.4512V24.877H22.9409V18.877ZM22.4512 18.877C20.2764 18.877 18.5 20.6393 18.5 22.8262H24.5C24.5 23.966 23.5771 24.877 22.4512 24.877V18.877ZM18.5 22.8262V25.8651H24.5V22.8262H18.5ZM18.5 25.8651C18.5 28.0515 20.2761 29.8143 22.4512 29.8143V23.8143C23.5775 23.8143 24.5 24.7255 24.5 25.8651H18.5ZM22.4512 29.8143H22.9409V23.8143H22.4512V29.8143ZM22.9409 29.8143C25.1227 29.8143 26.8904 28.0448 26.8904 25.8651H20.8904C20.8904 24.7323 21.8078 23.8143 22.9409 23.8143V29.8143ZM26.8904 25.8651V24.5917H20.8904V25.8651H26.8904ZM23.8904 27.5917H24.9144V21.5917H23.8904V27.5917ZM21.9144 24.5917V26.0539H27.9144V24.5917H21.9144ZM21.9144 26.0539C21.9144 28.2421 23.6896 30.0175 25.8789 30.0175V24.0175C27.0028 24.0175 27.9144 24.928 27.9144 26.0539H21.9144ZM25.8789 30.0175C26.5859 30.0175 27.2485 29.8292 27.8162 29.5113L24.8846 24.2762C25.171 24.1158 25.5127 24.0175 25.8789 24.0175V30.0175ZM23.3504 26.8938V35.121H29.3504V26.8938H23.3504ZM23.3504 35.121C23.3504 36.8969 24.7856 38.3672 26.5952 38.3672V32.3672C28.1335 32.3672 29.3504 33.6175 29.3504 35.121H23.3504ZM26.5952 38.3672H30.8748V32.3672H26.5952V38.3672ZM30.8748 38.3672C32.6847 38.3672 34.1197 36.8966 34.1197 35.121H28.1197C28.1197 33.6177 29.3363 32.3672 30.8748 32.3672V38.3672ZM34.1197 35.121V26.8938H28.1197V35.121H34.1197ZM29.6539 29.5113C30.2239 29.8305 30.8868 30.0175 31.5928 30.0175V24.0175C31.9547 24.0175 32.2967 24.1145 32.5855 24.2762L29.6539 29.5113ZM31.5928 30.0175C33.7837 30.0175 35.5556 28.2389 35.5556 26.0539H29.5556C29.5556 24.9313 30.4639 24.0175 31.5928 24.0175V30.0175ZM35.5556 26.0539V24.5917H29.5556V26.0539H35.5556ZM32.5556 27.5917H33.7152V21.5917H32.5556V27.5917ZM28.7342 21.4922C27.8706 21.4922 27.1701 20.7936 27.1701 19.9273H33.1701C33.1701 17.4781 31.1825 15.4922 28.7342 15.4922V21.4922ZM27.1701 19.9273C27.1701 19.0611 27.87 18.3623 28.7342 18.3623V24.3623C31.1832 24.3623 33.1701 22.3753 33.1701 19.9273H27.1701ZM28.7342 18.3623C29.6023 18.3623 30.2999 19.0633 30.2999 19.9273H24.2999C24.2999 22.3731 26.2847 24.3623 28.7342 24.3623V18.3623ZM30.2999 19.9273C30.2999 20.7913 29.6017 21.4922 28.7342 21.4922V15.4922C26.2853 15.4922 24.2999 17.4803 24.2999 19.9273H30.2999ZM28.7342 24.8545C31.4561 24.8545 33.6615 22.6452 33.6615 19.9273H27.6615C27.6615 19.3341 28.1398 18.8545 28.7342 18.8545V24.8545ZM33.6615 19.9273C33.6615 17.2083 31.4556 15 28.7342 15V21C28.1403 21 27.6615 20.5204 27.6615 19.9273H33.6615ZM28.7342 15C26.0128 15 23.8086 17.21 23.8086 19.9272H29.8086C29.8086 20.5187 29.3315 21 28.7342 21V15ZM23.8086 19.9272C23.8086 22.6434 26.0123 24.8545 28.7342 24.8545V18.8545C29.3321 18.8545 29.8086 19.3358 29.8086 19.9272H23.8086Z" fill="#D4D4D4" mask="url(#path-7-inside-1_6627_38891)"/>
<path d="M1.94271 32.4844C1.94271 33.6279 2.87208 34.5573 4.01562 34.5573H24.5334L24.6027 35.3333H4.01562C2.44528 35.3333 1.16667 34.0547 1.16667 32.4844C1.16667 30.914 2.44528 29.6354 4.01562 29.6354H13.7188C14.8623 29.6354 15.7917 28.706 15.7917 27.5625C15.7917 26.419 14.8623 25.4896 13.7188 25.4896H11.3281C9.75778 25.4896 8.47917 24.211 8.47917 22.6406V22.5339H9.25521V22.6406C9.25521 23.7842 10.1846 24.7135 11.3281 24.7135H13.7188C15.2891 24.7135 16.5677 25.9922 16.5677 27.5625C16.5677 29.1328 15.2891 30.4115 13.7188 30.4115H4.01562C2.87208 30.4115 1.94271 31.3408 1.94271 32.4844Z" fill="#D4D4D4" stroke="#D4D4D4" strokeWidth="1.33333"/>
</g>
<defs>
<clipPath id="clip0_6627_38891">
<rect width="36" height="36" fill="white" transform="translate(0.5)"/>
</clipPath>
</defs>
</svg>
