<svg width="92" height="96" viewBox="0 0 92 96" fill="none" xmlns="http://www.w3.org/2000/svg">
<g filter="url(#filter0_dd_10542_53381)">
<circle cx="46" cy="48" r="42" fill="#171717"/>
</g>
<g filter="url(#filter1_dd_10542_53381)">
<circle cx="46" cy="48" r="35" fill="#171717"/>
</g>
<g clipPath="url(#clip0_10542_53381)">
<path d="M55.7778 38.2427C55.7769 37.3977 55.4407 36.5875 54.8431 35.9901C54.2455 35.3927 53.4353 35.0567 52.5903 35.056H51.4445V33.7778C51.4445 33.5421 51.3508 33.316 51.1841 33.1493C51.0174 32.9826 50.7913 32.8889 50.5556 32.8889C50.3198 32.8889 50.0937 32.9826 49.927 33.1493C49.7603 33.316 49.6667 33.5421 49.6667 33.7778V35.056H44.2222V33.7778C44.2222 33.5421 44.1286 33.316 43.9619 33.1493C43.7952 32.9826 43.5691 32.8889 43.3334 32.8889C43.0976 32.8889 42.8715 32.9826 42.7048 33.1493C42.5381 33.316 42.4445 33.5421 42.4445 33.7778V35.056H37V33.7778C37 33.5421 36.9064 33.316 36.7397 33.1493C36.573 32.9826 36.3469 32.8889 36.1111 32.8889C35.8754 32.8889 35.6493 32.9826 35.4826 33.1493C35.3159 33.316 35.2222 33.5421 35.2222 33.7778V35.056H34.0765C33.2314 35.0567 32.4212 35.3927 31.8236 35.9901C31.226 36.5875 30.8899 37.3977 30.8889 38.2427V40H55.7778V38.2427Z" fill="url(#paint0_linear_10542_53381)"/>
<path d="M54.8889 48.8889C55.186 48.8898 55.4827 48.9073 55.7778 48.9414V41.7778H30.8889V53.6347C30.8901 54.4974 31.2333 55.3245 31.8434 55.9345C32.4534 56.5445 33.2804 56.8878 34.1431 56.8889H46.8889C46.8915 54.768 47.7352 52.7347 49.2349 51.2349C50.7346 49.7352 52.768 48.8915 54.8889 48.8889ZM38.8889 51.9449C38.8889 52.0105 38.876 52.0755 38.8509 52.1361C38.8258 52.1967 38.789 52.2518 38.7426 52.2982C38.6962 52.3446 38.6411 52.3814 38.5805 52.4065C38.5199 52.4316 38.455 52.4445 38.3894 52.4445H36.7218C36.6562 52.4445 36.5912 52.4316 36.5306 52.4065C36.47 52.3814 36.415 52.3446 36.3686 52.2982C36.3222 52.2518 36.2854 52.1967 36.2603 52.1361C36.2352 52.0755 36.2222 52.0105 36.2222 51.9449V50.2774C36.2222 50.2118 36.2352 50.1468 36.2603 50.0862C36.2854 50.0256 36.3222 49.9705 36.3686 49.9241C36.415 49.8778 36.47 49.841 36.5306 49.8159C36.5912 49.7908 36.6562 49.7778 36.7218 49.7778H38.3894C38.455 49.7778 38.5199 49.7908 38.5805 49.8159C38.6411 49.841 38.6962 49.8778 38.7426 49.9241C38.789 49.9705 38.8258 50.0256 38.8509 50.0862C38.876 50.1468 38.8889 50.2118 38.8889 50.2774V51.9449ZM38.8889 46.6116C38.8889 46.7441 38.8363 46.8712 38.7426 46.9648C38.6489 47.0585 38.5219 47.1112 38.3894 47.1112H36.7218C36.5893 47.1112 36.4623 47.0585 36.3686 46.9648C36.2749 46.8712 36.2222 46.7441 36.2222 46.6116V44.9441C36.2222 44.8116 36.2749 44.6845 36.3686 44.5908C36.4623 44.4971 36.5893 44.4445 36.7218 44.4445H38.3894C38.5219 44.4445 38.6489 44.4971 38.7426 44.5908C38.8363 44.6845 38.8889 44.8116 38.8889 44.9441V46.6116ZM44.2222 51.9449C44.2222 52.0105 44.2093 52.0755 44.1842 52.1361C44.1591 52.1967 44.1223 52.2518 44.0759 52.2982C44.0295 52.3446 43.9745 52.3814 43.9139 52.4065C43.8533 52.4316 43.7883 52.4445 43.7227 52.4445H42.0551C41.9895 52.4445 41.9246 52.4316 41.864 52.4065C41.8034 52.3814 41.7483 52.3446 41.7019 52.2982C41.6555 52.2518 41.6187 52.1967 41.5936 52.1361C41.5685 52.0755 41.5556 52.0105 41.5556 51.9449V50.2774C41.5556 50.2118 41.5685 50.1468 41.5936 50.0862C41.6187 50.0256 41.6555 49.9705 41.7019 49.9241C41.7483 49.8778 41.8034 49.841 41.864 49.8159C41.9246 49.7908 41.9895 49.7778 42.0551 49.7778H43.7227C43.7883 49.7778 43.8533 49.7908 43.9139 49.8159C43.9745 49.841 44.0295 49.8778 44.0759 49.9241C44.1223 49.9705 44.1591 50.0256 44.1842 50.0862C44.2093 50.1468 44.2222 50.2118 44.2222 50.2774V51.9449ZM44.2222 46.6116C44.2222 46.7441 44.1696 46.8712 44.0759 46.9648C43.9822 47.0585 43.8552 47.1112 43.7227 47.1112H42.0551C41.9226 47.1112 41.7956 47.0585 41.7019 46.9648C41.6082 46.8712 41.5556 46.7441 41.5556 46.6116V44.9441C41.5556 44.8116 41.6082 44.6845 41.7019 44.5908C41.7956 44.4971 41.9226 44.4445 42.0551 44.4445H43.7227C43.8552 44.4445 43.9822 44.4971 44.0759 44.5908C44.1696 44.6845 44.2222 44.8116 44.2222 44.9441V46.6116ZM47.3885 47.1112C47.256 47.1112 47.1289 47.0585 47.0352 46.9648C46.9415 46.8712 46.8889 46.7441 46.8889 46.6116V44.9441C46.8889 44.8116 46.9415 44.6845 47.0352 44.5908C47.1289 44.4971 47.256 44.4445 47.3885 44.4445H49.056C49.1885 44.4445 49.3156 44.4971 49.4093 44.5908C49.503 44.6845 49.5556 44.8116 49.5556 44.9441V46.6116C49.5556 46.7441 49.503 46.8712 49.4093 46.9648C49.3156 47.0585 49.1885 47.1112 49.056 47.1112H47.3885Z" fill="url(#paint1_linear_10542_53381)"/>
<path d="M54.8885 50.6667C53.6578 50.6667 52.4548 51.0317 51.4316 51.7154C50.4084 52.3991 49.6108 53.3709 49.1399 54.5078C48.669 55.6448 48.5457 56.8959 48.7858 58.1029C49.0259 59.3099 49.6185 60.4186 50.4887 61.2887C51.3589 62.1589 52.4676 62.7515 53.6746 62.9916C54.8816 63.2317 56.1327 63.1085 57.2696 62.6376C58.4066 62.1666 59.3784 61.3691 60.0621 60.3459C60.7458 59.3226 61.1107 58.1196 61.1107 56.889C61.1088 55.2393 60.4527 53.6578 59.2862 52.4913C58.1197 51.3248 56.5381 50.6686 54.8885 50.6667ZM57.2947 59.2952C57.128 59.4618 56.902 59.5554 56.6663 59.5554C56.4306 59.5554 56.2045 59.4618 56.0378 59.2952L54.26 57.5174C54.0933 57.3508 53.9996 57.1247 53.9996 56.889V53.3334C53.9996 53.0977 54.0932 52.8716 54.2599 52.7049C54.4266 52.5382 54.6527 52.4445 54.8885 52.4445C55.1242 52.4445 55.3503 52.5382 55.517 52.7049C55.6837 52.8716 55.7774 53.0977 55.7774 53.3334V56.521L57.2947 58.0383C57.4613 58.205 57.555 58.431 57.555 58.6667C57.555 58.9025 57.4613 59.1285 57.2947 59.2952Z" fill="url(#paint2_linear_10542_53381)"/>
</g>
<defs>
<filter id="filter0_dd_10542_53381" x="0" y="0" width="92" height="96" filterUnits="userSpaceOnUse" colorInterpolationFilters="sRGB">
<feFlood floodOpacity="0" result="BackgroundImageFix"/>
<feColorMatrix in="SourceAlpha" type="matrix" values="0 0 0 0 0 0 0 0 0 0 0 0 0 0 0 0 0 0 127 0" result="hardAlpha"/>
<feOffset dy="2"/>
<feGaussianBlur stdDeviation="2"/>
<feComposite in2="hardAlpha" operator="out"/>
<feColorMatrix type="matrix" values="0 0 0 0 0.976471 0 0 0 0 0.478431 0 0 0 0 0.270588 0 0 0 0.25 0"/>
<feBlend mode="normal" in2="BackgroundImageFix" result="effect1_dropShadow_10542_53381"/>
<feColorMatrix in="SourceAlpha" type="matrix" values="0 0 0 0 0 0 0 0 0 0 0 0 0 0 0 0 0 0 127 0" result="hardAlpha"/>
<feOffset dy="-2"/>
<feGaussianBlur stdDeviation="2"/>
<feComposite in2="hardAlpha" operator="out"/>
<feColorMatrix type="matrix" values="0 0 0 0 0.960784 0 0 0 0 0.317647 0 0 0 0 0.337255 0 0 0 0.25 0"/>
<feBlend mode="normal" in2="effect1_dropShadow_10542_53381" result="effect2_dropShadow_10542_53381"/>
<feBlend mode="normal" in="SourceGraphic" in2="effect2_dropShadow_10542_53381" result="shape"/>
</filter>
<filter id="filter1_dd_10542_53381" x="7" y="7" width="78" height="82" filterUnits="userSpaceOnUse" colorInterpolationFilters="sRGB">
<feFlood floodOpacity="0" result="BackgroundImageFix"/>
<feColorMatrix in="SourceAlpha" type="matrix" values="0 0 0 0 0 0 0 0 0 0 0 0 0 0 0 0 0 0 127 0" result="hardAlpha"/>
<feOffset dy="2"/>
<feGaussianBlur stdDeviation="2"/>
<feComposite in2="hardAlpha" operator="out"/>
<feColorMatrix type="matrix" values="0 0 0 0 0.976471 0 0 0 0 0.478431 0 0 0 0 0.270588 0 0 0 0.25 0"/>
<feBlend mode="normal" in2="BackgroundImageFix" result="effect1_dropShadow_10542_53381"/>
<feColorMatrix in="SourceAlpha" type="matrix" values="0 0 0 0 0 0 0 0 0 0 0 0 0 0 0 0 0 0 127 0" result="hardAlpha"/>
<feOffset dy="-2"/>
<feGaussianBlur stdDeviation="2"/>
<feComposite in2="hardAlpha" operator="out"/>
<feColorMatrix type="matrix" values="0 0 0 0 0.960784 0 0 0 0 0.317647 0 0 0 0 0.337255 0 0 0 0.25 0"/>
<feBlend mode="normal" in2="effect1_dropShadow_10542_53381" result="effect2_dropShadow_10542_53381"/>
<feBlend mode="normal" in="SourceGraphic" in2="effect2_dropShadow_10542_53381" result="shape"/>
</filter>
<linearGradient id="paint0_linear_10542_53381" x1="29.9317" y1="37.4279" x2="56.6155" y2="37.4431" gradientUnits="userSpaceOnUse">
<stop stopColor="#F43F5E"/>
<stop offset="1" stopColor="#FB923C"/>
</linearGradient>
<linearGradient id="paint1_linear_10542_53381" x1="29.9317" y1="51.4232" x2="56.6155" y2="51.4304" gradientUnits="userSpaceOnUse">
<stop stopColor="#F43F5E"/>
<stop offset="1" stopColor="#FB923C"/>
</linearGradient>
<linearGradient id="paint2_linear_10542_53381" x1="48.1876" y1="58.61" x2="61.5296" y2="58.6122" gradientUnits="userSpaceOnUse">
<stop stopColor="#F43F5E"/>
<stop offset="1" stopColor="#FB923C"/>
</linearGradient>
<clipPath id="clip0_10542_53381">
<rect width="32" height="32" fill="white" transform="translate(30 32)"/>
</clipPath>
</defs>
</svg>
