<svg width="92" height="96" viewBox="0 0 92 96" fill="none" xmlns="http://www.w3.org/2000/svg">
<g filter="url(#filter0_dd_10542_53373)">
<circle cx="46" cy="48" r="42" fill="#171717"/>
</g>
<g filter="url(#filter1_dd_10542_53373)">
<circle cx="46" cy="48" r="35" fill="#171717"/>
</g>
<g clipPath="url(#clip0_10542_53373)">
<path d="M38.7872 58.305C38.9097 58.3756 39.0335 58.4362 39.1572 58.4875L34.2766 63.37C34.0978 63.5468 33.8654 63.6181 33.6585 63.5575C33.4497 63.4987 33.3272 63.3256 33.3322 63.0968L33.3804 60.6806C33.386 60.3968 33.1835 60.1931 32.9004 60.1987L30.4816 60.2481C30.2547 60.2518 30.081 60.1293 30.021 59.9218C29.961 59.7131 30.0316 59.4806 30.2085 59.3037L35.171 54.3412C35.251 54.3643 35.3322 54.3856 35.4153 54.4012L36.5953 54.6406C36.9216 54.7062 37.1466 54.9331 37.2085 55.2587L37.4266 56.3856C37.586 57.21 38.0628 57.8812 38.7872 58.305ZM61.7904 59.3043L56.8154 54.3293C56.7354 54.3506 56.656 54.37 56.5729 54.3862L55.446 54.6043C55.1197 54.6681 54.8935 54.8912 54.8279 55.2175L54.5885 56.3993C54.4222 57.2212 53.9404 57.8893 53.2116 58.3056C53.0891 58.375 52.9654 58.435 52.8397 58.4862L57.7241 63.3706C57.901 63.5475 58.1354 63.6187 58.3422 63.5581C58.5497 63.4993 58.6735 63.3262 58.6685 63.0975L58.6191 60.6812C58.6135 60.3975 58.8172 60.1937 59.101 60.1993L61.5172 60.2487C61.746 60.2525 61.9191 60.13 61.9797 59.9225C62.0404 59.7131 61.9672 59.4812 61.7904 59.3043ZM45.9997 41.6162C45.4485 41.6162 44.951 41.8393 44.5897 42.2006C44.2285 42.5618 44.0054 43.0618 44.0054 43.6125C44.0054 44.1637 44.2285 44.6612 44.5897 45.0225C44.951 45.3837 45.4491 45.6068 45.9997 45.6068C46.551 45.6068 47.0504 45.3837 47.4116 45.0225C47.771 44.6612 47.996 44.1631 47.996 43.6125C47.996 43.0612 47.771 42.5618 47.4116 42.2006C47.0504 41.8393 46.5504 41.6162 45.9997 41.6162ZM46.981 47.7493H45.0197C44.1891 47.7493 43.4341 48.0893 42.8866 48.6368C42.3391 49.1843 41.9991 49.9406 41.9991 50.77V51.4287C43.1278 52.235 44.5079 52.7081 45.9997 52.7081C47.4916 52.7081 48.8735 52.235 50.0016 51.4287V50.77C50.0016 49.9406 49.6616 49.1843 49.1141 48.6368C48.5666 48.0893 47.8122 47.7493 46.981 47.7493ZM52.8947 45.8131C52.8947 47.64 52.186 49.3 51.0272 50.5331C50.9672 49.5125 50.526 48.5893 49.8435 47.9075C49.1085 47.1737 48.0947 46.7187 46.9804 46.7187H45.0191C43.9029 46.7187 42.8897 47.1743 42.156 47.9075C41.4741 48.5893 41.0329 49.5125 40.9722 50.5331C39.8135 49.3 39.1028 47.64 39.1028 45.8131C39.1028 43.9087 39.8753 42.185 41.1222 40.9375C42.371 39.69 44.0954 38.9181 45.9979 38.9181C47.9022 38.9181 49.626 39.6906 50.8754 40.9375C52.1241 42.1843 52.8947 43.9087 52.8947 45.8131ZM49.0272 43.6125C49.0272 42.7762 48.6891 42.02 48.1416 41.4706C47.5922 40.9231 46.836 40.585 45.9997 40.585C45.1635 40.585 44.4072 40.9231 43.8597 41.4706C43.3122 42.02 42.9741 42.7762 42.9741 43.6125C42.9741 44.4468 43.3122 45.205 43.8597 45.7525C44.4072 46.3 45.1635 46.6381 45.9997 46.6381C46.836 46.6381 47.5922 46.3 48.1416 45.7525C48.6891 45.2056 49.0272 44.4468 49.0272 43.6125ZM52.6997 57.4087C52.2285 57.6781 51.7185 57.7256 51.206 57.5487L50.1216 57.175C49.411 56.9287 48.6654 57.1256 48.1691 57.6887L47.3716 58.5925C47.0122 58.9981 46.546 59.2075 46.0041 59.2056C45.4622 59.2037 44.996 58.9893 44.6397 58.58L43.8885 57.7137C43.396 57.1468 42.6516 56.9431 41.9397 57.1825L40.7985 57.5668C40.2847 57.7387 39.7747 57.6875 39.3066 57.4125C38.8391 57.1393 38.541 56.7231 38.4385 56.19L38.2222 55.0625C38.0803 54.3256 37.5366 53.7781 36.8016 53.6293L35.6197 53.39C35.0885 53.2818 34.6735 52.9825 34.4041 52.5131C34.1347 52.0418 34.0885 51.5318 34.2641 51.0193L34.6397 49.935C34.8841 49.2243 34.6878 48.4787 34.126 47.9825L33.2222 47.185C32.8147 46.8256 32.606 46.3575 32.6072 45.8156C32.611 45.275 32.8235 44.8093 33.2329 44.4531L34.101 43.7018C34.6679 43.2093 34.8697 42.465 34.631 41.7531L34.2485 40.6118C34.0747 40.0981 34.1279 39.5881 34.401 39.12C34.6741 38.6506 35.0922 38.3543 35.6235 38.2518L36.7503 38.0337C37.4872 37.8918 38.0366 37.3481 38.1854 36.6131L38.4228 35.4312C38.531 34.9 38.8304 34.485 39.3016 34.2156C39.7729 33.9462 40.2816 33.8987 40.7954 34.0756L41.8797 34.4512C42.5885 34.6956 43.3341 34.4993 43.8322 33.9356L44.6297 33.0337C44.9879 32.6262 45.4553 32.4175 45.9972 32.4187C46.5391 32.4225 47.0054 32.635 47.3597 33.0443L48.1129 33.9125C48.6035 34.4793 49.3497 34.6812 50.0597 34.4425L51.2022 34.06C51.716 33.8862 52.226 33.9393 52.6941 34.2125C53.1616 34.4856 53.4578 34.9037 53.5604 35.435L53.7785 36.5618C53.9222 37.2987 54.4641 37.8462 55.201 37.995L56.381 38.2343C56.9122 38.3425 57.3291 38.6418 57.5966 39.1131C57.866 39.5825 57.9135 40.0931 57.7366 40.605L57.3629 41.6912C57.1166 42.4 57.3135 43.1456 57.8766 43.6437L58.7804 44.4412C59.186 44.7993 59.3966 45.2668 59.3935 45.8087C59.3916 46.3506 59.1772 46.8168 58.7679 47.1712L57.9016 47.9225C57.3347 48.415 57.131 49.1593 57.3704 49.8712L57.7547 51.0137C57.9266 51.5275 57.8754 52.0362 57.6022 52.5056C57.3291 52.9731 56.911 53.2693 56.3779 53.3718L55.251 53.59C54.5141 53.7337 53.9666 54.2756 53.8179 55.0125L53.5785 56.1925C53.4704 56.7243 53.1697 57.1393 52.6997 57.4087ZM53.9279 45.8131C53.9279 43.6231 53.0403 41.6425 51.6054 40.2075C50.1722 38.7725 48.1897 37.885 45.9997 37.885C43.8116 37.885 41.8291 38.7725 40.3941 40.2075C38.9591 41.6425 38.0735 43.6231 38.0735 45.8131C38.0735 48.0031 38.9591 49.9837 40.3941 51.4187C41.8291 52.8537 43.8116 53.7412 45.9997 53.7412C48.1897 53.7412 50.1722 52.8537 51.6054 51.4187C53.0403 49.9837 53.9279 48.0025 53.9279 45.8131Z" fill="url(#paint0_linear_10542_53373)"/>
</g>
<defs>
<filter id="filter0_dd_10542_53373" x="0" y="0" width="92" height="96" filterUnits="userSpaceOnUse" colorInterpolationFilters="sRGB">
<feFlood floodOpacity="0" result="BackgroundImageFix"/>
<feColorMatrix in="SourceAlpha" type="matrix" values="0 0 0 0 0 0 0 0 0 0 0 0 0 0 0 0 0 0 127 0" result="hardAlpha"/>
<feOffset dy="2"/>
<feGaussianBlur stdDeviation="2"/>
<feComposite in2="hardAlpha" operator="out"/>
<feColorMatrix type="matrix" values="0 0 0 0 0.976471 0 0 0 0 0.478431 0 0 0 0 0.270588 0 0 0 0.25 0"/>
<feBlend mode="normal" in2="BackgroundImageFix" result="effect1_dropShadow_10542_53373"/>
<feColorMatrix in="SourceAlpha" type="matrix" values="0 0 0 0 0 0 0 0 0 0 0 0 0 0 0 0 0 0 127 0" result="hardAlpha"/>
<feOffset dy="-2"/>
<feGaussianBlur stdDeviation="2"/>
<feComposite in2="hardAlpha" operator="out"/>
<feColorMatrix type="matrix" values="0 0 0 0 0.960784 0 0 0 0 0.317647 0 0 0 0 0.337255 0 0 0 0.25 0"/>
<feBlend mode="normal" in2="effect1_dropShadow_10542_53373" result="effect2_dropShadow_10542_53373"/>
<feBlend mode="normal" in="SourceGraphic" in2="effect2_dropShadow_10542_53373" result="shape"/>
</filter>
<filter id="filter1_dd_10542_53373" x="7" y="7" width="78" height="82" filterUnits="userSpaceOnUse" colorInterpolationFilters="sRGB">
<feFlood floodOpacity="0" result="BackgroundImageFix"/>
<feColorMatrix in="SourceAlpha" type="matrix" values="0 0 0 0 0 0 0 0 0 0 0 0 0 0 0 0 0 0 127 0" result="hardAlpha"/>
<feOffset dy="2"/>
<feGaussianBlur stdDeviation="2"/>
<feComposite in2="hardAlpha" operator="out"/>
<feColorMatrix type="matrix" values="0 0 0 0 0.976471 0 0 0 0 0.478431 0 0 0 0 0.270588 0 0 0 0.25 0"/>
<feBlend mode="normal" in2="BackgroundImageFix" result="effect1_dropShadow_10542_53373"/>
<feColorMatrix in="SourceAlpha" type="matrix" values="0 0 0 0 0 0 0 0 0 0 0 0 0 0 0 0 0 0 127 0" result="hardAlpha"/>
<feOffset dy="-2"/>
<feGaussianBlur stdDeviation="2"/>
<feComposite in2="hardAlpha" operator="out"/>
<feColorMatrix type="matrix" values="0 0 0 0 0.960784 0 0 0 0 0.317647 0 0 0 0 0.337255 0 0 0 0.25 0"/>
<feBlend mode="normal" in2="effect1_dropShadow_10542_53373" result="effect2_dropShadow_10542_53373"/>
<feBlend mode="normal" in="SourceGraphic" in2="effect2_dropShadow_10542_53373" result="shape"/>
</filter>
<linearGradient id="paint0_linear_10542_53373" x1="28.7692" y1="52.3085" x2="63.0778" y2="52.3142" gradientUnits="userSpaceOnUse">
<stop stopColor="#F43F5E"/>
<stop offset="1" stopColor="#FB923C"/>
</linearGradient>
<clipPath id="clip0_10542_53373">
<rect width="32" height="32" fill="white" transform="translate(30 32)"/>
</clipPath>
</defs>
</svg>
