<svg width="92" height="96" viewBox="0 0 92 96" fill="none" xmlns="http://www.w3.org/2000/svg">
<g filter="url(#filter0_dd_10542_53359)">
<circle cx="46" cy="48" r="42" fill="#171717"/>
</g>
<g filter="url(#filter1_dd_10542_53359)">
<circle cx="46" cy="48" r="35" fill="#171717"/>
</g>
<g clipPath="url(#clip0_10542_53359)">
<path d="M45.135 34.0998C44.9 34.0848 44.66 34.0798 44.42 34.0798C36.75 34.0798 30.51 40.3148 30.5 47.9798V48.0148C30.51 55.6248 36.655 61.8148 44.24 61.9098C44.3 61.9098 44.36 61.9198 44.42 61.9198C44.66 61.9148 44.9 61.9098 45.135 61.8948C44.72 61.1248 44.49 60.2498 44.49 59.3148C44.49 58.0598 44.91 56.8998 45.62 55.9748V40.0248C44.91 39.0998 44.49 37.9398 44.49 36.6848C44.49 35.7498 44.725 34.8698 45.135 34.0998ZM32.905 48.0048V47.9948C32.915 47.5598 34.005 46.4998 37.075 45.7148C37.01 46.4698 36.975 47.2348 36.975 47.9998C36.975 48.7648 37.01 49.5298 37.075 50.2798C34.005 49.4998 32.915 48.4398 32.905 48.0048ZM33.465 51.5398C34.525 52.0598 35.85 52.4948 37.42 52.8298C37.83 54.9948 38.5 56.8698 39.365 58.3448C36.585 56.9798 34.43 54.5248 33.465 51.5398ZM37.42 43.1698C35.85 43.4998 34.525 43.9398 33.465 44.4598C34.43 41.4748 36.585 39.0198 39.365 37.6548C38.5 39.1298 37.83 40.9998 37.42 43.1698ZM43.215 59.1348C41.865 58.2898 40.645 56.0998 39.965 53.2448C41.01 53.3748 42.1 53.4548 43.215 53.4898V59.1348ZM43.215 51.0848C41.935 51.0448 40.695 50.9348 39.53 50.7598C39.43 49.8548 39.375 48.9298 39.375 47.9998C39.375 47.0698 39.43 46.1398 39.535 45.2348C40.695 45.0648 41.935 44.9548 43.215 44.9148V51.0848ZM43.215 42.5098C42.1 42.5448 41.01 42.6248 39.965 42.7498C40.645 39.8898 41.875 37.6898 43.215 36.8548V42.5098Z" fill="url(#paint0_linear_10542_53359)"/>
<path d="M51.06 35.6698C51.06 35.6698 51.04 35.6698 51.025 35.6748C51.01 35.6798 50.995 35.6748 50.995 35.6598C50.935 35.0848 50.52 34.7148 50.015 34.7148C49.51 34.7148 49.095 35.0848 49.035 35.6598C49.035 35.6748 49.015 35.6848 49.005 35.6748C48.995 35.6698 48.98 35.6648 48.97 35.6698C48.915 35.6798 48.89 35.7948 48.915 35.9248C48.94 36.0548 49 36.1548 49.055 36.1448C49.06 36.1448 49.065 36.1448 49.07 36.1398C49.115 36.3348 49.21 36.5248 49.295 36.6548C49.475 36.9248 49.705 37.0998 50.015 37.0998C50.325 37.0998 50.555 36.9248 50.735 36.6548C50.82 36.5248 50.915 36.3348 50.96 36.1398C50.965 36.1398 50.97 36.1448 50.975 36.1448C51.03 36.1548 51.09 36.0548 51.115 35.9248C51.14 35.7948 51.115 35.6798 51.06 35.6698Z" fill="url(#paint1_linear_10542_53359)"/>
<path d="M58.2347 46.9349C58.2347 46.9349 58.2097 46.9349 58.1997 46.9399C58.1847 46.9499 58.1697 46.9399 58.1647 46.9249C58.0997 46.3199 57.6647 45.9299 57.1297 45.9299C56.5947 45.9299 56.1597 46.3199 56.0947 46.9249C56.0947 46.9399 56.0747 46.9499 56.0597 46.9399C56.0497 46.9349 56.0347 46.9299 56.0247 46.9349C55.9697 46.9449 55.9397 47.0649 55.9647 47.1999C55.9897 47.3349 56.0547 47.4399 56.1097 47.4299C56.1147 47.4299 56.1197 47.4299 56.1297 47.4199C56.1797 47.6249 56.2747 47.8249 56.3697 47.9649C56.5597 48.2499 56.7997 48.4299 57.1297 48.4299C57.4597 48.4299 57.6997 48.2499 57.8897 47.9649C57.9797 47.8299 58.0797 47.6249 58.1297 47.4199C58.1347 47.4199 58.1397 47.4249 58.1497 47.4299C58.2047 47.4399 58.2747 47.3349 58.2947 47.1999C58.3147 47.0649 58.2947 46.9449 58.2347 46.9349Z" fill="url(#paint2_linear_10542_53359)"/>
<path d="M57.645 43.6649C57.075 41.9349 56.18 40.3549 55.025 38.9999C54.7 38.6149 54.35 38.2449 53.98 37.8999C54.095 37.5149 54.16 37.1099 54.16 36.6849C54.16 34.3949 52.3 32.5349 50.01 32.5349C48.625 32.5349 47.4 33.2149 46.65 34.2599C46.175 34.9149 45.89 35.7149 45.865 36.5799V36.6849C45.865 38.9699 47.725 40.8299 50.01 40.8299C50.995 40.8299 51.895 40.4849 52.61 39.9149C52.93 40.2399 53.235 40.5849 53.51 40.9449C54.24 41.8849 54.83 42.9349 55.24 44.0699C53.78 44.7749 52.77 46.2749 52.77 47.9999C52.77 49.7249 53.78 51.2249 55.24 51.9299C54.83 53.0649 54.24 54.1149 53.51 55.0549C53.235 55.4149 52.93 55.7599 52.61 56.0849C51.895 55.5149 50.995 55.1699 50.01 55.1699C47.725 55.1699 45.865 57.0299 45.865 59.3149V59.4199C45.89 60.2799 46.175 61.0799 46.645 61.7349C47.395 62.7799 48.625 63.4649 50.01 63.4649C52.3 63.4649 54.16 61.6049 54.16 59.3149C54.16 58.8899 54.095 58.4799 53.98 58.0949C54.35 57.7549 54.7 57.3849 55.025 56.9949C56.18 55.6399 57.075 54.0649 57.645 52.3349C59.81 52.0799 61.5 50.2299 61.5 47.9999C61.5 45.7699 59.81 43.9199 57.645 43.6649ZM51.7 39.0849L51.76 37.9349C51.775 37.8299 51.755 37.7299 51.71 37.6399C51.65 37.5299 51.55 37.4449 51.425 37.4249L50.7 37.2499L50.47 37.3599C50.33 37.4349 50.17 37.4699 50.015 37.4699C49.86 37.4699 49.695 37.4299 49.555 37.3599L49.33 37.2449L48.6 37.4199C48.475 37.4399 48.375 37.5249 48.31 37.6349C48.27 37.7199 48.245 37.8199 48.26 37.9249L48.32 39.0799C47.6 38.5699 47.115 37.7399 47.08 36.7999C47.08 36.7599 47.08 36.7249 47.08 36.6849C47.08 35.8799 47.405 35.1499 47.93 34.6199C47.955 34.5899 47.98 34.5699 48.005 34.5499C48.53 34.0499 49.24 33.7449 50.015 33.7449C50.79 33.7449 51.56 34.0749 52.095 34.6099H52.1C52.625 35.1449 52.955 35.8749 52.955 36.6849C52.955 36.7899 52.95 36.8949 52.935 36.9999C52.845 37.8599 52.38 38.6099 51.705 39.0849H51.7ZM51.7 61.7149L51.76 60.5649C51.775 60.4599 51.755 60.3599 51.71 60.2749C51.65 60.1649 51.55 60.0799 51.425 60.0549L50.7 59.8799L50.47 59.9949C50.33 60.0649 50.17 60.0999 50.015 60.0999C49.86 60.0999 49.695 60.0649 49.555 59.9899L49.33 59.8799L48.6 60.0499C48.475 60.0699 48.37 60.1549 48.31 60.2699C48.265 60.3549 48.245 60.4549 48.26 60.5599L48.32 61.7149C48.205 61.6349 48.095 61.5449 47.995 61.4449C47.43 60.9099 47.075 60.1549 47.075 59.3149C47.075 59.2749 47.075 59.2399 47.075 59.1999C47.1 58.4349 47.425 57.7499 47.925 57.2449H47.93C48.46 56.7099 49.195 56.3799 50.005 56.3799C50.63 56.3799 51.21 56.5749 51.69 56.9099C51.83 57.0099 51.965 57.1199 52.085 57.2399C52.545 57.6999 52.855 58.3099 52.925 58.9949C52.94 59.0999 52.945 59.2049 52.945 59.3149C52.945 60.3049 52.45 61.1849 51.695 61.7149H51.7ZM58.91 50.5249L58.975 49.3149C59.01 49.0599 58.855 48.8249 58.625 48.7799L58.315 48.7049L57.855 48.5949L57.62 48.7149C57.47 48.7899 57.305 48.8299 57.135 48.8249C56.965 48.8249 56.8 48.7849 56.65 48.7099L56.415 48.5899L55.645 48.7749C55.42 48.8149 55.26 49.0549 55.295 49.3049L55.355 50.5249C54.565 49.9649 54.045 49.0399 54.045 47.9999C54.045 46.8449 54.68 45.8399 55.615 45.3099C56.065 45.0549 56.58 44.9099 57.135 44.9099C57.44 44.9099 57.735 44.9549 58.015 45.0399C59.29 45.4149 60.225 46.5999 60.225 47.9999C60.225 49.0449 59.705 49.9649 58.91 50.5249Z" fill="url(#paint3_linear_10542_53359)"/>
<path d="M51.0597 58.3049C51.0597 58.3049 51.0397 58.3049 51.0247 58.3099C51.0097 58.3149 50.9947 58.3099 50.9947 58.2949C50.9347 57.7199 50.5197 57.3499 50.0147 57.3499C49.5097 57.3499 49.0947 57.7199 49.0347 58.2949C49.0347 58.3099 49.0147 58.3199 49.0047 58.3099C48.9947 58.3049 48.9797 58.2999 48.9697 58.3049C48.9147 58.3149 48.8897 58.4299 48.9147 58.5599C48.9397 58.6899 48.9997 58.7899 49.0547 58.7799C49.0597 58.7799 49.0647 58.7799 49.0697 58.7749C49.1147 58.9699 49.2097 59.1599 49.2947 59.2899C49.4747 59.5599 49.7047 59.7349 50.0147 59.7349C50.3247 59.7349 50.5547 59.5599 50.7347 59.2899C50.8197 59.1599 50.9147 58.9699 50.9597 58.7749C50.9647 58.7749 50.9697 58.7799 50.9747 58.7799C51.0297 58.7899 51.0897 58.6899 51.1147 58.5599C51.1397 58.4299 51.1147 58.3149 51.0597 58.3049Z" fill="url(#paint4_linear_10542_53359)"/>
</g>
<defs>
<filter id="filter0_dd_10542_53359" x="0" y="0" width="92" height="96" filterUnits="userSpaceOnUse" colorInterpolationFilters="sRGB">
<feFlood floodOpacity="0" result="BackgroundImageFix"/>
<feColorMatrix in="SourceAlpha" type="matrix" values="0 0 0 0 0 0 0 0 0 0 0 0 0 0 0 0 0 0 127 0" result="hardAlpha"/>
<feOffset dy="2"/>
<feGaussianBlur stdDeviation="2"/>
<feComposite in2="hardAlpha" operator="out"/>
<feColorMatrix type="matrix" values="0 0 0 0 0.976471 0 0 0 0 0.478431 0 0 0 0 0.270588 0 0 0 0.25 0"/>
<feBlend mode="normal" in2="BackgroundImageFix" result="effect1_dropShadow_10542_53359"/>
<feColorMatrix in="SourceAlpha" type="matrix" values="0 0 0 0 0 0 0 0 0 0 0 0 0 0 0 0 0 0 127 0" result="hardAlpha"/>
<feOffset dy="-2"/>
<feGaussianBlur stdDeviation="2"/>
<feComposite in2="hardAlpha" operator="out"/>
<feColorMatrix type="matrix" values="0 0 0 0 0.960784 0 0 0 0 0.317647 0 0 0 0 0.337255 0 0 0 0.25 0"/>
<feBlend mode="normal" in2="effect1_dropShadow_10542_53359" result="effect2_dropShadow_10542_53359"/>
<feBlend mode="normal" in="SourceGraphic" in2="effect2_dropShadow_10542_53359" result="shape"/>
</filter>
<filter id="filter1_dd_10542_53359" x="7" y="7" width="78" height="82" filterUnits="userSpaceOnUse" colorInterpolationFilters="sRGB">
<feFlood floodOpacity="0" result="BackgroundImageFix"/>
<feColorMatrix in="SourceAlpha" type="matrix" values="0 0 0 0 0 0 0 0 0 0 0 0 0 0 0 0 0 0 127 0" result="hardAlpha"/>
<feOffset dy="2"/>
<feGaussianBlur stdDeviation="2"/>
<feComposite in2="hardAlpha" operator="out"/>
<feColorMatrix type="matrix" values="0 0 0 0 0.976471 0 0 0 0 0.478431 0 0 0 0 0.270588 0 0 0 0.25 0"/>
<feBlend mode="normal" in2="BackgroundImageFix" result="effect1_dropShadow_10542_53359"/>
<feColorMatrix in="SourceAlpha" type="matrix" values="0 0 0 0 0 0 0 0 0 0 0 0 0 0 0 0 0 0 127 0" result="hardAlpha"/>
<feOffset dy="-2"/>
<feGaussianBlur stdDeviation="2"/>
<feComposite in2="hardAlpha" operator="out"/>
<feColorMatrix type="matrix" values="0 0 0 0 0.960784 0 0 0 0 0.317647 0 0 0 0 0.337255 0 0 0 0.25 0"/>
<feBlend mode="normal" in2="effect1_dropShadow_10542_53359" result="effect2_dropShadow_10542_53359"/>
<feBlend mode="normal" in="SourceGraphic" in2="effect2_dropShadow_10542_53359" result="shape"/>
</filter>
<linearGradient id="paint0_linear_10542_53359" x1="29.9185" y1="51.8501" x2="46.1289" y2="51.8515" gradientUnits="userSpaceOnUse">
<stop stopColor="#F43F5E"/>
<stop offset="1" stopColor="#FB923C"/>
</linearGradient>
<linearGradient id="paint1_linear_10542_53359" x1="48.8199" y1="36.2372" x2="51.1994" y2="36.2375" gradientUnits="userSpaceOnUse">
<stop stopColor="#F43F5E"/>
<stop offset="1" stopColor="#FB923C"/>
</linearGradient>
<linearGradient id="paint2_linear_10542_53359" x1="55.8656" y1="47.5257" x2="58.3812" y2="47.5261" gradientUnits="userSpaceOnUse">
<stop stopColor="#F43F5E"/>
<stop offset="1" stopColor="#FB923C"/>
</linearGradient>
<linearGradient id="paint3_linear_10542_53359" x1="45.2636" y1="52.2775" x2="62.0262" y2="52.2788" gradientUnits="userSpaceOnUse">
<stop stopColor="#F43F5E"/>
<stop offset="1" stopColor="#FB923C"/>
</linearGradient>
<linearGradient id="paint4_linear_10542_53359" x1="48.8197" y1="58.8722" x2="51.1992" y2="58.8726" gradientUnits="userSpaceOnUse">
<stop stopColor="#F43F5E"/>
<stop offset="1" stopColor="#FB923C"/>
</linearGradient>
<clipPath id="clip0_10542_53359">
<rect width="32" height="32" fill="white" transform="translate(30 32)"/>
</clipPath>
</defs>
</svg>
