<svg width="92" height="96" viewBox="0 0 92 96" fill="none" xmlns="http://www.w3.org/2000/svg">
<g filter="url(#filter0_dd_10542_53392)">
<circle cx="46" cy="48" r="42" fill="#171717"/>
</g>
<g filter="url(#filter1_dd_10542_53392)">
<circle cx="46" cy="48" r="35" fill="#171717"/>
</g>
<path fillRule="evenodd" clipRule="evenodd" d="M47.2664 49.528H55.9639C56.2911 49.529 56.6047 49.6594 56.8361 49.8908C57.0675 50.1222 57.1979 50.4358 57.1989 50.763V51.8955C57.1979 52.2228 57.0675 52.5363 56.8361 52.7677C56.6047 52.9991 56.2911 53.1295 55.9639 53.1305H47.2664C46.9392 53.1295 46.6257 52.9991 46.3944 52.7677C46.1631 52.5363 46.0328 52.2227 46.032 51.8955V50.763C46.0328 50.4358 46.1631 50.1223 46.3944 49.8909C46.6257 49.6595 46.9392 49.529 47.2664 49.528ZM36.062 54.1061L34.5251 54.518C34.3863 54.5555 34.268 54.6465 34.1961 54.771C34.1242 54.8955 34.1045 55.0434 34.1414 55.1824L36.1751 62.7705C36.2125 62.9094 36.3034 63.0278 36.428 63.0996C36.5526 63.1714 36.7006 63.1909 36.8395 63.1536L38.3745 62.7418C38.5133 62.7043 38.6316 62.6133 38.7035 62.4888C38.7755 62.3643 38.7951 62.2164 38.7583 62.0774L36.7264 54.4893C36.689 54.3504 36.5981 54.232 36.4735 54.1602C36.3489 54.0883 36.2009 54.0689 36.062 54.1061ZM39.3976 61.0205C40.842 60.4861 42.7539 60.9886 44.5526 61.4618C46.1658 61.8855 47.6776 62.283 48.3983 61.8205C51.6551 59.7311 55.5176 57.7093 58.9126 55.7499C59.1939 55.5857 59.399 55.3171 59.4834 55.0025C59.5678 54.688 59.5246 54.3528 59.3633 54.0699C59.017 53.4699 58.2595 53.3305 57.6639 53.6324C56.9508 53.9955 49.012 57.9805 49.0664 58.0699C48.624 58.3268 48.0987 58.4006 47.6026 58.2755C46.257 58.0049 44.6414 57.4824 43.2833 57.1186C43.1723 57.0855 43.0787 57.0104 43.0223 56.9093C42.9658 56.8082 42.951 56.6891 42.9809 56.5773C43.0109 56.4654 43.0832 56.3697 43.1826 56.3103C43.282 56.2509 43.4006 56.2326 43.5133 56.2593L47.8058 57.4093C48.0803 57.4798 48.3715 57.4391 48.6162 57.2962C48.861 57.1533 49.0394 56.9196 49.1129 56.6459C49.1864 56.3722 49.149 56.0806 49.0087 55.8343C48.8685 55.588 48.6368 55.407 48.3639 55.3305L43.222 53.9555C40.5101 53.2286 40.8795 52.7761 37.7651 54.9324L39.3976 61.0249V61.0205ZM35.5039 55.0949C35.6396 55.0581 35.7832 55.0623 35.9164 55.1071C36.0497 55.1519 36.1667 55.2352 36.2526 55.3465C36.3385 55.4578 36.3895 55.5921 36.399 55.7324C36.4086 55.8727 36.3763 56.0127 36.3063 56.1346C36.2363 56.2565 36.1316 56.3549 36.0057 56.4174C35.8797 56.4798 35.738 56.5035 35.5986 56.4854C35.4591 56.4673 35.3282 56.4082 35.2223 56.3157C35.1165 56.2232 35.0405 56.1013 35.0039 55.9655C34.9549 55.7838 34.9801 55.59 35.0738 55.4268C35.1676 55.2636 35.3222 55.1442 35.5039 55.0949ZM34.1508 47.0574C33.9321 47.2262 33.6554 47.3013 33.3814 47.2661C33.1074 47.2308 32.8587 47.0882 32.6898 46.8696C32.521 46.6509 32.4459 46.3742 32.4812 46.1002C32.5164 45.8262 32.659 45.5775 32.8776 45.4086L35.1308 43.6761C35.3153 43.5338 35.5422 43.4574 35.7753 43.4592C36.0084 43.461 36.2341 43.5409 36.4164 43.6861L38.657 45.4086C38.8757 45.5775 39.0183 45.8262 39.0535 46.1002C39.0887 46.3742 39.0137 46.6509 38.8448 46.8696C38.676 47.0882 38.4272 47.2308 38.1533 47.2661C37.8793 47.3013 37.6025 47.2262 37.3839 47.0574L36.812 46.6199V50.5686C36.8053 50.8413 36.6924 51.1005 36.4972 51.291C36.302 51.4815 36.0401 51.5881 35.7673 51.5881C35.4946 51.5881 35.2327 51.4815 35.0375 51.291C34.8423 51.1005 34.7293 50.8413 34.7226 50.5686V46.6168L34.1508 47.0543V47.0574ZM39.4008 40.0718L39.9733 39.6343V43.5861C39.9733 43.8631 40.0833 44.1288 40.2792 44.3246C40.475 44.5205 40.7407 44.6305 41.0176 44.6305C41.2946 44.6305 41.5603 44.5205 41.7561 44.3246C41.952 44.1288 42.062 43.8631 42.062 43.5861V39.6318L42.6339 40.0693C42.8524 40.2381 43.1291 40.3132 43.403 40.278C43.677 40.2429 43.9257 40.1003 44.0945 39.8818C44.2633 39.6632 44.3384 39.3865 44.3033 39.1126C44.2681 38.8387 44.1256 38.59 43.907 38.4211L41.667 36.7005C41.4846 36.5555 41.2589 36.4758 41.0258 36.4741C40.7928 36.4724 40.5659 36.5488 40.3814 36.6911L38.1283 38.4236C37.9097 38.5925 37.7672 38.8412 37.732 39.1151C37.6968 39.389 37.7719 39.6657 37.9408 39.8843C38.1096 40.1028 38.3583 40.2454 38.6322 40.2805C38.9062 40.3157 39.1828 40.2406 39.4014 40.0718H39.4008ZM51.6151 32.8274C52.5316 32.8274 53.4275 33.0992 54.1895 33.6083C54.9515 34.1175 55.5454 34.8412 55.8962 35.6879C56.2469 36.5346 56.3386 37.4663 56.1599 38.3651C55.9811 39.264 55.5397 40.0897 54.8917 40.7377C54.2437 41.3857 53.418 41.8271 52.5191 42.0059C51.6203 42.1846 50.6886 42.0929 49.8419 41.7422C48.9952 41.3915 48.2715 40.7975 47.7623 40.0355C47.2532 39.2735 46.9814 38.3776 46.9814 37.4611C46.9814 36.2322 47.4696 35.0536 48.3386 34.1846C49.2076 33.3156 50.3862 32.8274 51.6151 32.8274ZM49.9858 38.508C49.9645 39.258 50.3895 39.9155 51.1151 40.1493V40.3805C51.1151 40.5131 51.1678 40.6403 51.2616 40.7341C51.3554 40.8278 51.4825 40.8805 51.6151 40.8805C51.7477 40.8805 51.8749 40.8278 51.9687 40.7341C52.0625 40.6403 52.1151 40.5131 52.1151 40.3805V40.1493C52.4855 40.0299 52.801 39.7822 53.005 39.4509C53.2089 39.1195 53.2878 38.7262 53.2275 38.3418C53.1672 37.9574 52.9717 37.6072 52.6761 37.3542C52.3805 37.1012 52.0042 36.962 51.6151 36.9618C51.4883 36.9613 51.3646 36.9227 51.26 36.8511C51.1554 36.7795 51.0747 36.6781 51.0283 36.5601C50.982 36.4421 50.9721 36.3128 51 36.1892C51.028 36.0655 51.0924 35.953 51.185 35.8664C51.2775 35.7798 51.394 35.7229 51.5193 35.7032C51.6445 35.6835 51.7728 35.7019 51.8875 35.7559C52.0022 35.81 52.098 35.8972 52.1626 36.0063C52.2271 36.1155 52.2574 36.2415 52.2495 36.368C52.2405 36.4362 52.2456 36.5054 52.2646 36.5715C52.2836 36.6376 52.3159 36.6991 52.3597 36.752C52.4035 36.805 52.4577 36.8484 52.5191 36.8795C52.5804 36.9106 52.6474 36.9287 52.7161 36.9327C52.7847 36.9368 52.8534 36.9266 52.9179 36.9028C52.9824 36.8791 53.0413 36.8423 53.091 36.7947C53.1406 36.7472 53.18 36.6899 53.2065 36.6265C53.233 36.5631 53.2462 36.4949 53.2451 36.4261C53.2708 35.6724 52.8489 35.0086 52.1164 34.7736V34.5418C52.1164 34.4092 52.0637 34.282 51.9699 34.1882C51.8762 34.0944 51.749 34.0418 51.6164 34.0418C51.4838 34.0418 51.3566 34.0944 51.2628 34.1882C51.1691 34.282 51.1164 34.4092 51.1164 34.5418V34.7736C50.7461 34.893 50.4305 35.1407 50.2266 35.472C50.0226 35.8034 49.9437 36.1967 50.004 36.5811C50.0643 36.9655 50.2599 37.3157 50.5555 37.5687C50.8511 37.8217 51.2273 37.9609 51.6164 37.9611C51.7429 37.9616 51.8663 37.9998 51.9709 38.0711C52.0754 38.1423 52.1562 38.2432 52.2028 38.3608C52.2495 38.4784 52.2598 38.6072 52.2326 38.7307C52.2053 38.8543 52.1417 38.9668 52.0499 39.0538C51.9581 39.1408 51.8423 39.1983 51.7175 39.2189C51.5927 39.2395 51.4646 39.2223 51.3497 39.1694C51.2348 39.1165 51.1383 39.0305 51.0728 38.9223C51.0073 38.8141 50.9756 38.6887 50.982 38.5624C50.9797 38.4358 50.9295 38.3149 50.8414 38.2239C50.7534 38.1329 50.6342 38.0787 50.5078 38.0722C50.3814 38.0657 50.2572 38.1074 50.1603 38.1889C50.0634 38.2703 50.0011 38.3855 49.9858 38.5111V38.508ZM47.2664 41.0736C46.9392 41.0746 46.6257 41.2051 46.3944 41.4365C46.1631 41.6679 46.0328 41.9815 46.032 42.3086V43.4411C46.0328 43.7683 46.1631 44.0819 46.3944 44.3133C46.6257 44.5447 46.9392 44.6752 47.2664 44.6761H55.9639C56.2911 44.6752 56.6047 44.5447 56.8361 44.3133C57.0675 44.0819 57.1979 43.7684 57.1989 43.4411V42.3086C57.1979 41.9814 57.0675 41.6679 56.8361 41.4365C56.6047 41.2051 56.2911 41.0746 55.9639 41.0736H55.937C55.4083 41.7064 54.747 42.2154 54.0001 42.5647C53.2531 42.9139 52.4385 43.095 51.6139 43.095C50.7893 43.095 49.9747 42.9139 49.2277 42.5647C48.4807 42.2154 47.8195 41.7064 47.2908 41.0736H47.2664ZM47.2664 45.3011H55.9639C56.2911 45.302 56.6046 45.4323 56.836 45.6636C57.0674 45.8948 57.1979 46.2083 57.1989 46.5355V47.6686C57.1979 47.9958 57.0674 48.3093 56.836 48.5406C56.6046 48.7719 56.2911 48.9022 55.9639 48.903H47.2664C46.9393 48.902 46.6259 48.7717 46.3946 48.5404C46.1634 48.3091 46.033 47.9957 46.032 47.6686V46.5355C46.033 46.2084 46.1634 45.8951 46.3946 45.6638C46.6259 45.4325 46.9393 45.3021 47.2664 45.3011Z" fill="url(#paint0_linear_10542_53392)"/>
<defs>
<filter id="filter0_dd_10542_53392" x="0" y="0" width="92" height="96" filterUnits="userSpaceOnUse" colorInterpolationFilters="sRGB">
<feFlood floodOpacity="0" result="BackgroundImageFix"/>
<feColorMatrix in="SourceAlpha" type="matrix" values="0 0 0 0 0 0 0 0 0 0 0 0 0 0 0 0 0 0 127 0" result="hardAlpha"/>
<feOffset dy="2"/>
<feGaussianBlur stdDeviation="2"/>
<feComposite in2="hardAlpha" operator="out"/>
<feColorMatrix type="matrix" values="0 0 0 0 0.976471 0 0 0 0 0.478431 0 0 0 0 0.270588 0 0 0 0.25 0"/>
<feBlend mode="normal" in2="BackgroundImageFix" result="effect1_dropShadow_10542_53392"/>
<feColorMatrix in="SourceAlpha" type="matrix" values="0 0 0 0 0 0 0 0 0 0 0 0 0 0 0 0 0 0 127 0" result="hardAlpha"/>
<feOffset dy="-2"/>
<feGaussianBlur stdDeviation="2"/>
<feComposite in2="hardAlpha" operator="out"/>
<feColorMatrix type="matrix" values="0 0 0 0 0.960784 0 0 0 0 0.317647 0 0 0 0 0.337255 0 0 0 0.25 0"/>
<feBlend mode="normal" in2="effect1_dropShadow_10542_53392" result="effect2_dropShadow_10542_53392"/>
<feBlend mode="normal" in="SourceGraphic" in2="effect2_dropShadow_10542_53392" result="shape"/>
</filter>
<filter id="filter1_dd_10542_53392" x="7" y="7" width="78" height="82" filterUnits="userSpaceOnUse" colorInterpolationFilters="sRGB">
<feFlood floodOpacity="0" result="BackgroundImageFix"/>
<feColorMatrix in="SourceAlpha" type="matrix" values="0 0 0 0 0 0 0 0 0 0 0 0 0 0 0 0 0 0 127 0" result="hardAlpha"/>
<feOffset dy="2"/>
<feGaussianBlur stdDeviation="2"/>
<feComposite in2="hardAlpha" operator="out"/>
<feColorMatrix type="matrix" values="0 0 0 0 0.976471 0 0 0 0 0.478431 0 0 0 0 0.270588 0 0 0 0.25 0"/>
<feBlend mode="normal" in2="BackgroundImageFix" result="effect1_dropShadow_10542_53392"/>
<feColorMatrix in="SourceAlpha" type="matrix" values="0 0 0 0 0 0 0 0 0 0 0 0 0 0 0 0 0 0 127 0" result="hardAlpha"/>
<feOffset dy="-2"/>
<feGaussianBlur stdDeviation="2"/>
<feComposite in2="hardAlpha" operator="out"/>
<feColorMatrix type="matrix" values="0 0 0 0 0.960784 0 0 0 0 0.317647 0 0 0 0 0.337255 0 0 0 0.25 0"/>
<feBlend mode="normal" in2="effect1_dropShadow_10542_53392" result="effect2_dropShadow_10542_53392"/>
<feBlend mode="normal" in="SourceGraphic" in2="effect2_dropShadow_10542_53392" result="shape"/>
</filter>
<linearGradient id="paint0_linear_10542_53392" x1="31.4322" y1="52.1964" x2="60.4361" y2="52.2006" gradientUnits="userSpaceOnUse">
<stop stopColor="#F43F5E"/>
<stop offset="1" stopColor="#FB923C"/>
</linearGradient>
</defs>
</svg>
