<svg width="36" height="36" viewBox="0 0 36 36" fill="none" xmlns="http://www.w3.org/2000/svg">
<g clipPath="url(#clip0_7678_44406)">
<path d="M25.875 31.5V21.375L34.875 9.96694L32.5018 7.59375L24.75 15.75H11.25L3.49819 7.59375L1.125 9.96694L10.125 21.375V31.5H25.875Z" fill="url(#paint0_linear_7678_44406)"/>
<path d="M0.5625 30.9375H35.4375V35.4375H0.5625V30.9375Z" fill="url(#paint1_linear_7678_44406)"/>
<path d="M19.3067 34.875H16.6933C15.6395 34.875 14.619 34.5051 13.8099 33.8299C13.0008 33.1546 12.4544 32.2168 12.2659 31.1799L11.8125 28.6875H24.1875L23.7341 31.1799C23.5456 32.2168 22.9992 33.1546 22.1901 33.8299C21.381 34.5051 20.3605 34.875 19.3067 34.875Z" fill="url(#paint2_linear_7678_44406)"/>
<path d="M12.3294 31.4584C12.9516 31.3312 13.0933 30.9375 13.9444 30.9375C14.9569 30.9375 14.9569 31.5 15.9694 31.5C16.9819 31.5 16.9819 30.9375 17.9944 30.9375C19.0069 30.9375 19.0069 31.5 20.0194 31.5C21.0319 31.5 21.0319 30.9375 22.0444 30.9375C22.9005 30.9375 23.0383 31.3363 23.67 31.4606C23.6931 31.3678 23.7173 31.275 23.7341 31.1794L24.1875 28.6875H11.8125L12.2659 31.1799C12.2827 31.275 12.3064 31.3661 12.3294 31.4584Z" fill="url(#paint3_linear_7678_44406)"/>
<path d="M17.9922 15.75C20.1668 15.75 21.9297 13.9871 21.9297 11.8125C21.9297 9.63788 20.1668 7.875 17.9922 7.875C15.8176 7.875 14.0547 9.63788 14.0547 11.8125C14.0547 13.9871 15.8176 15.75 17.9922 15.75Z" fill="url(#paint4_linear_7678_44406)"/>
<path d="M16.4282 26.8356L15.6328 26.0402L16.1953 25.4777C16.2388 25.434 16.2632 25.3748 16.2632 25.3132C16.2632 25.2515 16.2388 25.1924 16.1953 25.1486C15.9408 24.8935 15.7979 24.5479 15.7979 24.1876C15.7979 23.8273 15.9408 23.4816 16.1953 23.2266L16.7578 22.6641L17.5532 23.4594L16.9907 24.0219C16.9689 24.0436 16.9516 24.0694 16.9399 24.0978C16.9281 24.1262 16.922 24.1566 16.922 24.1873C16.922 24.218 16.9281 24.2485 16.9399 24.2768C16.9516 24.3052 16.9689 24.331 16.9907 24.3527C17.2452 24.6073 17.3881 24.9526 17.3881 25.3126C17.3881 25.6726 17.2452 26.0179 16.9907 26.2725L16.4282 26.8356Z" fill="url(#paint5_linear_7678_44406)"/>
<path d="M19.2407 26.8356L18.4453 26.0402L19.0078 25.4777C19.0513 25.434 19.0757 25.3748 19.0757 25.3132C19.0757 25.2515 19.0513 25.1924 19.0078 25.1486C18.7533 24.8935 18.6104 24.5479 18.6104 24.1876C18.6104 23.8273 18.7533 23.4816 19.0078 23.2266L19.5703 22.6641L20.3657 23.4594L19.8032 24.0219C19.7814 24.0436 19.7641 24.0694 19.7524 24.0978C19.7406 24.1262 19.7345 24.1566 19.7345 24.1873C19.7345 24.218 19.7406 24.2485 19.7524 24.2768C19.7641 24.3052 19.7814 24.331 19.8032 24.3527C20.0577 24.6073 20.2006 24.9526 20.2006 25.3126C20.2006 25.6726 20.0577 26.0179 19.8032 26.2725L19.2407 26.8356Z" fill="url(#paint6_linear_7678_44406)"/>
<path d="M4.61328 8.78906L7.77967 5.62267L8.57504 6.41805L5.40866 9.58444L4.61328 8.78906Z" fill="url(#paint7_linear_7678_44406)"/>
<path d="M12.9503 1.24534C11.8529 0.14959 9.80035 0.415652 8.37666 1.84159C6.95297 3.26753 6.68353 5.31953 7.77985 6.41584C8.01003 6.64058 8.28295 6.81686 8.58247 6.93426C8.88198 7.05165 9.20201 7.10776 9.5236 7.09928C9.69316 7.09885 9.86243 7.08512 10.0298 7.05822C10.9144 6.89835 11.7268 6.46562 12.353 5.82072C13.78 4.39422 14.0467 2.34165 12.9503 1.24534Z" fill="url(#paint8_linear_7678_44406)"/>
<path d="M31.3167 8.86341L28.642 6.18984C29.0637 5.76793 29.3005 5.19586 29.3005 4.59937C29.3005 4.00289 29.0637 3.43082 28.642 3.00891L26.2553 0.621094L25.46 1.41703L27.8461 3.80316C27.9506 3.90763 28.0335 4.03167 28.0901 4.16819C28.1466 4.30471 28.1758 4.45104 28.1758 4.59881C28.1758 4.74659 28.1466 4.89292 28.0901 5.02944C28.0335 5.16596 27.9506 5.29 27.8461 5.39447L24.6646 2.21241L23.8692 3.00778L27.0507 6.18984C26.8365 6.3945 26.5516 6.5087 26.2553 6.5087C25.9591 6.5087 25.6742 6.3945 25.46 6.18984L23.0727 3.80372L22.2773 4.59909L24.6646 6.98522C25.0865 7.40703 25.6587 7.64399 26.2553 7.64399C26.852 7.64399 27.4242 7.40703 27.8461 6.98522L30.5208 9.65934L31.3167 8.86341Z" fill="url(#paint9_linear_7678_44406)"/>
</g>
<defs>
<linearGradient id="paint0_linear_7678_44406" x1="-0.173077" y1="22.8531" x2="36.0109" y2="22.8613" gradientUnits="userSpaceOnUse">
<stop stopColor="#F43F5E"/>
<stop offset="1" stopColor="#FB923C"/>
</linearGradient>
<linearGradient id="paint1_linear_7678_44406" x1="-0.778846" y1="33.8098" x2="36.6112" y2="33.8568" gradientUnits="userSpaceOnUse">
<stop stopColor="#F43F5E"/>
<stop offset="1" stopColor="#FB923C"/>
</linearGradient>
<linearGradient id="paint2_linear_7678_44406" x1="11.3365" y1="32.637" x2="24.604" y2="32.6413" gradientUnits="userSpaceOnUse">
<stop stopColor="#F43F5E"/>
<stop offset="1" stopColor="#FB923C"/>
</linearGradient>
<linearGradient id="paint3_linear_7678_44406" x1="11.3365" y1="30.4827" x2="24.604" y2="30.4922" gradientUnits="userSpaceOnUse">
<stop stopColor="#F43F5E"/>
<stop offset="1" stopColor="#FB923C"/>
</linearGradient>
<linearGradient id="paint4_linear_7678_44406" x1="13.7518" y1="12.9016" x2="22.1947" y2="12.903" gradientUnits="userSpaceOnUse">
<stop stopColor="#F43F5E"/>
<stop offset="1" stopColor="#FB923C"/>
</linearGradient>
<linearGradient id="paint5_linear_7678_44406" x1="15.559" y1="25.3267" x2="17.6178" y2="25.3269" gradientUnits="userSpaceOnUse">
<stop stopColor="#F43F5E"/>
<stop offset="1" stopColor="#FB923C"/>
</linearGradient>
<linearGradient id="paint6_linear_7678_44406" x1="18.3715" y1="25.3267" x2="20.4303" y2="25.3269" gradientUnits="userSpaceOnUse">
<stop stopColor="#F43F5E"/>
<stop offset="1" stopColor="#FB923C"/>
</linearGradient>
<linearGradient id="paint7_linear_7678_44406" x1="4.99918" y1="9.41853" x2="8.39612" y2="6.02598" gradientUnits="userSpaceOnUse">
<stop stopColor="#F43F5E"/>
<stop offset="1" stopColor="#FB923C"/>
</linearGradient>
<linearGradient id="paint8_linear_7678_44406" x1="6.8547" y1="4.73827" x2="13.845" y2="4.7394" gradientUnits="userSpaceOnUse">
<stop stopColor="#F43F5E"/>
<stop offset="1" stopColor="#FB923C"/>
</linearGradient>
<linearGradient id="paint9_linear_7678_44406" x1="21.9297" y1="6.39019" x2="31.621" y2="6.39176" gradientUnits="userSpaceOnUse">
<stop stopColor="#F43F5E"/>
<stop offset="1" stopColor="#FB923C"/>
</linearGradient>
<clipPath id="clip0_7678_44406">
<rect width="36" height="36" fill="white"/>
</clipPath>
</defs>
</svg>
