<svg width="111" height="111" viewBox="0 0 111 111" fill="none" xmlns="http://www.w3.org/2000/svg">
<g filter="url(#filter0_d_11702_2060)">
<circle cx="55.6314" cy="51.6313" r="40" transform="rotate(-15 55.6314 51.6313)" fill="#171717"/>
</g>
<g filter="url(#filter1_dd_11702_2060)">
<circle cx="55.6315" cy="51.6314" r="33.3333" transform="rotate(-15 55.6315 51.6314)" fill="#171717"/>
</g>
<g clipPath="url(#clip0_11702_2060)">
<path d="M53.6547 44.2551C55.6916 43.7093 56.9004 41.6157 56.3546 39.5788C55.8088 37.542 53.7152 36.3332 51.6783 36.879C49.6414 37.4247 48.4327 39.5184 48.9785 41.5553C49.5242 43.5921 51.6179 44.8009 53.6547 44.2551Z" fill="url(#paint0_linear_11702_2060)"/>
<path d="M73.9952 54.6116C73.9141 54.309 73.6732 54.0759 73.3686 54.0049C73.064 53.9339 72.7442 54.0367 72.5385 54.271L72.0665 54.8083C70.071 53.03 68.06 51.5201 66.9461 50.7171C66.5654 50.4426 66.0347 50.5265 65.7625 50.909C65.4877 51.2889 65.574 51.8191 65.9544 52.0927C67.9616 53.54 69.6063 54.8656 70.9586 56.069L70.5196 56.5688C70.3237 56.792 70.2583 57.1012 70.3478 57.3841C70.4374 57.6672 70.6675 57.8827 70.9564 57.9528L73.5256 58.578C75.8301 61.102 76.4455 62.7797 76.0704 63.4288C75.6449 64.1647 73.4576 64.5354 68.6993 63.1626C66.8011 62.6149 64.7031 61.8354 62.5058 60.8963L61.4858 57.0897L63.1249 56.6505C63.5779 56.5291 63.8463 56.0643 63.7249 55.6113L62.9401 52.6824C65.2368 48.4395 67.0859 44.2864 68.2862 40.6579L68.9513 40.883C69.1126 40.9376 69.2834 40.9416 69.4427 40.8989C69.5755 40.8633 69.6998 40.7956 69.8032 40.6985C70.0316 40.4846 70.1236 40.1623 70.0425 39.8598L69.2967 37.0764C70.1933 33.1028 69.8564 30.6259 68.2789 29.7154C65.1869 27.932 59.8429 33.761 56.9315 37.395C56.6382 37.76 56.6972 38.294 57.0631 38.5872C57.4261 38.8793 57.9617 38.8199 58.2552 38.4556C62.9852 32.5535 66.3294 30.5475 67.4308 31.1848C68.0608 31.5487 68.4148 33.2154 67.6465 36.6652L65.7403 38.4855C65.5251 38.6907 65.4335 38.9923 65.4975 39.2822C65.5615 39.5721 65.7728 39.8072 66.0539 39.9026L66.6788 40.114C65.661 43.1967 64.1562 46.6784 62.2957 50.2772L61.4431 47.0953C61.2402 46.3382 60.7239 45.7302 60.0621 45.4691C56.0033 43.87 51.4291 45.0956 48.7121 48.5103C48.2702 49.0671 48.127 49.8517 48.3299 50.6089L49.1822 53.7898C45.772 51.6039 42.7284 49.3414 40.3059 47.1811L40.7419 46.6849C40.9376 46.4617 41.0032 46.1524 40.9136 45.8694C40.824 45.5863 40.5939 45.3708 40.305 45.3007L37.742 44.6774C35.3522 42.0743 34.8254 40.4541 35.1891 39.8239C35.828 38.7195 39.727 38.7865 46.7808 41.5368C47.2165 41.7066 47.7101 41.4902 47.879 41.0547C48.0495 40.6187 47.8336 40.1268 47.3969 39.9565C43.054 38.2621 35.502 35.8835 33.7197 38.9756C32.8085 40.5531 33.7559 42.8673 36.521 45.8614L37.2661 48.6423C37.3472 48.9449 37.5881 49.1779 37.8926 49.249C38.0309 49.2815 38.1723 49.2778 38.3051 49.2422C38.4643 49.1996 38.6103 49.1107 38.7227 48.9828L39.1854 48.456C42.0388 50.9977 45.7165 53.6691 49.8264 56.1948L50.6115 59.125C50.7329 59.578 51.1977 59.8464 51.6507 59.725L53.2899 59.2858L54.3103 63.0941C52.8772 65.0056 51.4505 66.7296 50.0807 68.1527C46.6428 71.7236 44.5621 72.4913 43.8306 72.069C43.1813 71.694 42.8751 69.9329 43.6094 66.5936L45.5213 64.769C45.7364 64.5638 45.8278 64.2613 45.7638 63.9714C45.6999 63.6815 45.4885 63.4465 45.2075 63.3511L44.578 63.1382C45.1448 61.4281 45.9013 59.4689 46.9091 57.2252C47.1009 56.7981 46.9097 56.2961 46.4825 56.1034C46.0556 55.9126 45.5548 56.105 45.3609 56.5301C44.8012 57.7765 43.822 60.0758 42.9877 62.6001L42.31 62.3707C42.0147 62.2706 41.6856 62.3417 41.458 62.5553C41.2297 62.7691 41.1377 63.0915 41.2187 63.394L41.975 66.2164C41.2448 69.4843 41.1801 72.4982 42.9823 73.5383C43.6195 73.9063 44.3757 73.9722 45.2487 73.7383C46.8715 73.3034 48.8969 71.83 51.3034 69.3298C52.4626 68.125 53.6598 66.717 54.866 65.1681L55.7055 68.3011C55.8269 68.7542 56.2917 69.0225 56.7447 68.9011L63.3013 67.1443C63.7543 67.0229 64.0227 66.5581 63.9013 66.1051L63.0612 62.9701C64.8808 63.7085 66.6219 64.3293 68.2286 64.7932C71.5631 65.756 74.054 66.0192 75.6775 65.5833C76.5498 65.3496 77.1717 64.9146 77.5396 64.2773C78.5804 62.4755 77.0185 59.8986 74.7512 57.4332L73.9952 54.6116Z" fill="url(#paint1_linear_11702_2060)"/>
</g>
<defs>
<filter id="filter0_d_11702_2060" x="0.621582" y="0.621338" width="110.02" height="110.02" filterUnits="userSpaceOnUse" colorInterpolationFilters="sRGB">
<feFlood floodOpacity="0" result="BackgroundImageFix"/>
<feColorMatrix in="SourceAlpha" type="matrix" values="0 0 0 0 0 0 0 0 0 0 0 0 0 0 0 0 0 0 127 0" result="hardAlpha"/>
<feOffset dy="4"/>
<feGaussianBlur stdDeviation="7.5"/>
<feComposite in2="hardAlpha" operator="out"/>
<feColorMatrix type="matrix" values="0 0 0 0 0.968627 0 0 0 0 0.396078 0 0 0 0 0.305882 0 0 0 0.24 0"/>
<feBlend mode="normal" in2="BackgroundImageFix" result="effect1_dropShadow_11702_2060"/>
<feBlend mode="normal" in="SourceGraphic" in2="effect1_dropShadow_11702_2060" result="shape"/>
</filter>
<filter id="filter1_dd_11702_2060" x="17.49" y="11.0898" width="76.2831" height="81.0832" filterUnits="userSpaceOnUse" colorInterpolationFilters="sRGB">
<feFlood floodOpacity="0" result="BackgroundImageFix"/>
<feColorMatrix in="SourceAlpha" type="matrix" values="0 0 0 0 0 0 0 0 0 0 0 0 0 0 0 0 0 0 127 0" result="hardAlpha"/>
<feOffset dy="2.4"/>
<feGaussianBlur stdDeviation="2.4"/>
<feComposite in2="hardAlpha" operator="out"/>
<feColorMatrix type="matrix" values="0 0 0 0 0.968627 0 0 0 0 0.396078 0 0 0 0 0.305882 0 0 0 0.25 0"/>
<feBlend mode="normal" in2="BackgroundImageFix" result="effect1_dropShadow_11702_2060"/>
<feColorMatrix in="SourceAlpha" type="matrix" values="0 0 0 0 0 0 0 0 0 0 0 0 0 0 0 0 0 0 127 0" result="hardAlpha"/>
<feOffset dy="-2.4"/>
<feGaussianBlur stdDeviation="2.4"/>
<feComposite in2="hardAlpha" operator="out"/>
<feColorMatrix type="matrix" values="0 0 0 0 0.968627 0 0 0 0 0.396078 0 0 0 0 0.305882 0 0 0 0.25 0"/>
<feBlend mode="normal" in2="effect1_dropShadow_11702_2060" result="effect2_dropShadow_11702_2060"/>
<feBlend mode="normal" in="SourceGraphic" in2="effect2_dropShadow_11702_2060" result="shape"/>
</filter>
<linearGradient id="paint0_linear_11702_2060" x1="48.9681" y1="42.6514" x2="56.8765" y2="40.5337" gradientUnits="userSpaceOnUse">
<stop stopColor="#F43F5E"/>
<stop offset="1" stopColor="#FB923C"/>
</linearGradient>
<linearGradient id="paint1_linear_11702_2060" x1="37.5497" y1="61.8213" x2="76.2134" y2="51.4682" gradientUnits="userSpaceOnUse">
<stop stopColor="#F43F5E"/>
<stop offset="1" stopColor="#FB923C"/>
</linearGradient>
<clipPath id="clip0_11702_2060">
<rect width="37.3333" height="37.3333" fill="white" transform="translate(32.769 38.4319) rotate(-15)"/>
</clipPath>
</defs>
</svg>
