<svg width="459" height="320" viewBox="0 0 459 320" fill="none" xmlns="http://www.w3.org/2000/svg">
<path d="M183.246 153.227L219.126 136.055H266.47L301.204 152.633L244.96 197.805L202.022 179.909L183.246 153.227Z" fill="#FFD2D1"/>
<path d="M173.392 228.253C175.298 230.398 177.173 232.336 178.887 234.013H178.892C179.366 234.477 179.819 234.914 180.267 235.331L180.272 235.341C183.777 238.654 192.981 239.049 192.981 239.049L196.819 293.211L194.668 301.951L194.324 303.346L191.517 314.768H294.293L292.366 304.503L292.142 303.32L291.746 301.232L291.22 298.44L290.241 293.211L290.277 236.57C290.277 236.57 300.496 242.581 302.428 240.773C302.777 240.451 303.142 240.096 303.533 239.732C304.095 239.19 304.694 238.607 305.33 237.977C305.642 237.669 305.965 237.346 306.298 237.008C306.751 236.549 307.225 236.065 307.71 235.56C307.975 235.279 308.246 234.992 308.522 234.701C310.793 232.294 313.262 229.508 315.663 226.466C315.923 226.133 316.184 225.805 316.439 225.471C319.574 221.398 322.533 216.909 324.71 212.31C324.882 211.956 325.043 211.596 325.21 211.242C326.626 208.049 327.647 204.799 328.064 201.617C328.132 201.133 328.178 200.659 328.215 200.18C328.288 199.232 328.303 198.289 328.251 197.357C328.1 194.518 327.84 191.852 327.496 189.352C327.376 188.477 327.241 187.617 327.1 186.784C326.564 183.654 325.887 180.805 325.095 178.206V178.201C323.1 171.648 320.402 166.706 317.553 163.008C317.319 162.695 317.074 162.388 316.835 162.102C315.538 160.518 314.225 159.185 312.939 158.065C309.632 155.174 305.522 153.393 301.205 152.633C288.08 161.732 266.361 167.68 241.788 167.68C217.757 167.68 196.449 161.992 183.246 153.227C179.892 154.164 176.757 155.763 174.121 158.065C170.527 161.206 163.616 167.456 160.652 174.695C160.58 174.883 161.257 174.716 161.944 174.549C162.637 174.378 163.335 174.211 163.257 174.409V174.414C162.803 175.612 162.371 176.872 161.96 178.201V178.206C160.361 183.482 159.21 189.799 158.809 197.357C158.246 207.951 165.345 218.945 172.475 227.206C172.777 227.56 173.09 227.909 173.392 228.253Z" fill="#404040"/>
<path d="M294.339 314.766H214.094H294.292L292.365 304.5L292.141 303.318L291.745 301.229L291.219 298.438L290.24 293.208L290.266 254.297L290.594 256.995L290.286 293.203L294.339 314.766Z" fill="#D3D2D2"/>
<path d="M294.292 314.767H214.094C247.677 294.861 281.266 276.48 287.5 231.668L290.266 254.298L290.24 293.21L291.219 298.439L291.745 301.23L292.141 303.319L292.365 304.501L294.292 314.767Z" fill="#D3538E"/>
<path d="M266.036 106.133V165.977H219.125V106.133H266.036Z" fill="#FFD2D1"/>
<path d="M266.036 106.133C266.036 111.31 266.182 109.263 266.198 110.898C266.203 111.602 257.786 129.518 242.583 128.987C227.979 128.471 219.125 111.07 219.125 111.086V106.133H266.036Z" fill="#FFD2D1"/>
<path d="M276.267 75.6146C276.267 101.583 261.236 122.63 242.694 122.63C224.152 122.63 209.121 101.583 209.121 75.6146C209.121 49.6458 224.152 28.5938 242.694 28.5938C261.236 28.5938 276.267 49.6458 276.267 75.6146Z" fill="#FFD2D1"/>
<path d="M343.458 314.766L348.047 313.766L328.198 186.641L279.281 196.281L312.328 314.766H343.458Z" fill="#FFD2D1"/>
<path d="M290.594 256.995L287.001 227.599H286.995L285.672 222.193L280.699 201.974L280.24 200.126L279.584 197.448L279.521 197.198C279.438 196.891 279.36 196.589 279.282 196.282C278.803 194.407 278.469 192.537 278.271 190.672C278.235 190.282 278.199 189.891 278.167 189.506C277.85 185.209 278.261 181.027 279.313 177.198C279.422 176.803 279.542 176.402 279.667 176.011C281.917 168.912 286.449 163.162 292.672 160.376C293.053 160.204 293.428 160.047 293.813 159.907C294.282 159.73 294.751 159.568 295.23 159.428C295.719 159.287 296.219 159.157 296.73 159.047C298.245 158.714 299.751 158.568 301.245 158.579H301.256C301.834 158.584 302.407 158.61 302.98 158.662H302.985C306.172 158.954 309.256 159.974 312.115 161.599C312.391 161.756 312.667 161.912 312.949 162.084C316.662 164.37 319.975 167.693 322.579 171.73C322.803 172.079 323.021 172.422 323.23 172.771C323.876 173.844 324.469 174.974 325.016 176.136V176.141C326.516 179.355 327.61 182.896 328.199 186.641L333.933 211.443L334.251 212.818L339.115 233.849L339.407 235.146L339.412 235.152L341.245 243.099L290.594 256.995Z" fill="#404040"/>
<path d="M348.281 314.766C348.234 314.428 348.177 314.094 348.104 313.756C346.234 305.131 337.104 299.787 327.719 301.824C320.677 303.355 315.49 308.594 314.125 314.766H348.281Z" fill="#FFD2D1"/>
<path d="M337.227 244.23L337.919 248.897L298.94 266.512L295.82 255.569L337.227 244.23Z" fill="#FFD2D1"/>
<path d="M329.888 314.767L329.768 298.324L220.18 309.96L221.648 314.767H329.888Z" fill="#FFD2D1"/>
<path d="M204.824 74.8594C204.824 79.9219 207.048 84.0208 209.793 84.0208C212.543 84.0208 214.767 79.9219 214.767 74.8594C214.767 69.8021 212.543 65.7031 209.793 65.7031C207.048 65.7031 204.824 69.8021 204.824 74.8594Z" fill="#FFD2D1"/>
<path d="M243.601 92.2662C242.461 92.5006 241.528 92.3652 240.82 91.8756C239.414 90.8964 239.481 88.9224 239.518 87.9693L239.841 78.5266C239.851 78.136 240.179 77.8287 240.57 77.8443C240.955 77.8547 241.263 78.1829 241.247 78.5735L240.929 88.0214C240.893 89.0839 240.945 90.2402 241.627 90.7141C242.112 91.0527 242.862 90.9849 243.398 90.8652C243.638 90.8131 243.872 90.7454 244.112 90.6829C244.669 90.5266 245.247 90.3652 245.872 90.3443C246.263 90.3287 246.591 90.636 246.606 91.0266C246.617 91.412 246.31 91.7402 245.924 91.7558C245.466 91.7714 244.987 91.9016 244.487 92.0422C244.226 92.1099 243.966 92.1829 243.7 92.2402C243.669 92.2506 243.632 92.2558 243.601 92.2662Z" fill="#231F20"/>
<path d="M231.648 77.0326C231.648 78.6471 230.549 79.9544 229.195 79.9544C227.841 79.9544 226.742 78.6471 226.742 77.0326C226.742 75.4128 227.841 74.1055 229.195 74.1055C230.549 74.1055 231.648 75.4128 231.648 77.0326Z" fill="#231F20"/>
<path d="M219.131 69.4439C219.085 68.095 219.684 67.7929 220.35 66.7252C220.35 66.7252 227.538 62.996 234.98 64.621C235.741 65.7356 234.866 66.8866 234.866 66.8866C234.866 66.8866 226.074 65.8502 219.131 69.4439Z" fill="#231F20"/>
<path d="M266.47 69.7603C266.517 68.4114 265.913 68.1093 265.251 67.0416C265.251 67.0416 258.064 63.3124 250.616 64.9374C249.861 66.052 250.736 67.203 250.736 67.203C250.736 67.203 259.527 66.1666 266.47 69.7603Z" fill="#231F20"/>
<path d="M252.383 77.0326C252.383 78.6471 253.482 79.9544 254.836 79.9544C256.19 79.9544 257.289 78.6471 257.289 77.0326C257.289 75.4128 256.19 74.1055 254.836 74.1055C253.482 74.1055 252.383 75.4128 252.383 77.0326Z" fill="#231F20"/>
<path d="M233.434 99.6719C240.064 101.453 246.694 101.453 253.319 99.6719C253.996 99.6719 254.345 100.62 253.887 101.198C250.84 105.026 241.991 113.865 232.855 101.177C232.428 100.583 232.777 99.6719 233.434 99.6719Z" fill="#404040"/>
<path d="M181.045 82.3456C181.482 84.5591 182.248 86.7206 183.175 88.7883C184.831 92.4966 188.462 96.0018 187.555 100.267C186.633 104.57 183.258 107.471 181.342 111.257C179.045 115.804 178.571 121.304 179.045 126.309C179.675 132.955 181.706 140.012 184.988 145.835C192.925 159.913 221.816 167.372 225.936 146.08C226.644 142.439 226.311 138.684 225.967 134.991C225.092 125.455 224.133 115.757 220.477 106.903C217.081 98.6841 211.17 91.3352 209.545 82.4341C207.863 73.2154 212.508 64.3664 218.238 57.3977C223.3 51.2466 229.592 45.856 235.816 40.9133C236.795 40.1424 241.659 37.3612 241.805 36.2674C240.696 44.5956 248.269 50.6424 254.915 53.8716C260.196 56.4289 266.482 57.8456 270.764 62.0852C274.675 65.9549 276.024 71.8924 275.514 77.231C274.837 84.2779 271.571 90.8664 268.811 97.2831C265.863 104.153 263.102 111.148 261.451 118.46C259.748 126.023 259.159 134.481 260.873 142.085C263.133 152.132 269.972 154.986 279.743 154.09C284.857 153.616 290.003 151.997 294.102 148.825C298.982 145.043 302.321 139.57 304.238 133.757C305.212 130.814 305.831 127.757 306.107 124.674C306.243 123.142 305.337 116.846 306.144 115.835C311.904 108.648 314.873 99.1164 314.274 89.7883C313.962 85.0122 312.743 80.2883 310.623 75.9914C309.498 73.7102 308.107 71.6268 306.566 69.6112C304.566 67.007 304.404 67.3091 305.305 64.3299C308.045 55.2831 303.196 42.9133 298.139 35.5851C290.462 24.4549 277.107 16.2831 263.462 15.6164C257.061 15.2987 253.274 18.4029 247.561 19.9445C245.191 20.5851 242.779 18.6112 240.618 17.9862C233.508 15.9341 224.029 18.0904 217.232 20.481C210.878 22.7154 204.946 26.5279 201.003 31.9914C196.441 38.3195 194.873 46.1216 192.363 53.3612C191.066 57.0904 189.561 60.8039 187.227 64.0174C184.686 67.5122 182.04 70.4862 181.045 74.8768C180.477 77.3768 180.555 79.8924 181.045 82.3456Z" fill="#262626"/>
<path d="M188.755 99.2356C188.672 99.2356 188.594 99.2044 188.536 99.1367C188.416 99.0065 176.745 85.6783 179.14 73.9179C180.219 68.6106 183.963 64.4023 190.265 61.4023C190.411 61.3346 190.588 61.3971 190.656 61.5429C190.724 61.6888 190.666 61.8658 190.521 61.9335C184.39 64.845 180.755 68.9179 179.713 74.0325C177.375 85.5065 188.854 98.621 188.974 98.7513C189.078 98.871 189.068 99.0585 188.948 99.1627C188.89 99.2148 188.823 99.2356 188.755 99.2356Z" fill="url(#paint0_linear_12679_23518)"/>
<path d="M190.397 99.9644C190.339 99.9644 190.282 99.9487 190.23 99.9123C190.1 99.8237 176.829 90.7716 176.719 78.6102C176.652 71.355 181.199 64.4748 190.225 58.1675C190.36 58.0737 190.542 58.105 190.631 58.2352C190.725 58.3706 190.693 58.5529 190.563 58.6414C181.699 64.8341 177.24 71.5529 177.303 78.605C177.412 90.4644 190.428 99.3394 190.558 99.4279C190.688 99.5164 190.725 99.6987 190.636 99.8341C190.579 99.9175 190.49 99.9644 190.397 99.9644Z" fill="url(#paint1_linear_12679_23518)"/>
<path d="M300.314 117.854C300.189 117.854 300.075 117.77 300.038 117.645C299.986 117.494 300.075 117.328 300.231 117.281C309.33 114.499 313.538 101.911 314.45 91.062C315.377 79.963 313.038 70.0724 309.007 68.0568C307.283 67.1922 305.314 67.7339 303.142 69.6609L302.616 70.1297L302.658 69.4266C303.569 52.7339 301.351 39.4578 296.064 29.9787C291.752 22.2391 285.538 17.1818 277.595 14.937C264.335 11.1922 250.595 16.7599 248.194 21.1974L248.085 21.4057L247.861 21.3432C229.986 16.4474 216.075 17.8641 206.512 25.5412C191.46 37.6401 192.465 61.4162 192.476 61.6505C192.481 61.812 192.361 61.9526 192.2 61.9578C192.038 61.9682 191.903 61.8432 191.892 61.6818C191.882 61.4422 190.866 37.3641 206.147 25.088C215.825 17.3172 229.835 15.8432 247.799 20.7182C250.569 16.1714 264.424 10.6141 277.757 14.3745C285.851 16.6609 292.184 21.8172 296.575 29.6922C301.845 39.1401 304.095 52.2912 303.272 68.7859C305.439 67.0464 307.455 66.6245 309.267 67.5359C314.142 69.9734 315.856 81.2391 315.033 91.1089C314.106 102.151 309.778 114.968 300.403 117.838L300.314 117.854Z" fill="url(#paint2_linear_12679_23518)"/>
<path d="M305.406 116.531C305.348 116.531 305.291 116.516 305.239 116.479C305.104 116.386 305.072 116.203 305.166 116.073C315.833 100.896 319.515 88.7189 316.114 79.8752C312.775 71.1824 303.52 68.9845 303.426 68.9585L303.291 68.9272L303.229 68.797C303.176 68.6929 298.156 57.7449 292.619 30.4637C281.458 16.0106 271.187 9.2189 262.093 10.2658C252.307 11.396 247.27 21.5522 246.9 22.3283C246.874 22.5418 246.749 22.8647 246.39 23.021C245.218 23.5262 242.432 21.7502 238.093 17.7345C223.171 14.771 211.786 16.8283 204.239 23.8595C191.458 35.7658 194.135 58.1408 194.161 58.3647C194.182 58.5262 194.067 58.672 193.911 58.6929C193.749 58.7137 193.604 58.5991 193.583 58.4377C193.551 58.2137 190.843 35.547 203.843 23.4324C211.541 16.2554 223.135 14.1512 238.286 17.1772L238.369 17.1929L238.432 17.2502C244.286 22.6824 245.828 22.6304 246.156 22.4845C246.312 22.4168 246.317 22.2554 246.317 22.2554L246.343 22.1304C246.395 22.021 251.567 10.9012 262.02 9.68765C271.343 8.60953 281.807 15.4949 293.124 30.1616L293.166 30.2137L293.182 30.2814C298.385 55.9741 303.135 67.146 303.703 68.4272C304.916 68.7502 313.442 71.2918 316.661 79.6616C320.135 88.6981 316.426 101.063 305.645 116.406C305.588 116.49 305.494 116.531 305.406 116.531Z" fill="url(#paint3_linear_12679_23518)"/>
<mask id="mask0_12679_23518" style="mask-type:luminance" maskUnits="userSpaceOnUse" x="311" y="185" width="18" height="57">
<path d="M311.934 185.875H328.892V241.193H311.934V185.875Z" fill="white"/>
</mask>
<g mask="url(#mask0_12679_23518)">
<mask id="mask1_12679_23518" style="mask-type:luminance" maskUnits="userSpaceOnUse" x="311" y="186" width="18" height="55">
<path d="M328.295 240.835H328.279C327.966 240.835 327.706 240.579 327.696 240.262C327.55 233.579 325.628 227.027 322.144 221.324C321.748 220.673 321.326 220.033 320.909 219.387C319.43 217.116 317.899 214.772 317.289 212.059C316.55 208.757 317.279 205.303 317.925 202.251C318.539 199.34 319.232 196.038 318.503 192.954C317.847 190.178 315.591 187.319 312.539 187.225C312.222 187.22 311.966 186.949 311.977 186.626C311.987 186.314 312.237 186.059 312.545 186.059C312.555 186.059 312.565 186.059 312.576 186.059C316.211 186.168 318.883 189.475 319.644 192.684C320.43 196.022 319.706 199.46 319.065 202.496C318.414 205.569 317.748 208.751 318.43 211.803C318.992 214.309 320.461 216.569 321.883 218.751C322.31 219.402 322.737 220.053 323.138 220.715C326.732 226.595 328.711 233.345 328.867 240.236C328.873 240.559 328.617 240.824 328.295 240.835Z" fill="white"/>
</mask>
<g mask="url(#mask1_12679_23518)">
<path d="M311.965 240.835H328.871V186.059H311.965V240.835Z" fill="#FDFDEA"/>
</g>
</g>
<path d="M171.512 314.767L204.293 197.225L155.382 187.59L135.527 314.715L135.772 314.767H171.512Z" fill="#FFD2D1"/>
<path d="M192.979 257.946L196.573 228.545H196.578L197.906 223.139L202.88 202.92L203.333 201.071L203.995 198.394L204.052 198.144C204.141 197.842 204.219 197.534 204.292 197.227C204.771 195.352 205.109 193.482 205.302 191.618C205.339 191.232 205.38 190.842 205.406 190.451C205.729 186.154 205.312 181.972 204.26 178.144C204.156 177.748 204.036 177.347 203.911 176.956C201.661 169.857 197.13 164.107 190.901 161.321C190.521 161.149 190.146 160.993 189.76 160.852C189.297 160.675 188.823 160.519 188.349 160.378C187.859 160.232 187.354 160.102 186.849 159.993C185.333 159.665 183.828 159.514 182.328 159.524H182.323C181.745 159.529 181.172 159.555 180.594 159.607H180.589C177.401 159.899 174.323 160.92 171.458 162.545C171.182 162.696 170.906 162.857 170.63 163.034C166.911 165.321 163.599 168.639 160.995 172.675C160.771 173.024 160.557 173.368 160.344 173.717C159.703 174.79 159.109 175.92 158.562 177.081V177.086C157.062 180.305 155.964 183.842 155.38 187.592L149.646 212.389L149.328 213.764L144.464 234.795L144.167 236.092V236.102L142.328 244.045L192.979 257.946Z" fill="#404040"/>
<path d="M169.211 314.769C167.549 309.014 162.539 304.222 155.862 302.769C146.471 300.732 137.346 306.076 135.471 314.706L135.461 314.769H169.211Z" fill="#FFD2D1"/>
<path d="M146.305 245.406L145.586 250.005L184.638 267.703L187.758 256.505L146.305 245.406Z" fill="#FFD2D1"/>
<path d="M283.661 314.768C277.547 314.049 271.724 313.653 271.724 313.653L275.766 311.94C275.766 311.94 280.375 311.981 282.552 309.492C283.125 308.841 282.573 307.877 281.672 307.945C280.229 308.054 278.901 308.012 278.026 307.95C277.339 307.903 274.906 308.059 274.286 308.341C272.776 309.039 271.167 309.137 267.672 309.94C262.589 309.565 252.828 312.507 252.828 312.507L253.281 314.768H283.661Z" fill="#FFD2D1"/>
<path d="M256.065 314.766L255.966 312.906L154.352 299.797L153.836 314.766H256.065Z" fill="#FFD2D1"/>
<path d="M192.979 257.945C192.969 257.94 190.938 257.404 187.75 256.549L187.755 256.508L192.979 257.945Z" fill="#D3D2D2"/>
<path d="M187.75 256.505L179.625 254.328C176.958 253.594 174.089 252.786 171.203 251.969L187.75 256.505Z" fill="#D27B78"/>
<path d="M192.982 257.945L187.758 256.508H187.753L171.206 251.971C171.201 251.966 171.201 251.966 171.195 251.966C183.247 249.857 194.497 225.315 196.659 220.914L192.982 257.945Z" fill="#D3538E"/>
<path d="M187.75 256.547C185.51 255.943 182.703 255.182 179.625 254.328L187.75 256.505H187.755L187.75 256.547Z" fill="#BD6E6E"/>
<path d="M153.631 239.068L153.553 239.062C153.23 239.016 153.006 238.724 153.053 238.401C154.001 231.578 156.751 225.099 161.001 219.677C161.475 219.068 161.975 218.469 162.475 217.87C164.136 215.865 165.86 213.792 166.709 211.37C167.741 208.417 167.444 205.177 167.157 202.047C166.871 198.964 166.548 195.464 167.72 192.24C168.787 189.292 171.579 186.453 174.97 186.453C175.147 186.453 175.324 186.464 175.501 186.479C175.824 186.505 176.063 186.786 176.032 187.109C176.006 187.411 175.756 187.646 175.465 187.646C175.444 187.646 175.423 187.641 175.402 187.641C175.256 187.63 175.116 187.62 174.97 187.62C172.126 187.62 169.746 190.083 168.819 192.635C167.735 195.615 168.048 198.979 168.319 201.943C168.605 205.047 168.928 208.563 167.813 211.755C166.892 214.375 165.105 216.531 163.371 218.615C162.881 219.208 162.392 219.797 161.918 220.396C157.798 225.661 155.131 231.943 154.209 238.562C154.168 238.854 153.918 239.068 153.631 239.068Z" fill="#FDFDEA"/>
<path d="M245.121 178.605C230.527 178.605 215.944 176.507 202.001 172.293C201.746 171.793 201.48 171.298 201.199 170.824C215.371 175.241 230.246 177.439 245.126 177.439C257.111 177.439 269.095 176.012 280.72 173.168C280.538 173.6 280.361 174.048 280.189 174.496C268.725 177.236 256.923 178.605 245.121 178.605Z" fill="#FDFDEA"/>
<path d="M280.188 174.496C280.359 174.048 280.536 173.6 280.719 173.168C287.766 171.444 294.677 169.194 301.38 166.428C301.453 166.402 301.526 166.387 301.599 166.387C301.828 166.387 302.047 166.522 302.141 166.746C302.266 167.043 302.125 167.387 301.823 167.512C294.812 170.402 287.573 172.73 280.188 174.496Z" fill="#FDFDEA"/>
<path d="M202 172.293C199.828 171.632 197.666 170.923 195.526 170.163C195.218 170.053 195.062 169.72 195.172 169.418C195.255 169.178 195.479 169.027 195.718 169.027C195.786 169.027 195.854 169.038 195.916 169.064C197.661 169.684 199.427 170.267 201.198 170.824C201.479 171.298 201.744 171.793 202 172.293Z" fill="#FDFDEA"/>
<path d="M284.654 34.0469C277.971 20.8073 264.758 14.4688 243.07 14.099C242.888 14.099 242.716 14.099 242.534 14.0938C242.357 14.099 242.18 14.099 242.002 14.099C220.31 14.4688 207.101 20.8073 200.419 34.0469C194.492 45.7917 194.513 61.125 194.534 78.875C194.539 79.9635 194.539 81.0573 194.539 82.1615H200.898C200.898 81.0573 200.898 79.9583 200.893 78.8646C200.872 62.0573 200.851 47.5417 206.002 37.3385C208.19 33 212.013 27.7396 220.971 24.375C226.107 22.4427 232.93 21.1354 242.101 20.9792C242.18 20.9792 242.258 20.974 242.336 20.974C242.404 20.974 242.471 20.974 242.534 20.974C242.601 20.974 242.669 20.974 242.737 20.974C242.815 20.974 242.893 20.9792 242.971 20.9792C252.138 21.1354 258.966 22.4427 264.096 24.375C273.055 27.7396 276.877 33 279.065 37.3385C284.216 47.5417 284.195 62.0573 284.174 78.8646C284.174 79.9583 284.174 81.0573 284.174 82.1615H290.534C290.534 81.0573 290.534 79.9635 290.539 78.875C290.56 61.125 290.581 45.7917 284.654 34.0469Z" fill="#404040"/>
<path d="M293.745 86.0234H291.5V71.9141H293.745C294.469 71.9141 295.047 72.4974 295.047 73.2161V84.7214C295.047 85.4401 294.469 86.0234 293.745 86.0234Z" fill="#F7684C"/>
<path d="M281.667 93.4805H286.354V63.2461H281.667C280.172 63.2461 278.953 64.4596 278.953 65.9596V90.7617C278.953 92.2617 280.172 93.4805 281.667 93.4805Z" fill="#404040"/>
<path d="M286.355 63.2461V93.4805L290.496 92.3242C291.079 92.1576 291.501 91.4596 291.501 90.6471V66.0742C291.501 65.2617 291.079 64.5638 290.496 64.4023L288.522 63.8503L286.355 63.2461Z" fill="#404040"/>
<path d="M264.094 24.375C262.344 20.974 259.182 18.6615 255.583 18.1875L242.568 16.4948V16.4844L242.531 16.4896L242.495 16.4844V16.4948L229.484 18.1875C225.88 18.6615 222.724 20.974 220.969 24.375C226.104 22.4427 232.927 21.1354 242.099 20.9792C242.167 20.9792 242.422 20.974 242.531 20.974C242.641 20.974 242.901 20.9792 242.969 20.9792C252.135 21.1354 258.964 22.4427 264.094 24.375Z" fill="#404040"/>
<path d="M292.5 86.0234H293.276V71.9141H292.5V86.0234Z" fill="#404040"/>
<path d="M291.503 69.1276H289.034C288.753 69.1276 288.523 68.8203 288.523 68.4401V63.8516L290.497 64.4036C291.081 64.5651 291.503 65.263 291.503 66.0755V69.1276Z" fill="#404040"/>
<path d="M281.751 91.0938C281.652 91.0938 281.533 90.8906 281.402 90.3854C280.798 87.9896 280.762 85.526 280.621 83.026C280.47 80.3073 280.428 77.5677 280.418 74.8385C280.408 72.2083 280.132 68.9948 280.715 66.4531C281.033 65.0729 282.106 64.4531 283.194 64.4531C283.626 64.4531 284.064 64.5521 284.454 64.7396C284.783 64.901 285.079 65.1198 285.319 65.401C284.079 66.4531 282.106 66.4323 281.97 69.0156C281.694 72.7604 281.913 76.6823 281.991 80.4427C282.048 83.1719 282.158 85.8958 282.262 88.6198C282.283 89.1563 282.085 91.0938 281.751 91.0938Z" fill="#404040"/>
<path d="M190.701 86.0234H192.945V71.9141H190.701C189.982 71.9141 189.398 72.4974 189.398 73.2161V84.7214C189.398 85.4401 189.982 86.0234 190.701 86.0234Z" fill="#F7684C"/>
<path d="M202.777 93.4805H198.09V63.2461H202.777C204.277 63.2461 205.491 64.4596 205.491 65.9596V90.7617C205.491 92.2617 204.277 93.4805 202.777 93.4805Z" fill="#404040"/>
<path d="M198.091 63.2461V93.4805L193.951 92.3242C193.367 92.1576 192.945 91.4596 192.945 90.6471V66.0742C192.945 65.2617 193.367 64.5638 193.951 64.4023L195.924 63.8503L198.091 63.2461Z" fill="#404040"/>
<path d="M191.943 86.0234H191.172V71.9141H191.943V86.0234Z" fill="#404040"/>
<path d="M202.695 91.0938C202.367 91.0938 202.169 89.1563 202.19 88.6198C202.289 85.8958 202.398 83.1719 202.461 80.4427C202.534 76.6823 202.758 72.7604 202.482 69.0156C202.341 66.4323 200.372 66.4531 199.133 65.401C199.367 65.1198 199.664 64.901 199.997 64.7396C200.388 64.5521 200.82 64.4531 201.258 64.4531C202.341 64.4531 203.414 65.0729 203.732 66.4531C204.32 68.9948 204.044 72.2083 204.029 74.8385C204.018 77.5677 203.982 80.3073 203.826 83.026C203.69 85.526 203.648 87.9896 203.044 90.3854C202.919 90.8906 202.799 91.0938 202.695 91.0938Z" fill="#404040"/>
<path d="M251.876 126.833L250.98 124.38L276.246 115.161C279.288 114.052 281.329 111.135 281.329 107.896V87.5938H283.939V107.896C283.939 112.229 281.21 116.135 277.142 117.62L251.876 126.833Z" fill="#404040"/>
<path d="M241.351 127.126C241.742 129.803 245.33 131.496 249.362 130.907C253.398 130.319 256.356 127.673 255.966 124.996C255.575 122.319 251.987 120.626 247.95 121.214C243.914 121.803 240.96 124.449 241.351 127.126Z" fill="#404040"/>
<path d="M324.979 305.938H160.407L149.078 205.667C148.75 202.76 151.026 200.219 153.948 200.219H331.433C334.36 200.219 336.636 202.76 336.308 205.667L324.979 305.938Z" fill="url(#paint4_linear_12679_23518)"/>
<path d="M244 238C232.955 238 224 246.955 224 258C224 269.045 232.955 278 244 278C255.045 278 264 269.045 264 258C264 246.958 255.045 238 244 238ZM244 276.533C233.781 276.533 225.467 268.219 225.467 258.003C225.467 247.784 233.781 239.473 244 239.473C254.216 239.473 262.53 247.787 262.53 258.003C262.53 268.219 254.216 276.533 244 276.533ZM244 240.494C234.344 240.494 226.488 248.349 226.488 258.003C226.488 267.656 234.344 275.515 244 275.515C253.653 275.515 261.509 267.659 261.509 258.003C261.509 248.347 253.653 240.494 244 240.494ZM249.457 246.647L248.46 249.298L247.036 249.005L247.575 247.578L248.01 246.421L249.457 246.647ZM250.661 248.204L250.122 249.634L248.64 249.332L249.179 247.903L250.661 248.204ZM248.005 245.931L247.462 247.364L247.396 247.54L246.856 248.967L245.377 248.666L245.917 247.236L245.981 247.062L246.5 245.687L248.005 245.931ZM246.416 245.412L245.807 247.024L244.357 246.728L244.945 245.18L246.416 245.412ZM243.29 244.881L244.777 245.122L244.183 246.691L242.721 246.392L243.29 244.881ZM236.785 245.383L237.516 245.534L236.968 246.989L236.234 246.842L236.785 245.383ZM238.514 243.431L239.955 243.727L237.8 249.446L236.359 249.15L238.514 243.431ZM240.419 243.049L241.86 243.344L239.163 250.507L237.722 250.211L240.419 243.049ZM242.472 246.531L241.935 247.961L240.442 247.653L240.978 246.224L242.472 246.531ZM238.493 272.838L243.675 258.652L239.705 259.201L241.918 253.137L241.909 253.128L242.634 251.206L241.834 248.741L241.982 248.344L242.046 248.173L242.112 247.996L242.55 246.83L242.649 246.566L245.737 247.198L245.195 248.628L243.727 248.326L243.661 248.5L246.787 249.138L246.967 249.176L248.39 249.469L247.567 251.649L246.81 253.662L245.238 257.832L250.667 257.078L238.493 272.838ZM249.26 252.534L251.957 245.371L253.398 245.664L250.701 252.827L249.26 252.534ZM251.163 252.154L253.314 246.436L254.753 246.731L252.601 252.45L251.163 252.154ZM254.329 250.498L253.598 250.347L254.146 248.892L254.877 249.043L254.329 250.498Z" fill="white"/>
<mask id="mask2_12679_23518" style="mask-type:luminance" maskUnits="userSpaceOnUse" x="26" y="303" width="433" height="17">
<path d="M26.5469 303.152H458.901V319.876H26.5469V303.152Z" fill="white"/>
</mask>
<g mask="url(#mask2_12679_23518)">
<path d="M458.905 319.876H26.6133V303.309H458.905V319.876Z" fill="url(#paint5_linear_12679_23518)" fill-opacity="0.12"/>
</g>
<path d="M325.602 107.594H436.247C440.096 107.594 443.216 110.714 443.216 114.557V130.448C443.216 134.297 440.096 137.417 436.247 137.417H325.602C321.753 137.417 318.633 134.297 318.633 130.448V114.557C318.633 110.714 321.753 107.594 325.602 107.594Z" fill="url(#paint6_linear_12679_23518)" fill-opacity="0.12"/>
<path d="M352 107.5L330 93V107.5H352Z" fill="url(#paint7_linear_12679_23518)" fill-opacity="0.12"/>
<path d="M331.246 116.418H378.574C379.012 116.418 379.366 116.85 379.366 117.387C379.366 117.923 379.012 118.361 378.574 118.361H331.246C330.803 118.361 330.449 117.923 330.449 117.387C330.449 116.85 330.803 116.418 331.246 116.418Z" fill="#FDFDEA"/>
<path d="M386.401 116.418H430.599C431.036 116.418 431.391 116.85 431.391 117.387C431.391 117.923 431.036 118.361 430.599 118.361H386.401C385.964 118.361 385.609 117.923 385.609 117.387C385.609 116.85 385.964 116.418 386.401 116.418Z" fill="#FDFDEA"/>
<path d="M331.246 126.652H353.741C354.178 126.652 354.533 127.085 354.533 127.621C354.533 128.158 354.178 128.595 353.741 128.595H331.246C330.803 128.595 330.449 128.158 330.449 127.621C330.449 127.085 330.803 126.652 331.246 126.652Z" fill="#FDFDEA"/>
<path d="M365.616 126.652H407.725C408.163 126.652 408.517 127.085 408.517 127.621C408.517 128.158 408.163 128.595 407.725 128.595H365.616C365.178 128.595 364.824 128.158 364.824 127.621C364.824 127.085 365.178 126.652 365.616 126.652Z" fill="#FDFDEA"/>
<path d="M416.096 126.652H430.602C431.039 126.652 431.393 127.085 431.393 127.621C431.393 128.158 431.039 128.595 430.602 128.595H416.096C415.659 128.595 415.305 128.158 415.305 127.621C415.305 127.085 415.659 126.652 416.096 126.652Z" fill="#FDFDEA"/>
<path d="M63.3447 88.4141C61.5166 98.4505 55.8603 107.289 51.3916 116.456C46.9228 125.622 43.5374 136.19 46.6051 145.919C49.303 154.487 56.8082 161.773 56.2666 170.737C55.8499 177.544 50.8499 183.076 48.1728 189.346C45.4176 195.81 45.1937 203.31 47.553 209.924C49.9124 216.539 54.8395 222.201 61.0582 225.456C67.7666 228.961 76.7041 225.617 81.9124 220.122C87.126 214.633 89.1572 206.768 89.277 199.195C89.4124 190.419 87.2041 181.612 82.9332 173.935C79.5322 167.826 74.7562 162.138 73.8603 155.201C72.678 146.044 78.5478 137.622 80.9124 128.701C83.0687 120.57 82.2197 111.68 78.5687 104.107C74.9124 96.5339 71.0426 91.7891 63.3447 88.4141Z" fill="url(#paint8_linear_12679_23518)" fill-opacity="0.12"/>
<path d="M98.8707 149.34C98.1884 149.262 97.4436 149.777 96.527 151.152C94.9072 153.59 93.1311 155.59 90.8395 157.433C87.8082 159.866 84.4801 162.048 82.1884 165.189C79.2041 169.272 78.3291 174.48 77.5374 179.48C75.178 194.35 68.8863 215.324 82.8447 226.683C89.2093 227.439 96.1051 224.923 100.256 220.043C104.412 215.157 105.923 208.152 104.157 201.991C102.35 195.699 97.3759 190.012 98.2509 183.527C98.9957 178.006 103.829 173.876 105.355 168.517C107.001 162.746 104.647 157.163 101.647 152.293C100.647 150.673 99.8186 149.439 98.8707 149.34Z" fill="url(#paint9_linear_12679_23518)" fill-opacity="0.12"/>
<path d="M2.20038 133.727C-3.08608 149.216 1.37746 167.581 13.1795 178.909C14.9035 180.57 16.815 182.143 17.8723 184.289C20.0285 188.674 18.0233 193.846 17.6952 198.721C17.0962 207.477 22.3202 215.924 29.5025 220.956C36.69 225.992 45.5702 228.049 54.315 228.789C57.9712 229.096 61.0077 224.836 61.6535 221.216C62.2941 217.596 61.2056 213.904 59.8671 210.482C55.1066 198.294 46.9868 187.44 36.6379 179.44C32.69 176.388 28.2629 173.549 26.0285 169.091C23.3618 163.779 24.4087 157.336 22.5493 151.695C20.9973 146.971 17.4712 143.091 13.4035 140.221C9.3358 137.357 6.78372 135.669 2.20038 133.727Z" fill="url(#paint10_linear_12679_23518)" fill-opacity="0.12"/>
<path d="M77.4802 268.539L60.6781 239.466C57.4802 235.19 43.9281 213.674 30.4386 191.091C23.2302 179.008 17.1781 168.518 12.9438 160.753C5.13126 146.414 5.34481 144.742 5.43335 144.023L7.45939 144.279C7.41772 144.711 7.82918 147.112 14.8083 159.909C19.0375 167.664 25.074 178.122 32.2615 190.159C45.5271 212.372 59.324 234.268 62.3448 238.289L62.4125 238.388L79.2458 267.518L77.4802 268.539Z" fill="url(#paint11_linear_12679_23518)"/>
<path d="M69.6732 254.798L63.9961 114.954L66.0326 114.871L71.7096 254.715L69.6732 254.798Z" fill="url(#paint12_linear_12679_23518)"/>
<path d="M84.0312 259.12C79.4322 222.542 82.2916 198.891 85.4999 185.49C89.0103 170.844 93.6041 164.958 93.7968 164.719L95.3957 165.99L94.5989 165.354L95.3957 165.984C95.3489 166.042 90.828 171.885 87.4374 186.182C84.2968 199.401 81.5103 222.74 86.0572 258.87L84.0312 259.12Z" fill="url(#paint13_linear_12679_23518)"/>
<path d="M97.3307 304.617H50.1068C48.4141 304.617 47.0026 303.315 46.8724 301.622L42.1484 241.461H105.294L100.565 301.622C100.435 303.315 99.0234 304.617 97.3307 304.617Z" fill="url(#paint14_linear_12679_23518)"/>
<path d="M107.932 254.684L40.1302 258.367C38.4896 258.455 37.1094 257.153 37.1094 255.507V242.976C37.1094 241.497 38.2396 240.257 39.7083 240.122L107.51 233.856C109.188 233.7 110.635 235.018 110.635 236.705V251.825C110.635 253.346 109.448 254.601 107.932 254.684Z" fill="#F76E4A"/>
<path d="M143.378 69.4444C140.43 66.0225 139.862 60.6735 142.013 56.486C142.549 55.4444 143.253 54.4704 144.091 53.6371C144.93 52.8037 145.898 52.111 146.935 51.5589C149.013 50.4496 151.404 49.9235 153.753 50.1267C154.93 50.2308 156.076 50.5277 157.169 50.9808C158.247 51.4496 159.247 52.111 160.07 52.9548C160.893 53.8037 161.539 54.8662 161.763 56.0433C161.997 57.2412 161.701 58.4652 161.086 59.46C160.487 60.4548 159.456 61.2777 158.232 61.3923C157.622 61.4496 157.018 61.335 156.471 61.0902C155.93 60.835 155.456 60.46 155.065 60.0277C154.279 59.1475 153.779 58.085 153.424 57.0017C153.253 56.4548 153.112 55.8871 153.044 55.3298L152.909 54.4912L152.846 54.0746L152.815 53.6475C152.367 49.1319 153.43 44.4548 155.747 40.5017C156.893 38.5173 158.326 36.6892 160.013 35.111C161.695 33.5329 163.664 32.2464 165.784 31.3142C170.049 29.486 174.852 29.1423 179.294 30.1371C181.518 30.6319 183.664 31.4496 185.622 32.585C186.102 32.8871 186.596 33.1579 187.049 33.4912C187.503 33.8298 187.961 34.1579 188.393 34.5121C188.815 34.8871 189.237 35.2517 189.648 35.6319L190.789 36.861C190.82 36.8923 190.82 36.9496 190.784 36.986C190.753 37.0173 190.701 37.0173 190.664 36.986L190.659 36.9808C187.378 34.0173 183.263 32.1892 179.034 31.5121C174.799 30.8454 170.393 31.3089 166.549 33.0485C162.701 34.7569 159.414 37.7204 157.185 41.3506C156.065 43.1735 155.206 45.1527 154.622 47.2152C154.044 49.2777 153.727 51.4287 153.789 53.5902V53.9964L153.826 54.3975L153.904 55.2048C153.935 55.7517 154.034 56.2673 154.159 56.7881C154.414 57.8194 154.841 58.8298 155.513 59.6267C156.164 60.4339 157.164 60.9392 158.18 60.8558C159.195 60.7777 160.076 60.0485 160.591 59.1631C161.112 58.2673 161.305 57.1735 161.049 56.2048C160.784 55.21 160.174 54.3402 159.393 53.6683C158.617 52.9912 157.685 52.486 156.706 52.1527C155.721 51.8298 154.695 51.6371 153.659 51.6006C151.591 51.5225 149.508 52.0173 147.669 52.9496C145.82 53.8871 144.242 55.3402 143.227 57.1423C141.154 60.7517 141.206 65.5954 143.518 69.335C143.549 69.3767 143.534 69.4339 143.492 69.46C143.456 69.4808 143.409 69.4756 143.378 69.4444Z" fill="url(#paint15_linear_12679_23518)"/>
<path d="M131.491 176.524C132.002 175.623 132.669 174.805 133.476 174.159C134.283 173.519 135.252 173.076 136.278 173.003C137.273 172.93 138.314 173.321 139.096 173.998C139.872 174.67 140.429 175.67 140.32 176.68C140.215 177.696 139.533 178.586 138.622 179.076C137.71 179.592 136.642 179.826 135.58 179.883C135.049 179.915 134.523 179.909 133.981 179.847L133.169 179.774L132.767 179.732L132.366 179.665C131.788 179.571 131.215 179.446 130.653 179.3C130.533 179.274 130.46 179.149 130.491 179.034C130.721 178.159 131.059 177.316 131.491 176.524ZM146.07 192.706C146.049 192.659 145.997 192.638 145.95 192.654C141.851 194.243 137.08 193.399 133.913 190.701C132.33 189.362 131.189 187.55 130.611 185.56C130.142 183.951 129.991 182.243 130.195 180.571C130.21 180.451 130.33 180.368 130.45 180.388C131.049 180.493 131.648 180.576 132.247 180.628L132.669 180.675L133.096 180.691L133.945 180.711C134.502 180.748 135.085 180.711 135.653 180.644C136.788 180.498 137.924 180.201 138.929 179.592C139.424 179.284 139.882 178.888 140.231 178.404C140.575 177.909 140.799 177.336 140.856 176.732C140.965 175.503 140.351 174.342 139.481 173.566C138.616 172.779 137.471 172.258 136.247 172.274C135.049 172.274 133.887 172.717 132.903 173.368C131.919 174.019 131.09 174.883 130.424 175.857C129.866 176.711 129.419 177.638 129.101 178.612C129.064 178.727 128.939 178.79 128.825 178.748C127.95 178.435 127.09 178.076 126.257 177.665C124.34 176.711 122.549 175.503 120.971 174.071C119.111 172.383 117.434 171.191 116.262 169.008L116.236 168.967L114.575 167.128C114.413 166.951 114.127 167.123 114.21 167.342C114.57 168.336 114.997 169.571 115.356 170.133C116.596 172.081 118.127 173.831 119.866 175.321C122.377 177.498 125.372 179.097 128.554 179.967C128.658 179.993 128.726 180.097 128.705 180.206C128.372 182.138 128.517 184.149 129.111 186.024C129.465 187.144 129.965 188.222 130.627 189.201C131.294 190.18 132.122 191.05 133.049 191.769C136.767 194.654 142.127 195.081 146.033 192.816C146.07 192.79 146.085 192.743 146.07 192.706Z" fill="url(#paint16_linear_12679_23518)"/>
<path d="M425.784 235.057H383.112C382.253 235.057 381.555 234.359 381.555 233.5V202.844C381.555 201.979 382.253 201.281 383.112 201.281H425.784C426.648 201.281 427.346 201.979 427.346 202.844V233.5C427.346 234.359 426.648 235.057 425.784 235.057Z" fill="url(#paint17_linear_12679_23518)"/>
<path d="M403.505 226.701C403.073 226.701 402.641 226.669 402.214 226.607C399.255 226.185 396.682 224.346 395.318 221.69L384.354 200.258C383.177 197.956 384.089 195.133 386.391 193.951C388.693 192.773 391.521 193.685 392.698 195.992L403.552 217.206L436.797 181.987C438.573 180.102 441.542 180.018 443.422 181.794C445.302 183.576 445.385 186.539 443.615 188.419L410.203 223.815C408.448 225.669 406.021 226.701 403.505 226.701Z" fill="#FDFDEA"/>
<path d="M102.653 45.9806C102.013 46.7098 102.091 47.8192 102.82 48.4598C103.549 49.1004 104.981 48.6577 105.617 47.9286C106.257 47.1994 105.7 46.0536 104.966 45.4129C104.237 44.7723 103.294 45.2515 102.653 45.9806Z" fill="url(#paint18_linear_12679_23518)"/>
<path d="M69.4354 56.1354C68.6177 57.0677 68.7114 58.4896 69.6489 59.3073C70.5812 60.125 72.4145 59.5625 73.2323 58.6302C74.05 57.6927 73.3312 56.224 72.3989 55.4062C71.4666 54.5885 70.2531 55.1979 69.4354 56.1354Z" fill="url(#paint19_linear_12679_23518)"/>
<path d="M94.5171 64.923C93.7514 65.7928 93.84 67.121 94.715 67.8866C95.5848 68.6522 97.2983 68.121 98.0587 67.2512C98.8243 66.3762 98.1577 65.0064 97.2827 64.246C96.4129 63.4803 95.2827 64.048 94.5171 64.923Z" fill="url(#paint20_linear_12679_23518)"/>
<path d="M419.283 50.3651C418.372 51.4016 418.471 52.9797 419.512 53.8912C420.549 54.7974 422.585 54.1724 423.497 53.1308C424.403 52.0943 423.611 50.4641 422.57 49.5526C421.533 48.6464 420.189 49.3235 419.283 50.3651Z" fill="url(#paint21_linear_12679_23518)"/>
<path d="M372.028 64.8093C370.867 66.1374 371.002 68.1582 372.33 69.3249C373.658 70.4863 376.268 69.6843 377.434 68.3561C378.591 67.028 377.575 64.9395 376.247 63.7728C374.919 62.6061 373.195 63.4759 372.028 64.8093Z" fill="url(#paint22_linear_12679_23518)"/>
<path d="M407.706 77.3051C406.623 78.5499 406.748 80.4354 407.987 81.5239C409.232 82.6072 411.659 81.8624 412.748 80.6176C413.836 79.3781 412.883 77.4301 411.643 76.3416C410.404 75.2531 408.794 76.0656 407.706 77.3051Z" fill="url(#paint23_linear_12679_23518)"/>
<path d="M405.186 252.579C406.154 252.516 406.883 251.678 406.821 250.709C406.753 249.74 405.425 249.042 404.462 249.11C403.488 249.173 403.076 250.381 403.144 251.35C403.212 252.318 404.217 252.646 405.186 252.579Z" fill="url(#paint24_linear_12679_23518)"/>
<path d="M435.881 268.835C437.115 268.752 438.053 267.679 437.975 266.44C437.886 265.2 436.193 264.304 434.949 264.393C433.709 264.476 433.183 266.023 433.266 267.263C433.355 268.502 434.641 268.924 435.881 268.835Z" fill="url(#paint25_linear_12679_23518)"/>
<path d="M424.314 244.902C425.47 244.823 426.34 243.823 426.262 242.667C426.189 241.511 424.6 240.672 423.444 240.756C422.288 240.834 421.793 242.277 421.871 243.433C421.955 244.589 423.152 244.98 424.314 244.902Z" fill="url(#paint26_linear_12679_23518)"/>
<path d="M152.331 96.0586V122.751C152.331 124.423 150.977 125.777 149.305 125.777H104.049C102.378 125.777 101.023 124.423 101.023 122.751V96.0586C101.023 95.3555 101.263 94.7148 101.659 94.2044C101.94 93.8398 102.299 93.5482 102.711 93.3398C103.112 93.1419 103.57 93.0273 104.049 93.0273H149.305C149.789 93.0273 150.242 93.1419 150.643 93.3398C151.06 93.5482 151.419 93.8398 151.701 94.2044C152.096 94.7148 152.331 95.3555 152.331 96.0586Z" fill="url(#paint27_linear_12679_23518)"/>
<path d="M151.698 94.2044L127.865 109.413C127.141 109.876 126.214 109.876 125.49 109.413L101.656 94.2044C101.937 93.8398 102.297 93.5482 102.708 93.3398L125.49 107.882C126.214 108.345 127.141 108.345 127.865 107.882L150.641 93.3398C151.057 93.5482 151.417 93.8398 151.698 94.2044Z" fill="#FDFDEA"/>
<path d="M117.038 123.241H107.23C105.465 123.241 104.027 121.803 104.027 120.038V108.355C104.027 108.09 104.241 107.871 104.512 107.871C104.777 107.871 104.996 108.09 104.996 108.355V120.038C104.996 121.267 105.996 122.272 107.23 122.272H117.038C117.303 122.272 117.522 122.491 117.522 122.757C117.522 123.022 117.303 123.241 117.038 123.241Z" fill="#FDFDEA"/>
<path d="M338.93 34.125C340.414 30.8177 342.586 27.8177 345.143 25.2031C346.43 23.901 347.815 22.6875 349.299 21.6094C350.773 20.5156 352.346 19.5417 353.997 18.7396L355.607 17.9531L355.456 19.6875C355.336 21.1094 355.174 22.4948 355.174 23.8646C355.174 25.2292 355.32 26.599 355.852 27.8385C356.362 29.0781 357.232 30.2135 358.398 30.875C358.982 31.2083 359.633 31.401 360.299 31.4688C360.966 31.526 361.638 31.4323 362.284 31.2448C363.581 30.8281 364.711 29.9896 365.716 29.0365C366.716 28.0625 367.612 26.974 368.471 25.849C370.206 23.5469 372.107 21.3438 374.102 19.2552C378.102 15.0625 382.492 11.2135 387.315 8C392.122 4.76042 397.263 2.02083 402.664 0L402.768 0.208333C397.893 3.26563 393.143 6.39062 388.633 9.84375C386.367 11.5469 384.164 13.3281 381.992 15.1458C379.831 16.9688 377.685 18.8229 375.633 20.7865C373.586 22.7552 371.612 24.7813 369.617 26.8281C368.612 27.8802 367.56 28.9062 366.404 29.8229C365.237 30.724 363.961 31.5573 362.492 31.9583C361.034 32.375 359.404 32.2448 358.044 31.526C357.378 31.1562 356.768 30.6875 356.242 30.1406C355.721 29.5885 355.279 28.9635 354.904 28.3021C354.159 26.9635 353.763 25.4531 353.586 23.9688C353.398 22.474 353.414 20.9948 353.466 19.5625L354.924 20.5104C353.404 21.3646 351.919 22.2708 350.477 23.2604C349.049 24.2604 347.664 25.3229 346.352 26.4844C343.695 28.7812 341.326 31.401 339.128 34.2396L338.93 34.125Z" fill="url(#paint28_linear_12679_23518)"/>
<defs>
<linearGradient id="paint0_linear_12679_23518" x1="178.36" y1="85.5414" x2="191.084" y2="85.542" gradientUnits="userSpaceOnUse">
<stop stop-color="#F43F5E"/>
<stop offset="1" stop-color="#FB923C"/>
</linearGradient>
<linearGradient id="paint1_linear_12679_23518" x1="176.182" y1="84.8267" x2="191.155" y2="84.8276" gradientUnits="userSpaceOnUse">
<stop stop-color="#F43F5E"/>
<stop offset="1" stop-color="#FB923C"/>
</linearGradient>
<linearGradient id="paint2_linear_12679_23518" x1="187.131" y1="79.9759" x2="319.382" y2="80.0012" gradientUnits="userSpaceOnUse">
<stop stop-color="#F43F5E"/>
<stop offset="1" stop-color="#FB923C"/>
</linearGradient>
<linearGradient id="paint3_linear_12679_23518" x1="188.536" y1="77.8462" x2="322.116" y2="77.8714" gradientUnits="userSpaceOnUse">
<stop stop-color="#F43F5E"/>
<stop offset="1" stop-color="#FB923C"/>
</linearGradient>
<linearGradient id="paint4_linear_12679_23518" x1="141.843" y1="267.699" x2="342.643" y2="267.757" gradientUnits="userSpaceOnUse">
<stop stop-color="#F43F5E"/>
<stop offset="1" stop-color="#FB923C"/>
</linearGradient>
<linearGradient id="paint5_linear_12679_23518" x1="242.759" y1="319.876" x2="242.747" y2="303.309" gradientUnits="userSpaceOnUse">
<stop stop-color="#FB923C"/>
<stop offset="1" stop-color="#F43F5E"/>
</linearGradient>
<linearGradient id="paint6_linear_12679_23518" x1="380.924" y1="137.417" x2="380.784" y2="107.594" gradientUnits="userSpaceOnUse">
<stop stop-color="#FB923C"/>
<stop offset="1" stop-color="#F43F5E"/>
</linearGradient>
<linearGradient id="paint7_linear_12679_23518" x1="341" y1="107.5" x2="340.812" y2="93.0024" gradientUnits="userSpaceOnUse">
<stop stop-color="#FB923C"/>
<stop offset="1" stop-color="#F43F5E"/>
</linearGradient>
<linearGradient id="paint8_linear_12679_23518" x1="67.3543" y1="226.893" x2="58.7811" y2="88.9469" gradientUnits="userSpaceOnUse">
<stop stop-color="#FB923C"/>
<stop offset="1" stop-color="#F43F5E"/>
</linearGradient>
<linearGradient id="paint9_linear_12679_23518" x1="89.9816" y1="226.816" x2="86.2776" y2="149.51" gradientUnits="userSpaceOnUse">
<stop stop-color="#FB923C"/>
<stop offset="1" stop-color="#F43F5E"/>
</linearGradient>
<linearGradient id="paint10_linear_12679_23518" x1="30.9211" y1="228.805" x2="28.0466" y2="133.814" gradientUnits="userSpaceOnUse">
<stop stop-color="#FB923C"/>
<stop offset="1" stop-color="#F43F5E"/>
</linearGradient>
<linearGradient id="paint11_linear_12679_23518" x1="2.57032" y1="223.502" x2="81.731" y2="223.509" gradientUnits="userSpaceOnUse">
<stop stop-color="#F43F5E"/>
<stop offset="1" stop-color="#FB923C"/>
</linearGradient>
<linearGradient id="paint12_linear_12679_23518" x1="63.6994" y1="204.186" x2="71.9693" y2="204.186" gradientUnits="userSpaceOnUse">
<stop stop-color="#F43F5E"/>
<stop offset="1" stop-color="#FB923C"/>
</linearGradient>
<linearGradient id="paint13_linear_12679_23518" x1="81.0994" y1="224.975" x2="95.8591" y2="224.975" gradientUnits="userSpaceOnUse">
<stop stop-color="#F43F5E"/>
<stop offset="1" stop-color="#FB923C"/>
</linearGradient>
<linearGradient id="paint14_linear_12679_23518" x1="39.7198" y1="281.773" x2="107.42" y2="281.784" gradientUnits="userSpaceOnUse">
<stop stop-color="#F43F5E"/>
<stop offset="1" stop-color="#FB923C"/>
</linearGradient>
<linearGradient id="paint15_linear_12679_23518" x1="138.788" y1="55.0469" x2="192.498" y2="55.0578" gradientUnits="userSpaceOnUse">
<stop stop-color="#F43F5E"/>
<stop offset="1" stop-color="#FB923C"/>
</linearGradient>
<linearGradient id="paint16_linear_12679_23518" x1="112.969" y1="184.422" x2="147.149" y2="184.428" gradientUnits="userSpaceOnUse">
<stop stop-color="#F43F5E"/>
<stop offset="1" stop-color="#FB923C"/>
</linearGradient>
<linearGradient id="paint17_linear_12679_23518" x1="379.793" y1="222.84" x2="428.888" y2="222.851" gradientUnits="userSpaceOnUse">
<stop stop-color="#F43F5E"/>
<stop offset="1" stop-color="#FB923C"/>
</linearGradient>
<linearGradient id="paint18_linear_12679_23518" x1="102.077" y1="47.4466" x2="106.021" y2="47.4473" gradientUnits="userSpaceOnUse">
<stop stop-color="#F43F5E"/>
<stop offset="1" stop-color="#FB923C"/>
</linearGradient>
<linearGradient id="paint19_linear_12679_23518" x1="68.6977" y1="58.01" x2="73.7477" y2="58.0108" gradientUnits="userSpaceOnUse">
<stop stop-color="#F43F5E"/>
<stop offset="1" stop-color="#FB923C"/>
</linearGradient>
<linearGradient id="paint20_linear_12679_23518" x1="93.8269" y1="66.6753" x2="98.5423" y2="66.676" gradientUnits="userSpaceOnUse">
<stop stop-color="#F43F5E"/>
<stop offset="1" stop-color="#FB923C"/>
</linearGradient>
<linearGradient id="paint21_linear_12679_23518" x1="418.459" y1="52.4477" x2="424.069" y2="52.4486" gradientUnits="userSpaceOnUse">
<stop stop-color="#F43F5E"/>
<stop offset="1" stop-color="#FB923C"/>
</linearGradient>
<linearGradient id="paint22_linear_12679_23518" x1="370.981" y1="67.4767" x2="378.164" y2="67.4779" gradientUnits="userSpaceOnUse">
<stop stop-color="#F43F5E"/>
<stop offset="1" stop-color="#FB923C"/>
</linearGradient>
<linearGradient id="paint23_linear_12679_23518" x1="406.728" y1="79.7991" x2="413.434" y2="79.8002" gradientUnits="userSpaceOnUse">
<stop stop-color="#F43F5E"/>
<stop offset="1" stop-color="#FB923C"/>
</linearGradient>
<linearGradient id="paint24_linear_12679_23518" x1="402.995" y1="251.328" x2="406.949" y2="251.329" gradientUnits="userSpaceOnUse">
<stop stop-color="#F43F5E"/>
<stop offset="1" stop-color="#FB923C"/>
</linearGradient>
<linearGradient id="paint25_linear_12679_23518" x1="433.076" y1="267.234" x2="438.138" y2="267.234" gradientUnits="userSpaceOnUse">
<stop stop-color="#F43F5E"/>
<stop offset="1" stop-color="#FB923C"/>
</linearGradient>
<linearGradient id="paint26_linear_12679_23518" x1="421.694" y1="243.406" x2="426.415" y2="243.407" gradientUnits="userSpaceOnUse">
<stop stop-color="#F43F5E"/>
<stop offset="1" stop-color="#FB923C"/>
</linearGradient>
<linearGradient id="paint27_linear_12679_23518" x1="99.0501" y1="113.932" x2="154.058" y2="113.946" gradientUnits="userSpaceOnUse">
<stop stop-color="#F43F5E"/>
<stop offset="1" stop-color="#FB923C"/>
</linearGradient>
<linearGradient id="paint28_linear_12679_23518" x1="336.474" y1="21.8551" x2="404.917" y2="21.8758" gradientUnits="userSpaceOnUse">
<stop stop-color="#F43F5E"/>
<stop offset="1" stop-color="#FB923C"/>
</linearGradient>
</defs>
</svg>
