<svg width="92" height="96" viewBox="0 0 92 96" fill="none" xmlns="http://www.w3.org/2000/svg">
<g filter="url(#filter0_dd_11224_65506)">
<circle cx="46" cy="48" r="42" fill="#171717"/>
</g>
<g filter="url(#filter1_dd_11224_65506)">
<circle cx="46" cy="48" r="35" fill="#171717"/>
</g>
<g clipPath="url(#clip0_11224_65506)">
<path d="M45.8191 53.2692C45.4452 52.5514 44.7938 52.0178 44.0163 51.7927C43.132 51.6025 42.2085 51.7967 41.4757 52.3269C41.1107 52.56 40.7027 52.7174 40.2757 52.7898V53.7075C40.2757 54.0231 40.0199 54.2789 39.7043 54.2789C39.3887 54.2789 39.1329 54.0231 39.1329 53.7075V52.7898C38.7061 52.7168 38.2981 52.5595 37.9329 52.3269C37.3751 51.9442 36.7188 51.7303 36.0426 51.7109C35.8234 51.7105 35.6051 51.7379 35.3929 51.7927C34.6152 52.0177 33.9635 52.5513 33.5894 53.2692C32.7689 54.6904 32.6231 56.7749 33.2003 58.8458C34.134 62.1989 36.6449 64.4744 38.7969 63.9178C39.0155 63.8618 39.2258 63.7768 39.422 63.6652C39.5962 63.5671 39.809 63.5671 39.9831 63.6652C40.1786 63.7765 40.3881 63.8611 40.606 63.9167C41.8106 64.2304 43.1266 63.6549 44.2157 62.5018C44.2345 62.4769 44.2556 62.4538 44.2786 62.4327C45.1911 61.4034 45.8505 60.1751 46.2043 58.8458C46.7854 56.7749 46.6397 54.6904 45.8191 53.2692ZM35.9654 54.0064C35.7907 54.0911 35.6516 54.2351 35.5729 54.4127C35.0399 55.62 34.9806 56.9836 35.4066 58.2327C35.4913 58.5367 35.3135 58.8519 35.0094 58.9367C34.7054 59.0214 34.3902 58.8436 34.3054 58.5395C33.7209 56.4412 34.0654 54.7367 34.5831 53.8412C34.8047 53.3901 35.2014 53.0496 35.6809 52.8989C35.9867 52.82 36.2985 53.004 36.3774 53.3098C36.4563 53.6156 36.2724 53.9275 35.9666 54.0064H35.9654Z" fill="#FFF7ED"/>
<path d="M55.7144 44H54.0001C53.6845 44 53.4287 44.2558 53.4287 44.5714V46.2857C53.4287 46.6013 53.6845 46.8571 54.0001 46.8571H55.7144C56.03 46.8571 56.2859 46.6013 56.2859 46.2857V44.5714C56.2859 44.2558 56.03 44 55.7144 44Z" fill="#FFF7ED"/>
<path d="M38.8687 50.7602C39.2115 50.6625 39.4458 50.4939 39.4915 50.3105C39.5372 50.1271 39.4092 49.8682 39.1487 49.6213C38.7273 49.2526 38.2205 48.9949 37.6744 48.8716C37.5934 48.852 37.5114 48.8371 37.4287 48.8271H37.4235C36.9148 48.7798 36.4024 48.7881 35.8955 48.8516C35.6535 48.8724 35.4511 49.044 35.3909 49.2793C35.3307 49.5146 35.4258 49.7623 35.6281 49.8968C36.1074 50.2613 36.6433 50.5447 37.2144 50.7356C37.7552 50.8814 38.3238 50.8899 38.8687 50.7602Z" fill="#FFF7ED"/>
<path d="M55.7144 50.2852H54.0001C53.6845 50.2852 53.4287 50.541 53.4287 50.8566V52.5709C53.4287 52.8865 53.6845 53.1423 54.0001 53.1423H55.7144C56.03 53.1423 56.2859 52.8865 56.2859 52.5709V50.8566C56.2859 50.541 56.03 50.2852 55.7144 50.2852Z" fill="#FFF7ED"/>
<path d="M46.3906 39.9989L56.2855 39.9983V34.8555H49.1963L46.3906 39.9989Z" fill="#FFF7ED"/>
<path d="M55.7144 56.5703H54.0001C53.6845 56.5703 53.4287 56.8261 53.4287 57.1417V58.856C53.4287 59.1716 53.6845 59.4275 54.0001 59.4275H55.7144C56.03 59.4275 56.2859 59.1716 56.2859 58.856V57.1417C56.2859 56.8261 56.03 56.5703 55.7144 56.5703Z" fill="#FFF7ED"/>
<path d="M57.4286 32H39.7143C38.7675 32 38 32.7675 38 33.7143V47.7789C38.7213 47.9506 39.388 48.3003 39.9394 48.796C40.0133 48.8665 40.0831 48.9411 40.1486 49.0194C40.6294 48.3187 41.3065 47.7756 42.0949 47.4583C42.39 47.3696 42.7023 47.5308 42.8008 47.8228C42.8993 48.1149 42.7486 48.4324 42.46 48.5406C42.3749 48.5709 40.7154 49.1931 40.352 51.5989C40.5301 51.5447 40.7 51.4667 40.8571 51.3669C41.8564 50.6606 43.1089 50.4129 44.3017 50.6857C45.3777 50.9853 46.2839 51.7126 46.8091 52.6983C47.7806 54.3794 47.9669 56.7931 47.3097 59.1554C47.0012 60.2751 46.5035 61.3338 45.8383 62.2857H57.4286C58.3753 62.2857 59.1429 61.5182 59.1429 60.5714V33.7143C59.1429 32.7675 58.3753 32 57.4286 32ZM51.1429 58.8571C51.1429 59.8039 50.3753 60.5714 49.4286 60.5714H48.8457C48.5301 60.5714 48.2743 60.3156 48.2743 60C48.2743 59.6844 48.5301 59.4286 48.8457 59.4286H49.4286C49.7442 59.4286 50 59.1727 50 58.8571V57.1429C50 56.8273 49.7442 56.5714 49.4286 56.5714C49.1107 56.5724 48.851 56.3178 48.8457 56C48.8431 55.8496 48.9009 55.7045 49.0062 55.5971C49.1114 55.4897 49.2553 55.429 49.4057 55.4286H49.4286C50.3753 55.4286 51.1429 56.1961 51.1429 57.1429V58.8571ZM51.1429 52.5714C51.1429 53.5182 50.3753 54.2857 49.4286 54.2857H49.0686C48.753 54.2857 48.4971 54.0299 48.4971 53.7143C48.4971 53.3987 48.753 53.1429 49.0686 53.1429H49.4286C49.7442 53.1429 50 52.887 50 52.5714V50.8571C50 50.5416 49.7442 50.2857 49.4286 50.2857H47.7143C47.5511 50.2856 47.3961 50.357 47.2903 50.4811C47.1593 50.6378 46.9547 50.7127 46.7535 50.6777C46.5524 50.6426 46.3852 50.5029 46.315 50.3111C46.2448 50.1193 46.2822 49.9047 46.4131 49.748C46.7354 49.3629 47.2122 49.1412 47.7143 49.1429H49.4286C50.3753 49.1429 51.1429 49.9104 51.1429 50.8571V52.5714ZM50.384 47.2474C49.9058 47.7322 49.2523 48.0035 48.5714 48H44.2857C43.9701 48 43.7143 47.7442 43.7143 47.4286C43.7143 47.113 43.9701 46.8571 44.2857 46.8571H48.5714C49.3583 46.8522 49.995 46.2155 50 45.4286C50 45.0497 49.8495 44.6863 49.5816 44.4184C49.3137 44.1505 48.9503 44 48.5714 44H42.2857C41.4988 44.005 40.8621 44.6417 40.8571 45.4286C40.856 45.6547 40.9109 45.8775 41.0171 46.0771C41.1142 46.2568 41.1081 46.4746 41.001 46.6485C40.894 46.8224 40.7023 46.926 40.4982 46.9202C40.294 46.9144 40.1085 46.8002 40.0114 46.6206C39.5948 45.8241 39.6242 44.8679 40.0891 44.0986C40.554 43.3293 41.3869 42.8586 42.2857 42.8571H48.5714C49.9909 42.8587 51.1413 44.0091 51.1429 45.4286C51.1457 46.1124 50.872 46.7684 50.384 47.2474ZM57.4286 58.8571C57.4286 59.8039 56.6611 60.5714 55.7143 60.5714H54C53.0532 60.5714 52.2857 59.8039 52.2857 58.8571V57.1429C52.2857 56.1961 53.0532 55.4286 54 55.4286H55.7143C56.6611 55.4286 57.4286 56.1961 57.4286 57.1429V58.8571ZM57.4286 52.5714C57.4286 53.5182 56.6611 54.2857 55.7143 54.2857H54C53.0532 54.2857 52.2857 53.5182 52.2857 52.5714V50.8571C52.2857 49.9104 53.0532 49.1429 54 49.1429H55.7143C56.6611 49.1429 57.4286 49.9104 57.4286 50.8571V52.5714ZM57.4286 46.2857C57.4286 47.2325 56.6611 48 55.7143 48H54C53.0532 48 52.2857 47.2325 52.2857 46.2857V44.5714C52.2857 43.6247 53.0532 42.8571 54 42.8571H55.7143C56.6611 42.8571 57.4286 43.6247 57.4286 44.5714V46.2857ZM57.4286 40C57.4286 40.6312 56.9169 41.1429 56.2857 41.1429H40.8571C40.226 41.1429 39.7143 40.6312 39.7143 40V34.8571C39.7143 34.226 40.226 33.7143 40.8571 33.7143H56.2857C56.9169 33.7143 57.4286 34.226 57.4286 34.8571V40Z" fill="#FFF7ED"/>
<path d="M40.8564 34.8555V39.9989H41.6599L44.4656 34.8555H40.8564Z" fill="#FFF7ED"/>
<path d="M45.7676 34.8555L42.9619 39.9989H45.0888L47.8945 34.8555H45.7676Z" fill="#FFF7ED"/>
</g>
<defs>
<filter id="filter0_dd_11224_65506" x="0" y="0" width="92" height="96" filterUnits="userSpaceOnUse" colorInterpolationFilters="sRGB">
<feFlood floodOpacity="0" result="BackgroundImageFix"/>
<feColorMatrix in="SourceAlpha" type="matrix" values="0 0 0 0 0 0 0 0 0 0 0 0 0 0 0 0 0 0 127 0" result="hardAlpha"/>
<feOffset dy="2"/>
<feGaussianBlur stdDeviation="2"/>
<feComposite in2="hardAlpha" operator="out"/>
<feColorMatrix type="matrix" values="0 0 0 0 0.976471 0 0 0 0 0.478431 0 0 0 0 0.270588 0 0 0 0.25 0"/>
<feBlend mode="normal" in2="BackgroundImageFix" result="effect1_dropShadow_11224_65506"/>
<feColorMatrix in="SourceAlpha" type="matrix" values="0 0 0 0 0 0 0 0 0 0 0 0 0 0 0 0 0 0 127 0" result="hardAlpha"/>
<feOffset dy="-2"/>
<feGaussianBlur stdDeviation="2"/>
<feComposite in2="hardAlpha" operator="out"/>
<feColorMatrix type="matrix" values="0 0 0 0 0.960784 0 0 0 0 0.317647 0 0 0 0 0.337255 0 0 0 0.25 0"/>
<feBlend mode="normal" in2="effect1_dropShadow_11224_65506" result="effect2_dropShadow_11224_65506"/>
<feBlend mode="normal" in="SourceGraphic" in2="effect2_dropShadow_11224_65506" result="shape"/>
</filter>
<filter id="filter1_dd_11224_65506" x="7" y="7" width="78" height="82" filterUnits="userSpaceOnUse" colorInterpolationFilters="sRGB">
<feFlood floodOpacity="0" result="BackgroundImageFix"/>
<feColorMatrix in="SourceAlpha" type="matrix" values="0 0 0 0 0 0 0 0 0 0 0 0 0 0 0 0 0 0 127 0" result="hardAlpha"/>
<feOffset dy="2"/>
<feGaussianBlur stdDeviation="2"/>
<feComposite in2="hardAlpha" operator="out"/>
<feColorMatrix type="matrix" values="0 0 0 0 0.976471 0 0 0 0 0.478431 0 0 0 0 0.270588 0 0 0 0.25 0"/>
<feBlend mode="normal" in2="BackgroundImageFix" result="effect1_dropShadow_11224_65506"/>
<feColorMatrix in="SourceAlpha" type="matrix" values="0 0 0 0 0 0 0 0 0 0 0 0 0 0 0 0 0 0 127 0" result="hardAlpha"/>
<feOffset dy="-2"/>
<feGaussianBlur stdDeviation="2"/>
<feComposite in2="hardAlpha" operator="out"/>
<feColorMatrix type="matrix" values="0 0 0 0 0.960784 0 0 0 0 0.317647 0 0 0 0 0.337255 0 0 0 0.25 0"/>
<feBlend mode="normal" in2="effect1_dropShadow_11224_65506" result="effect2_dropShadow_11224_65506"/>
<feBlend mode="normal" in="SourceGraphic" in2="effect2_dropShadow_11224_65506" result="shape"/>
</filter>
<clipPath id="clip0_11224_65506">
<rect width="32" height="32" fill="white" transform="translate(30 32)"/>
</clipPath>
</defs>
</svg>
