<svg width="92" height="96" viewBox="0 0 92 96" fill="none" xmlns="http://www.w3.org/2000/svg">
<g filter="url(#filter0_dd_11224_65484)">
<circle cx="46" cy="48" r="42" fill="#171717"/>
</g>
<g filter="url(#filter1_dd_11224_65484)">
<circle cx="46" cy="48" r="35" fill="#171717"/>
</g>
<g clipPath="url(#clip0_11224_65484)">
<path d="M54.0887 55.7283L52.7831 53.1172L51.4775 55.7283H54.0887Z" fill="#FFF7ED"/>
<path d="M59.1885 45.568H57.8602V42.7578C57.8602 42.4926 57.748 42.24 57.5513 42.0622C57.3546 41.8845 57.0917 41.7984 56.8281 41.8251C56.6788 41.8402 53.3352 42.2183 51.6705 45.568H50.3083V47.6235C50.3083 50.2076 48.206 52.3098 45.622 52.3098H43.5664V61.19C43.5664 62.7402 44.8276 64.0013 46.3777 64.0013H59.1885C60.7386 64.0014 61.9998 62.7402 61.9998 61.1901V48.3793C61.9998 46.8291 60.7386 45.568 59.1885 45.568ZM48.1812 58.1287L51.9445 50.6021C52.1033 50.2845 52.4279 50.0839 52.783 50.0839C53.1382 50.0839 53.4627 50.2845 53.6216 50.6021L57.3849 58.1287C57.6165 58.5918 57.4287 59.1549 56.9657 59.3865C56.5026 59.6181 55.9394 59.4304 55.7078 58.9673L55.0262 57.6039H50.54L49.8583 58.9673C49.6941 59.2958 49.363 59.4857 49.0191 59.4857C48.8782 59.4857 48.7352 59.4538 48.6006 59.3865C48.1374 59.155 47.9497 58.5918 48.1812 58.1287Z" fill="#FFF7ED"/>
<path fillRule="evenodd" clipRule="evenodd" d="M45.6221 50.4334C47.1723 50.4334 48.4334 49.1722 48.4334 47.6221V34.8114C48.4334 33.2612 47.1722 32 45.6221 32H32.8114C31.2612 32 30 33.2612 30 34.8114V47.6221C30 49.1723 31.2612 50.4334 32.8113 50.4334H34.1396V53.2436C34.1396 53.5088 34.2518 53.7614 34.4485 53.9392C34.6216 54.0956 34.8459 54.1811 35.077 54.1811C35.1084 54.1811 35.1401 54.1796 35.1717 54.1763C35.3209 54.1612 38.6646 53.7831 40.3293 50.4334H45.6221ZM43.5532 37.5461H40.7177V41.5466H38.6163C38.4852 41.4604 38.3429 41.393 38.1968 41.3368V41.2881C38.5302 41.1682 38.8186 40.9435 39.0134 40.6476C39.2082 40.3517 39.3055 39.9996 39.3055 39.595C39.3055 38.9433 39.0845 38.4189 38.6388 38.0256C38.1931 37.6323 37.6087 37.4375 36.8858 37.4375C36.1591 37.4375 35.5636 37.6435 35.0916 38.0668C34.6196 38.49 34.3837 39.0407 34.3837 39.7261H35.8782C35.8932 39.4452 35.9868 39.2205 36.1591 39.0482C36.3314 38.8759 36.5637 38.7897 36.8596 38.7897C37.1555 38.7897 37.3802 38.8759 37.5413 39.0482C37.7024 39.2205 37.781 39.4527 37.781 39.7449C37.781 40.037 37.6724 40.2618 37.4589 40.4228C37.2454 40.5839 36.957 40.6626 36.6011 40.6626H36.2266V42.0522H36.5899C37.4889 42.0522 37.9346 42.4006 37.9346 43.0935C37.9346 43.4119 37.841 43.6704 37.6537 43.8652C37.4664 44.0599 37.2079 44.1573 36.8821 44.1573C36.5562 44.1573 36.294 44.0562 36.0992 43.8577C35.9044 43.6591 35.807 43.4007 35.807 43.0823H34.3125C34.3125 43.8352 34.5485 44.4308 35.0204 44.8615C35.4924 45.2923 36.1067 45.5095 36.8708 45.5095C37.635 45.5095 38.2493 45.2998 38.7175 44.8802C39.1857 44.4607 39.4179 43.8652 39.4179 43.0935C39.4179 43.0186 39.4142 42.9475 39.4067 42.8725H40.7139V46.1875H42.2909V38.9021H43.5532V37.5461Z" fill="#FFF7ED"/>
<path d="M52.8545 37.3637C53.0375 37.5468 53.2775 37.6383 53.5173 37.6383C53.7572 37.6383 53.9972 37.5468 54.1802 37.3637C54.5463 36.9976 54.5463 36.404 54.1802 36.0379L53.9111 35.7688C57.3616 35.9732 60.1064 38.8447 60.1064 42.3457C60.1064 42.8634 60.5261 43.2832 61.0439 43.2832C61.5616 43.2832 61.9814 42.8634 61.9814 42.3457C61.9814 37.8036 58.385 34.0863 53.8903 33.8903L54.1802 33.6004C54.5463 33.2343 54.5463 32.6407 54.1802 32.2746C53.8142 31.9085 53.2205 31.9084 52.8544 32.2746L50.9728 34.1563C50.6067 34.5224 50.6067 35.1159 50.9728 35.4821L52.8545 37.3637Z" fill="#FFF7ED"/>
<path d="M39.127 58.6187C38.7609 58.2526 38.1673 58.2526 37.8012 58.6187C37.4351 58.9848 37.4351 59.5784 37.8012 59.9445L38.0703 60.2137C34.6198 60.0093 31.875 57.1377 31.875 53.6367C31.875 53.119 31.4553 52.6992 30.9375 52.6992C30.4197 52.6992 30 53.119 30 53.6367C30 58.1788 33.5964 61.8962 38.0911 62.0921L37.8012 62.382C37.4351 62.7482 37.4351 63.3417 37.8012 63.7078C37.9843 63.8909 38.2242 63.9824 38.4641 63.9824C38.7039 63.9824 38.9439 63.8909 39.1269 63.7078L41.0086 61.8262C41.3747 61.46 41.3747 60.8665 41.0086 60.5003L39.127 58.6187Z" fill="#FFF7ED"/>
</g>
<defs>
<filter id="filter0_dd_11224_65484" x="0" y="0" width="92" height="96" filterUnits="userSpaceOnUse" colorInterpolationFilters="sRGB">
<feFlood floodOpacity="0" result="BackgroundImageFix"/>
<feColorMatrix in="SourceAlpha" type="matrix" values="0 0 0 0 0 0 0 0 0 0 0 0 0 0 0 0 0 0 127 0" result="hardAlpha"/>
<feOffset dy="2"/>
<feGaussianBlur stdDeviation="2"/>
<feComposite in2="hardAlpha" operator="out"/>
<feColorMatrix type="matrix" values="0 0 0 0 0.976471 0 0 0 0 0.478431 0 0 0 0 0.270588 0 0 0 0.25 0"/>
<feBlend mode="normal" in2="BackgroundImageFix" result="effect1_dropShadow_11224_65484"/>
<feColorMatrix in="SourceAlpha" type="matrix" values="0 0 0 0 0 0 0 0 0 0 0 0 0 0 0 0 0 0 127 0" result="hardAlpha"/>
<feOffset dy="-2"/>
<feGaussianBlur stdDeviation="2"/>
<feComposite in2="hardAlpha" operator="out"/>
<feColorMatrix type="matrix" values="0 0 0 0 0.960784 0 0 0 0 0.317647 0 0 0 0 0.337255 0 0 0 0.25 0"/>
<feBlend mode="normal" in2="effect1_dropShadow_11224_65484" result="effect2_dropShadow_11224_65484"/>
<feBlend mode="normal" in="SourceGraphic" in2="effect2_dropShadow_11224_65484" result="shape"/>
</filter>
<filter id="filter1_dd_11224_65484" x="7" y="7" width="78" height="82" filterUnits="userSpaceOnUse" colorInterpolationFilters="sRGB">
<feFlood floodOpacity="0" result="BackgroundImageFix"/>
<feColorMatrix in="SourceAlpha" type="matrix" values="0 0 0 0 0 0 0 0 0 0 0 0 0 0 0 0 0 0 127 0" result="hardAlpha"/>
<feOffset dy="2"/>
<feGaussianBlur stdDeviation="2"/>
<feComposite in2="hardAlpha" operator="out"/>
<feColorMatrix type="matrix" values="0 0 0 0 0.976471 0 0 0 0 0.478431 0 0 0 0 0.270588 0 0 0 0.25 0"/>
<feBlend mode="normal" in2="BackgroundImageFix" result="effect1_dropShadow_11224_65484"/>
<feColorMatrix in="SourceAlpha" type="matrix" values="0 0 0 0 0 0 0 0 0 0 0 0 0 0 0 0 0 0 127 0" result="hardAlpha"/>
<feOffset dy="-2"/>
<feGaussianBlur stdDeviation="2"/>
<feComposite in2="hardAlpha" operator="out"/>
<feColorMatrix type="matrix" values="0 0 0 0 0.960784 0 0 0 0 0.317647 0 0 0 0 0.337255 0 0 0 0.25 0"/>
<feBlend mode="normal" in2="effect1_dropShadow_11224_65484" result="effect2_dropShadow_11224_65484"/>
<feBlend mode="normal" in="SourceGraphic" in2="effect2_dropShadow_11224_65484" result="shape"/>
</filter>
<clipPath id="clip0_11224_65484">
<rect width="32" height="32" fill="white" transform="translate(30 32)"/>
</clipPath>
</defs>
</svg>
