<svg width="92" height="96" viewBox="0 0 92 96" fill="none" xmlns="http://www.w3.org/2000/svg">
<g filter="url(#filter0_dd_11224_65524)">
<circle cx="46" cy="48" r="42" fill="#171717"/>
</g>
<g filter="url(#filter1_dd_11224_65524)">
<circle cx="46" cy="48" r="35" fill="#171717"/>
</g>
<path d="M55.8665 53.8659C56.6029 53.8659 57.1999 53.2689 57.1999 52.5326C57.1999 51.7962 56.6029 51.1992 55.8665 51.1992C55.1302 51.1992 54.5332 51.7962 54.5332 52.5326C54.5332 53.2689 55.1302 53.8659 55.8665 53.8659Z" fill="#FFF7ED"/>
<path d="M47.8665 53.8659C48.6029 53.8659 49.1999 53.2689 49.1999 52.5326C49.1999 51.7962 48.6029 51.1992 47.8665 51.1992C47.1302 51.1992 46.5332 51.7962 46.5332 52.5326C46.5332 53.2689 47.1302 53.8659 47.8665 53.8659Z" fill="#FFF7ED"/>
<path d="M51.8665 44.8008C50.0733 44.8008 48.3203 45.3325 46.8293 46.3288C45.3383 47.325 44.1762 48.7411 43.49 50.3978C42.8037 52.0545 42.6242 53.8775 42.974 55.6363C43.3239 57.395 44.1874 59.0106 45.4554 60.2786C46.7234 61.5465 48.3389 62.4101 50.0977 62.7599C51.8564 63.1097 53.6794 62.9302 55.3361 62.244C56.9929 61.5577 58.4089 60.3956 59.4051 58.9046C60.4014 57.4136 60.9331 55.6607 60.9331 53.8674C60.9305 51.4636 59.9744 49.1591 58.2746 47.4593C56.5749 45.7596 54.2703 44.8035 51.8665 44.8008ZM45.4665 52.5341C45.4665 52.0594 45.6072 51.5954 45.8709 51.2007C46.1347 50.8061 46.5095 50.4985 46.948 50.3168C47.3866 50.1352 47.8691 50.0876 48.3347 50.1802C48.8002 50.2728 49.2279 50.5014 49.5635 50.8371C49.8992 51.1727 50.1278 51.6003 50.2204 52.0659C50.313 52.5315 50.2654 53.014 50.0838 53.4526C49.9021 53.8911 49.5945 54.2659 49.1998 54.5296C48.8052 54.7934 48.3412 54.9341 47.8665 54.9341C47.2302 54.9334 46.6201 54.6803 46.1702 54.2304C45.7203 53.7805 45.4672 53.1704 45.4665 52.5341ZM54.5209 57.7165C54.3599 58.2968 54.0131 58.8084 53.5337 59.1729C53.0543 59.5374 52.4687 59.7347 51.8665 59.7347C51.2642 59.7347 50.6786 59.5374 50.1992 59.1729C49.7198 58.8084 49.3731 58.2968 49.2121 57.7165C49.1808 57.5785 49.2057 57.4336 49.2812 57.3139C49.3567 57.1942 49.4767 57.1094 49.6147 57.0781C49.7528 57.0469 49.8976 57.0717 50.0173 57.1472C50.1371 57.2227 50.2219 57.3427 50.2531 57.4808C50.3605 57.8247 50.5749 58.1252 50.8652 58.3387C51.1554 58.5521 51.5062 58.6672 51.8665 58.6672C52.2267 58.6672 52.5776 58.5521 52.8678 58.3387C53.158 58.1252 53.3724 57.8247 53.4798 57.4808C53.5132 57.3439 53.5989 57.2256 53.7186 57.1513C53.8383 57.077 53.9823 57.0526 54.1198 57.0834C54.2565 57.115 54.3752 57.1992 54.4503 57.3177C54.5253 57.4362 54.5507 57.5795 54.5209 57.7165ZM55.8665 54.9341C55.3918 54.9341 54.9278 54.7934 54.5331 54.5296C54.1384 54.2659 53.8308 53.8911 53.6492 53.4526C53.4675 53.014 53.42 52.5315 53.5126 52.0659C53.6052 51.6003 53.8338 51.1727 54.1694 50.8371C54.5051 50.5014 54.9327 50.2728 55.3983 50.1802C55.8638 50.0876 56.3464 50.1352 56.7849 50.3168C57.2235 50.4985 57.5983 50.8061 57.862 51.2007C58.1257 51.5954 58.2665 52.0594 58.2665 52.5341C58.2658 53.1704 58.0127 53.7805 57.5628 54.2304C57.1128 54.6803 56.5028 54.9334 55.8665 54.9341Z" fill="#FFF7ED"/>
<path d="M44.1331 42.1315C44.8695 42.1315 45.4665 41.5346 45.4665 40.7982C45.4665 40.0618 44.8695 39.4648 44.1331 39.4648C43.3968 39.4648 42.7998 40.0618 42.7998 40.7982C42.7998 41.5346 43.3968 42.1315 44.1331 42.1315Z" fill="#FFF7ED"/>
<path d="M35.8665 62.9322H38.5331C38.6019 62.9328 38.67 62.9196 38.7335 62.8933C38.797 62.867 38.8546 62.8281 38.9027 62.7791C38.9546 62.7303 38.9958 62.6713 39.024 62.6059C39.0521 62.5405 39.0666 62.47 39.0665 62.3988C39.0665 62.2574 39.0103 62.1217 38.9102 62.0217C38.8102 61.9217 38.6746 61.8655 38.5331 61.8655H35.8665C35.1592 61.8655 34.4809 61.5845 33.9808 61.0844C33.4807 60.5843 33.1998 59.9061 33.1998 59.1988V55.9988C33.1998 55.8574 33.256 55.7217 33.356 55.6217C33.456 55.5217 33.5917 55.4655 33.7331 55.4655H34.1865C34.2017 55.4667 34.2169 55.4633 34.2302 55.4558C34.2435 55.4483 34.2543 55.437 34.2611 55.4234C34.2669 55.4143 34.2693 55.4035 34.268 55.3928C34.2668 55.3821 34.2619 55.3722 34.2542 55.3647L32.7337 53.362C32.7256 53.3521 32.7154 53.3442 32.7037 53.339C32.692 53.3338 32.6792 53.3314 32.6665 53.3322C32.6538 53.3317 32.6411 53.3342 32.6296 53.3396C32.6181 53.345 32.6081 53.353 32.6003 53.3631L31.0819 55.362V55.3647C31.0745 55.3724 31.0698 55.3823 31.0686 55.3929C31.0675 55.4036 31.0699 55.4143 31.0755 55.4234C31.0824 55.437 31.0931 55.4483 31.1064 55.4558C31.1197 55.4633 31.135 55.4667 31.1502 55.4655H31.5998C31.7412 55.4655 31.8769 55.5217 31.9769 55.6217C32.0769 55.7217 32.1331 55.8574 32.1331 55.9988V59.1988C32.1343 60.1886 32.5279 61.1376 33.2278 61.8374C33.9277 62.5373 34.8767 62.931 35.8665 62.9322Z" fill="#FFF7ED"/>
<path d="M36.1331 42.1315C36.8695 42.1315 37.4665 41.5346 37.4665 40.7982C37.4665 40.0618 36.8695 39.4648 36.1331 39.4648C35.3968 39.4648 34.7998 40.0618 34.7998 40.7982C34.7998 41.5346 35.3968 42.1315 36.1331 42.1315Z" fill="#FFF7ED"/>
<path d="M40.1336 51.2012C40.8159 51.1994 41.4958 51.1203 42.1603 50.9654C42.6446 49.3577 43.5194 47.8948 44.7067 46.7075C45.894 45.5202 47.3568 44.6454 48.9646 44.1612C49.3842 42.3289 49.2238 40.4114 48.5055 38.6743C47.7872 36.9372 46.5466 35.4665 44.9555 34.4657C43.3643 33.4648 41.5013 32.9835 39.6245 33.0883C37.7477 33.1931 35.9499 33.8789 34.4801 35.0506C33.0103 36.2224 31.9411 37.8221 31.4207 39.6284C30.9003 41.4347 30.9543 43.358 31.5754 45.1322C32.1964 46.9064 33.3538 48.4436 34.8871 49.5309C36.4204 50.6182 38.2539 51.2019 40.1336 51.2012ZM44.1336 38.4012C44.6083 38.4012 45.0723 38.5419 45.467 38.8056C45.8617 39.0693 46.1693 39.4442 46.351 39.8827C46.5326 40.3213 46.5801 40.8038 46.4875 41.2694C46.3949 41.7349 46.1663 42.1626 45.8307 42.4982C45.4951 42.8339 45.0674 43.0624 44.6019 43.155C44.1363 43.2476 43.6537 43.2001 43.2152 43.0185C42.7767 42.8368 42.4018 42.5292 42.1381 42.1345C41.8744 41.7398 41.7336 41.2758 41.7336 40.8012C41.7344 40.1649 41.9874 39.5548 42.4374 39.1049C42.8873 38.6549 43.4973 38.4019 44.1336 38.4012ZM42.788 46.8188C42.8032 46.8871 42.8048 46.9579 42.7926 47.0269C42.7805 47.0959 42.7548 47.1618 42.7172 47.2209C42.6796 47.2799 42.6306 47.331 42.5732 47.3712C42.5159 47.4114 42.4511 47.4399 42.3827 47.455C42.3447 47.4634 42.3059 47.4677 42.267 47.4678C42.1464 47.4678 42.0294 47.4269 41.9351 47.3518C41.8408 47.2768 41.7746 47.172 41.7475 47.0545C41.657 46.7007 41.4467 46.3892 41.1525 46.1729C40.8583 45.9566 40.4983 45.8488 40.1336 45.8678C39.7691 45.849 39.4092 45.9569 39.1152 46.1732C38.8211 46.3895 38.6109 46.7009 38.5203 47.0545C38.4891 47.1925 38.4042 47.3125 38.2845 47.388C38.1648 47.4636 38.02 47.4884 37.8819 47.4572C37.7439 47.4259 37.6239 47.3411 37.5484 47.2214C37.4728 47.1016 37.448 46.9568 37.4792 46.8188C37.6251 46.2301 37.968 45.709 38.4508 45.342C38.9336 44.975 39.5274 44.7842 40.1336 44.8012C40.7399 44.7842 41.3337 44.975 41.8165 45.342C42.2993 45.709 42.6421 46.2301 42.788 46.8188ZM36.1336 38.4012C36.6083 38.4012 37.0723 38.5419 37.467 38.8056C37.8617 39.0693 38.1693 39.4442 38.351 39.8827C38.5326 40.3213 38.5801 40.8038 38.4875 41.2694C38.3949 41.7349 38.1663 42.1626 37.8307 42.4982C37.4951 42.8339 37.0674 43.0624 36.6019 43.155C36.1363 43.2476 35.6537 43.2001 35.2152 43.0185C34.7767 42.8368 34.4018 42.5292 34.1381 42.1345C33.8744 41.7398 33.7336 41.2758 33.7336 40.8012C33.7344 40.1649 33.9874 39.5548 34.4374 39.1049C34.8873 38.6549 35.4973 38.4019 36.1336 38.4012Z" fill="#FFF7ED"/>
<path d="M56.1336 33.0664H53.4669C53.3981 33.0657 53.3298 33.079 53.2662 33.1054C53.2025 33.1318 53.1449 33.1708 53.0968 33.22C53.0452 33.2689 53.004 33.3277 52.976 33.393C52.9479 33.4583 52.9335 33.5287 52.9336 33.5998C52.9336 33.7412 52.9898 33.8769 53.0898 33.9769C53.1898 34.0769 53.3255 34.1331 53.4669 34.1331H56.1336C56.8408 34.1331 57.5191 34.4141 58.0192 34.9141C58.5193 35.4142 58.8003 36.0925 58.8003 36.7998V39.9998C58.8003 40.1412 58.7441 40.2769 58.6441 40.3769C58.544 40.4769 58.4084 40.5331 58.2669 40.5331H57.8136C57.7984 40.5319 57.7831 40.5353 57.7698 40.5428C57.7565 40.5503 57.7458 40.5616 57.7389 40.5752C57.7333 40.5844 57.7309 40.5951 57.7322 40.6058C57.7334 40.6164 57.7382 40.6263 57.7459 40.6339L59.2675 42.6371C59.2744 42.6485 59.2842 42.6578 59.2958 42.6644C59.3074 42.6709 59.3205 42.6743 59.3339 42.6743C59.3472 42.6743 59.3603 42.6709 59.3719 42.6644C59.3835 42.6578 59.3933 42.6485 59.4003 42.6371L60.9181 40.6398V40.6366C60.9256 40.6289 60.9303 40.619 60.9314 40.6083C60.9326 40.5977 60.9301 40.587 60.9245 40.5779C60.9177 40.5642 60.9069 40.5529 60.8936 40.5454C60.8803 40.5379 60.8651 40.5346 60.8499 40.5358H60.4003C60.2588 40.5358 60.1232 40.4796 60.0231 40.3796C59.9231 40.2795 59.8669 40.1439 59.8669 40.0024V36.7998C59.8659 35.8099 59.4723 34.8609 58.7724 34.161C58.0724 33.4611 57.1234 33.0674 56.1336 33.0664Z" fill="#FFF7ED"/>
<defs>
<filter id="filter0_dd_11224_65524" x="0" y="0" width="92" height="96" filterUnits="userSpaceOnUse" colorInterpolationFilters="sRGB">
<feFlood floodOpacity="0" result="BackgroundImageFix"/>
<feColorMatrix in="SourceAlpha" type="matrix" values="0 0 0 0 0 0 0 0 0 0 0 0 0 0 0 0 0 0 127 0" result="hardAlpha"/>
<feOffset dy="2"/>
<feGaussianBlur stdDeviation="2"/>
<feComposite in2="hardAlpha" operator="out"/>
<feColorMatrix type="matrix" values="0 0 0 0 0.976471 0 0 0 0 0.478431 0 0 0 0 0.270588 0 0 0 0.25 0"/>
<feBlend mode="normal" in2="BackgroundImageFix" result="effect1_dropShadow_11224_65524"/>
<feColorMatrix in="SourceAlpha" type="matrix" values="0 0 0 0 0 0 0 0 0 0 0 0 0 0 0 0 0 0 127 0" result="hardAlpha"/>
<feOffset dy="-2"/>
<feGaussianBlur stdDeviation="2"/>
<feComposite in2="hardAlpha" operator="out"/>
<feColorMatrix type="matrix" values="0 0 0 0 0.960784 0 0 0 0 0.317647 0 0 0 0 0.337255 0 0 0 0.25 0"/>
<feBlend mode="normal" in2="effect1_dropShadow_11224_65524" result="effect2_dropShadow_11224_65524"/>
<feBlend mode="normal" in="SourceGraphic" in2="effect2_dropShadow_11224_65524" result="shape"/>
</filter>
<filter id="filter1_dd_11224_65524" x="7" y="7" width="78" height="82" filterUnits="userSpaceOnUse" colorInterpolationFilters="sRGB">
<feFlood floodOpacity="0" result="BackgroundImageFix"/>
<feColorMatrix in="SourceAlpha" type="matrix" values="0 0 0 0 0 0 0 0 0 0 0 0 0 0 0 0 0 0 127 0" result="hardAlpha"/>
<feOffset dy="2"/>
<feGaussianBlur stdDeviation="2"/>
<feComposite in2="hardAlpha" operator="out"/>
<feColorMatrix type="matrix" values="0 0 0 0 0.976471 0 0 0 0 0.478431 0 0 0 0 0.270588 0 0 0 0.25 0"/>
<feBlend mode="normal" in2="BackgroundImageFix" result="effect1_dropShadow_11224_65524"/>
<feColorMatrix in="SourceAlpha" type="matrix" values="0 0 0 0 0 0 0 0 0 0 0 0 0 0 0 0 0 0 127 0" result="hardAlpha"/>
<feOffset dy="-2"/>
<feGaussianBlur stdDeviation="2"/>
<feComposite in2="hardAlpha" operator="out"/>
<feColorMatrix type="matrix" values="0 0 0 0 0.960784 0 0 0 0 0.317647 0 0 0 0 0.337255 0 0 0 0.25 0"/>
<feBlend mode="normal" in2="effect1_dropShadow_11224_65524" result="effect2_dropShadow_11224_65524"/>
<feBlend mode="normal" in="SourceGraphic" in2="effect2_dropShadow_11224_65524" result="shape"/>
</filter>
</defs>
</svg>
