<svg width="255" height="164" viewBox="0 0 255 164" fill="none" xmlns="http://www.w3.org/2000/svg">
<path d="M0.015625 8C0.015625 3.58172 3.59735 0 8.01562 0H82.0156V24H8.01563C3.59735 24 0.015625 20.4183 0.015625 16V8Z" fill="#7659F5"/>
<path d="M30.1832 12.2244V11.2699L35.8423 8.52557V9.82528L31.6662 11.7301L31.7045 11.6534V11.8366L31.6662 11.7642L35.8423 13.6648V14.9688L30.1832 12.2244ZM40.7962 16.1193C40.1854 16.1193 39.6456 16.0142 39.1768 15.804C38.7109 15.5937 38.3459 15.304 38.0817 14.9347C37.8175 14.5653 37.6868 14.1449 37.6896 13.6733C37.6868 13.304 37.7621 12.9645 37.9155 12.6548C38.0717 12.3423 38.2834 12.0824 38.5504 11.875C38.8175 11.6648 39.1158 11.5312 39.4453 11.4744V11.4233C39.0107 11.3182 38.6626 11.0852 38.4013 10.7244C38.1399 10.3636 38.0107 9.94886 38.0135 9.48011C38.0107 9.03409 38.1286 8.63636 38.3672 8.28693C38.6087 7.93466 38.9396 7.65767 39.3601 7.45597C39.7805 7.25426 40.2592 7.15341 40.7962 7.15341C41.3274 7.15341 41.8018 7.25568 42.2195 7.46023C42.6399 7.66193 42.9709 7.93892 43.2124 8.29119C43.4538 8.64062 43.576 9.03693 43.5788 9.48011C43.576 9.94886 43.4425 10.3636 43.1783 10.7244C42.9141 11.0852 42.5703 11.3182 42.147 11.4233V11.4744C42.4737 11.5312 42.7678 11.6648 43.0291 11.875C43.2933 12.0824 43.5036 12.3423 43.6598 12.6548C43.8189 12.9645 43.8999 13.304 43.9027 13.6733C43.8999 14.1449 43.7663 14.5653 43.5021 14.9347C43.2379 15.304 42.8714 15.5937 42.4027 15.804C41.9368 16.0142 41.4013 16.1193 40.7962 16.1193ZM40.7962 15.0412C41.157 15.0412 41.4695 14.9815 41.7337 14.8622C41.9979 14.7401 42.2024 14.571 42.3473 14.3551C42.4922 14.1364 42.5661 13.8807 42.5689 13.5881C42.5661 13.2841 42.4865 13.0156 42.3303 12.7827C42.1768 12.5497 41.968 12.3665 41.7038 12.233C41.4396 12.0994 41.1371 12.0327 40.7962 12.0327C40.4524 12.0327 40.147 12.0994 39.88 12.233C39.6129 12.3665 39.4027 12.5497 39.2493 12.7827C39.0959 13.0156 39.0206 13.2841 39.0234 13.5881C39.0206 13.8807 39.0902 14.1364 39.2322 14.3551C39.3771 14.571 39.5831 14.7401 39.8501 14.8622C40.1172 14.9815 40.4325 15.0412 40.7962 15.0412ZM40.7962 10.9801C41.0859 10.9801 41.343 10.9219 41.5675 10.8054C41.7919 10.6889 41.968 10.527 42.0959 10.3196C42.2266 10.1122 42.2933 9.86932 42.2962 9.59091C42.2933 9.31818 42.228 9.07955 42.1001 8.875C41.9751 8.67045 41.8004 8.51278 41.576 8.40199C41.3516 8.28835 41.0916 8.23153 40.7962 8.23153C40.495 8.23153 40.2308 8.28835 40.0036 8.40199C39.7791 8.51278 39.6044 8.67045 39.4794 8.875C39.3544 9.07955 39.2933 9.31818 39.2962 9.59091C39.2933 9.86932 39.3558 10.1122 39.4837 10.3196C39.6115 10.527 39.7876 10.6889 40.0121 10.8054C40.2393 10.9219 40.5007 10.9801 40.7962 10.9801ZM48.4677 16.1449C47.7944 16.142 47.2191 15.9645 46.7418 15.6122C46.2646 15.2599 45.8995 14.7472 45.6467 14.0739C45.3938 13.4006 45.2674 12.5895 45.2674 11.6406C45.2674 10.6946 45.3938 9.88636 45.6467 9.21591C45.9023 8.54545 46.2688 8.03409 46.7461 7.68182C47.2262 7.32955 47.8001 7.15341 48.4677 7.15341C49.1353 7.15341 49.7077 7.33097 50.185 7.68608C50.6623 8.03835 51.0273 8.54972 51.2802 9.22017C51.5359 9.88778 51.6637 10.6946 51.6637 11.6406C51.6637 12.5923 51.5373 13.4048 51.2844 14.0781C51.0316 14.7486 50.6665 15.2614 50.1893 15.6165C49.712 15.9688 49.1381 16.1449 48.4677 16.1449ZM48.4677 15.0071C49.0586 15.0071 49.5202 14.7188 49.8526 14.142C50.1879 13.5653 50.3555 12.7315 50.3555 11.6406C50.3555 10.9162 50.2788 10.304 50.1254 9.80398C49.9748 9.30114 49.7575 8.92045 49.4734 8.66193C49.1921 8.40057 48.8569 8.26989 48.4677 8.26989C47.8796 8.26989 47.418 8.55966 47.0827 9.1392C46.7475 9.71875 46.5785 10.5526 46.5756 11.6406C46.5756 12.3679 46.6509 12.983 46.8015 13.4858C46.9549 13.9858 47.1722 14.3651 47.4535 14.6236C47.7347 14.8793 48.0728 15.0071 48.4677 15.0071Z" fill="white"/>
<rect width="82" height="24" transform="translate(86.0156)" fill="#7659F5"/>
<path d="M118.777 16.1449C118.362 16.1449 117.987 16.0682 117.652 15.9148C117.317 15.7585 117.051 15.5327 116.855 15.2372C116.662 14.9418 116.565 14.5795 116.565 14.1506C116.565 13.7812 116.636 13.4773 116.778 13.2386C116.92 13 117.112 12.8111 117.354 12.6719C117.595 12.5327 117.865 12.4276 118.163 12.3565C118.462 12.2855 118.766 12.2315 119.075 12.1946C119.467 12.1491 119.786 12.1122 120.03 12.0838C120.274 12.0526 120.452 12.0028 120.562 11.9347C120.673 11.8665 120.729 11.7557 120.729 11.6023V11.5724C120.729 11.2003 120.624 10.9119 120.413 10.7074C120.206 10.5028 119.896 10.4006 119.484 10.4006C119.055 10.4006 118.717 10.4957 118.47 10.6861C118.226 10.8736 118.057 11.0824 117.963 11.3125L116.766 11.0398C116.908 10.642 117.115 10.321 117.388 10.0767C117.663 9.82955 117.98 9.65057 118.338 9.53977C118.696 9.42614 119.072 9.36932 119.467 9.36932C119.729 9.36932 120.006 9.40057 120.298 9.46307C120.594 9.52273 120.869 9.63352 121.125 9.79545C121.384 9.95739 121.595 10.1889 121.76 10.4901C121.925 10.7884 122.007 11.1761 122.007 11.6534V16H120.763V15.1051H120.712C120.629 15.2699 120.506 15.4318 120.341 15.5909C120.176 15.75 119.964 15.8821 119.706 15.9872C119.447 16.0923 119.138 16.1449 118.777 16.1449ZM119.054 15.1222C119.406 15.1222 119.707 15.0526 119.957 14.9134C120.21 14.7741 120.402 14.5923 120.533 14.3679C120.666 14.1406 120.733 13.8977 120.733 13.6392V12.7955C120.688 12.8409 120.599 12.8835 120.469 12.9233C120.341 12.9602 120.195 12.9929 120.03 13.0213C119.865 13.0469 119.705 13.071 119.548 13.0938C119.392 13.1136 119.261 13.1307 119.156 13.1449C118.909 13.1761 118.683 13.2287 118.479 13.3026C118.277 13.3764 118.115 13.483 117.993 13.6222C117.874 13.7585 117.814 13.9403 117.814 14.1676C117.814 14.483 117.93 14.7216 118.163 14.8835C118.396 15.0426 118.693 15.1222 119.054 15.1222ZM124.978 12.1136V16H123.704V9.45455H124.927V10.5199H125.008C125.159 10.1733 125.395 9.89489 125.716 9.68466C126.039 9.47443 126.447 9.36932 126.939 9.36932C127.385 9.36932 127.775 9.46307 128.11 9.65057C128.446 9.83523 128.706 10.1108 128.89 10.4773C129.075 10.8437 129.167 11.2969 129.167 11.8366V16H127.893V11.9901C127.893 11.5156 127.77 11.1449 127.522 10.8778C127.275 10.608 126.936 10.473 126.504 10.473C126.208 10.473 125.946 10.5369 125.716 10.6648C125.488 10.7926 125.308 10.9801 125.174 11.2273C125.044 11.4716 124.978 11.767 124.978 12.1136ZM133.326 16.1278C132.798 16.1278 132.326 15.9929 131.912 15.723C131.5 15.4503 131.176 15.0625 130.94 14.5597C130.707 14.054 130.591 13.4474 130.591 12.7401C130.591 12.0327 130.708 11.4276 130.944 10.9247C131.183 10.4219 131.51 10.0369 131.924 9.76989C132.339 9.50284 132.809 9.36932 133.335 9.36932C133.741 9.36932 134.068 9.4375 134.315 9.57386C134.565 9.70739 134.758 9.86364 134.895 10.0426C135.034 10.2216 135.142 10.3793 135.218 10.5156H135.295V7.27273H136.569V16H135.325V14.9815H135.218C135.142 15.1207 135.031 15.2798 134.886 15.4588C134.744 15.6378 134.548 15.794 134.298 15.9276C134.048 16.0611 133.724 16.1278 133.326 16.1278ZM133.608 15.0412C133.974 15.0412 134.284 14.9446 134.537 14.7514C134.792 14.5554 134.985 14.2841 135.116 13.9375C135.25 13.5909 135.316 13.1875 135.316 12.7273C135.316 12.2727 135.251 11.875 135.12 11.5341C134.99 11.1932 134.798 10.9276 134.545 10.7372C134.292 10.5469 133.98 10.4517 133.608 10.4517C133.224 10.4517 132.904 10.5511 132.649 10.75C132.393 10.9489 132.2 11.2202 132.069 11.5639C131.941 11.9077 131.877 12.2955 131.877 12.7273C131.877 13.1648 131.943 13.5582 132.074 13.9077C132.204 14.2571 132.397 14.5341 132.653 14.7386C132.912 14.9403 133.23 15.0412 133.608 15.0412Z" fill="white"/>
<path d="M172.016 0H246.016C250.434 0 254.016 3.58172 254.016 8V16C254.016 20.4183 250.434 24 246.016 24H172.016V0Z" fill="#7659F5"/>
<path d="M202.183 12.2244V11.2699L207.842 8.52557V9.82528L203.666 11.7301L203.705 11.6534V11.8366L203.666 11.7642L207.842 13.6648V14.9688L202.183 12.2244ZM212.894 16.1193C212.505 16.1136 212.121 16.0426 211.744 15.9062C211.369 15.7699 211.028 15.5426 210.721 15.2244C210.414 14.9062 210.168 14.4787 209.984 13.9418C209.802 13.4048 209.711 12.7344 209.711 11.9304C209.711 11.169 209.786 10.4929 209.937 9.90199C210.09 9.31108 210.31 8.8125 210.597 8.40625C210.884 7.99716 211.231 7.68608 211.637 7.47301C212.043 7.25994 212.499 7.15341 213.005 7.15341C213.525 7.15341 213.987 7.25568 214.39 7.46023C214.793 7.66477 215.12 7.94744 215.37 8.30824C215.623 8.66903 215.783 9.07955 215.852 9.53977H214.552C214.464 9.17614 214.289 8.87926 214.028 8.64915C213.766 8.41903 213.425 8.30398 213.005 8.30398C212.366 8.30398 211.867 8.58239 211.509 9.1392C211.154 9.69602 210.975 10.4702 210.972 11.4616H211.036C211.187 11.2145 211.371 11.0043 211.59 10.831C211.812 10.6548 212.059 10.5199 212.332 10.4261C212.607 10.3295 212.897 10.2812 213.201 10.2812C213.707 10.2812 214.164 10.4048 214.573 10.652C214.985 10.8963 215.313 11.2344 215.558 11.6662C215.802 12.098 215.924 12.5923 215.924 13.1491C215.924 13.706 215.798 14.2102 215.545 14.6619C215.295 15.1136 214.942 15.4716 214.488 15.7358C214.033 15.9972 213.502 16.125 212.894 16.1193ZM212.89 15.0114C213.225 15.0114 213.525 14.929 213.789 14.7642C214.053 14.5994 214.262 14.3778 214.415 14.0994C214.569 13.821 214.646 13.5099 214.646 13.1662C214.646 12.831 214.57 12.5256 214.42 12.25C214.272 11.9744 214.067 11.7557 213.806 11.5938C213.548 11.4318 213.252 11.3509 212.92 11.3509C212.667 11.3509 212.433 11.3991 212.217 11.4957C212.004 11.5923 211.816 11.7259 211.654 11.8963C211.492 12.0668 211.364 12.2628 211.271 12.4844C211.18 12.7031 211.134 12.9347 211.134 13.179C211.134 13.5057 211.21 13.8082 211.36 14.0866C211.513 14.3651 211.722 14.5895 211.987 14.7599C212.254 14.9276 212.555 15.0114 212.89 15.0114ZM220.515 16.1449C219.841 16.142 219.266 15.9645 218.789 15.6122C218.311 15.2599 217.946 14.7472 217.694 14.0739C217.441 13.4006 217.314 12.5895 217.314 11.6406C217.314 10.6946 217.441 9.88636 217.694 9.21591C217.949 8.54545 218.316 8.03409 218.793 7.68182C219.273 7.32955 219.847 7.15341 220.515 7.15341C221.182 7.15341 221.755 7.33097 222.232 7.68608C222.709 8.03835 223.074 8.54972 223.327 9.22017C223.583 9.88778 223.711 10.6946 223.711 11.6406C223.711 12.5923 223.584 13.4048 223.331 14.0781C223.078 14.7486 222.713 15.2614 222.236 15.6165C221.759 15.9688 221.185 16.1449 220.515 16.1449ZM220.515 15.0071C221.105 15.0071 221.567 14.7188 221.9 14.142C222.235 13.5653 222.402 12.7315 222.402 11.6406C222.402 10.9162 222.326 10.304 222.172 9.80398C222.022 9.30114 221.804 8.92045 221.52 8.66193C221.239 8.40057 220.904 8.26989 220.515 8.26989C219.926 8.26989 219.465 8.55966 219.13 9.1392C218.794 9.71875 218.625 10.5526 218.623 11.6406C218.623 12.3679 218.698 12.983 218.848 13.4858C219.002 13.9858 219.219 14.3651 219.5 14.6236C219.782 14.8793 220.12 15.0071 220.515 15.0071Z" fill="white"/>
<path d="M0.015625 36C0.015625 31.5817 3.59735 28 8.01562 28H82.0156V52H8.01563C3.59735 52 0.015625 48.4183 0.015625 44V36Z" fill="#249B3D"/>
<path d="M27.6832 40.2244V39.2699L33.3423 36.5256V37.8253L29.1662 39.7301L29.2045 39.6534V39.8366L29.1662 39.7642L33.3423 41.6648V42.9688L27.6832 40.2244ZM38.6584 35.2727V44H37.3374V36.5938H37.2862L35.1982 37.9574V36.696L37.3757 35.2727H38.6584ZM41.0192 44V43.0455L43.9723 39.9858C44.2876 39.6534 44.5476 39.3622 44.7521 39.1122C44.9595 38.8594 45.1143 38.6193 45.2166 38.392C45.3189 38.1648 45.37 37.9233 45.37 37.6676C45.37 37.3778 45.3018 37.1278 45.1655 36.9176C45.0291 36.7045 44.843 36.5412 44.6072 36.4276C44.3714 36.3111 44.1058 36.2528 43.8104 36.2528C43.4979 36.2528 43.2251 36.3168 42.9922 36.4446C42.7592 36.5724 42.5803 36.7528 42.4553 36.9858C42.3303 37.2187 42.2678 37.4915 42.2678 37.804H41.0107C41.0107 37.2727 41.1328 36.8082 41.3771 36.4105C41.6214 36.0128 41.9567 35.7045 42.3828 35.4858C42.8089 35.2642 43.2933 35.1534 43.8359 35.1534C44.3842 35.1534 44.8672 35.2628 45.2848 35.4815C45.7053 35.6974 46.0334 35.9929 46.2692 36.3679C46.505 36.7401 46.6229 37.1605 46.6229 37.6293C46.6229 37.9531 46.5618 38.2699 46.4396 38.5795C46.3203 38.8892 46.1115 39.2344 45.8132 39.6151C45.5149 39.9929 45.1001 40.4517 44.5689 40.9915L42.8345 42.8068V42.8707H46.7635V44H41.0192ZM51.4169 44.1449C50.7436 44.142 50.1683 43.9645 49.6911 43.6122C49.2138 43.2599 48.8487 42.7472 48.5959 42.0739C48.343 41.4006 48.2166 40.5895 48.2166 39.6406C48.2166 38.6946 48.343 37.8864 48.5959 37.2159C48.8516 36.5455 49.218 36.0341 49.6953 35.6818C50.1754 35.3295 50.7493 35.1534 51.4169 35.1534C52.0845 35.1534 52.657 35.331 53.1342 35.6861C53.6115 36.0384 53.9766 36.5497 54.2294 37.2202C54.4851 37.8878 54.6129 38.6946 54.6129 39.6406C54.6129 40.5923 54.4865 41.4048 54.2337 42.0781C53.9808 42.7486 53.6158 43.2614 53.1385 43.6165C52.6612 43.9688 52.0874 44.1449 51.4169 44.1449ZM51.4169 43.0071C52.0078 43.0071 52.4695 42.7188 52.8018 42.142C53.1371 41.5653 53.3047 40.7315 53.3047 39.6406C53.3047 38.9162 53.228 38.304 53.0746 37.804C52.924 37.3011 52.7067 36.9205 52.4226 36.6619C52.1413 36.4006 51.8061 36.2699 51.4169 36.2699C50.8288 36.2699 50.3672 36.5597 50.032 37.1392C49.6967 37.7187 49.5277 38.5526 49.5249 39.6406C49.5249 40.3679 49.6001 40.983 49.7507 41.4858C49.9041 41.9858 50.1214 42.3651 50.4027 42.6236C50.6839 42.8793 51.022 43.0071 51.4169 43.0071Z" fill="white"/>
<rect width="82" height="24" transform="translate(86.0156 28)" fill="#249B3D"/>
<path d="M110.777 44.1449C110.362 44.1449 109.987 44.0682 109.652 43.9148C109.317 43.7585 109.051 43.5327 108.855 43.2372C108.662 42.9418 108.565 42.5795 108.565 42.1506C108.565 41.7812 108.636 41.4773 108.778 41.2386C108.92 41 109.112 40.8111 109.354 40.6719C109.595 40.5327 109.865 40.4276 110.163 40.3565C110.462 40.2855 110.766 40.2315 111.075 40.1946C111.467 40.1491 111.786 40.1122 112.03 40.0838C112.274 40.0526 112.452 40.0028 112.562 39.9347C112.673 39.8665 112.729 39.7557 112.729 39.6023V39.5724C112.729 39.2003 112.624 38.9119 112.413 38.7074C112.206 38.5028 111.896 38.4006 111.484 38.4006C111.055 38.4006 110.717 38.4957 110.47 38.6861C110.226 38.8736 110.057 39.0824 109.963 39.3125L108.766 39.0398C108.908 38.642 109.115 38.321 109.388 38.0767C109.663 37.8295 109.98 37.6506 110.338 37.5398C110.696 37.4261 111.072 37.3693 111.467 37.3693C111.729 37.3693 112.006 37.4006 112.298 37.4631C112.594 37.5227 112.869 37.6335 113.125 37.7955C113.384 37.9574 113.595 38.1889 113.76 38.4901C113.925 38.7884 114.007 39.1761 114.007 39.6534V44H112.763V43.1051H112.712C112.629 43.2699 112.506 43.4318 112.341 43.5909C112.176 43.75 111.964 43.8821 111.706 43.9872C111.447 44.0923 111.138 44.1449 110.777 44.1449ZM111.054 43.1222C111.406 43.1222 111.707 43.0526 111.957 42.9134C112.21 42.7741 112.402 42.5923 112.533 42.3679C112.666 42.1406 112.733 41.8977 112.733 41.6392V40.7955C112.688 40.8409 112.599 40.8835 112.469 40.9233C112.341 40.9602 112.195 40.9929 112.03 41.0213C111.865 41.0469 111.705 41.071 111.548 41.0938C111.392 41.1136 111.261 41.1307 111.156 41.1449C110.909 41.1761 110.683 41.2287 110.479 41.3026C110.277 41.3764 110.115 41.483 109.993 41.6222C109.874 41.7585 109.814 41.9403 109.814 42.1676C109.814 42.483 109.93 42.7216 110.163 42.8835C110.396 43.0426 110.693 43.1222 111.054 43.1222ZM116.978 40.1136V44H115.704V37.4545H116.927V38.5199H117.008C117.159 38.1733 117.395 37.8949 117.716 37.6847C118.039 37.4744 118.447 37.3693 118.939 37.3693C119.385 37.3693 119.775 37.4631 120.11 37.6506C120.446 37.8352 120.706 38.1108 120.89 38.4773C121.075 38.8437 121.167 39.2969 121.167 39.8366V44H119.893V39.9901C119.893 39.5156 119.77 39.1449 119.522 38.8778C119.275 38.608 118.936 38.473 118.504 38.473C118.208 38.473 117.946 38.5369 117.716 38.6648C117.488 38.7926 117.308 38.9801 117.174 39.2273C117.044 39.4716 116.978 39.767 116.978 40.1136ZM125.326 44.1278C124.798 44.1278 124.326 43.9929 123.912 43.723C123.5 43.4503 123.176 43.0625 122.94 42.5597C122.707 42.054 122.591 41.4474 122.591 40.7401C122.591 40.0327 122.708 39.4276 122.944 38.9247C123.183 38.4219 123.51 38.0369 123.924 37.7699C124.339 37.5028 124.809 37.3693 125.335 37.3693C125.741 37.3693 126.068 37.4375 126.315 37.5739C126.565 37.7074 126.758 37.8636 126.895 38.0426C127.034 38.2216 127.142 38.3793 127.218 38.5156H127.295V35.2727H128.569V44H127.325V42.9815H127.218C127.142 43.1207 127.031 43.2798 126.886 43.4588C126.744 43.6378 126.548 43.794 126.298 43.9276C126.048 44.0611 125.724 44.1278 125.326 44.1278ZM125.608 43.0412C125.974 43.0412 126.284 42.9446 126.537 42.7514C126.792 42.5554 126.985 42.2841 127.116 41.9375C127.25 41.5909 127.316 41.1875 127.316 40.7273C127.316 40.2727 127.251 39.875 127.12 39.5341C126.99 39.1932 126.798 38.9276 126.545 38.7372C126.292 38.5469 125.98 38.4517 125.608 38.4517C125.224 38.4517 124.904 38.5511 124.649 38.75C124.393 38.9489 124.2 39.2202 124.069 39.5639C123.941 39.9077 123.877 40.2955 123.877 40.7273C123.877 41.1648 123.943 41.5582 124.074 41.9077C124.204 42.2571 124.397 42.5341 124.653 42.7386C124.912 42.9403 125.23 43.0412 125.608 43.0412ZM133.712 34.8636L130.899 45.3125H129.761L132.574 34.8636H133.712ZM137.551 44.1321C136.938 44.1321 136.402 43.9915 135.945 43.7102C135.487 43.429 135.132 43.0355 134.879 42.5298C134.626 42.0241 134.5 41.4332 134.5 40.7571C134.5 40.0781 134.626 39.4844 134.879 38.9759C135.132 38.4673 135.487 38.0724 135.945 37.7912C136.402 37.5099 136.938 37.3693 137.551 37.3693C138.165 37.3693 138.7 37.5099 139.158 37.7912C139.615 38.0724 139.97 38.4673 140.223 38.9759C140.476 39.4844 140.602 40.0781 140.602 40.7571C140.602 41.4332 140.476 42.0241 140.223 42.5298C139.97 43.0355 139.615 43.429 139.158 43.7102C138.7 43.9915 138.165 44.1321 137.551 44.1321ZM137.555 43.0625C137.953 43.0625 138.283 42.9574 138.544 42.7472C138.805 42.5369 138.999 42.2571 139.124 41.9077C139.251 41.5582 139.315 41.1733 139.315 40.7528C139.315 40.3352 139.251 39.9517 139.124 39.6023C138.999 39.25 138.805 38.9673 138.544 38.7543C138.283 38.5412 137.953 38.4347 137.555 38.4347C137.155 38.4347 136.822 38.5412 136.558 38.7543C136.297 38.9673 136.102 39.25 135.974 39.6023C135.849 39.9517 135.787 40.3352 135.787 40.7528C135.787 41.1733 135.849 41.5582 135.974 41.9077C136.102 42.2571 136.297 42.5369 136.558 42.7472C136.822 42.9574 137.155 43.0625 137.555 43.0625ZM142.025 44V37.4545H143.256V38.4943H143.324C143.444 38.142 143.654 37.8651 143.955 37.6634C144.259 37.4588 144.603 37.3565 144.986 37.3565C145.066 37.3565 145.159 37.3594 145.267 37.3651C145.378 37.3707 145.465 37.3778 145.527 37.3864V38.6051C145.476 38.5909 145.385 38.5753 145.255 38.5582C145.124 38.5384 144.993 38.5284 144.863 38.5284C144.561 38.5284 144.293 38.5923 144.057 38.7202C143.824 38.8452 143.64 39.0199 143.503 39.2443C143.367 39.4659 143.299 39.7187 143.299 40.0028V44H142.025Z" fill="white"/>
<path d="M172.016 28H246.016C250.434 28 254.016 31.5817 254.016 36V44C254.016 48.4183 250.434 52 246.016 52H172.016V28Z" fill="#249B3D"/>
<path d="M202.183 40.2244V39.2699L207.842 36.5256V37.8253L203.666 39.7301L203.705 39.6534V39.8366L203.666 39.7642L207.842 41.6648V42.9688L202.183 40.2244ZM212.796 44.1193C212.185 44.1193 211.646 44.0142 211.177 43.804C210.711 43.5937 210.346 43.304 210.082 42.9347C209.817 42.5653 209.687 42.1449 209.69 41.6733C209.687 41.304 209.762 40.9645 209.915 40.6548C210.072 40.3423 210.283 40.0824 210.55 39.875C210.817 39.6648 211.116 39.5312 211.445 39.4744V39.4233C211.011 39.3182 210.663 39.0852 210.401 38.7244C210.14 38.3636 210.011 37.9489 210.013 37.4801C210.011 37.0341 210.129 36.6364 210.367 36.2869C210.609 35.9347 210.94 35.6577 211.36 35.456C211.781 35.2543 212.259 35.1534 212.796 35.1534C213.327 35.1534 213.802 35.2557 214.219 35.4602C214.64 35.6619 214.971 35.9389 215.212 36.2912C215.454 36.6406 215.576 37.0369 215.579 37.4801C215.576 37.9489 215.442 38.3636 215.178 38.7244C214.914 39.0852 214.57 39.3182 214.147 39.4233V39.4744C214.474 39.5312 214.768 39.6648 215.029 39.875C215.293 40.0824 215.504 40.3423 215.66 40.6548C215.819 40.9645 215.9 41.304 215.903 41.6733C215.9 42.1449 215.766 42.5653 215.502 42.9347C215.238 43.304 214.871 43.5937 214.403 43.804C213.937 44.0142 213.401 44.1193 212.796 44.1193ZM212.796 43.0412C213.157 43.0412 213.469 42.9815 213.734 42.8622C213.998 42.7401 214.202 42.571 214.347 42.3551C214.492 42.1364 214.566 41.8807 214.569 41.5881C214.566 41.2841 214.487 41.0156 214.33 40.7827C214.177 40.5497 213.968 40.3665 213.704 40.233C213.44 40.0994 213.137 40.0327 212.796 40.0327C212.452 40.0327 212.147 40.0994 211.88 40.233C211.613 40.3665 211.403 40.5497 211.249 40.7827C211.096 41.0156 211.021 41.2841 211.023 41.5881C211.021 41.8807 211.09 42.1364 211.232 42.3551C211.377 42.571 211.583 42.7401 211.85 42.8622C212.117 42.9815 212.433 43.0412 212.796 43.0412ZM212.796 38.9801C213.086 38.9801 213.343 38.9219 213.567 38.8054C213.792 38.6889 213.968 38.527 214.096 38.3196C214.227 38.1122 214.293 37.8693 214.296 37.5909C214.293 37.3182 214.228 37.0795 214.1 36.875C213.975 36.6705 213.8 36.5128 213.576 36.402C213.352 36.2884 213.092 36.2315 212.796 36.2315C212.495 36.2315 212.231 36.2884 212.004 36.402C211.779 36.5128 211.604 36.6705 211.479 36.875C211.354 37.0795 211.293 37.3182 211.296 37.5909C211.293 37.8693 211.356 38.1122 211.484 38.3196C211.612 38.527 211.788 38.6889 212.012 38.8054C212.239 38.9219 212.501 38.9801 212.796 38.9801ZM220.468 44.1449C219.794 44.142 219.219 43.9645 218.742 43.6122C218.265 43.2599 217.9 42.7472 217.647 42.0739C217.394 41.4006 217.267 40.5895 217.267 39.6406C217.267 38.6946 217.394 37.8864 217.647 37.2159C217.902 36.5455 218.269 36.0341 218.746 35.6818C219.226 35.3295 219.8 35.1534 220.468 35.1534C221.135 35.1534 221.708 35.331 222.185 35.6861C222.662 36.0384 223.027 36.5497 223.28 37.2202C223.536 37.8878 223.664 38.6946 223.664 39.6406C223.664 40.5923 223.537 41.4048 223.284 42.0781C223.032 42.7486 222.667 43.2614 222.189 43.6165C221.712 43.9688 221.138 44.1449 220.468 44.1449ZM220.468 43.0071C221.059 43.0071 221.52 42.7188 221.853 42.142C222.188 41.5653 222.355 40.7315 222.355 39.6406C222.355 38.9162 222.279 38.304 222.125 37.804C221.975 37.3011 221.757 36.9205 221.473 36.6619C221.192 36.4006 220.857 36.2699 220.468 36.2699C219.88 36.2699 219.418 36.5597 219.083 37.1392C218.748 37.7187 218.578 38.5526 218.576 39.6406C218.576 40.3679 218.651 40.983 218.801 41.4858C218.955 41.9858 219.172 42.3651 219.453 42.6236C219.735 42.8793 220.073 43.0071 220.468 43.0071Z" fill="white"/>
<path d="M0.015625 64C0.015625 59.5817 3.59735 56 8.01562 56H82.0156V80H8.01563C3.59735 80 0.015625 76.4183 0.015625 72V64Z" fill="#F1BA05"/>
<path d="M21.6662 63.2727V72H20.3452V64.5938H20.294L18.206 65.9574V64.696L20.3835 63.2727H21.6662ZM24.027 72V71.0455L26.9801 67.9858C27.2955 67.6534 27.5554 67.3622 27.7599 67.1122C27.9673 66.8594 28.1222 66.6193 28.2244 66.392C28.3267 66.1648 28.3778 65.9233 28.3778 65.6676C28.3778 65.3778 28.3097 65.1278 28.1733 64.9176C28.0369 64.7045 27.8509 64.5412 27.6151 64.4276C27.3793 64.3111 27.1136 64.2528 26.8182 64.2528C26.5057 64.2528 26.233 64.3168 26 64.4446C25.767 64.5724 25.5881 64.7528 25.4631 64.9858C25.3381 65.2187 25.2756 65.4915 25.2756 65.804H24.0185C24.0185 65.2727 24.1406 64.8082 24.3849 64.4105C24.6293 64.0128 24.9645 63.7045 25.3906 63.4858C25.8168 63.2642 26.3011 63.1534 26.8438 63.1534C27.392 63.1534 27.875 63.2628 28.2926 63.4815C28.7131 63.6974 29.0412 63.9929 29.277 64.3679C29.5128 64.7401 29.6307 65.1605 29.6307 65.6293C29.6307 65.9531 29.5696 66.2699 29.4474 66.5795C29.3281 66.8892 29.1193 67.2344 28.821 67.6151C28.5227 67.9929 28.108 68.4517 27.5767 68.9915L25.8423 70.8068V70.8707H29.7713V72H24.027ZM34.4247 72.1449C33.7514 72.142 33.1761 71.9645 32.6989 71.6122C32.2216 71.2599 31.8565 70.7472 31.6037 70.0739C31.3509 69.4006 31.2244 68.5895 31.2244 67.6406C31.2244 66.6946 31.3509 65.8864 31.6037 65.2159C31.8594 64.5455 32.2259 64.0341 32.7031 63.6818C33.1832 63.3295 33.7571 63.1534 34.4247 63.1534C35.0923 63.1534 35.6648 63.331 36.142 63.6861C36.6193 64.0384 36.9844 64.5497 37.2372 65.2202C37.4929 65.8878 37.6207 66.6946 37.6207 67.6406C37.6207 68.5923 37.4943 69.4048 37.2415 70.0781C36.9886 70.7486 36.6236 71.2614 36.1463 71.6165C35.669 71.9688 35.0952 72.1449 34.4247 72.1449ZM34.4247 71.0071C35.0156 71.0071 35.4773 70.7188 35.8097 70.142C36.1449 69.5653 36.3125 68.7315 36.3125 67.6406C36.3125 66.9162 36.2358 66.304 36.0824 65.804C35.9318 65.3011 35.7145 64.9205 35.4304 64.6619C35.1491 64.4006 34.8139 64.2699 34.4247 64.2699C33.8366 64.2699 33.375 64.5597 33.0398 65.1392C32.7045 65.7187 32.5355 66.5526 32.5327 67.6406C32.5327 68.3679 32.608 68.983 32.7585 69.4858C32.9119 69.9858 33.1293 70.3651 33.4105 70.6236C33.6918 70.8793 34.0298 71.0071 34.4247 71.0071ZM43.006 67.0824V68.1903H39.1367V67.0824H43.006ZM47.9982 63.2727V72H46.6772V64.5938H46.6261L44.538 65.9574V64.696L46.7156 63.2727H47.9982ZM50.359 72V71.0455L53.3121 67.9858C53.6275 67.6534 53.8874 67.3622 54.092 67.1122C54.2994 66.8594 54.4542 66.6193 54.5565 66.392C54.6587 66.1648 54.7099 65.9233 54.7099 65.6676C54.7099 65.3778 54.6417 65.1278 54.5053 64.9176C54.369 64.7045 54.1829 64.5412 53.9471 64.4276C53.7113 64.3111 53.4457 64.2528 53.1502 64.2528C52.8377 64.2528 52.565 64.3168 52.332 64.4446C52.0991 64.5724 51.9201 64.7528 51.7951 64.9858C51.6701 65.2187 51.6076 65.4915 51.6076 65.804H50.3505C50.3505 65.2727 50.4727 64.8082 50.717 64.4105C50.9613 64.0128 51.2965 63.7045 51.7227 63.4858C52.1488 63.2642 52.6332 63.1534 53.1758 63.1534C53.7241 63.1534 54.207 63.2628 54.6246 63.4815C55.0451 63.6974 55.3732 63.9929 55.609 64.3679C55.8448 64.7401 55.9627 65.1605 55.9627 65.6293C55.9627 65.9531 55.9016 66.2699 55.7795 66.5795C55.6602 66.8892 55.4513 67.2344 55.1531 67.6151C54.8548 67.9929 54.44 68.4517 53.9087 68.9915L52.1744 70.8068V70.8707H56.1033V72H50.359ZM60.6204 63.1534C61.0096 63.1562 61.3931 63.2273 61.771 63.3665C62.1488 63.5057 62.4897 63.733 62.7937 64.0483C63.1005 64.3636 63.3448 64.7898 63.5266 65.3267C63.7113 65.8608 63.805 66.5256 63.8079 67.321C63.8079 68.0852 63.7312 68.7656 63.5778 69.3622C63.4244 69.956 63.2042 70.4574 62.9173 70.8665C62.6332 71.2756 62.288 71.5866 61.8817 71.7997C61.4755 72.0128 61.0181 72.1193 60.5096 72.1193C59.9897 72.1193 59.5281 72.017 59.1246 71.8125C58.7212 71.608 58.3931 71.3253 58.1403 70.9645C57.8874 70.6009 57.7298 70.1832 57.6673 69.7116H58.967C59.0522 70.0866 59.2255 70.3906 59.4869 70.6236C59.7511 70.8537 60.092 70.9688 60.5096 70.9688C61.1488 70.9688 61.6474 70.6903 62.0053 70.1335C62.3633 69.5739 62.5437 68.7926 62.5465 67.7898H62.4783C62.3306 68.0341 62.146 68.2443 61.9244 68.4205C61.7056 68.5966 61.4599 68.733 61.1871 68.8295C60.9144 68.9261 60.6232 68.9744 60.3136 68.9744C59.8107 68.9744 59.3533 68.8509 58.9414 68.6037C58.5295 68.3565 58.2013 68.017 57.957 67.5852C57.7127 67.1534 57.5906 66.6605 57.5906 66.1065C57.5906 65.5554 57.7156 65.0554 57.9656 64.6065C58.2184 64.1577 58.5707 63.8026 59.0224 63.5412C59.4769 63.277 60.0096 63.1477 60.6204 63.1534ZM60.6246 64.2614C60.2923 64.2614 59.9925 64.3437 59.7255 64.5085C59.4613 64.6705 59.2525 64.8906 59.0991 65.169C58.9457 65.4446 58.869 65.7514 58.869 66.0895C58.869 66.4276 58.9428 66.7344 59.0906 67.0099C59.2411 67.2827 59.4457 67.5 59.7042 67.6619C59.9656 67.821 60.2638 67.9006 60.5991 67.9006C60.8491 67.9006 61.082 67.8523 61.2979 67.7557C61.5138 67.6591 61.7028 67.5256 61.8647 67.3551C62.0266 67.1818 62.1531 66.9858 62.244 66.767C62.3349 66.5483 62.3803 66.3182 62.3803 66.0767C62.3803 65.7557 62.3036 65.4574 62.1502 65.1818C61.9996 64.9062 61.7923 64.6847 61.5281 64.517C61.2638 64.3466 60.9627 64.2614 60.6246 64.2614Z" fill="white"/>
<rect width="82" height="24" transform="translate(86.0156 56)" fill="#F1BA05"/>
<path d="M110.777 72.1449C110.362 72.1449 109.987 72.0682 109.652 71.9148C109.317 71.7585 109.051 71.5327 108.855 71.2372C108.662 70.9418 108.565 70.5795 108.565 70.1506C108.565 69.7812 108.636 69.4773 108.778 69.2386C108.92 69 109.112 68.8111 109.354 68.6719C109.595 68.5327 109.865 68.4276 110.163 68.3565C110.462 68.2855 110.766 68.2315 111.075 68.1946C111.467 68.1491 111.786 68.1122 112.03 68.0838C112.274 68.0526 112.452 68.0028 112.562 67.9347C112.673 67.8665 112.729 67.7557 112.729 67.6023V67.5724C112.729 67.2003 112.624 66.9119 112.413 66.7074C112.206 66.5028 111.896 66.4006 111.484 66.4006C111.055 66.4006 110.717 66.4957 110.47 66.6861C110.226 66.8736 110.057 67.0824 109.963 67.3125L108.766 67.0398C108.908 66.642 109.115 66.321 109.388 66.0767C109.663 65.8295 109.98 65.6506 110.338 65.5398C110.696 65.4261 111.072 65.3693 111.467 65.3693C111.729 65.3693 112.006 65.4006 112.298 65.4631C112.594 65.5227 112.869 65.6335 113.125 65.7955C113.384 65.9574 113.595 66.1889 113.76 66.4901C113.925 66.7884 114.007 67.1761 114.007 67.6534V72H112.763V71.1051H112.712C112.629 71.2699 112.506 71.4318 112.341 71.5909C112.176 71.75 111.964 71.8821 111.706 71.9872C111.447 72.0923 111.138 72.1449 110.777 72.1449ZM111.054 71.1222C111.406 71.1222 111.707 71.0526 111.957 70.9134C112.21 70.7741 112.402 70.5923 112.533 70.3679C112.666 70.1406 112.733 69.8977 112.733 69.6392V68.7955C112.688 68.8409 112.599 68.8835 112.469 68.9233C112.341 68.9602 112.195 68.9929 112.03 69.0213C111.865 69.0469 111.705 69.071 111.548 69.0938C111.392 69.1136 111.261 69.1307 111.156 69.1449C110.909 69.1761 110.683 69.2287 110.479 69.3026C110.277 69.3764 110.115 69.483 109.993 69.6222C109.874 69.7585 109.814 69.9403 109.814 70.1676C109.814 70.483 109.93 70.7216 110.163 70.8835C110.396 71.0426 110.693 71.1222 111.054 71.1222ZM116.978 68.1136V72H115.704V65.4545H116.927V66.5199H117.008C117.159 66.1733 117.395 65.8949 117.716 65.6847C118.039 65.4744 118.447 65.3693 118.939 65.3693C119.385 65.3693 119.775 65.4631 120.11 65.6506C120.446 65.8352 120.706 66.1108 120.89 66.4773C121.075 66.8437 121.167 67.2969 121.167 67.8366V72H119.893V67.9901C119.893 67.5156 119.77 67.1449 119.522 66.8778C119.275 66.608 118.936 66.473 118.504 66.473C118.208 66.473 117.946 66.5369 117.716 66.6648C117.488 66.7926 117.308 66.9801 117.174 67.2273C117.044 67.4716 116.978 67.767 116.978 68.1136ZM125.326 72.1278C124.798 72.1278 124.326 71.9929 123.912 71.723C123.5 71.4503 123.176 71.0625 122.94 70.5597C122.707 70.054 122.591 69.4474 122.591 68.7401C122.591 68.0327 122.708 67.4276 122.944 66.9247C123.183 66.4219 123.51 66.0369 123.924 65.7699C124.339 65.5028 124.809 65.3693 125.335 65.3693C125.741 65.3693 126.068 65.4375 126.315 65.5739C126.565 65.7074 126.758 65.8636 126.895 66.0426C127.034 66.2216 127.142 66.3793 127.218 66.5156H127.295V63.2727H128.569V72H127.325V70.9815H127.218C127.142 71.1207 127.031 71.2798 126.886 71.4588C126.744 71.6378 126.548 71.794 126.298 71.9276C126.048 72.0611 125.724 72.1278 125.326 72.1278ZM125.608 71.0412C125.974 71.0412 126.284 70.9446 126.537 70.7514C126.792 70.5554 126.985 70.2841 127.116 69.9375C127.25 69.5909 127.316 69.1875 127.316 68.7273C127.316 68.2727 127.251 67.875 127.12 67.5341C126.99 67.1932 126.798 66.9276 126.545 66.7372C126.292 66.5469 125.98 66.4517 125.608 66.4517C125.224 66.4517 124.904 66.5511 124.649 66.75C124.393 66.9489 124.2 67.2202 124.069 67.5639C123.941 67.9077 123.877 68.2955 123.877 68.7273C123.877 69.1648 123.943 69.5582 124.074 69.9077C124.204 70.2571 124.397 70.5341 124.653 70.7386C124.912 70.9403 125.23 71.0412 125.608 71.0412ZM133.712 62.8636L130.899 73.3125H129.761L132.574 62.8636H133.712ZM137.551 72.1321C136.938 72.1321 136.402 71.9915 135.945 71.7102C135.487 71.429 135.132 71.0355 134.879 70.5298C134.626 70.0241 134.5 69.4332 134.5 68.7571C134.5 68.0781 134.626 67.4844 134.879 66.9759C135.132 66.4673 135.487 66.0724 135.945 65.7912C136.402 65.5099 136.938 65.3693 137.551 65.3693C138.165 65.3693 138.7 65.5099 139.158 65.7912C139.615 66.0724 139.97 66.4673 140.223 66.9759C140.476 67.4844 140.602 68.0781 140.602 68.7571C140.602 69.4332 140.476 70.0241 140.223 70.5298C139.97 71.0355 139.615 71.429 139.158 71.7102C138.7 71.9915 138.165 72.1321 137.551 72.1321ZM137.555 71.0625C137.953 71.0625 138.283 70.9574 138.544 70.7472C138.805 70.5369 138.999 70.2571 139.124 69.9077C139.251 69.5582 139.315 69.1733 139.315 68.7528C139.315 68.3352 139.251 67.9517 139.124 67.6023C138.999 67.25 138.805 66.9673 138.544 66.7543C138.283 66.5412 137.953 66.4347 137.555 66.4347C137.155 66.4347 136.822 66.5412 136.558 66.7543C136.297 66.9673 136.102 67.25 135.974 67.6023C135.849 67.9517 135.787 68.3352 135.787 68.7528C135.787 69.1733 135.849 69.5582 135.974 69.9077C136.102 70.2571 136.297 70.5369 136.558 70.7472C136.822 70.9574 137.155 71.0625 137.555 71.0625ZM142.025 72V65.4545H143.256V66.4943H143.324C143.444 66.142 143.654 65.8651 143.955 65.6634C144.259 65.4588 144.603 65.3565 144.986 65.3565C145.066 65.3565 145.159 65.3594 145.267 65.3651C145.378 65.3707 145.465 65.3778 145.527 65.3864V66.6051C145.476 66.5909 145.385 66.5753 145.255 66.5582C145.124 66.5384 144.993 66.5284 144.863 66.5284C144.561 66.5284 144.293 66.5923 144.057 66.7202C143.824 66.8452 143.64 67.0199 143.503 67.2443C143.367 67.4659 143.299 67.7187 143.299 68.0028V72H142.025Z" fill="white"/>
<path d="M172.016 56H246.016C250.434 56 254.016 59.5817 254.016 64V72C254.016 76.4183 250.434 80 246.016 80H172.016V56Z" fill="#F1BA05"/>
<path d="M202.183 68.2244V67.2699L207.842 64.5256V65.8253L203.666 67.7301L203.705 67.6534V67.8366L203.666 67.7642L207.842 69.6648V70.9688L202.183 68.2244ZM212.796 72.1193C212.185 72.1193 211.646 72.0142 211.177 71.804C210.711 71.5937 210.346 71.304 210.082 70.9347C209.817 70.5653 209.687 70.1449 209.69 69.6733C209.687 69.304 209.762 68.9645 209.915 68.6548C210.072 68.3423 210.283 68.0824 210.55 67.875C210.817 67.6648 211.116 67.5312 211.445 67.4744V67.4233C211.011 67.3182 210.663 67.0852 210.401 66.7244C210.14 66.3636 210.011 65.9489 210.013 65.4801C210.011 65.0341 210.129 64.6364 210.367 64.2869C210.609 63.9347 210.94 63.6577 211.36 63.456C211.781 63.2543 212.259 63.1534 212.796 63.1534C213.327 63.1534 213.802 63.2557 214.219 63.4602C214.64 63.6619 214.971 63.9389 215.212 64.2912C215.454 64.6406 215.576 65.0369 215.579 65.4801C215.576 65.9489 215.442 66.3636 215.178 66.7244C214.914 67.0852 214.57 67.3182 214.147 67.4233V67.4744C214.474 67.5312 214.768 67.6648 215.029 67.875C215.293 68.0824 215.504 68.3423 215.66 68.6548C215.819 68.9645 215.9 69.304 215.903 69.6733C215.9 70.1449 215.766 70.5653 215.502 70.9347C215.238 71.304 214.871 71.5937 214.403 71.804C213.937 72.0142 213.401 72.1193 212.796 72.1193ZM212.796 71.0412C213.157 71.0412 213.469 70.9815 213.734 70.8622C213.998 70.7401 214.202 70.571 214.347 70.3551C214.492 70.1364 214.566 69.8807 214.569 69.5881C214.566 69.2841 214.487 69.0156 214.33 68.7827C214.177 68.5497 213.968 68.3665 213.704 68.233C213.44 68.0994 213.137 68.0327 212.796 68.0327C212.452 68.0327 212.147 68.0994 211.88 68.233C211.613 68.3665 211.403 68.5497 211.249 68.7827C211.096 69.0156 211.021 69.2841 211.023 69.5881C211.021 69.8807 211.09 70.1364 211.232 70.3551C211.377 70.571 211.583 70.7401 211.85 70.8622C212.117 70.9815 212.433 71.0412 212.796 71.0412ZM212.796 66.9801C213.086 66.9801 213.343 66.9219 213.567 66.8054C213.792 66.6889 213.968 66.527 214.096 66.3196C214.227 66.1122 214.293 65.8693 214.296 65.5909C214.293 65.3182 214.228 65.0795 214.1 64.875C213.975 64.6705 213.8 64.5128 213.576 64.402C213.352 64.2884 213.092 64.2315 212.796 64.2315C212.495 64.2315 212.231 64.2884 212.004 64.402C211.779 64.5128 211.604 64.6705 211.479 64.875C211.354 65.0795 211.293 65.3182 211.296 65.5909C211.293 65.8693 211.356 66.1122 211.484 66.3196C211.612 66.527 211.788 66.6889 212.012 66.8054C212.239 66.9219 212.501 66.9801 212.796 66.9801ZM220.468 72.1449C219.794 72.142 219.219 71.9645 218.742 71.6122C218.265 71.2599 217.9 70.7472 217.647 70.0739C217.394 69.4006 217.267 68.5895 217.267 67.6406C217.267 66.6946 217.394 65.8864 217.647 65.2159C217.902 64.5455 218.269 64.0341 218.746 63.6818C219.226 63.3295 219.8 63.1534 220.468 63.1534C221.135 63.1534 221.708 63.331 222.185 63.6861C222.662 64.0384 223.027 64.5497 223.28 65.2202C223.536 65.8878 223.664 66.6946 223.664 67.6406C223.664 68.5923 223.537 69.4048 223.284 70.0781C223.032 70.7486 222.667 71.2614 222.189 71.6165C221.712 71.9688 221.138 72.1449 220.468 72.1449ZM220.468 71.0071C221.059 71.0071 221.52 70.7188 221.853 70.142C222.188 69.5653 222.355 68.7315 222.355 67.6406C222.355 66.9162 222.279 66.304 222.125 65.804C221.975 65.3011 221.757 64.9205 221.473 64.6619C221.192 64.4006 220.857 64.2699 220.468 64.2699C219.88 64.2699 219.418 64.5597 219.083 65.1392C218.748 65.7187 218.578 66.5526 218.576 67.6406C218.576 68.3679 218.651 68.983 218.801 69.4858C218.955 69.9858 219.172 70.3651 219.453 70.6236C219.735 70.8793 220.073 71.0071 220.468 71.0071Z" fill="white"/>
<path d="M0.015625 92C0.015625 87.5817 3.59735 84 8.01562 84H82.0156V108H8.01563C3.59735 108 0.015625 104.418 0.015625 100V92Z" fill="#FF9702"/>
<path d="M21.1662 91.2727V100H19.8452V92.5938H19.794L17.706 93.9574V92.696L19.8835 91.2727H21.1662ZM26.5653 100.119C25.9801 100.119 25.4574 100.018 24.9972 99.8168C24.5398 99.6151 24.1776 99.3352 23.9105 98.9773C23.6463 98.6165 23.5043 98.1989 23.4844 97.7244H24.8224C24.8395 97.983 24.9261 98.2074 25.0824 98.3977C25.2415 98.5852 25.4489 98.7301 25.7045 98.8324C25.9602 98.9347 26.2443 98.9858 26.5568 98.9858C26.9006 98.9858 27.2045 98.9261 27.4688 98.8068C27.7358 98.6875 27.9446 98.5213 28.0952 98.3082C28.2457 98.0923 28.321 97.8438 28.321 97.5625C28.321 97.2699 28.2457 97.0128 28.0952 96.7912C27.9474 96.5668 27.7301 96.3906 27.4432 96.2628C27.1591 96.1349 26.8153 96.071 26.4119 96.071H25.6747V94.9972H26.4119C26.7358 94.9972 27.0199 94.9389 27.2642 94.8224C27.5114 94.706 27.7045 94.544 27.8438 94.3366C27.983 94.1264 28.0526 93.8807 28.0526 93.5994C28.0526 93.3295 27.9915 93.0952 27.8693 92.8963C27.75 92.6946 27.5795 92.5369 27.358 92.4233C27.1392 92.3097 26.8807 92.2528 26.5824 92.2528C26.2983 92.2528 26.0327 92.3054 25.7855 92.4105C25.5412 92.5128 25.3423 92.6605 25.1889 92.8537C25.0355 93.044 24.9531 93.2727 24.9418 93.5398H23.6676C23.6818 93.0682 23.821 92.6534 24.0852 92.2955C24.3523 91.9375 24.7045 91.6577 25.142 91.456C25.5795 91.2543 26.0653 91.1534 26.5994 91.1534C27.1591 91.1534 27.642 91.2628 28.0483 91.4815C28.4574 91.6974 28.7727 91.9858 28.9943 92.3466C29.2188 92.7074 29.3295 93.1023 29.3267 93.5312C29.3295 94.0199 29.1932 94.4347 28.9176 94.7756C28.6449 95.1165 28.2813 95.3452 27.8267 95.4616V95.5298C28.4063 95.6179 28.8551 95.848 29.1733 96.2202C29.4943 96.5923 29.6534 97.054 29.6506 97.6051C29.6534 98.0852 29.5199 98.5156 29.25 98.8963C28.983 99.277 28.6179 99.5767 28.1548 99.7955C27.6918 100.011 27.1619 100.119 26.5653 100.119ZM34.2997 100.145C33.6264 100.142 33.0511 99.9645 32.5739 99.6122C32.0966 99.2599 31.7315 98.7472 31.4787 98.0739C31.2259 97.4006 31.0994 96.5895 31.0994 95.6406C31.0994 94.6946 31.2259 93.8864 31.4787 93.2159C31.7344 92.5455 32.1009 92.0341 32.5781 91.6818C33.0582 91.3295 33.6321 91.1534 34.2997 91.1534C34.9673 91.1534 35.5398 91.331 36.017 91.6861C36.4943 92.0384 36.8594 92.5497 37.1122 93.2202C37.3679 93.8878 37.4957 94.6946 37.4957 95.6406C37.4957 96.5923 37.3693 97.4048 37.1165 98.0781C36.8636 98.7486 36.4986 99.2614 36.0213 99.6165C35.544 99.9688 34.9702 100.145 34.2997 100.145ZM34.2997 99.0071C34.8906 99.0071 35.3523 98.7188 35.6847 98.142C36.0199 97.5653 36.1875 96.7315 36.1875 95.6406C36.1875 94.9162 36.1108 94.304 35.9574 93.804C35.8068 93.3011 35.5895 92.9205 35.3054 92.6619C35.0241 92.4006 34.6889 92.2699 34.2997 92.2699C33.7116 92.2699 33.25 92.5597 32.9148 93.1392C32.5795 93.7187 32.4105 94.5526 32.4077 95.6406C32.4077 96.3679 32.483 96.983 32.6335 97.4858C32.7869 97.9858 33.0043 98.3651 33.2855 98.6236C33.5668 98.8793 33.9048 99.0071 34.2997 99.0071ZM42.881 95.0824V96.1903H39.0117V95.0824H42.881ZM47.8732 91.2727V100H46.5522V92.5938H46.5011L44.413 93.9574V92.696L46.5906 91.2727H47.8732ZM53.2724 100.119C52.6871 100.119 52.1644 100.018 51.7042 99.8168C51.2468 99.6151 50.8846 99.3352 50.6175 98.9773C50.3533 98.6165 50.2113 98.1989 50.1914 97.7244H51.5295C51.5465 97.983 51.6332 98.2074 51.7894 98.3977C51.9485 98.5852 52.1559 98.7301 52.4116 98.8324C52.6673 98.9347 52.9513 98.9858 53.2638 98.9858C53.6076 98.9858 53.9116 98.9261 54.1758 98.8068C54.4428 98.6875 54.6516 98.5213 54.8022 98.3082C54.9528 98.0923 55.0281 97.8438 55.0281 97.5625C55.0281 97.2699 54.9528 97.0128 54.8022 96.7912C54.6545 96.5668 54.4371 96.3906 54.1502 96.2628C53.8661 96.1349 53.5224 96.071 53.119 96.071H52.3817V94.9972H53.119C53.4428 94.9972 53.7269 94.9389 53.9712 94.8224C54.2184 94.706 54.4116 94.544 54.5508 94.3366C54.69 94.1264 54.7596 93.8807 54.7596 93.5994C54.7596 93.3295 54.6985 93.0952 54.5763 92.8963C54.457 92.6946 54.2866 92.5369 54.065 92.4233C53.8462 92.3097 53.5877 92.2528 53.2894 92.2528C53.0053 92.2528 52.7397 92.3054 52.4925 92.4105C52.2482 92.5128 52.0494 92.6605 51.896 92.8537C51.7425 93.044 51.6602 93.2727 51.6488 93.5398H50.3746C50.3888 93.0682 50.5281 92.6534 50.7923 92.2955C51.0593 91.9375 51.4116 91.6577 51.8491 91.456C52.2866 91.2543 52.7724 91.1534 53.3065 91.1534C53.8661 91.1534 54.3491 91.2628 54.7553 91.4815C55.1644 91.6974 55.4798 91.9858 55.7013 92.3466C55.9258 92.7074 56.0366 93.1023 56.0337 93.5312C56.0366 94.0199 55.9002 94.4347 55.6246 94.7756C55.3519 95.1165 54.9883 95.3452 54.5337 95.4616V95.5298C55.1133 95.6179 55.5621 95.848 55.8803 96.2202C56.2013 96.5923 56.3604 97.054 56.3576 97.6051C56.3604 98.0852 56.2269 98.5156 55.957 98.8963C55.69 99.277 55.3249 99.5767 54.8619 99.7955C54.3988 100.011 53.869 100.119 53.2724 100.119ZM60.8704 91.1534C61.2596 91.1562 61.6431 91.2273 62.021 91.3665C62.3988 91.5057 62.7397 91.733 63.0437 92.0483C63.3505 92.3636 63.5948 92.7898 63.7766 93.3267C63.9613 93.8608 64.055 94.5256 64.0579 95.321C64.0579 96.0852 63.9812 96.7656 63.8278 97.3622C63.6744 97.956 63.4542 98.4574 63.1673 98.8665C62.8832 99.2756 62.538 99.5866 62.1317 99.7997C61.7255 100.013 61.2681 100.119 60.7596 100.119C60.2397 100.119 59.7781 100.017 59.3746 99.8125C58.9712 99.608 58.6431 99.3253 58.3903 98.9645C58.1374 98.6009 57.9798 98.1832 57.9173 97.7116H59.217C59.3022 98.0866 59.4755 98.3906 59.7369 98.6236C60.0011 98.8537 60.342 98.9688 60.7596 98.9688C61.3988 98.9688 61.8974 98.6903 62.2553 98.1335C62.6133 97.5739 62.7937 96.7926 62.7965 95.7898H62.7283C62.5806 96.0341 62.396 96.2443 62.1744 96.4205C61.9556 96.5966 61.7099 96.733 61.4371 96.8295C61.1644 96.9261 60.8732 96.9744 60.5636 96.9744C60.0607 96.9744 59.6033 96.8509 59.1914 96.6037C58.7795 96.3565 58.4513 96.017 58.207 95.5852C57.9627 95.1534 57.8406 94.6605 57.8406 94.1065C57.8406 93.5554 57.9656 93.0554 58.2156 92.6065C58.4684 92.1577 58.8207 91.8026 59.2724 91.5412C59.7269 91.277 60.2596 91.1477 60.8704 91.1534ZM60.8746 92.2614C60.5423 92.2614 60.2425 92.3437 59.9755 92.5085C59.7113 92.6705 59.5025 92.8906 59.3491 93.169C59.1957 93.4446 59.119 93.7514 59.119 94.0895C59.119 94.4276 59.1928 94.7344 59.3406 95.0099C59.4911 95.2827 59.6957 95.5 59.9542 95.6619C60.2156 95.821 60.5138 95.9006 60.8491 95.9006C61.0991 95.9006 61.332 95.8523 61.5479 95.7557C61.7638 95.6591 61.9528 95.5256 62.1147 95.3551C62.2766 95.1818 62.4031 94.9858 62.494 94.767C62.5849 94.5483 62.6303 94.3182 62.6303 94.0767C62.6303 93.7557 62.5536 93.4574 62.4002 93.1818C62.2496 92.9062 62.0423 92.6847 61.7781 92.517C61.5138 92.3466 61.2127 92.2614 60.8746 92.2614Z" fill="white"/>
<rect width="82" height="24" transform="translate(86.0156 84)" fill="#FF9702"/>
<path d="M110.777 100.145C110.362 100.145 109.987 100.068 109.652 99.9148C109.317 99.7585 109.051 99.5327 108.855 99.2372C108.662 98.9418 108.565 98.5795 108.565 98.1506C108.565 97.7812 108.636 97.4773 108.778 97.2386C108.92 97 109.112 96.8111 109.354 96.6719C109.595 96.5327 109.865 96.4276 110.163 96.3565C110.462 96.2855 110.766 96.2315 111.075 96.1946C111.467 96.1491 111.786 96.1122 112.03 96.0838C112.274 96.0526 112.452 96.0028 112.562 95.9347C112.673 95.8665 112.729 95.7557 112.729 95.6023V95.5724C112.729 95.2003 112.624 94.9119 112.413 94.7074C112.206 94.5028 111.896 94.4006 111.484 94.4006C111.055 94.4006 110.717 94.4957 110.47 94.6861C110.226 94.8736 110.057 95.0824 109.963 95.3125L108.766 95.0398C108.908 94.642 109.115 94.321 109.388 94.0767C109.663 93.8295 109.98 93.6506 110.338 93.5398C110.696 93.4261 111.072 93.3693 111.467 93.3693C111.729 93.3693 112.006 93.4006 112.298 93.4631C112.594 93.5227 112.869 93.6335 113.125 93.7955C113.384 93.9574 113.595 94.1889 113.76 94.4901C113.925 94.7884 114.007 95.1761 114.007 95.6534V100H112.763V99.1051H112.712C112.629 99.2699 112.506 99.4318 112.341 99.5909C112.176 99.75 111.964 99.8821 111.706 99.9872C111.447 100.092 111.138 100.145 110.777 100.145ZM111.054 99.1222C111.406 99.1222 111.707 99.0526 111.957 98.9134C112.21 98.7741 112.402 98.5923 112.533 98.3679C112.666 98.1406 112.733 97.8977 112.733 97.6392V96.7955C112.688 96.8409 112.599 96.8835 112.469 96.9233C112.341 96.9602 112.195 96.9929 112.03 97.0213C111.865 97.0469 111.705 97.071 111.548 97.0938C111.392 97.1136 111.261 97.1307 111.156 97.1449C110.909 97.1761 110.683 97.2287 110.479 97.3026C110.277 97.3764 110.115 97.483 109.993 97.6222C109.874 97.7585 109.814 97.9403 109.814 98.1676C109.814 98.483 109.93 98.7216 110.163 98.8835C110.396 99.0426 110.693 99.1222 111.054 99.1222ZM116.978 96.1136V100H115.704V93.4545H116.927V94.5199H117.008C117.159 94.1733 117.395 93.8949 117.716 93.6847C118.039 93.4744 118.447 93.3693 118.939 93.3693C119.385 93.3693 119.775 93.4631 120.11 93.6506C120.446 93.8352 120.706 94.1108 120.89 94.4773C121.075 94.8437 121.167 95.2969 121.167 95.8366V100H119.893V95.9901C119.893 95.5156 119.77 95.1449 119.522 94.8778C119.275 94.608 118.936 94.473 118.504 94.473C118.208 94.473 117.946 94.5369 117.716 94.6648C117.488 94.7926 117.308 94.9801 117.174 95.2273C117.044 95.4716 116.978 95.767 116.978 96.1136ZM125.326 100.128C124.798 100.128 124.326 99.9929 123.912 99.723C123.5 99.4503 123.176 99.0625 122.94 98.5597C122.707 98.054 122.591 97.4474 122.591 96.7401C122.591 96.0327 122.708 95.4276 122.944 94.9247C123.183 94.4219 123.51 94.0369 123.924 93.7699C124.339 93.5028 124.809 93.3693 125.335 93.3693C125.741 93.3693 126.068 93.4375 126.315 93.5739C126.565 93.7074 126.758 93.8636 126.895 94.0426C127.034 94.2216 127.142 94.3793 127.218 94.5156H127.295V91.2727H128.569V100H127.325V98.9815H127.218C127.142 99.1207 127.031 99.2798 126.886 99.4588C126.744 99.6378 126.548 99.794 126.298 99.9276C126.048 100.061 125.724 100.128 125.326 100.128ZM125.608 99.0412C125.974 99.0412 126.284 98.9446 126.537 98.7514C126.792 98.5554 126.985 98.2841 127.116 97.9375C127.25 97.5909 127.316 97.1875 127.316 96.7273C127.316 96.2727 127.251 95.875 127.12 95.5341C126.99 95.1932 126.798 94.9276 126.545 94.7372C126.292 94.5469 125.98 94.4517 125.608 94.4517C125.224 94.4517 124.904 94.5511 124.649 94.75C124.393 94.9489 124.2 95.2202 124.069 95.5639C123.941 95.9077 123.877 96.2955 123.877 96.7273C123.877 97.1648 123.943 97.5582 124.074 97.9077C124.204 98.2571 124.397 98.5341 124.653 98.7386C124.912 98.9403 125.23 99.0412 125.608 99.0412ZM133.712 90.8636L130.899 101.312H129.761L132.574 90.8636H133.712ZM137.551 100.132C136.938 100.132 136.402 99.9915 135.945 99.7102C135.487 99.429 135.132 99.0355 134.879 98.5298C134.626 98.0241 134.5 97.4332 134.5 96.7571C134.5 96.0781 134.626 95.4844 134.879 94.9759C135.132 94.4673 135.487 94.0724 135.945 93.7912C136.402 93.5099 136.938 93.3693 137.551 93.3693C138.165 93.3693 138.7 93.5099 139.158 93.7912C139.615 94.0724 139.97 94.4673 140.223 94.9759C140.476 95.4844 140.602 96.0781 140.602 96.7571C140.602 97.4332 140.476 98.0241 140.223 98.5298C139.97 99.0355 139.615 99.429 139.158 99.7102C138.7 99.9915 138.165 100.132 137.551 100.132ZM137.555 99.0625C137.953 99.0625 138.283 98.9574 138.544 98.7472C138.805 98.5369 138.999 98.2571 139.124 97.9077C139.251 97.5582 139.315 97.1733 139.315 96.7528C139.315 96.3352 139.251 95.9517 139.124 95.6023C138.999 95.25 138.805 94.9673 138.544 94.7543C138.283 94.5412 137.953 94.4347 137.555 94.4347C137.155 94.4347 136.822 94.5412 136.558 94.7543C136.297 94.9673 136.102 95.25 135.974 95.6023C135.849 95.9517 135.787 96.3352 135.787 96.7528C135.787 97.1733 135.849 97.5582 135.974 97.9077C136.102 98.2571 136.297 98.5369 136.558 98.7472C136.822 98.9574 137.155 99.0625 137.555 99.0625ZM142.025 100V93.4545H143.256V94.4943H143.324C143.444 94.142 143.654 93.8651 143.955 93.6634C144.259 93.4588 144.603 93.3565 144.986 93.3565C145.066 93.3565 145.159 93.3594 145.267 93.3651C145.378 93.3707 145.465 93.3778 145.527 93.3864V94.6051C145.476 94.5909 145.385 94.5753 145.255 94.5582C145.124 94.5384 144.993 94.5284 144.863 94.5284C144.561 94.5284 144.293 94.5923 144.057 94.7202C143.824 94.8452 143.64 95.0199 143.503 95.2443C143.367 95.4659 143.299 95.7187 143.299 96.0028V100H142.025Z" fill="white"/>
<path d="M172.016 84H246.016C250.434 84 254.016 87.5817 254.016 92V100C254.016 104.418 250.434 108 246.016 108H172.016V84Z" fill="#FF9702"/>
<path d="M198.304 100.119C197.693 100.119 197.153 100.014 196.685 99.804C196.219 99.5937 195.854 99.304 195.589 98.9347C195.325 98.5653 195.195 98.1449 195.197 97.6733C195.195 97.304 195.27 96.9645 195.423 96.6548C195.58 96.3423 195.791 96.0824 196.058 95.875C196.325 95.6648 196.624 95.5312 196.953 95.4744V95.4233C196.518 95.3182 196.17 95.0852 195.909 94.7244C195.648 94.3636 195.518 93.9489 195.521 93.4801C195.518 93.0341 195.636 92.6364 195.875 92.2869C196.116 91.9347 196.447 91.6577 196.868 91.456C197.288 91.2543 197.767 91.1534 198.304 91.1534C198.835 91.1534 199.31 91.2557 199.727 91.4602C200.148 91.6619 200.479 91.9389 200.72 92.2912C200.962 92.6406 201.084 93.0369 201.087 93.4801C201.084 93.9489 200.95 94.3636 200.686 94.7244C200.422 95.0852 200.078 95.3182 199.655 95.4233V95.4744C199.982 95.5312 200.276 95.6648 200.537 95.875C200.801 96.0824 201.011 96.3423 201.168 96.6548C201.327 96.9645 201.408 97.304 201.411 97.6733C201.408 98.1449 201.274 98.5653 201.01 98.9347C200.746 99.304 200.379 99.5937 199.911 99.804C199.445 100.014 198.909 100.119 198.304 100.119ZM198.304 99.0412C198.665 99.0412 198.977 98.9815 199.241 98.8622C199.506 98.7401 199.71 98.571 199.855 98.3551C200 98.1364 200.074 97.8807 200.077 97.5881C200.074 97.2841 199.994 97.0156 199.838 96.7827C199.685 96.5497 199.476 96.3665 199.212 96.233C198.947 96.0994 198.645 96.0327 198.304 96.0327C197.96 96.0327 197.655 96.0994 197.388 96.233C197.121 96.3665 196.911 96.5497 196.757 96.7827C196.604 97.0156 196.528 97.2841 196.531 97.5881C196.528 97.8807 196.598 98.1364 196.74 98.3551C196.885 98.571 197.091 98.7401 197.358 98.8622C197.625 98.9815 197.94 99.0412 198.304 99.0412ZM198.304 94.9801C198.594 94.9801 198.851 94.9219 199.075 94.8054C199.3 94.6889 199.476 94.527 199.604 94.3196C199.734 94.1122 199.801 93.8693 199.804 93.5909C199.801 93.3182 199.736 93.0795 199.608 92.875C199.483 92.6705 199.308 92.5128 199.084 92.402C198.859 92.2884 198.599 92.2315 198.304 92.2315C198.003 92.2315 197.739 92.2884 197.511 92.402C197.287 92.5128 197.112 92.6705 196.987 92.875C196.862 93.0795 196.801 93.3182 196.804 93.5909C196.801 93.8693 196.864 94.1122 196.991 94.3196C197.119 94.527 197.295 94.6889 197.52 94.8054C197.747 94.9219 198.009 94.9801 198.304 94.9801ZM205.975 100.145C205.302 100.142 204.727 99.9645 204.25 99.6122C203.772 99.2599 203.407 98.7472 203.154 98.0739C202.902 97.4006 202.775 96.5895 202.775 95.6406C202.775 94.6946 202.902 93.8864 203.154 93.2159C203.41 92.5455 203.777 92.0341 204.254 91.6818C204.734 91.3295 205.308 91.1534 205.975 91.1534C206.643 91.1534 207.216 91.331 207.693 91.6861C208.17 92.0384 208.535 92.5497 208.788 93.2202C209.044 93.8878 209.172 94.6946 209.172 95.6406C209.172 96.5923 209.045 97.4048 208.792 98.0781C208.539 98.7486 208.174 99.2614 207.697 99.6165C207.22 99.9688 206.646 100.145 205.975 100.145ZM205.975 99.0071C206.566 99.0071 207.028 98.7188 207.36 98.142C207.696 97.5653 207.863 96.7315 207.863 95.6406C207.863 94.9162 207.787 94.304 207.633 93.804C207.483 93.3011 207.265 92.9205 206.981 92.6619C206.7 92.4006 206.365 92.2699 205.975 92.2699C205.387 92.2699 204.926 92.5597 204.591 93.1392C204.255 93.7187 204.086 94.5526 204.083 95.6406C204.083 96.3679 204.159 96.983 204.309 97.4858C204.463 97.9858 204.68 98.3651 204.961 98.6236C205.243 98.8793 205.581 99.0071 205.975 99.0071ZM214.557 95.0824V96.1903H210.688V95.0824H214.557ZM219.187 100.119C218.576 100.119 218.036 100.014 217.567 99.804C217.102 99.5937 216.737 99.304 216.472 98.9347C216.208 98.5653 216.077 98.1449 216.08 97.6733C216.077 97.304 216.153 96.9645 216.306 96.6548C216.462 96.3423 216.674 96.0824 216.941 95.875C217.208 95.6648 217.506 95.5312 217.836 95.4744V95.4233C217.401 95.3182 217.053 95.0852 216.792 94.7244C216.531 94.3636 216.401 93.9489 216.404 93.4801C216.401 93.0341 216.519 92.6364 216.758 92.2869C216.999 91.9347 217.33 91.6577 217.751 91.456C218.171 91.2543 218.65 91.1534 219.187 91.1534C219.718 91.1534 220.192 91.2557 220.61 91.4602C221.031 91.6619 221.362 91.9389 221.603 92.2912C221.844 92.6406 221.967 93.0369 221.969 93.4801C221.967 93.9489 221.833 94.3636 221.569 94.7244C221.305 95.0852 220.961 95.3182 220.538 95.4233V95.4744C220.864 95.5312 221.158 95.6648 221.42 95.875C221.684 96.0824 221.894 96.3423 222.05 96.6548C222.21 96.9645 222.29 97.304 222.293 97.6733C222.29 98.1449 222.157 98.5653 221.893 98.9347C221.629 99.304 221.262 99.5937 220.793 99.804C220.327 100.014 219.792 100.119 219.187 100.119ZM219.187 99.0412C219.548 99.0412 219.86 98.9815 220.124 98.8622C220.388 98.7401 220.593 98.571 220.738 98.3551C220.883 98.1364 220.957 97.8807 220.96 97.5881C220.957 97.2841 220.877 97.0156 220.721 96.7827C220.567 96.5497 220.359 96.3665 220.094 96.233C219.83 96.0994 219.528 96.0327 219.187 96.0327C218.843 96.0327 218.538 96.0994 218.271 96.233C218.004 96.3665 217.793 96.5497 217.64 96.7827C217.487 97.0156 217.411 97.2841 217.414 97.5881C217.411 97.8807 217.481 98.1364 217.623 98.3551C217.768 98.571 217.974 98.7401 218.241 98.8622C218.508 98.9815 218.823 99.0412 219.187 99.0412ZM219.187 94.9801C219.477 94.9801 219.734 94.9219 219.958 94.8054C220.183 94.6889 220.359 94.527 220.487 94.3196C220.617 94.1122 220.684 93.8693 220.687 93.5909C220.684 93.3182 220.619 93.0795 220.491 92.875C220.366 92.6705 220.191 92.5128 219.967 92.402C219.742 92.2884 219.482 92.2315 219.187 92.2315C218.886 92.2315 218.621 92.2884 218.394 92.402C218.17 92.5128 217.995 92.6705 217.87 92.875C217.745 93.0795 217.684 93.3182 217.687 93.5909C217.684 93.8693 217.746 94.1122 217.874 94.3196C218.002 94.527 218.178 94.6889 218.403 94.8054C218.63 94.9219 218.891 94.9801 219.187 94.9801ZM226.722 91.1534C227.111 91.1562 227.495 91.2273 227.873 91.3665C228.25 91.5057 228.591 91.733 228.895 92.0483C229.202 92.3636 229.446 92.7898 229.628 93.3267C229.813 93.8608 229.907 94.5256 229.909 95.321C229.909 96.0852 229.833 96.7656 229.679 97.3622C229.526 97.956 229.306 98.4574 229.019 98.8665C228.735 99.2756 228.39 99.5866 227.983 99.7997C227.577 100.013 227.12 100.119 226.611 100.119C226.091 100.119 225.63 100.017 225.226 99.8125C224.823 99.608 224.495 99.3253 224.242 98.9645C223.989 98.6009 223.831 98.1832 223.769 97.7116H225.069C225.154 98.0866 225.327 98.3906 225.588 98.6236C225.853 98.8537 226.194 98.9688 226.611 98.9688C227.25 98.9688 227.749 98.6903 228.107 98.1335C228.465 97.5739 228.645 96.7926 228.648 95.7898H228.58C228.432 96.0341 228.248 96.2443 228.026 96.4205C227.807 96.5966 227.561 96.733 227.289 96.8295C227.016 96.9261 226.725 96.9744 226.415 96.9744C225.912 96.9744 225.455 96.8509 225.043 96.6037C224.631 96.3565 224.303 96.017 224.059 95.5852C223.814 95.1534 223.692 94.6605 223.692 94.1065C223.692 93.5554 223.817 93.0554 224.067 92.6065C224.32 92.1577 224.672 91.8026 225.124 91.5412C225.578 91.277 226.111 91.1477 226.722 91.1534ZM226.726 92.2614C226.394 92.2614 226.094 92.3437 225.827 92.5085C225.563 92.6705 225.354 92.8906 225.201 93.169C225.047 93.4446 224.971 93.7514 224.971 94.0895C224.971 94.4276 225.044 94.7344 225.192 95.0099C225.343 95.2827 225.547 95.5 225.806 95.6619C226.067 95.821 226.365 95.9006 226.701 95.9006C226.951 95.9006 227.184 95.8523 227.4 95.7557C227.615 95.6591 227.804 95.5256 227.966 95.3551C228.128 95.1818 228.255 94.9858 228.346 94.767C228.436 94.5483 228.482 94.3182 228.482 94.0767C228.482 93.7557 228.405 93.4574 228.252 93.1818C228.101 92.9062 227.894 92.6847 227.63 92.517C227.365 92.3466 227.064 92.2614 226.726 92.2614Z" fill="white"/>
<path d="M0.015625 120C0.015625 115.582 3.59735 112 8.01562 112H82.0156V136H8.01563C3.59735 136 0.015625 132.418 0.015625 128V120Z" fill="#EF423E"/>
<path d="M26.1662 119.273V128H24.8452V120.594H24.794L22.706 121.957V120.696L24.8835 119.273H26.1662ZM28.3438 126.295V125.23L32.1151 119.273H32.9545V120.841H32.4219L29.7244 125.111V125.179H34.8935V126.295H28.3438ZM32.4815 128V125.972L32.4901 125.486V119.273H33.7386V128H32.4815ZM39.4169 128.145C38.7436 128.142 38.1683 127.964 37.6911 127.612C37.2138 127.26 36.8487 126.747 36.5959 126.074C36.343 125.401 36.2166 124.589 36.2166 123.641C36.2166 122.695 36.343 121.886 36.5959 121.216C36.8516 120.545 37.218 120.034 37.6953 119.682C38.1754 119.33 38.7493 119.153 39.4169 119.153C40.0845 119.153 40.657 119.331 41.1342 119.686C41.6115 120.038 41.9766 120.55 42.2294 121.22C42.4851 121.888 42.6129 122.695 42.6129 123.641C42.6129 124.592 42.4865 125.405 42.2337 126.078C41.9808 126.749 41.6158 127.261 41.1385 127.616C40.6612 127.969 40.0874 128.145 39.4169 128.145ZM39.4169 127.007C40.0078 127.007 40.4695 126.719 40.8018 126.142C41.1371 125.565 41.3047 124.732 41.3047 123.641C41.3047 122.916 41.228 122.304 41.0746 121.804C40.924 121.301 40.7067 120.92 40.4226 120.662C40.1413 120.401 39.8061 120.27 39.4169 120.27C38.8288 120.27 38.3672 120.56 38.032 121.139C37.6967 121.719 37.5277 122.553 37.5249 123.641C37.5249 124.368 37.6001 124.983 37.7507 125.486C37.9041 125.986 38.1214 126.365 38.4027 126.624C38.6839 126.879 39.022 127.007 39.4169 127.007ZM44.5508 122.882V121.766H50.0096V122.882H44.5508ZM44.5508 125.507V124.391H50.0096V125.507H44.5508ZM52.445 124.224V123.27L58.104 120.526V121.825L53.9279 123.73L53.9663 123.653V123.837L53.9279 123.764L58.104 125.665V126.969L52.445 124.224Z" fill="white"/>
<rect width="82" height="24" transform="translate(86.0156 112)" fill="#EF423E"/>
<path d="M110.777 128.145C110.362 128.145 109.987 128.068 109.652 127.915C109.317 127.759 109.051 127.533 108.855 127.237C108.662 126.942 108.565 126.58 108.565 126.151C108.565 125.781 108.636 125.477 108.778 125.239C108.92 125 109.112 124.811 109.354 124.672C109.595 124.533 109.865 124.428 110.163 124.357C110.462 124.286 110.766 124.232 111.075 124.195C111.467 124.149 111.786 124.112 112.03 124.084C112.274 124.053 112.452 124.003 112.562 123.935C112.673 123.866 112.729 123.756 112.729 123.602V123.572C112.729 123.2 112.624 122.912 112.413 122.707C112.206 122.503 111.896 122.401 111.484 122.401C111.055 122.401 110.717 122.496 110.47 122.686C110.226 122.874 110.057 123.082 109.963 123.312L108.766 123.04C108.908 122.642 109.115 122.321 109.388 122.077C109.663 121.83 109.98 121.651 110.338 121.54C110.696 121.426 111.072 121.369 111.467 121.369C111.729 121.369 112.006 121.401 112.298 121.463C112.594 121.523 112.869 121.634 113.125 121.795C113.384 121.957 113.595 122.189 113.76 122.49C113.925 122.788 114.007 123.176 114.007 123.653V128H112.763V127.105H112.712C112.629 127.27 112.506 127.432 112.341 127.591C112.176 127.75 111.964 127.882 111.706 127.987C111.447 128.092 111.138 128.145 110.777 128.145ZM111.054 127.122C111.406 127.122 111.707 127.053 111.957 126.913C112.21 126.774 112.402 126.592 112.533 126.368C112.666 126.141 112.733 125.898 112.733 125.639V124.795C112.688 124.841 112.599 124.884 112.469 124.923C112.341 124.96 112.195 124.993 112.03 125.021C111.865 125.047 111.705 125.071 111.548 125.094C111.392 125.114 111.261 125.131 111.156 125.145C110.909 125.176 110.683 125.229 110.479 125.303C110.277 125.376 110.115 125.483 109.993 125.622C109.874 125.759 109.814 125.94 109.814 126.168C109.814 126.483 109.93 126.722 110.163 126.884C110.396 127.043 110.693 127.122 111.054 127.122ZM116.978 124.114V128H115.704V121.455H116.927V122.52H117.008C117.159 122.173 117.395 121.895 117.716 121.685C118.039 121.474 118.447 121.369 118.939 121.369C119.385 121.369 119.775 121.463 120.11 121.651C120.446 121.835 120.706 122.111 120.89 122.477C121.075 122.844 121.167 123.297 121.167 123.837V128H119.893V123.99C119.893 123.516 119.77 123.145 119.522 122.878C119.275 122.608 118.936 122.473 118.504 122.473C118.208 122.473 117.946 122.537 117.716 122.665C117.488 122.793 117.308 122.98 117.174 123.227C117.044 123.472 116.978 123.767 116.978 124.114ZM125.326 128.128C124.798 128.128 124.326 127.993 123.912 127.723C123.5 127.45 123.176 127.062 122.94 126.56C122.707 126.054 122.591 125.447 122.591 124.74C122.591 124.033 122.708 123.428 122.944 122.925C123.183 122.422 123.51 122.037 123.924 121.77C124.339 121.503 124.809 121.369 125.335 121.369C125.741 121.369 126.068 121.438 126.315 121.574C126.565 121.707 126.758 121.864 126.895 122.043C127.034 122.222 127.142 122.379 127.218 122.516H127.295V119.273H128.569V128H127.325V126.982H127.218C127.142 127.121 127.031 127.28 126.886 127.459C126.744 127.638 126.548 127.794 126.298 127.928C126.048 128.061 125.724 128.128 125.326 128.128ZM125.608 127.041C125.974 127.041 126.284 126.945 126.537 126.751C126.792 126.555 126.985 126.284 127.116 125.938C127.25 125.591 127.316 125.187 127.316 124.727C127.316 124.273 127.251 123.875 127.12 123.534C126.99 123.193 126.798 122.928 126.545 122.737C126.292 122.547 125.98 122.452 125.608 122.452C125.224 122.452 124.904 122.551 124.649 122.75C124.393 122.949 124.2 123.22 124.069 123.564C123.941 123.908 123.877 124.295 123.877 124.727C123.877 125.165 123.943 125.558 124.074 125.908C124.204 126.257 124.397 126.534 124.653 126.739C124.912 126.94 125.23 127.041 125.608 127.041ZM133.712 118.864L130.899 129.312H129.761L132.574 118.864H133.712ZM137.551 128.132C136.938 128.132 136.402 127.991 135.945 127.71C135.487 127.429 135.132 127.036 134.879 126.53C134.626 126.024 134.5 125.433 134.5 124.757C134.5 124.078 134.626 123.484 134.879 122.976C135.132 122.467 135.487 122.072 135.945 121.791C136.402 121.51 136.938 121.369 137.551 121.369C138.165 121.369 138.7 121.51 139.158 121.791C139.615 122.072 139.97 122.467 140.223 122.976C140.476 123.484 140.602 124.078 140.602 124.757C140.602 125.433 140.476 126.024 140.223 126.53C139.97 127.036 139.615 127.429 139.158 127.71C138.7 127.991 138.165 128.132 137.551 128.132ZM137.555 127.062C137.953 127.062 138.283 126.957 138.544 126.747C138.805 126.537 138.999 126.257 139.124 125.908C139.251 125.558 139.315 125.173 139.315 124.753C139.315 124.335 139.251 123.952 139.124 123.602C138.999 123.25 138.805 122.967 138.544 122.754C138.283 122.541 137.953 122.435 137.555 122.435C137.155 122.435 136.822 122.541 136.558 122.754C136.297 122.967 136.102 123.25 135.974 123.602C135.849 123.952 135.787 124.335 135.787 124.753C135.787 125.173 135.849 125.558 135.974 125.908C136.102 126.257 136.297 126.537 136.558 126.747C136.822 126.957 137.155 127.062 137.555 127.062ZM142.025 128V121.455H143.256V122.494H143.324C143.444 122.142 143.654 121.865 143.955 121.663C144.259 121.459 144.603 121.357 144.986 121.357C145.066 121.357 145.159 121.359 145.267 121.365C145.378 121.371 145.465 121.378 145.527 121.386V122.605C145.476 122.591 145.385 122.575 145.255 122.558C145.124 122.538 144.993 122.528 144.863 122.528C144.561 122.528 144.293 122.592 144.057 122.72C143.824 122.845 143.64 123.02 143.503 123.244C143.367 123.466 143.299 123.719 143.299 124.003V128H142.025Z" fill="white"/>
<path d="M172.016 112H246.016C250.434 112 254.016 115.582 254.016 120V128C254.016 132.418 250.434 136 246.016 136H172.016V112Z" fill="#EF423E"/>
<path d="M200.757 119.153C201.146 119.156 201.53 119.227 201.908 119.366C202.286 119.506 202.626 119.733 202.93 120.048C203.237 120.364 203.482 120.79 203.663 121.327C203.848 121.861 203.942 122.526 203.945 123.321C203.945 124.085 203.868 124.766 203.714 125.362C203.561 125.956 203.341 126.457 203.054 126.866C202.77 127.276 202.425 127.587 202.018 127.8C201.612 128.013 201.155 128.119 200.646 128.119C200.126 128.119 199.665 128.017 199.261 127.812C198.858 127.608 198.53 127.325 198.277 126.964C198.024 126.601 197.866 126.183 197.804 125.712H199.104C199.189 126.087 199.362 126.391 199.624 126.624C199.888 126.854 200.229 126.969 200.646 126.969C201.286 126.969 201.784 126.69 202.142 126.134C202.5 125.574 202.68 124.793 202.683 123.79H202.615C202.467 124.034 202.283 124.244 202.061 124.42C201.842 124.597 201.597 124.733 201.324 124.83C201.051 124.926 200.76 124.974 200.45 124.974C199.947 124.974 199.49 124.851 199.078 124.604C198.666 124.357 198.338 124.017 198.094 123.585C197.849 123.153 197.727 122.661 197.727 122.107C197.727 121.555 197.852 121.055 198.102 120.607C198.355 120.158 198.707 119.803 199.159 119.541C199.614 119.277 200.146 119.148 200.757 119.153ZM200.761 120.261C200.429 120.261 200.129 120.344 199.862 120.509C199.598 120.67 199.389 120.891 199.236 121.169C199.082 121.445 199.006 121.751 199.006 122.089C199.006 122.428 199.08 122.734 199.227 123.01C199.378 123.283 199.582 123.5 199.841 123.662C200.102 123.821 200.401 123.901 200.736 123.901C200.986 123.901 201.219 123.852 201.435 123.756C201.651 123.659 201.839 123.526 202.001 123.355C202.163 123.182 202.29 122.986 202.381 122.767C202.472 122.548 202.517 122.318 202.517 122.077C202.517 121.756 202.44 121.457 202.287 121.182C202.136 120.906 201.929 120.685 201.665 120.517C201.401 120.347 201.099 120.261 200.761 120.261ZM208.522 128.145C207.849 128.142 207.274 127.964 206.797 127.612C206.319 127.26 205.954 126.747 205.701 126.074C205.449 125.401 205.322 124.589 205.322 123.641C205.322 122.695 205.449 121.886 205.701 121.216C205.957 120.545 206.324 120.034 206.801 119.682C207.281 119.33 207.855 119.153 208.522 119.153C209.19 119.153 209.762 119.331 210.24 119.686C210.717 120.038 211.082 120.55 211.335 121.22C211.591 121.888 211.718 122.695 211.718 123.641C211.718 124.592 211.592 125.405 211.339 126.078C211.086 126.749 210.721 127.261 210.244 127.616C209.767 127.969 209.193 128.145 208.522 128.145ZM208.522 127.007C209.113 127.007 209.575 126.719 209.907 126.142C210.243 125.565 210.41 124.732 210.41 123.641C210.41 122.916 210.333 122.304 210.18 121.804C210.029 121.301 209.812 120.92 209.528 120.662C209.247 120.401 208.912 120.27 208.522 120.27C207.934 120.27 207.473 120.56 207.137 121.139C206.802 121.719 206.633 122.553 206.63 123.641C206.63 124.368 206.706 124.983 206.856 125.486C207.01 125.986 207.227 126.365 207.508 126.624C207.789 126.879 208.127 127.007 208.522 127.007ZM213.656 122.882V121.766H219.115V122.882H213.656ZM213.656 125.507V124.391H219.115V125.507H213.656ZM221.55 124.224V123.27L227.21 120.526V121.825L223.033 123.73L223.072 123.653V123.837L223.033 123.764L227.21 125.665V126.969L221.55 124.224Z" fill="white"/>
<path d="M0.015625 148C0.015625 143.582 3.59735 140 8.01562 140H82.0156V164H8.01563C3.59735 164 0.015625 160.418 0.015625 156V148Z" fill="#AC2D27"/>
<path d="M30.6662 147.273V156H29.3452V148.594H29.294L27.206 149.957V148.696L29.3835 147.273H30.6662ZM35.9759 156.119C35.3651 156.119 34.8253 156.014 34.3565 155.804C33.8906 155.594 33.5256 155.304 33.2614 154.935C32.9972 154.565 32.8665 154.145 32.8693 153.673C32.8665 153.304 32.9418 152.964 33.0952 152.655C33.2514 152.342 33.4631 152.082 33.7301 151.875C33.9972 151.665 34.2955 151.531 34.625 151.474V151.423C34.1903 151.318 33.8423 151.085 33.581 150.724C33.3196 150.364 33.1903 149.949 33.1932 149.48C33.1903 149.034 33.3082 148.636 33.5469 148.287C33.7884 147.935 34.1193 147.658 34.5398 147.456C34.9602 147.254 35.4389 147.153 35.9759 147.153C36.5071 147.153 36.9815 147.256 37.3991 147.46C37.8196 147.662 38.1506 147.939 38.392 148.291C38.6335 148.641 38.7557 149.037 38.7585 149.48C38.7557 149.949 38.6222 150.364 38.358 150.724C38.0938 151.085 37.75 151.318 37.3267 151.423V151.474C37.6534 151.531 37.9474 151.665 38.2088 151.875C38.473 152.082 38.6832 152.342 38.8395 152.655C38.9986 152.964 39.0795 153.304 39.0824 153.673C39.0795 154.145 38.946 154.565 38.6818 154.935C38.4176 155.304 38.0511 155.594 37.5824 155.804C37.1165 156.014 36.581 156.119 35.9759 156.119ZM35.9759 155.041C36.3366 155.041 36.6491 154.982 36.9134 154.862C37.1776 154.74 37.3821 154.571 37.527 154.355C37.6719 154.136 37.7457 153.881 37.7486 153.588C37.7457 153.284 37.6662 153.016 37.5099 152.783C37.3565 152.55 37.1477 152.366 36.8835 152.233C36.6193 152.099 36.3168 152.033 35.9759 152.033C35.6321 152.033 35.3267 152.099 35.0597 152.233C34.7926 152.366 34.5824 152.55 34.429 152.783C34.2756 153.016 34.2003 153.284 34.2031 153.588C34.2003 153.881 34.2699 154.136 34.4119 154.355C34.5568 154.571 34.7628 154.74 35.0298 154.862C35.2969 154.982 35.6122 155.041 35.9759 155.041ZM35.9759 150.98C36.2656 150.98 36.5227 150.922 36.7472 150.805C36.9716 150.689 37.1477 150.527 37.2756 150.32C37.4063 150.112 37.473 149.869 37.4759 149.591C37.473 149.318 37.4077 149.08 37.2798 148.875C37.1548 148.67 36.9801 148.513 36.7557 148.402C36.5313 148.288 36.2713 148.232 35.9759 148.232C35.6747 148.232 35.4105 148.288 35.1832 148.402C34.9588 148.513 34.7841 148.67 34.6591 148.875C34.5341 149.08 34.473 149.318 34.4759 149.591C34.473 149.869 34.5355 150.112 34.6634 150.32C34.7912 150.527 34.9673 150.689 35.1918 150.805C35.419 150.922 35.6804 150.98 35.9759 150.98ZM43.6474 156.145C42.9741 156.142 42.3988 155.964 41.9215 155.612C41.4442 155.26 41.0792 154.747 40.8263 154.074C40.5735 153.401 40.4471 152.589 40.4471 151.641C40.4471 150.695 40.5735 149.886 40.8263 149.216C41.082 148.545 41.4485 148.034 41.9258 147.682C42.4059 147.33 42.9798 147.153 43.6474 147.153C44.315 147.153 44.8874 147.331 45.3647 147.686C45.842 148.038 46.207 148.55 46.4599 149.22C46.7156 149.888 46.8434 150.695 46.8434 151.641C46.8434 152.592 46.717 153.405 46.4641 154.078C46.2113 154.749 45.8462 155.261 45.369 155.616C44.8917 155.969 44.3178 156.145 43.6474 156.145ZM43.6474 155.007C44.2383 155.007 44.6999 154.719 45.0323 154.142C45.3675 153.565 45.5352 152.732 45.5352 151.641C45.5352 150.916 45.4585 150.304 45.305 149.804C45.1545 149.301 44.9371 148.92 44.6531 148.662C44.3718 148.401 44.0366 148.27 43.6474 148.27C43.0593 148.27 42.5977 148.56 42.2624 149.139C41.9272 149.719 41.7582 150.553 41.7553 151.641C41.7553 152.368 41.8306 152.983 41.9812 153.486C42.1346 153.986 42.3519 154.365 42.6332 154.624C42.9144 154.879 43.2525 155.007 43.6474 155.007ZM48.6832 152.224V151.27L54.3423 148.526V149.825L50.1662 151.73L50.2045 151.653V151.837L50.1662 151.764L54.3423 153.665V154.969L48.6832 152.224Z" fill="white"/>
<rect width="82" height="24" transform="translate(86.0156 140)" fill="#AC2D27"/>
<path d="M110.777 156.145C110.362 156.145 109.987 156.068 109.652 155.915C109.317 155.759 109.051 155.533 108.855 155.237C108.662 154.942 108.565 154.58 108.565 154.151C108.565 153.781 108.636 153.477 108.778 153.239C108.92 153 109.112 152.811 109.354 152.672C109.595 152.533 109.865 152.428 110.163 152.357C110.462 152.286 110.766 152.232 111.075 152.195C111.467 152.149 111.786 152.112 112.03 152.084C112.274 152.053 112.452 152.003 112.562 151.935C112.673 151.866 112.729 151.756 112.729 151.602V151.572C112.729 151.2 112.624 150.912 112.413 150.707C112.206 150.503 111.896 150.401 111.484 150.401C111.055 150.401 110.717 150.496 110.47 150.686C110.226 150.874 110.057 151.082 109.963 151.312L108.766 151.04C108.908 150.642 109.115 150.321 109.388 150.077C109.663 149.83 109.98 149.651 110.338 149.54C110.696 149.426 111.072 149.369 111.467 149.369C111.729 149.369 112.006 149.401 112.298 149.463C112.594 149.523 112.869 149.634 113.125 149.795C113.384 149.957 113.595 150.189 113.76 150.49C113.925 150.788 114.007 151.176 114.007 151.653V156H112.763V155.105H112.712C112.629 155.27 112.506 155.432 112.341 155.591C112.176 155.75 111.964 155.882 111.706 155.987C111.447 156.092 111.138 156.145 110.777 156.145ZM111.054 155.122C111.406 155.122 111.707 155.053 111.957 154.913C112.21 154.774 112.402 154.592 112.533 154.368C112.666 154.141 112.733 153.898 112.733 153.639V152.795C112.688 152.841 112.599 152.884 112.469 152.923C112.341 152.96 112.195 152.993 112.03 153.021C111.865 153.047 111.705 153.071 111.548 153.094C111.392 153.114 111.261 153.131 111.156 153.145C110.909 153.176 110.683 153.229 110.479 153.303C110.277 153.376 110.115 153.483 109.993 153.622C109.874 153.759 109.814 153.94 109.814 154.168C109.814 154.483 109.93 154.722 110.163 154.884C110.396 155.043 110.693 155.122 111.054 155.122ZM116.978 152.114V156H115.704V149.455H116.927V150.52H117.008C117.159 150.173 117.395 149.895 117.716 149.685C118.039 149.474 118.447 149.369 118.939 149.369C119.385 149.369 119.775 149.463 120.11 149.651C120.446 149.835 120.706 150.111 120.89 150.477C121.075 150.844 121.167 151.297 121.167 151.837V156H119.893V151.99C119.893 151.516 119.77 151.145 119.522 150.878C119.275 150.608 118.936 150.473 118.504 150.473C118.208 150.473 117.946 150.537 117.716 150.665C117.488 150.793 117.308 150.98 117.174 151.227C117.044 151.472 116.978 151.767 116.978 152.114ZM125.326 156.128C124.798 156.128 124.326 155.993 123.912 155.723C123.5 155.45 123.176 155.062 122.94 154.56C122.707 154.054 122.591 153.447 122.591 152.74C122.591 152.033 122.708 151.428 122.944 150.925C123.183 150.422 123.51 150.037 123.924 149.77C124.339 149.503 124.809 149.369 125.335 149.369C125.741 149.369 126.068 149.438 126.315 149.574C126.565 149.707 126.758 149.864 126.895 150.043C127.034 150.222 127.142 150.379 127.218 150.516H127.295V147.273H128.569V156H127.325V154.982H127.218C127.142 155.121 127.031 155.28 126.886 155.459C126.744 155.638 126.548 155.794 126.298 155.928C126.048 156.061 125.724 156.128 125.326 156.128ZM125.608 155.041C125.974 155.041 126.284 154.945 126.537 154.751C126.792 154.555 126.985 154.284 127.116 153.938C127.25 153.591 127.316 153.187 127.316 152.727C127.316 152.273 127.251 151.875 127.12 151.534C126.99 151.193 126.798 150.928 126.545 150.737C126.292 150.547 125.98 150.452 125.608 150.452C125.224 150.452 124.904 150.551 124.649 150.75C124.393 150.949 124.2 151.22 124.069 151.564C123.941 151.908 123.877 152.295 123.877 152.727C123.877 153.165 123.943 153.558 124.074 153.908C124.204 154.257 124.397 154.534 124.653 154.739C124.912 154.94 125.23 155.041 125.608 155.041ZM133.712 146.864L130.899 157.312H129.761L132.574 146.864H133.712ZM137.551 156.132C136.938 156.132 136.402 155.991 135.945 155.71C135.487 155.429 135.132 155.036 134.879 154.53C134.626 154.024 134.5 153.433 134.5 152.757C134.5 152.078 134.626 151.484 134.879 150.976C135.132 150.467 135.487 150.072 135.945 149.791C136.402 149.51 136.938 149.369 137.551 149.369C138.165 149.369 138.7 149.51 139.158 149.791C139.615 150.072 139.97 150.467 140.223 150.976C140.476 151.484 140.602 152.078 140.602 152.757C140.602 153.433 140.476 154.024 140.223 154.53C139.97 155.036 139.615 155.429 139.158 155.71C138.7 155.991 138.165 156.132 137.551 156.132ZM137.555 155.062C137.953 155.062 138.283 154.957 138.544 154.747C138.805 154.537 138.999 154.257 139.124 153.908C139.251 153.558 139.315 153.173 139.315 152.753C139.315 152.335 139.251 151.952 139.124 151.602C138.999 151.25 138.805 150.967 138.544 150.754C138.283 150.541 137.953 150.435 137.555 150.435C137.155 150.435 136.822 150.541 136.558 150.754C136.297 150.967 136.102 151.25 135.974 151.602C135.849 151.952 135.787 152.335 135.787 152.753C135.787 153.173 135.849 153.558 135.974 153.908C136.102 154.257 136.297 154.537 136.558 154.747C136.822 154.957 137.155 155.062 137.555 155.062ZM142.025 156V149.455H143.256V150.494H143.324C143.444 150.142 143.654 149.865 143.955 149.663C144.259 149.459 144.603 149.357 144.986 149.357C145.066 149.357 145.159 149.359 145.267 149.365C145.378 149.371 145.465 149.378 145.527 149.386V150.605C145.476 150.591 145.385 150.575 145.255 150.558C145.124 150.538 144.993 150.528 144.863 150.528C144.561 150.528 144.293 150.592 144.057 150.72C143.824 150.845 143.64 151.02 143.503 151.244C143.367 151.466 143.299 151.719 143.299 152.003V156H142.025Z" fill="white"/>
<path d="M172.016 140H246.016C250.434 140 254.016 143.582 254.016 148V156C254.016 160.418 250.434 164 246.016 164H172.016V140Z" fill="#AC2D27"/>
<path d="M202.666 147.273V156H201.345V148.594H201.294L199.206 149.957V148.696L201.384 147.273H202.666ZM205.027 156V155.045L207.98 151.986C208.295 151.653 208.555 151.362 208.76 151.112C208.967 150.859 209.122 150.619 209.224 150.392C209.327 150.165 209.378 149.923 209.378 149.668C209.378 149.378 209.31 149.128 209.173 148.918C209.037 148.705 208.851 148.541 208.615 148.428C208.379 148.311 208.114 148.253 207.818 148.253C207.506 148.253 207.233 148.317 207 148.445C206.767 148.572 206.588 148.753 206.463 148.986C206.338 149.219 206.276 149.491 206.276 149.804H205.018C205.018 149.273 205.141 148.808 205.385 148.411C205.629 148.013 205.964 147.705 206.391 147.486C206.817 147.264 207.301 147.153 207.844 147.153C208.392 147.153 208.875 147.263 209.293 147.482C209.713 147.697 210.041 147.993 210.277 148.368C210.513 148.74 210.631 149.161 210.631 149.629C210.631 149.953 210.57 150.27 210.447 150.58C210.328 150.889 210.119 151.234 209.821 151.615C209.523 151.993 209.108 152.452 208.577 152.991L206.842 154.807V154.871H210.771V156H205.027ZM215.425 156.145C214.751 156.142 214.176 155.964 213.699 155.612C213.222 155.26 212.857 154.747 212.604 154.074C212.351 153.401 212.224 152.589 212.224 151.641C212.224 150.695 212.351 149.886 212.604 149.216C212.859 148.545 213.226 148.034 213.703 147.682C214.183 147.33 214.757 147.153 215.425 147.153C216.092 147.153 216.665 147.331 217.142 147.686C217.619 148.038 217.984 148.55 218.237 149.22C218.493 149.888 218.621 150.695 218.621 151.641C218.621 152.592 218.494 153.405 218.241 154.078C217.989 154.749 217.624 155.261 217.146 155.616C216.669 155.969 216.095 156.145 215.425 156.145ZM215.425 155.007C216.016 155.007 216.477 154.719 216.81 154.142C217.145 153.565 217.312 152.732 217.312 151.641C217.312 150.916 217.236 150.304 217.082 149.804C216.932 149.301 216.714 148.92 216.43 148.662C216.149 148.401 215.814 148.27 215.425 148.27C214.837 148.27 214.375 148.56 214.04 149.139C213.705 149.719 213.536 150.553 213.533 151.641C213.533 152.368 213.608 152.983 213.759 153.486C213.912 153.986 214.129 154.365 214.411 154.624C214.692 154.879 215.03 155.007 215.425 155.007ZM220.461 152.224V151.27L226.12 148.526V149.825L221.944 151.73L221.982 151.653V151.837L221.944 151.764L226.12 153.665V154.969L220.461 152.224Z" fill="white"/>
</svg>
