<svg width="257" height="199" viewBox="0 0 257 199" fill="none" xmlns="http://www.w3.org/2000/svg">
<path d="M7.46363 6.536C7.39963 6.648 7.33029 6.73067 7.25563 6.784C7.18629 6.832 7.09829 6.856 6.99163 6.856C6.87963 6.856 6.75696 6.816 6.62363 6.736C6.49563 6.65067 6.34096 6.55733 6.15963 6.456C5.97829 6.35467 5.76496 6.264 5.51963 6.184C5.27963 6.09867 4.99429 6.056 4.66363 6.056C4.36496 6.056 4.10363 6.09333 3.87963 6.168C3.65563 6.23733 3.46629 6.336 3.31163 6.464C3.16229 6.592 3.05029 6.74667 2.97563 6.928C2.90096 7.104 2.86363 7.29867 2.86363 7.512C2.86363 7.784 2.93829 8.01067 3.08763 8.192C3.24229 8.37333 3.44496 8.528 3.69563 8.656C3.94629 8.784 4.23163 8.89867 4.55163 9C4.87163 9.10133 5.19963 9.21067 5.53563 9.328C5.87163 9.44 6.19963 9.57333 6.51963 9.728C6.83963 9.87733 7.12496 10.0693 7.37563 10.304C7.62629 10.5333 7.82629 10.816 7.97563 11.152C8.13029 11.488 8.20763 11.896 8.20763 12.376C8.20763 12.8987 8.11696 13.3893 7.93563 13.848C7.75963 14.3013 7.49829 14.6987 7.15163 15.04C6.81029 15.376 6.39163 15.6427 5.89563 15.84C5.39963 16.032 4.83163 16.128 4.19163 16.128C3.82363 16.128 3.46096 16.0907 3.10363 16.016C2.74629 15.9467 2.40229 15.8453 2.07162 15.712C1.74629 15.5787 1.43963 15.4187 1.15163 15.232C0.863625 15.0453 0.607625 14.8373 0.383625 14.608L1.01562 13.576C1.06896 13.5013 1.13829 13.44 1.22363 13.392C1.30896 13.3387 1.39963 13.312 1.49563 13.312C1.62896 13.312 1.77296 13.368 1.92763 13.48C2.08229 13.5867 2.26629 13.7067 2.47963 13.84C2.69296 13.9733 2.94096 14.096 3.22363 14.208C3.51163 14.3147 3.85563 14.368 4.25563 14.368C4.86896 14.368 5.34363 14.224 5.67963 13.936C6.01563 13.6427 6.18363 13.224 6.18363 12.68C6.18363 12.376 6.10629 12.128 5.95163 11.936C5.80229 11.744 5.60229 11.584 5.35163 11.456C5.10096 11.3227 4.81563 11.2107 4.49563 11.12C4.17563 11.0293 3.85029 10.9307 3.51963 10.824C3.18896 10.7173 2.86363 10.5893 2.54363 10.44C2.22363 10.2907 1.93829 10.096 1.68763 9.856C1.43696 9.616 1.23429 9.31733 1.07963 8.96C0.930292 8.59733 0.855625 8.152 0.855625 7.624C0.855625 7.20267 0.938292 6.792 1.10363 6.392C1.27429 5.992 1.51963 5.63733 1.83963 5.328C2.15963 5.01867 2.55429 4.77067 3.02363 4.584C3.49296 4.39733 4.03163 4.304 4.63963 4.304C5.32229 4.304 5.95163 4.41067 6.52763 4.624C7.10363 4.83733 7.59429 5.136 7.99963 5.52L7.46363 6.536ZM14.7873 11.52V16H12.6432V11.52L8.42725 4.432H10.3233C10.5099 4.432 10.6566 4.47733 10.7633 4.568C10.8753 4.65867 10.9686 4.77333 11.0433 4.912L13.1553 8.776C13.2779 9.00533 13.3846 9.22133 13.4753 9.424C13.5713 9.62667 13.6566 9.82933 13.7313 10.032C13.8006 9.82933 13.8806 9.62667 13.9713 9.424C14.0619 9.22133 14.1659 9.00533 14.2833 8.776L16.3873 4.912C16.4459 4.79467 16.5339 4.68533 16.6513 4.584C16.7686 4.48267 16.9179 4.432 17.0993 4.432H19.0033L14.7873 11.52ZM25.9324 6.536C25.8684 6.648 25.799 6.73067 25.7244 6.784C25.655 6.832 25.567 6.856 25.4604 6.856C25.3484 6.856 25.2257 6.816 25.0924 6.736C24.9644 6.65067 24.8097 6.55733 24.6284 6.456C24.447 6.35467 24.2337 6.264 23.9884 6.184C23.7484 6.09867 23.463 6.056 23.1324 6.056C22.8337 6.056 22.5724 6.09333 22.3484 6.168C22.1244 6.23733 21.935 6.336 21.7804 6.464C21.631 6.592 21.519 6.74667 21.4444 6.928C21.3697 7.104 21.3324 7.29867 21.3324 7.512C21.3324 7.784 21.407 8.01067 21.5564 8.192C21.711 8.37333 21.9137 8.528 22.1644 8.656C22.415 8.784 22.7004 8.89867 23.0204 9C23.3404 9.10133 23.6684 9.21067 24.0044 9.328C24.3404 9.44 24.6684 9.57333 24.9884 9.728C25.3084 9.87733 25.5937 10.0693 25.8444 10.304C26.095 10.5333 26.295 10.816 26.4444 11.152C26.599 11.488 26.6764 11.896 26.6764 12.376C26.6764 12.8987 26.5857 13.3893 26.4044 13.848C26.2284 14.3013 25.967 14.6987 25.6204 15.04C25.279 15.376 24.8604 15.6427 24.3644 15.84C23.8684 16.032 23.3004 16.128 22.6604 16.128C22.2924 16.128 21.9297 16.0907 21.5724 16.016C21.215 15.9467 20.871 15.8453 20.5404 15.712C20.215 15.5787 19.9084 15.4187 19.6204 15.232C19.3324 15.0453 19.0764 14.8373 18.8524 14.608L19.4844 13.576C19.5377 13.5013 19.607 13.44 19.6924 13.392C19.7777 13.3387 19.8684 13.312 19.9644 13.312C20.0977 13.312 20.2417 13.368 20.3964 13.48C20.551 13.5867 20.735 13.7067 20.9484 13.84C21.1617 13.9733 21.4097 14.096 21.6924 14.208C21.9804 14.3147 22.3244 14.368 22.7244 14.368C23.3377 14.368 23.8124 14.224 24.1484 13.936C24.4844 13.6427 24.6524 13.224 24.6524 12.68C24.6524 12.376 24.575 12.128 24.4204 11.936C24.271 11.744 24.071 11.584 23.8204 11.456C23.5697 11.3227 23.2844 11.2107 22.9644 11.12C22.6444 11.0293 22.319 10.9307 21.9884 10.824C21.6577 10.7173 21.3324 10.5893 21.0124 10.44C20.6924 10.2907 20.407 10.096 20.1564 9.856C19.9057 9.616 19.703 9.31733 19.5484 8.96C19.399 8.59733 19.3244 8.152 19.3244 7.624C19.3244 7.20267 19.407 6.792 19.5724 6.392C19.743 5.992 19.9884 5.63733 20.3084 5.328C20.6284 5.01867 21.023 4.77067 21.4924 4.584C21.9617 4.39733 22.5004 4.304 23.1084 4.304C23.791 4.304 24.4204 4.41067 24.9964 4.624C25.5724 4.83733 26.063 5.136 26.4684 5.52L25.9324 6.536ZM29.5616 10.984C29.5616 12.0827 29.695 13.1627 29.9616 14.224C30.2283 15.2853 30.6096 16.2827 31.1056 17.216C31.159 17.3227 31.1883 17.416 31.1936 17.496C31.2043 17.5813 31.199 17.6533 31.1776 17.712C31.1563 17.776 31.1216 17.8293 31.0736 17.872C31.031 17.92 30.983 17.96 30.9296 17.992L30.0496 18.528C29.655 17.92 29.319 17.3093 29.0416 16.696C28.7643 16.0827 28.5376 15.464 28.3616 14.84C28.1856 14.216 28.055 13.584 27.9696 12.944C27.8896 12.304 27.8496 11.6507 27.8496 10.984C27.8496 10.3173 27.8896 9.664 27.9696 9.024C28.055 8.37867 28.1856 7.744 28.3616 7.12C28.5376 6.496 28.7643 5.88 29.0416 5.272C29.319 4.65867 29.655 4.048 30.0496 3.44L30.9296 3.968C30.983 4 31.031 4.04 31.0736 4.088C31.1216 4.13067 31.1563 4.184 31.1776 4.248C31.199 4.30667 31.2043 4.37867 31.1936 4.464C31.1883 4.544 31.159 4.64 31.1056 4.752C30.6096 5.68 30.2283 6.67733 29.9616 7.744C29.695 8.80533 29.5616 9.88533 29.5616 10.984ZM32.5698 16V7.792H33.7778C34.0338 7.792 34.2018 7.912 34.2818 8.152L34.4098 8.76C34.5538 8.6 34.7031 8.45333 34.8578 8.32C35.0178 8.18667 35.1858 8.072 35.3618 7.976C35.5431 7.88 35.7351 7.80533 35.9378 7.752C36.1458 7.69333 36.3724 7.664 36.6178 7.664C37.1351 7.664 37.5591 7.80533 37.8898 8.088C38.2258 8.36533 38.4764 8.736 38.6418 9.2C38.7698 8.928 38.9298 8.696 39.1218 8.504C39.3138 8.30667 39.5244 8.14667 39.7538 8.024C39.9831 7.90133 40.2258 7.81067 40.4818 7.752C40.7431 7.69333 41.0044 7.664 41.2658 7.664C41.7191 7.664 42.1218 7.73333 42.4738 7.872C42.8258 8.01067 43.1218 8.21333 43.3618 8.48C43.6018 8.74667 43.7831 9.072 43.9058 9.456C44.0338 9.84 44.0978 10.28 44.0978 10.776V16H42.1218V10.776C42.1218 10.2533 42.0071 9.86133 41.7778 9.6C41.5484 9.33333 41.2124 9.2 40.7698 9.2C40.5671 9.2 40.3778 9.23467 40.2018 9.304C40.0311 9.37333 39.8791 9.47467 39.7458 9.608C39.6178 9.736 39.5164 9.89867 39.4418 10.096C39.3671 10.2933 39.3298 10.52 39.3298 10.776V16H37.3458V10.776C37.3458 10.2267 37.2338 9.82667 37.0098 9.576C36.7911 9.32533 36.4684 9.2 36.0418 9.2C35.7538 9.2 35.4844 9.272 35.2338 9.416C34.9884 9.55467 34.7591 9.74667 34.5458 9.992V16H32.5698ZM45.976 16V7.792H47.184C47.44 7.792 47.608 7.912 47.688 8.152L47.816 8.76C47.96 8.6 48.1093 8.45333 48.264 8.32C48.424 8.18667 48.592 8.072 48.768 7.976C48.9493 7.88 49.1413 7.80533 49.344 7.752C49.552 7.69333 49.7787 7.664 50.024 7.664C50.5413 7.664 50.9653 7.80533 51.296 8.088C51.632 8.36533 51.8827 8.736 52.048 9.2C52.176 8.928 52.336 8.696 52.528 8.504C52.72 8.30667 52.9307 8.14667 53.16 8.024C53.3893 7.90133 53.632 7.81067 53.888 7.752C54.1493 7.69333 54.4107 7.664 54.672 7.664C55.1253 7.664 55.528 7.73333 55.88 7.872C56.232 8.01067 56.528 8.21333 56.768 8.48C57.008 8.74667 57.1893 9.072 57.312 9.456C57.44 9.84 57.504 10.28 57.504 10.776V16H55.528V10.776C55.528 10.2533 55.4133 9.86133 55.184 9.6C54.9547 9.33333 54.6187 9.2 54.176 9.2C53.9733 9.2 53.784 9.23467 53.608 9.304C53.4373 9.37333 53.2853 9.47467 53.152 9.608C53.024 9.736 52.9227 9.89867 52.848 10.096C52.7733 10.2933 52.736 10.52 52.736 10.776V16H50.752V10.776C50.752 10.2267 50.64 9.82667 50.416 9.576C50.1973 9.32533 49.8747 9.2 49.448 9.2C49.16 9.2 48.8907 9.272 48.64 9.416C48.3947 9.55467 48.1653 9.74667 47.952 9.992V16H45.976ZM69.2744 4.432V16H67.1144V10.944H61.6824V16H59.5224V4.432H61.6824V9.408H67.1144V4.432H69.2744ZM74.2729 11.696C74.5182 11.696 74.7315 11.664 74.9129 11.6C75.0942 11.5307 75.2435 11.4373 75.3609 11.32C75.4835 11.2027 75.5742 11.0613 75.6329 10.896C75.6969 10.7307 75.7289 10.5493 75.7289 10.352C75.7289 9.94667 75.6062 9.62667 75.3609 9.392C75.1209 9.152 74.7582 9.032 74.2729 9.032C73.7875 9.032 73.4222 9.152 73.1769 9.392C72.9369 9.62667 72.8169 9.94667 72.8169 10.352C72.8169 10.544 72.8462 10.7227 72.9049 10.888C72.9689 11.0533 73.0595 11.1973 73.1769 11.32C73.2995 11.4373 73.4515 11.5307 73.6329 11.6C73.8195 11.664 74.0329 11.696 74.2729 11.696ZM76.5049 16.368C76.5049 16.208 76.4569 16.0773 76.3609 15.976C76.2649 15.8747 76.1342 15.7973 75.9689 15.744C75.8035 15.6853 75.6089 15.6427 75.3849 15.616C75.1662 15.5893 74.9315 15.5707 74.6809 15.56C74.4355 15.544 74.1795 15.5307 73.9129 15.52C73.6515 15.5093 73.3955 15.488 73.1449 15.456C72.9262 15.5787 72.7475 15.7227 72.6089 15.888C72.4755 16.0533 72.4089 16.2453 72.4089 16.464C72.4089 16.608 72.4435 16.7413 72.5129 16.864C72.5875 16.992 72.7022 17.1013 72.8569 17.192C73.0169 17.2827 73.2222 17.352 73.4729 17.4C73.7235 17.4533 74.0302 17.48 74.3929 17.48C74.7609 17.48 75.0782 17.4507 75.3449 17.392C75.6115 17.3387 75.8302 17.2613 76.0009 17.16C76.1769 17.064 76.3049 16.9467 76.3849 16.808C76.4649 16.6747 76.5049 16.528 76.5049 16.368ZM78.4729 8.072V8.808C78.4729 9.04267 78.3315 9.18667 78.0489 9.24L77.3129 9.376C77.4249 9.65867 77.4809 9.968 77.4809 10.304C77.4809 10.7093 77.3982 11.0773 77.2329 11.408C77.0729 11.7333 76.8489 12.0107 76.5609 12.24C76.2729 12.4693 75.9315 12.648 75.5369 12.776C75.1475 12.8987 74.7262 12.96 74.2729 12.96C74.1129 12.96 73.9582 12.952 73.8089 12.936C73.6595 12.92 73.5129 12.8987 73.3689 12.872C73.1129 13.0267 72.9849 13.2 72.9849 13.392C72.9849 13.5573 73.0595 13.68 73.2089 13.76C73.3635 13.8347 73.5662 13.888 73.8169 13.92C74.0675 13.952 74.3529 13.9733 74.6729 13.984C74.9929 13.9893 75.3209 14.0053 75.6569 14.032C75.9929 14.0587 76.3209 14.1067 76.6409 14.176C76.9609 14.24 77.2462 14.344 77.4969 14.488C77.7475 14.632 77.9475 14.8293 78.0969 15.08C78.2515 15.3253 78.3289 15.6427 78.3289 16.032C78.3289 16.3947 78.2382 16.7467 78.0569 17.088C77.8809 17.4293 77.6222 17.7333 77.2809 18C76.9449 18.2667 76.5289 18.48 76.0329 18.64C75.5422 18.8053 74.9822 18.888 74.3529 18.888C73.7342 18.888 73.1955 18.8267 72.7369 18.704C72.2782 18.5867 71.8969 18.4267 71.5929 18.224C71.2889 18.0267 71.0622 17.7973 70.9129 17.536C70.7635 17.2747 70.6889 17.0027 70.6889 16.72C70.6889 16.336 70.8035 16.016 71.0329 15.76C71.2675 15.4987 71.5875 15.2907 71.9929 15.136C71.7742 15.024 71.6009 14.8747 71.4729 14.688C71.3449 14.5013 71.2809 14.256 71.2809 13.952C71.2809 13.8293 71.3022 13.704 71.3449 13.576C71.3929 13.4427 71.4595 13.312 71.5449 13.184C71.6355 13.056 71.7475 12.936 71.8809 12.824C72.0142 12.7067 72.1715 12.6027 72.3529 12.512C71.9369 12.288 71.6089 11.9893 71.3689 11.616C71.1342 11.2427 71.0169 10.8053 71.0169 10.304C71.0169 9.89867 71.0969 9.53333 71.2569 9.208C71.4222 8.87733 71.6489 8.59733 71.9369 8.368C72.2302 8.13333 72.5742 7.95467 72.9689 7.832C73.3689 7.70933 73.8035 7.648 74.2729 7.648C74.6249 7.648 74.9555 7.68533 75.2649 7.76C75.5742 7.82933 75.8569 7.93333 76.1129 8.072H78.4729ZM80.838 10.984C80.838 9.88533 80.7047 8.80533 80.438 7.744C80.1767 6.67733 79.798 5.68 79.302 4.752C79.2433 4.64 79.2087 4.544 79.198 4.464C79.1927 4.37867 79.2007 4.30667 79.222 4.248C79.2433 4.184 79.2753 4.13067 79.318 4.088C79.366 4.04 79.4193 4 79.478 3.968L80.358 3.44C80.7527 4.048 81.0887 4.65867 81.366 5.272C81.6433 5.88 81.87 6.496 82.046 7.12C82.222 7.744 82.35 8.37867 82.43 9.024C82.51 9.664 82.55 10.3173 82.55 10.984C82.55 11.6507 82.51 12.304 82.43 12.944C82.35 13.584 82.222 14.216 82.046 14.84C81.87 15.464 81.6433 16.0827 81.366 16.696C81.0887 17.3093 80.7527 17.92 80.358 18.528L79.478 17.992C79.4193 17.96 79.366 17.92 79.318 17.872C79.2753 17.8293 79.2433 17.776 79.222 17.712C79.2007 17.6533 79.1927 17.5813 79.198 17.496C79.2087 17.416 79.2433 17.3227 79.302 17.216C79.798 16.2827 80.1767 15.2853 80.438 14.224C80.7047 13.1627 80.838 12.0827 80.838 10.984Z" fill="#F5F5F5"/>
<path d="M183.576 10.216C183.576 11.064 183.434 11.8427 183.152 12.552C182.869 13.2613 182.472 13.872 181.96 14.384C181.448 14.896 180.832 15.2933 180.112 15.576C179.392 15.8587 178.592 16 177.712 16H173.304V4.432H177.712C178.592 4.432 179.392 4.576 180.112 4.864C180.832 5.14667 181.448 5.544 181.96 6.056C182.472 6.56267 182.869 7.17067 183.152 7.88C183.434 8.58933 183.576 9.368 183.576 10.216ZM181.368 10.216C181.368 9.58133 181.282 9.01333 181.112 8.512C180.946 8.00533 180.704 7.57867 180.384 7.232C180.069 6.88 179.685 6.61067 179.232 6.424C178.784 6.23733 178.277 6.144 177.712 6.144H175.464V14.288H177.712C178.277 14.288 178.784 14.1947 179.232 14.008C179.685 13.8213 180.069 13.5547 180.384 13.208C180.704 12.856 180.946 12.4293 181.112 11.928C181.282 11.4213 181.368 10.8507 181.368 10.216ZM187.636 16H185.476V4.432H187.636V16ZM196.338 11.632L194.93 7.784C194.86 7.61333 194.788 7.41067 194.714 7.176C194.639 6.94133 194.564 6.688 194.49 6.416C194.42 6.688 194.348 6.944 194.274 7.184C194.199 7.41867 194.127 7.624 194.058 7.8L192.658 11.632H196.338ZM200.138 16H198.474C198.287 16 198.135 15.9547 198.018 15.864C197.9 15.768 197.812 15.6507 197.753 15.512L196.89 13.152H192.098L191.234 15.512C191.191 15.6347 191.108 15.7467 190.986 15.848C190.863 15.9493 190.711 16 190.53 16H188.849L193.402 4.432H195.594L200.138 16ZM202.343 10.984C202.343 12.0827 202.476 13.1627 202.743 14.224C203.01 15.2853 203.391 16.2827 203.887 17.216C203.94 17.3227 203.97 17.416 203.975 17.496C203.986 17.5813 203.98 17.6533 203.959 17.712C203.938 17.776 203.903 17.8293 203.855 17.872C203.812 17.92 203.764 17.96 203.711 17.992L202.831 18.528C202.436 17.92 202.1 17.3093 201.823 16.696C201.546 16.0827 201.319 15.464 201.143 14.84C200.967 14.216 200.836 13.584 200.751 12.944C200.671 12.304 200.631 11.6507 200.631 10.984C200.631 10.3173 200.671 9.664 200.751 9.024C200.836 8.37867 200.967 7.744 201.143 7.12C201.319 6.496 201.546 5.88 201.823 5.272C202.1 4.65867 202.436 4.048 202.831 3.44L203.711 3.968C203.764 4 203.812 4.04 203.855 4.088C203.903 4.13067 203.938 4.184 203.959 4.248C203.98 4.30667 203.986 4.37867 203.975 4.464C203.97 4.544 203.94 4.64 203.887 4.752C203.391 5.68 203.01 6.67733 202.743 7.744C202.476 8.80533 202.343 9.88533 202.343 10.984ZM205.351 16V7.792H206.559C206.815 7.792 206.983 7.912 207.063 8.152L207.191 8.76C207.335 8.6 207.484 8.45333 207.639 8.32C207.799 8.18667 207.967 8.072 208.143 7.976C208.324 7.88 208.516 7.80533 208.719 7.752C208.927 7.69333 209.154 7.664 209.399 7.664C209.916 7.664 210.34 7.80533 210.671 8.088C211.007 8.36533 211.258 8.736 211.423 9.2C211.551 8.928 211.711 8.696 211.903 8.504C212.095 8.30667 212.306 8.14667 212.535 8.024C212.764 7.90133 213.007 7.81067 213.263 7.752C213.524 7.69333 213.786 7.664 214.047 7.664C214.5 7.664 214.903 7.73333 215.255 7.872C215.607 8.01067 215.903 8.21333 216.143 8.48C216.383 8.74667 216.564 9.072 216.687 9.456C216.815 9.84 216.879 10.28 216.879 10.776V16H214.903V10.776C214.903 10.2533 214.788 9.86133 214.559 9.6C214.33 9.33333 213.994 9.2 213.551 9.2C213.348 9.2 213.159 9.23467 212.983 9.304C212.812 9.37333 212.66 9.47467 212.527 9.608C212.399 9.736 212.298 9.89867 212.223 10.096C212.148 10.2933 212.111 10.52 212.111 10.776V16H210.127V10.776C210.127 10.2267 210.015 9.82667 209.791 9.576C209.572 9.32533 209.25 9.2 208.823 9.2C208.535 9.2 208.266 9.272 208.015 9.416C207.77 9.55467 207.54 9.74667 207.327 9.992V16H205.351ZM218.757 16V7.792H219.965C220.221 7.792 220.389 7.912 220.469 8.152L220.597 8.76C220.741 8.6 220.891 8.45333 221.045 8.32C221.205 8.18667 221.373 8.072 221.549 7.976C221.731 7.88 221.923 7.80533 222.125 7.752C222.333 7.69333 222.56 7.664 222.805 7.664C223.323 7.664 223.747 7.80533 224.077 8.088C224.413 8.36533 224.664 8.736 224.829 9.2C224.957 8.928 225.117 8.696 225.309 8.504C225.501 8.30667 225.712 8.14667 225.941 8.024C226.171 7.90133 226.413 7.81067 226.669 7.752C226.931 7.69333 227.192 7.664 227.453 7.664C227.907 7.664 228.309 7.73333 228.661 7.872C229.013 8.01067 229.309 8.21333 229.549 8.48C229.789 8.74667 229.971 9.072 230.093 9.456C230.221 9.84 230.285 10.28 230.285 10.776V16H228.309V10.776C228.309 10.2533 228.195 9.86133 227.965 9.6C227.736 9.33333 227.4 9.2 226.957 9.2C226.755 9.2 226.565 9.23467 226.389 9.304C226.219 9.37333 226.067 9.47467 225.933 9.608C225.805 9.736 225.704 9.89867 225.629 10.096C225.555 10.2933 225.517 10.52 225.517 10.776V16H223.533V10.776C223.533 10.2267 223.421 9.82667 223.197 9.576C222.979 9.32533 222.656 9.2 222.229 9.2C221.941 9.2 221.672 9.272 221.421 9.416C221.176 9.55467 220.947 9.74667 220.733 9.992V16H218.757ZM242.056 4.432V16H239.896V10.944H234.464V16H232.304V4.432H234.464V9.408H239.896V4.432H242.056ZM247.054 11.696C247.299 11.696 247.513 11.664 247.694 11.6C247.875 11.5307 248.025 11.4373 248.142 11.32C248.265 11.2027 248.355 11.0613 248.414 10.896C248.478 10.7307 248.51 10.5493 248.51 10.352C248.51 9.94667 248.387 9.62667 248.142 9.392C247.902 9.152 247.539 9.032 247.054 9.032C246.569 9.032 246.203 9.152 245.958 9.392C245.718 9.62667 245.598 9.94667 245.598 10.352C245.598 10.544 245.627 10.7227 245.686 10.888C245.75 11.0533 245.841 11.1973 245.958 11.32C246.081 11.4373 246.233 11.5307 246.414 11.6C246.601 11.664 246.814 11.696 247.054 11.696ZM249.286 16.368C249.286 16.208 249.238 16.0773 249.142 15.976C249.046 15.8747 248.915 15.7973 248.75 15.744C248.585 15.6853 248.39 15.6427 248.166 15.616C247.947 15.5893 247.713 15.5707 247.462 15.56C247.217 15.544 246.961 15.5307 246.694 15.52C246.433 15.5093 246.177 15.488 245.926 15.456C245.707 15.5787 245.529 15.7227 245.39 15.888C245.257 16.0533 245.19 16.2453 245.19 16.464C245.19 16.608 245.225 16.7413 245.294 16.864C245.369 16.992 245.483 17.1013 245.638 17.192C245.798 17.2827 246.003 17.352 246.254 17.4C246.505 17.4533 246.811 17.48 247.174 17.48C247.542 17.48 247.859 17.4507 248.126 17.392C248.393 17.3387 248.611 17.2613 248.782 17.16C248.958 17.064 249.086 16.9467 249.166 16.808C249.246 16.6747 249.286 16.528 249.286 16.368ZM251.254 8.072V8.808C251.254 9.04267 251.113 9.18667 250.83 9.24L250.094 9.376C250.206 9.65867 250.262 9.968 250.262 10.304C250.262 10.7093 250.179 11.0773 250.014 11.408C249.854 11.7333 249.63 12.0107 249.342 12.24C249.054 12.4693 248.713 12.648 248.318 12.776C247.929 12.8987 247.507 12.96 247.054 12.96C246.894 12.96 246.739 12.952 246.59 12.936C246.441 12.92 246.294 12.8987 246.15 12.872C245.894 13.0267 245.766 13.2 245.766 13.392C245.766 13.5573 245.841 13.68 245.99 13.76C246.145 13.8347 246.347 13.888 246.598 13.92C246.849 13.952 247.134 13.9733 247.454 13.984C247.774 13.9893 248.102 14.0053 248.438 14.032C248.774 14.0587 249.102 14.1067 249.422 14.176C249.742 14.24 250.027 14.344 250.278 14.488C250.529 14.632 250.729 14.8293 250.878 15.08C251.033 15.3253 251.11 15.6427 251.11 16.032C251.11 16.3947 251.019 16.7467 250.838 17.088C250.662 17.4293 250.403 17.7333 250.062 18C249.726 18.2667 249.31 18.48 248.814 18.64C248.323 18.8053 247.763 18.888 247.134 18.888C246.515 18.888 245.977 18.8267 245.518 18.704C245.059 18.5867 244.678 18.4267 244.374 18.224C244.07 18.0267 243.843 17.7973 243.694 17.536C243.545 17.2747 243.47 17.0027 243.47 16.72C243.47 16.336 243.585 16.016 243.814 15.76C244.049 15.4987 244.369 15.2907 244.774 15.136C244.555 15.024 244.382 14.8747 244.254 14.688C244.126 14.5013 244.062 14.256 244.062 13.952C244.062 13.8293 244.083 13.704 244.126 13.576C244.174 13.4427 244.241 13.312 244.326 13.184C244.417 13.056 244.529 12.936 244.662 12.824C244.795 12.7067 244.953 12.6027 245.134 12.512C244.718 12.288 244.39 11.9893 244.15 11.616C243.915 11.2427 243.798 10.8053 243.798 10.304C243.798 9.89867 243.878 9.53333 244.038 9.208C244.203 8.87733 244.43 8.59733 244.718 8.368C245.011 8.13333 245.355 7.95467 245.75 7.832C246.15 7.70933 246.585 7.648 247.054 7.648C247.406 7.648 247.737 7.68533 248.046 7.76C248.355 7.82933 248.638 7.93333 248.894 8.072H251.254ZM253.619 10.984C253.619 9.88533 253.486 8.80533 253.219 7.744C252.958 6.67733 252.579 5.68 252.083 4.752C252.025 4.64 251.99 4.544 251.979 4.464C251.974 4.37867 251.982 4.30667 252.003 4.248C252.025 4.184 252.057 4.13067 252.099 4.088C252.147 4.04 252.201 4 252.259 3.968L253.139 3.44C253.534 4.048 253.87 4.65867 254.147 5.272C254.425 5.88 254.651 6.496 254.827 7.12C255.003 7.744 255.131 8.37867 255.211 9.024C255.291 9.664 255.331 10.3173 255.331 10.984C255.331 11.6507 255.291 12.304 255.211 12.944C255.131 13.584 255.003 14.216 254.827 14.84C254.651 15.464 254.425 16.0827 254.147 16.696C253.87 17.3093 253.534 17.92 253.139 18.528L252.259 17.992C252.201 17.96 252.147 17.92 252.099 17.872C252.057 17.8293 252.025 17.776 252.003 17.712C251.982 17.6533 251.974 17.5813 251.979 17.496C251.99 17.416 252.025 17.3227 252.083 17.216C252.579 16.2827 252.958 15.2853 253.219 14.224C253.486 13.1627 253.619 12.0827 253.619 10.984Z" fill="#F5F5F5"/>
<path d="M2.01562 43C2.01562 38.5817 5.59735 35 10.0156 35H84.0156V59H10.0156C5.59735 59 2.01562 55.4183 2.01562 51V43Z" fill="#7659F5"/>
<path d="M32.1832 47.2244V46.2699L37.8423 43.5256V44.8253L33.6662 46.7301L33.7045 46.6534V46.8366L33.6662 46.7642L37.8423 48.6648V49.9688L32.1832 47.2244ZM42.7962 51.1193C42.1854 51.1193 41.6456 51.0142 41.1768 50.804C40.7109 50.5937 40.3459 50.304 40.0817 49.9347C39.8175 49.5653 39.6868 49.1449 39.6896 48.6733C39.6868 48.304 39.7621 47.9645 39.9155 47.6548C40.0717 47.3423 40.2834 47.0824 40.5504 46.875C40.8175 46.6648 41.1158 46.5312 41.4453 46.4744V46.4233C41.0107 46.3182 40.6626 46.0852 40.4013 45.7244C40.1399 45.3636 40.0107 44.9489 40.0135 44.4801C40.0107 44.0341 40.1286 43.6364 40.3672 43.2869C40.6087 42.9347 40.9396 42.6577 41.3601 42.456C41.7805 42.2543 42.2592 42.1534 42.7962 42.1534C43.3274 42.1534 43.8018 42.2557 44.2195 42.4602C44.6399 42.6619 44.9709 42.9389 45.2124 43.2912C45.4538 43.6406 45.576 44.0369 45.5788 44.4801C45.576 44.9489 45.4425 45.3636 45.1783 45.7244C44.9141 46.0852 44.5703 46.3182 44.147 46.4233V46.4744C44.4737 46.5312 44.7678 46.6648 45.0291 46.875C45.2933 47.0824 45.5036 47.3423 45.6598 47.6548C45.8189 47.9645 45.8999 48.304 45.9027 48.6733C45.8999 49.1449 45.7663 49.5653 45.5021 49.9347C45.2379 50.304 44.8714 50.5937 44.4027 50.804C43.9368 51.0142 43.4013 51.1193 42.7962 51.1193ZM42.7962 50.0412C43.157 50.0412 43.4695 49.9815 43.7337 49.8622C43.9979 49.7401 44.2024 49.571 44.3473 49.3551C44.4922 49.1364 44.5661 48.8807 44.5689 48.5881C44.5661 48.2841 44.4865 48.0156 44.3303 47.7827C44.1768 47.5497 43.968 47.3665 43.7038 47.233C43.4396 47.0994 43.1371 47.0327 42.7962 47.0327C42.4524 47.0327 42.147 47.0994 41.88 47.233C41.6129 47.3665 41.4027 47.5497 41.2493 47.7827C41.0959 48.0156 41.0206 48.2841 41.0234 48.5881C41.0206 48.8807 41.0902 49.1364 41.2322 49.3551C41.3771 49.571 41.5831 49.7401 41.8501 49.8622C42.1172 49.9815 42.4325 50.0412 42.7962 50.0412ZM42.7962 45.9801C43.0859 45.9801 43.343 45.9219 43.5675 45.8054C43.7919 45.6889 43.968 45.527 44.0959 45.3196C44.2266 45.1122 44.2933 44.8693 44.2962 44.5909C44.2933 44.3182 44.228 44.0795 44.1001 43.875C43.9751 43.6705 43.8004 43.5128 43.576 43.402C43.3516 43.2884 43.0916 43.2315 42.7962 43.2315C42.495 43.2315 42.2308 43.2884 42.0036 43.402C41.7791 43.5128 41.6044 43.6705 41.4794 43.875C41.3544 44.0795 41.2933 44.3182 41.2962 44.5909C41.2933 44.8693 41.3558 45.1122 41.4837 45.3196C41.6115 45.527 41.7876 45.6889 42.0121 45.8054C42.2393 45.9219 42.5007 45.9801 42.7962 45.9801ZM50.4677 51.1449C49.7944 51.142 49.2191 50.9645 48.7418 50.6122C48.2646 50.2599 47.8995 49.7472 47.6467 49.0739C47.3938 48.4006 47.2674 47.5895 47.2674 46.6406C47.2674 45.6946 47.3938 44.8864 47.6467 44.2159C47.9023 43.5455 48.2688 43.0341 48.7461 42.6818C49.2262 42.3295 49.8001 42.1534 50.4677 42.1534C51.1353 42.1534 51.7077 42.331 52.185 42.6861C52.6623 43.0384 53.0273 43.5497 53.2802 44.2202C53.5359 44.8878 53.6637 45.6946 53.6637 46.6406C53.6637 47.5923 53.5373 48.4048 53.2844 49.0781C53.0316 49.7486 52.6665 50.2614 52.1893 50.6165C51.712 50.9688 51.1381 51.1449 50.4677 51.1449ZM50.4677 50.0071C51.0586 50.0071 51.5202 49.7188 51.8526 49.142C52.1879 48.5653 52.3555 47.7315 52.3555 46.6406C52.3555 45.9162 52.2788 45.304 52.1254 44.804C51.9748 44.3011 51.7575 43.9205 51.4734 43.6619C51.1921 43.4006 50.8569 43.2699 50.4677 43.2699C49.8796 43.2699 49.418 43.5597 49.0827 44.1392C48.7475 44.7187 48.5785 45.5526 48.5756 46.6406C48.5756 47.3679 48.6509 47.983 48.8015 48.4858C48.9549 48.9858 49.1722 49.3651 49.4535 49.6236C49.7347 49.8793 50.0728 50.0071 50.4677 50.0071Z" fill="white"/>
<rect width="82" height="24" transform="translate(88.0156 35)" fill="#7659F5"/>
<path d="M120.777 51.1449C120.362 51.1449 119.987 51.0682 119.652 50.9148C119.317 50.7585 119.051 50.5327 118.855 50.2372C118.662 49.9418 118.565 49.5795 118.565 49.1506C118.565 48.7812 118.636 48.4773 118.778 48.2386C118.92 48 119.112 47.8111 119.354 47.6719C119.595 47.5327 119.865 47.4276 120.163 47.3565C120.462 47.2855 120.766 47.2315 121.075 47.1946C121.467 47.1491 121.786 47.1122 122.03 47.0838C122.274 47.0526 122.452 47.0028 122.562 46.9347C122.673 46.8665 122.729 46.7557 122.729 46.6023V46.5724C122.729 46.2003 122.624 45.9119 122.413 45.7074C122.206 45.5028 121.896 45.4006 121.484 45.4006C121.055 45.4006 120.717 45.4957 120.47 45.6861C120.226 45.8736 120.057 46.0824 119.963 46.3125L118.766 46.0398C118.908 45.642 119.115 45.321 119.388 45.0767C119.663 44.8295 119.98 44.6506 120.338 44.5398C120.696 44.4261 121.072 44.3693 121.467 44.3693C121.729 44.3693 122.006 44.4006 122.298 44.4631C122.594 44.5227 122.869 44.6335 123.125 44.7955C123.384 44.9574 123.595 45.1889 123.76 45.4901C123.925 45.7884 124.007 46.1761 124.007 46.6534V51H122.763V50.1051H122.712C122.629 50.2699 122.506 50.4318 122.341 50.5909C122.176 50.75 121.964 50.8821 121.706 50.9872C121.447 51.0923 121.138 51.1449 120.777 51.1449ZM121.054 50.1222C121.406 50.1222 121.707 50.0526 121.957 49.9134C122.21 49.7741 122.402 49.5923 122.533 49.3679C122.666 49.1406 122.733 48.8977 122.733 48.6392V47.7955C122.688 47.8409 122.599 47.8835 122.469 47.9233C122.341 47.9602 122.195 47.9929 122.03 48.0213C121.865 48.0469 121.705 48.071 121.548 48.0938C121.392 48.1136 121.261 48.1307 121.156 48.1449C120.909 48.1761 120.683 48.2287 120.479 48.3026C120.277 48.3764 120.115 48.483 119.993 48.6222C119.874 48.7585 119.814 48.9403 119.814 49.1676C119.814 49.483 119.93 49.7216 120.163 49.8835C120.396 50.0426 120.693 50.1222 121.054 50.1222ZM126.978 47.1136V51H125.704V44.4545H126.927V45.5199H127.008C127.159 45.1733 127.395 44.8949 127.716 44.6847C128.039 44.4744 128.447 44.3693 128.939 44.3693C129.385 44.3693 129.775 44.4631 130.11 44.6506C130.446 44.8352 130.706 45.1108 130.89 45.4773C131.075 45.8437 131.167 46.2969 131.167 46.8366V51H129.893V46.9901C129.893 46.5156 129.77 46.1449 129.522 45.8778C129.275 45.608 128.936 45.473 128.504 45.473C128.208 45.473 127.946 45.5369 127.716 45.6648C127.488 45.7926 127.308 45.9801 127.174 46.2273C127.044 46.4716 126.978 46.767 126.978 47.1136ZM135.326 51.1278C134.798 51.1278 134.326 50.9929 133.912 50.723C133.5 50.4503 133.176 50.0625 132.94 49.5597C132.707 49.054 132.591 48.4474 132.591 47.7401C132.591 47.0327 132.708 46.4276 132.944 45.9247C133.183 45.4219 133.51 45.0369 133.924 44.7699C134.339 44.5028 134.809 44.3693 135.335 44.3693C135.741 44.3693 136.068 44.4375 136.315 44.5739C136.565 44.7074 136.758 44.8636 136.895 45.0426C137.034 45.2216 137.142 45.3793 137.218 45.5156H137.295V42.2727H138.569V51H137.325V49.9815H137.218C137.142 50.1207 137.031 50.2798 136.886 50.4588C136.744 50.6378 136.548 50.794 136.298 50.9276C136.048 51.0611 135.724 51.1278 135.326 51.1278ZM135.608 50.0412C135.974 50.0412 136.284 49.9446 136.537 49.7514C136.792 49.5554 136.985 49.2841 137.116 48.9375C137.25 48.5909 137.316 48.1875 137.316 47.7273C137.316 47.2727 137.251 46.875 137.12 46.5341C136.99 46.1932 136.798 45.9276 136.545 45.7372C136.292 45.5469 135.98 45.4517 135.608 45.4517C135.224 45.4517 134.904 45.5511 134.649 45.75C134.393 45.9489 134.2 46.2202 134.069 46.5639C133.941 46.9077 133.877 47.2955 133.877 47.7273C133.877 48.1648 133.943 48.5582 134.074 48.9077C134.204 49.2571 134.397 49.5341 134.653 49.7386C134.912 49.9403 135.23 50.0412 135.608 50.0412Z" fill="white"/>
<path d="M174.016 35H248.016C252.434 35 256.016 38.5817 256.016 43V51C256.016 55.4183 252.434 59 248.016 59H174.016V35Z" fill="#7659F5"/>
<path d="M204.183 47.2244V46.2699L209.842 43.5256V44.8253L205.666 46.7301L205.705 46.6534V46.8366L205.666 46.7642L209.842 48.6648V49.9688L204.183 47.2244ZM214.894 51.1193C214.505 51.1136 214.121 51.0426 213.744 50.9062C213.369 50.7699 213.028 50.5426 212.721 50.2244C212.414 49.9062 212.168 49.4787 211.984 48.9418C211.802 48.4048 211.711 47.7344 211.711 46.9304C211.711 46.169 211.786 45.4929 211.937 44.902C212.09 44.3111 212.31 43.8125 212.597 43.4062C212.884 42.9972 213.231 42.6861 213.637 42.473C214.043 42.2599 214.499 42.1534 215.005 42.1534C215.525 42.1534 215.987 42.2557 216.39 42.4602C216.793 42.6648 217.12 42.9474 217.37 43.3082C217.623 43.669 217.783 44.0795 217.852 44.5398H216.552C216.464 44.1761 216.289 43.8793 216.028 43.6491C215.766 43.419 215.425 43.304 215.005 43.304C214.366 43.304 213.867 43.5824 213.509 44.1392C213.154 44.696 212.975 45.4702 212.972 46.4616H213.036C213.187 46.2145 213.371 46.0043 213.59 45.831C213.812 45.6548 214.059 45.5199 214.332 45.4261C214.607 45.3295 214.897 45.2812 215.201 45.2812C215.707 45.2812 216.164 45.4048 216.573 45.652C216.985 45.8963 217.313 46.2344 217.558 46.6662C217.802 47.098 217.924 47.5923 217.924 48.1491C217.924 48.706 217.798 49.2102 217.545 49.6619C217.295 50.1136 216.942 50.4716 216.488 50.7358C216.033 50.9972 215.502 51.125 214.894 51.1193ZM214.89 50.0114C215.225 50.0114 215.525 49.929 215.789 49.7642C216.053 49.5994 216.262 49.3778 216.415 49.0994C216.569 48.821 216.646 48.5099 216.646 48.1662C216.646 47.831 216.57 47.5256 216.42 47.25C216.272 46.9744 216.067 46.7557 215.806 46.5938C215.548 46.4318 215.252 46.3509 214.92 46.3509C214.667 46.3509 214.433 46.3991 214.217 46.4957C214.004 46.5923 213.816 46.7259 213.654 46.8963C213.492 47.0668 213.364 47.2628 213.271 47.4844C213.18 47.7031 213.134 47.9347 213.134 48.179C213.134 48.5057 213.21 48.8082 213.36 49.0866C213.513 49.3651 213.722 49.5895 213.987 49.7599C214.254 49.9276 214.555 50.0114 214.89 50.0114ZM222.515 51.1449C221.841 51.142 221.266 50.9645 220.789 50.6122C220.311 50.2599 219.946 49.7472 219.694 49.0739C219.441 48.4006 219.314 47.5895 219.314 46.6406C219.314 45.6946 219.441 44.8864 219.694 44.2159C219.949 43.5455 220.316 43.0341 220.793 42.6818C221.273 42.3295 221.847 42.1534 222.515 42.1534C223.182 42.1534 223.755 42.331 224.232 42.6861C224.709 43.0384 225.074 43.5497 225.327 44.2202C225.583 44.8878 225.711 45.6946 225.711 46.6406C225.711 47.5923 225.584 48.4048 225.331 49.0781C225.078 49.7486 224.713 50.2614 224.236 50.6165C223.759 50.9688 223.185 51.1449 222.515 51.1449ZM222.515 50.0071C223.105 50.0071 223.567 49.7188 223.9 49.142C224.235 48.5653 224.402 47.7315 224.402 46.6406C224.402 45.9162 224.326 45.304 224.172 44.804C224.022 44.3011 223.804 43.9205 223.52 43.6619C223.239 43.4006 222.904 43.2699 222.515 43.2699C221.926 43.2699 221.465 43.5597 221.13 44.1392C220.794 44.7187 220.625 45.5526 220.623 46.6406C220.623 47.3679 220.698 47.983 220.848 48.4858C221.002 48.9858 221.219 49.3651 221.5 49.6236C221.782 49.8793 222.12 50.0071 222.515 50.0071Z" fill="white"/>
<path d="M2.01562 71C2.01562 66.5817 5.59735 63 10.0156 63H84.0156V87H10.0156C5.59735 87 2.01562 83.4183 2.01562 79V71Z" fill="#249B3D"/>
<path d="M29.6832 75.2244V74.2699L35.3423 71.5256V72.8253L31.1662 74.7301L31.2045 74.6534V74.8366L31.1662 74.7642L35.3423 76.6648V77.9688L29.6832 75.2244ZM40.6584 70.2727V79H39.3374V71.5938H39.2862L37.1982 72.9574V71.696L39.3757 70.2727H40.6584ZM43.0192 79V78.0455L45.9723 74.9858C46.2876 74.6534 46.5476 74.3622 46.7521 74.1122C46.9595 73.8594 47.1143 73.6193 47.2166 73.392C47.3189 73.1648 47.37 72.9233 47.37 72.6676C47.37 72.3778 47.3018 72.1278 47.1655 71.9176C47.0291 71.7045 46.843 71.5412 46.6072 71.4276C46.3714 71.3111 46.1058 71.2528 45.8104 71.2528C45.4979 71.2528 45.2251 71.3168 44.9922 71.4446C44.7592 71.5724 44.5803 71.7528 44.4553 71.9858C44.3303 72.2187 44.2678 72.4915 44.2678 72.804H43.0107C43.0107 72.2727 43.1328 71.8082 43.3771 71.4105C43.6214 71.0128 43.9567 70.7045 44.3828 70.4858C44.8089 70.2642 45.2933 70.1534 45.8359 70.1534C46.3842 70.1534 46.8672 70.2628 47.2848 70.4815C47.7053 70.6974 48.0334 70.9929 48.2692 71.3679C48.505 71.7401 48.6229 72.1605 48.6229 72.6293C48.6229 72.9531 48.5618 73.2699 48.4396 73.5795C48.3203 73.8892 48.1115 74.2344 47.8132 74.6151C47.5149 74.9929 47.1001 75.4517 46.5689 75.9915L44.8345 77.8068V77.8707H48.7635V79H43.0192ZM53.4169 79.1449C52.7436 79.142 52.1683 78.9645 51.6911 78.6122C51.2138 78.2599 50.8487 77.7472 50.5959 77.0739C50.343 76.4006 50.2166 75.5895 50.2166 74.6406C50.2166 73.6946 50.343 72.8864 50.5959 72.2159C50.8516 71.5455 51.218 71.0341 51.6953 70.6818C52.1754 70.3295 52.7493 70.1534 53.4169 70.1534C54.0845 70.1534 54.657 70.331 55.1342 70.6861C55.6115 71.0384 55.9766 71.5497 56.2294 72.2202C56.4851 72.8878 56.6129 73.6946 56.6129 74.6406C56.6129 75.5923 56.4865 76.4048 56.2337 77.0781C55.9808 77.7486 55.6158 78.2614 55.1385 78.6165C54.6612 78.9688 54.0874 79.1449 53.4169 79.1449ZM53.4169 78.0071C54.0078 78.0071 54.4695 77.7188 54.8018 77.142C55.1371 76.5653 55.3047 75.7315 55.3047 74.6406C55.3047 73.9162 55.228 73.304 55.0746 72.804C54.924 72.3011 54.7067 71.9205 54.4226 71.6619C54.1413 71.4006 53.8061 71.2699 53.4169 71.2699C52.8288 71.2699 52.3672 71.5597 52.032 72.1392C51.6967 72.7187 51.5277 73.5526 51.5249 74.6406C51.5249 75.3679 51.6001 75.983 51.7507 76.4858C51.9041 76.9858 52.1214 77.3651 52.4027 77.6236C52.6839 77.8793 53.022 78.0071 53.4169 78.0071Z" fill="white"/>
<rect width="82" height="24" transform="translate(88.0156 63)" fill="#249B3D"/>
<path d="M112.777 79.1449C112.362 79.1449 111.987 79.0682 111.652 78.9148C111.317 78.7585 111.051 78.5327 110.855 78.2372C110.662 77.9418 110.565 77.5795 110.565 77.1506C110.565 76.7812 110.636 76.4773 110.778 76.2386C110.92 76 111.112 75.8111 111.354 75.6719C111.595 75.5327 111.865 75.4276 112.163 75.3565C112.462 75.2855 112.766 75.2315 113.075 75.1946C113.467 75.1491 113.786 75.1122 114.03 75.0838C114.274 75.0526 114.452 75.0028 114.562 74.9347C114.673 74.8665 114.729 74.7557 114.729 74.6023V74.5724C114.729 74.2003 114.624 73.9119 114.413 73.7074C114.206 73.5028 113.896 73.4006 113.484 73.4006C113.055 73.4006 112.717 73.4957 112.47 73.6861C112.226 73.8736 112.057 74.0824 111.963 74.3125L110.766 74.0398C110.908 73.642 111.115 73.321 111.388 73.0767C111.663 72.8295 111.98 72.6506 112.338 72.5398C112.696 72.4261 113.072 72.3693 113.467 72.3693C113.729 72.3693 114.006 72.4006 114.298 72.4631C114.594 72.5227 114.869 72.6335 115.125 72.7955C115.384 72.9574 115.595 73.1889 115.76 73.4901C115.925 73.7884 116.007 74.1761 116.007 74.6534V79H114.763V78.1051H114.712C114.629 78.2699 114.506 78.4318 114.341 78.5909C114.176 78.75 113.964 78.8821 113.706 78.9872C113.447 79.0923 113.138 79.1449 112.777 79.1449ZM113.054 78.1222C113.406 78.1222 113.707 78.0526 113.957 77.9134C114.21 77.7741 114.402 77.5923 114.533 77.3679C114.666 77.1406 114.733 76.8977 114.733 76.6392V75.7955C114.688 75.8409 114.599 75.8835 114.469 75.9233C114.341 75.9602 114.195 75.9929 114.03 76.0213C113.865 76.0469 113.705 76.071 113.548 76.0938C113.392 76.1136 113.261 76.1307 113.156 76.1449C112.909 76.1761 112.683 76.2287 112.479 76.3026C112.277 76.3764 112.115 76.483 111.993 76.6222C111.874 76.7585 111.814 76.9403 111.814 77.1676C111.814 77.483 111.93 77.7216 112.163 77.8835C112.396 78.0426 112.693 78.1222 113.054 78.1222ZM118.978 75.1136V79H117.704V72.4545H118.927V73.5199H119.008C119.159 73.1733 119.395 72.8949 119.716 72.6847C120.039 72.4744 120.447 72.3693 120.939 72.3693C121.385 72.3693 121.775 72.4631 122.11 72.6506C122.446 72.8352 122.706 73.1108 122.89 73.4773C123.075 73.8437 123.167 74.2969 123.167 74.8366V79H121.893V74.9901C121.893 74.5156 121.77 74.1449 121.522 73.8778C121.275 73.608 120.936 73.473 120.504 73.473C120.208 73.473 119.946 73.5369 119.716 73.6648C119.488 73.7926 119.308 73.9801 119.174 74.2273C119.044 74.4716 118.978 74.767 118.978 75.1136ZM127.326 79.1278C126.798 79.1278 126.326 78.9929 125.912 78.723C125.5 78.4503 125.176 78.0625 124.94 77.5597C124.707 77.054 124.591 76.4474 124.591 75.7401C124.591 75.0327 124.708 74.4276 124.944 73.9247C125.183 73.4219 125.51 73.0369 125.924 72.7699C126.339 72.5028 126.809 72.3693 127.335 72.3693C127.741 72.3693 128.068 72.4375 128.315 72.5739C128.565 72.7074 128.758 72.8636 128.895 73.0426C129.034 73.2216 129.142 73.3793 129.218 73.5156H129.295V70.2727H130.569V79H129.325V77.9815H129.218C129.142 78.1207 129.031 78.2798 128.886 78.4588C128.744 78.6378 128.548 78.794 128.298 78.9276C128.048 79.0611 127.724 79.1278 127.326 79.1278ZM127.608 78.0412C127.974 78.0412 128.284 77.9446 128.537 77.7514C128.792 77.5554 128.985 77.2841 129.116 76.9375C129.25 76.5909 129.316 76.1875 129.316 75.7273C129.316 75.2727 129.251 74.875 129.12 74.5341C128.99 74.1932 128.798 73.9276 128.545 73.7372C128.292 73.5469 127.98 73.4517 127.608 73.4517C127.224 73.4517 126.904 73.5511 126.649 73.75C126.393 73.9489 126.2 74.2202 126.069 74.5639C125.941 74.9077 125.877 75.2955 125.877 75.7273C125.877 76.1648 125.943 76.5582 126.074 76.9077C126.204 77.2571 126.397 77.5341 126.653 77.7386C126.912 77.9403 127.23 78.0412 127.608 78.0412ZM135.712 69.8636L132.899 80.3125H131.761L134.574 69.8636H135.712ZM139.551 79.1321C138.938 79.1321 138.402 78.9915 137.945 78.7102C137.487 78.429 137.132 78.0355 136.879 77.5298C136.626 77.0241 136.5 76.4332 136.5 75.7571C136.5 75.0781 136.626 74.4844 136.879 73.9759C137.132 73.4673 137.487 73.0724 137.945 72.7912C138.402 72.5099 138.938 72.3693 139.551 72.3693C140.165 72.3693 140.7 72.5099 141.158 72.7912C141.615 73.0724 141.97 73.4673 142.223 73.9759C142.476 74.4844 142.602 75.0781 142.602 75.7571C142.602 76.4332 142.476 77.0241 142.223 77.5298C141.97 78.0355 141.615 78.429 141.158 78.7102C140.7 78.9915 140.165 79.1321 139.551 79.1321ZM139.555 78.0625C139.953 78.0625 140.283 77.9574 140.544 77.7472C140.805 77.5369 140.999 77.2571 141.124 76.9077C141.251 76.5582 141.315 76.1733 141.315 75.7528C141.315 75.3352 141.251 74.9517 141.124 74.6023C140.999 74.25 140.805 73.9673 140.544 73.7543C140.283 73.5412 139.953 73.4347 139.555 73.4347C139.155 73.4347 138.822 73.5412 138.558 73.7543C138.297 73.9673 138.102 74.25 137.974 74.6023C137.849 74.9517 137.787 75.3352 137.787 75.7528C137.787 76.1733 137.849 76.5582 137.974 76.9077C138.102 77.2571 138.297 77.5369 138.558 77.7472C138.822 77.9574 139.155 78.0625 139.555 78.0625ZM144.025 79V72.4545H145.256V73.4943H145.324C145.444 73.142 145.654 72.8651 145.955 72.6634C146.259 72.4588 146.603 72.3565 146.986 72.3565C147.066 72.3565 147.159 72.3594 147.267 72.3651C147.378 72.3707 147.465 72.3778 147.527 72.3864V73.6051C147.476 73.5909 147.385 73.5753 147.255 73.5582C147.124 73.5384 146.993 73.5284 146.863 73.5284C146.561 73.5284 146.293 73.5923 146.057 73.7202C145.824 73.8452 145.64 74.0199 145.503 74.2443C145.367 74.4659 145.299 74.7187 145.299 75.0028V79H144.025Z" fill="white"/>
<path d="M174.016 63H248.016C252.434 63 256.016 66.5817 256.016 71V79C256.016 83.4183 252.434 87 248.016 87H174.016V63Z" fill="#249B3D"/>
<path d="M204.183 75.2244V74.2699L209.842 71.5256V72.8253L205.666 74.7301L205.705 74.6534V74.8366L205.666 74.7642L209.842 76.6648V77.9688L204.183 75.2244ZM214.796 79.1193C214.185 79.1193 213.646 79.0142 213.177 78.804C212.711 78.5937 212.346 78.304 212.082 77.9347C211.817 77.5653 211.687 77.1449 211.69 76.6733C211.687 76.304 211.762 75.9645 211.915 75.6548C212.072 75.3423 212.283 75.0824 212.55 74.875C212.817 74.6648 213.116 74.5312 213.445 74.4744V74.4233C213.011 74.3182 212.663 74.0852 212.401 73.7244C212.14 73.3636 212.011 72.9489 212.013 72.4801C212.011 72.0341 212.129 71.6364 212.367 71.2869C212.609 70.9347 212.94 70.6577 213.36 70.456C213.781 70.2543 214.259 70.1534 214.796 70.1534C215.327 70.1534 215.802 70.2557 216.219 70.4602C216.64 70.6619 216.971 70.9389 217.212 71.2912C217.454 71.6406 217.576 72.0369 217.579 72.4801C217.576 72.9489 217.442 73.3636 217.178 73.7244C216.914 74.0852 216.57 74.3182 216.147 74.4233V74.4744C216.474 74.5312 216.768 74.6648 217.029 74.875C217.293 75.0824 217.504 75.3423 217.66 75.6548C217.819 75.9645 217.9 76.304 217.903 76.6733C217.9 77.1449 217.766 77.5653 217.502 77.9347C217.238 78.304 216.871 78.5937 216.403 78.804C215.937 79.0142 215.401 79.1193 214.796 79.1193ZM214.796 78.0412C215.157 78.0412 215.469 77.9815 215.734 77.8622C215.998 77.7401 216.202 77.571 216.347 77.3551C216.492 77.1364 216.566 76.8807 216.569 76.5881C216.566 76.2841 216.487 76.0156 216.33 75.7827C216.177 75.5497 215.968 75.3665 215.704 75.233C215.44 75.0994 215.137 75.0327 214.796 75.0327C214.452 75.0327 214.147 75.0994 213.88 75.233C213.613 75.3665 213.403 75.5497 213.249 75.7827C213.096 76.0156 213.021 76.2841 213.023 76.5881C213.021 76.8807 213.09 77.1364 213.232 77.3551C213.377 77.571 213.583 77.7401 213.85 77.8622C214.117 77.9815 214.433 78.0412 214.796 78.0412ZM214.796 73.9801C215.086 73.9801 215.343 73.9219 215.567 73.8054C215.792 73.6889 215.968 73.527 216.096 73.3196C216.227 73.1122 216.293 72.8693 216.296 72.5909C216.293 72.3182 216.228 72.0795 216.1 71.875C215.975 71.6705 215.8 71.5128 215.576 71.402C215.352 71.2884 215.092 71.2315 214.796 71.2315C214.495 71.2315 214.231 71.2884 214.004 71.402C213.779 71.5128 213.604 71.6705 213.479 71.875C213.354 72.0795 213.293 72.3182 213.296 72.5909C213.293 72.8693 213.356 73.1122 213.484 73.3196C213.612 73.527 213.788 73.6889 214.012 73.8054C214.239 73.9219 214.501 73.9801 214.796 73.9801ZM222.468 79.1449C221.794 79.142 221.219 78.9645 220.742 78.6122C220.265 78.2599 219.9 77.7472 219.647 77.0739C219.394 76.4006 219.267 75.5895 219.267 74.6406C219.267 73.6946 219.394 72.8864 219.647 72.2159C219.902 71.5455 220.269 71.0341 220.746 70.6818C221.226 70.3295 221.8 70.1534 222.468 70.1534C223.135 70.1534 223.708 70.331 224.185 70.6861C224.662 71.0384 225.027 71.5497 225.28 72.2202C225.536 72.8878 225.664 73.6946 225.664 74.6406C225.664 75.5923 225.537 76.4048 225.284 77.0781C225.032 77.7486 224.667 78.2614 224.189 78.6165C223.712 78.9688 223.138 79.1449 222.468 79.1449ZM222.468 78.0071C223.059 78.0071 223.52 77.7188 223.853 77.142C224.188 76.5653 224.355 75.7315 224.355 74.6406C224.355 73.9162 224.279 73.304 224.125 72.804C223.975 72.3011 223.757 71.9205 223.473 71.6619C223.192 71.4006 222.857 71.2699 222.468 71.2699C221.88 71.2699 221.418 71.5597 221.083 72.1392C220.748 72.7187 220.578 73.5526 220.576 74.6406C220.576 75.3679 220.651 75.983 220.801 76.4858C220.955 76.9858 221.172 77.3651 221.453 77.6236C221.735 77.8793 222.073 78.0071 222.468 78.0071Z" fill="white"/>
<path d="M2.01562 99C2.01562 94.5817 5.59735 91 10.0156 91H84.0156V115H10.0156C5.59735 115 2.01562 111.418 2.01562 107V99Z" fill="#F1BA05"/>
<path d="M23.6662 98.2727V107H22.3452V99.5938H22.294L20.206 100.957V99.696L22.3835 98.2727H23.6662ZM26.027 107V106.045L28.9801 102.986C29.2955 102.653 29.5554 102.362 29.7599 102.112C29.9673 101.859 30.1222 101.619 30.2244 101.392C30.3267 101.165 30.3778 100.923 30.3778 100.668C30.3778 100.378 30.3097 100.128 30.1733 99.9176C30.0369 99.7045 29.8509 99.5412 29.6151 99.4276C29.3793 99.3111 29.1136 99.2528 28.8182 99.2528C28.5057 99.2528 28.233 99.3168 28 99.4446C27.767 99.5724 27.5881 99.7528 27.4631 99.9858C27.3381 100.219 27.2756 100.491 27.2756 100.804H26.0185C26.0185 100.273 26.1406 99.8082 26.3849 99.4105C26.6293 99.0128 26.9645 98.7045 27.3906 98.4858C27.8168 98.2642 28.3011 98.1534 28.8438 98.1534C29.392 98.1534 29.875 98.2628 30.2926 98.4815C30.7131 98.6974 31.0412 98.9929 31.277 99.3679C31.5128 99.7401 31.6307 100.161 31.6307 100.629C31.6307 100.953 31.5696 101.27 31.4474 101.58C31.3281 101.889 31.1193 102.234 30.821 102.615C30.5227 102.993 30.108 103.452 29.5767 103.991L27.8423 105.807V105.871H31.7713V107H26.027ZM36.4247 107.145C35.7514 107.142 35.1761 106.964 34.6989 106.612C34.2216 106.26 33.8565 105.747 33.6037 105.074C33.3509 104.401 33.2244 103.589 33.2244 102.641C33.2244 101.695 33.3509 100.886 33.6037 100.216C33.8594 99.5455 34.2259 99.0341 34.7031 98.6818C35.1832 98.3295 35.7571 98.1534 36.4247 98.1534C37.0923 98.1534 37.6648 98.331 38.142 98.6861C38.6193 99.0384 38.9844 99.5497 39.2372 100.22C39.4929 100.888 39.6207 101.695 39.6207 102.641C39.6207 103.592 39.4943 104.405 39.2415 105.078C38.9886 105.749 38.6236 106.261 38.1463 106.616C37.669 106.969 37.0952 107.145 36.4247 107.145ZM36.4247 106.007C37.0156 106.007 37.4773 105.719 37.8097 105.142C38.1449 104.565 38.3125 103.732 38.3125 102.641C38.3125 101.916 38.2358 101.304 38.0824 100.804C37.9318 100.301 37.7145 99.9205 37.4304 99.6619C37.1491 99.4006 36.8139 99.2699 36.4247 99.2699C35.8366 99.2699 35.375 99.5597 35.0398 100.139C34.7045 100.719 34.5355 101.553 34.5327 102.641C34.5327 103.368 34.608 103.983 34.7585 104.486C34.9119 104.986 35.1293 105.365 35.4105 105.624C35.6918 105.879 36.0298 106.007 36.4247 106.007ZM45.006 102.082V103.19H41.1367V102.082H45.006ZM49.9982 98.2727V107H48.6772V99.5938H48.6261L46.538 100.957V99.696L48.7156 98.2727H49.9982ZM52.359 107V106.045L55.3121 102.986C55.6275 102.653 55.8874 102.362 56.092 102.112C56.2994 101.859 56.4542 101.619 56.5565 101.392C56.6587 101.165 56.7099 100.923 56.7099 100.668C56.7099 100.378 56.6417 100.128 56.5053 99.9176C56.369 99.7045 56.1829 99.5412 55.9471 99.4276C55.7113 99.3111 55.4457 99.2528 55.1502 99.2528C54.8377 99.2528 54.565 99.3168 54.332 99.4446C54.0991 99.5724 53.9201 99.7528 53.7951 99.9858C53.6701 100.219 53.6076 100.491 53.6076 100.804H52.3505C52.3505 100.273 52.4727 99.8082 52.717 99.4105C52.9613 99.0128 53.2965 98.7045 53.7227 98.4858C54.1488 98.2642 54.6332 98.1534 55.1758 98.1534C55.7241 98.1534 56.207 98.2628 56.6246 98.4815C57.0451 98.6974 57.3732 98.9929 57.609 99.3679C57.8448 99.7401 57.9627 100.161 57.9627 100.629C57.9627 100.953 57.9016 101.27 57.7795 101.58C57.6602 101.889 57.4513 102.234 57.1531 102.615C56.8548 102.993 56.44 103.452 55.9087 103.991L54.1744 105.807V105.871H58.1033V107H52.359ZM62.6204 98.1534C63.0096 98.1562 63.3931 98.2273 63.771 98.3665C64.1488 98.5057 64.4897 98.733 64.7937 99.0483C65.1005 99.3636 65.3448 99.7898 65.5266 100.327C65.7113 100.861 65.805 101.526 65.8079 102.321C65.8079 103.085 65.7312 103.766 65.5778 104.362C65.4244 104.956 65.2042 105.457 64.9173 105.866C64.6332 106.276 64.288 106.587 63.8817 106.8C63.4755 107.013 63.0181 107.119 62.5096 107.119C61.9897 107.119 61.5281 107.017 61.1246 106.812C60.7212 106.608 60.3931 106.325 60.1403 105.964C59.8874 105.601 59.7298 105.183 59.6673 104.712H60.967C61.0522 105.087 61.2255 105.391 61.4869 105.624C61.7511 105.854 62.092 105.969 62.5096 105.969C63.1488 105.969 63.6474 105.69 64.0053 105.134C64.3633 104.574 64.5437 103.793 64.5465 102.79H64.4783C64.3306 103.034 64.146 103.244 63.9244 103.42C63.7056 103.597 63.4599 103.733 63.1871 103.83C62.9144 103.926 62.6232 103.974 62.3136 103.974C61.8107 103.974 61.3533 103.851 60.9414 103.604C60.5295 103.357 60.2013 103.017 59.957 102.585C59.7127 102.153 59.5906 101.661 59.5906 101.107C59.5906 100.555 59.7156 100.055 59.9656 99.6065C60.2184 99.1577 60.5707 98.8026 61.0224 98.5412C61.4769 98.277 62.0096 98.1477 62.6204 98.1534ZM62.6246 99.2614C62.2923 99.2614 61.9925 99.3437 61.7255 99.5085C61.4613 99.6705 61.2525 99.8906 61.0991 100.169C60.9457 100.445 60.869 100.751 60.869 101.089C60.869 101.428 60.9428 101.734 61.0906 102.01C61.2411 102.283 61.4457 102.5 61.7042 102.662C61.9656 102.821 62.2638 102.901 62.5991 102.901C62.8491 102.901 63.082 102.852 63.2979 102.756C63.5138 102.659 63.7028 102.526 63.8647 102.355C64.0266 102.182 64.1531 101.986 64.244 101.767C64.3349 101.548 64.3803 101.318 64.3803 101.077C64.3803 100.756 64.3036 100.457 64.1502 100.182C63.9996 99.9062 63.7923 99.6847 63.5281 99.517C63.2638 99.3466 62.9627 99.2614 62.6246 99.2614Z" fill="white"/>
<rect width="82" height="24" transform="translate(88.0156 91)" fill="#F1BA05"/>
<path d="M112.777 107.145C112.362 107.145 111.987 107.068 111.652 106.915C111.317 106.759 111.051 106.533 110.855 106.237C110.662 105.942 110.565 105.58 110.565 105.151C110.565 104.781 110.636 104.477 110.778 104.239C110.92 104 111.112 103.811 111.354 103.672C111.595 103.533 111.865 103.428 112.163 103.357C112.462 103.286 112.766 103.232 113.075 103.195C113.467 103.149 113.786 103.112 114.03 103.084C114.274 103.053 114.452 103.003 114.562 102.935C114.673 102.866 114.729 102.756 114.729 102.602V102.572C114.729 102.2 114.624 101.912 114.413 101.707C114.206 101.503 113.896 101.401 113.484 101.401C113.055 101.401 112.717 101.496 112.47 101.686C112.226 101.874 112.057 102.082 111.963 102.312L110.766 102.04C110.908 101.642 111.115 101.321 111.388 101.077C111.663 100.83 111.98 100.651 112.338 100.54C112.696 100.426 113.072 100.369 113.467 100.369C113.729 100.369 114.006 100.401 114.298 100.463C114.594 100.523 114.869 100.634 115.125 100.795C115.384 100.957 115.595 101.189 115.76 101.49C115.925 101.788 116.007 102.176 116.007 102.653V107H114.763V106.105H114.712C114.629 106.27 114.506 106.432 114.341 106.591C114.176 106.75 113.964 106.882 113.706 106.987C113.447 107.092 113.138 107.145 112.777 107.145ZM113.054 106.122C113.406 106.122 113.707 106.053 113.957 105.913C114.21 105.774 114.402 105.592 114.533 105.368C114.666 105.141 114.733 104.898 114.733 104.639V103.795C114.688 103.841 114.599 103.884 114.469 103.923C114.341 103.96 114.195 103.993 114.03 104.021C113.865 104.047 113.705 104.071 113.548 104.094C113.392 104.114 113.261 104.131 113.156 104.145C112.909 104.176 112.683 104.229 112.479 104.303C112.277 104.376 112.115 104.483 111.993 104.622C111.874 104.759 111.814 104.94 111.814 105.168C111.814 105.483 111.93 105.722 112.163 105.884C112.396 106.043 112.693 106.122 113.054 106.122ZM118.978 103.114V107H117.704V100.455H118.927V101.52H119.008C119.159 101.173 119.395 100.895 119.716 100.685C120.039 100.474 120.447 100.369 120.939 100.369C121.385 100.369 121.775 100.463 122.11 100.651C122.446 100.835 122.706 101.111 122.89 101.477C123.075 101.844 123.167 102.297 123.167 102.837V107H121.893V102.99C121.893 102.516 121.77 102.145 121.522 101.878C121.275 101.608 120.936 101.473 120.504 101.473C120.208 101.473 119.946 101.537 119.716 101.665C119.488 101.793 119.308 101.98 119.174 102.227C119.044 102.472 118.978 102.767 118.978 103.114ZM127.326 107.128C126.798 107.128 126.326 106.993 125.912 106.723C125.5 106.45 125.176 106.062 124.94 105.56C124.707 105.054 124.591 104.447 124.591 103.74C124.591 103.033 124.708 102.428 124.944 101.925C125.183 101.422 125.51 101.037 125.924 100.77C126.339 100.503 126.809 100.369 127.335 100.369C127.741 100.369 128.068 100.438 128.315 100.574C128.565 100.707 128.758 100.864 128.895 101.043C129.034 101.222 129.142 101.379 129.218 101.516H129.295V98.2727H130.569V107H129.325V105.982H129.218C129.142 106.121 129.031 106.28 128.886 106.459C128.744 106.638 128.548 106.794 128.298 106.928C128.048 107.061 127.724 107.128 127.326 107.128ZM127.608 106.041C127.974 106.041 128.284 105.945 128.537 105.751C128.792 105.555 128.985 105.284 129.116 104.938C129.25 104.591 129.316 104.187 129.316 103.727C129.316 103.273 129.251 102.875 129.12 102.534C128.99 102.193 128.798 101.928 128.545 101.737C128.292 101.547 127.98 101.452 127.608 101.452C127.224 101.452 126.904 101.551 126.649 101.75C126.393 101.949 126.2 102.22 126.069 102.564C125.941 102.908 125.877 103.295 125.877 103.727C125.877 104.165 125.943 104.558 126.074 104.908C126.204 105.257 126.397 105.534 126.653 105.739C126.912 105.94 127.23 106.041 127.608 106.041ZM135.712 97.8636L132.899 108.312H131.761L134.574 97.8636H135.712ZM139.551 107.132C138.938 107.132 138.402 106.991 137.945 106.71C137.487 106.429 137.132 106.036 136.879 105.53C136.626 105.024 136.5 104.433 136.5 103.757C136.5 103.078 136.626 102.484 136.879 101.976C137.132 101.467 137.487 101.072 137.945 100.791C138.402 100.51 138.938 100.369 139.551 100.369C140.165 100.369 140.7 100.51 141.158 100.791C141.615 101.072 141.97 101.467 142.223 101.976C142.476 102.484 142.602 103.078 142.602 103.757C142.602 104.433 142.476 105.024 142.223 105.53C141.97 106.036 141.615 106.429 141.158 106.71C140.7 106.991 140.165 107.132 139.551 107.132ZM139.555 106.062C139.953 106.062 140.283 105.957 140.544 105.747C140.805 105.537 140.999 105.257 141.124 104.908C141.251 104.558 141.315 104.173 141.315 103.753C141.315 103.335 141.251 102.952 141.124 102.602C140.999 102.25 140.805 101.967 140.544 101.754C140.283 101.541 139.953 101.435 139.555 101.435C139.155 101.435 138.822 101.541 138.558 101.754C138.297 101.967 138.102 102.25 137.974 102.602C137.849 102.952 137.787 103.335 137.787 103.753C137.787 104.173 137.849 104.558 137.974 104.908C138.102 105.257 138.297 105.537 138.558 105.747C138.822 105.957 139.155 106.062 139.555 106.062ZM144.025 107V100.455H145.256V101.494H145.324C145.444 101.142 145.654 100.865 145.955 100.663C146.259 100.459 146.603 100.357 146.986 100.357C147.066 100.357 147.159 100.359 147.267 100.365C147.378 100.371 147.465 100.378 147.527 100.386V101.605C147.476 101.591 147.385 101.575 147.255 101.558C147.124 101.538 146.993 101.528 146.863 101.528C146.561 101.528 146.293 101.592 146.057 101.72C145.824 101.845 145.64 102.02 145.503 102.244C145.367 102.466 145.299 102.719 145.299 103.003V107H144.025Z" fill="white"/>
<path d="M174.016 91H248.016C252.434 91 256.016 94.5817 256.016 99V107C256.016 111.418 252.434 115 248.016 115H174.016V91Z" fill="#F1BA05"/>
<path d="M204.183 103.224V102.27L209.842 99.5256V100.825L205.666 102.73L205.705 102.653V102.837L205.666 102.764L209.842 104.665V105.969L204.183 103.224ZM214.796 107.119C214.185 107.119 213.646 107.014 213.177 106.804C212.711 106.594 212.346 106.304 212.082 105.935C211.817 105.565 211.687 105.145 211.69 104.673C211.687 104.304 211.762 103.964 211.915 103.655C212.072 103.342 212.283 103.082 212.55 102.875C212.817 102.665 213.116 102.531 213.445 102.474V102.423C213.011 102.318 212.663 102.085 212.401 101.724C212.14 101.364 212.011 100.949 212.013 100.48C212.011 100.034 212.129 99.6364 212.367 99.2869C212.609 98.9347 212.94 98.6577 213.36 98.456C213.781 98.2543 214.259 98.1534 214.796 98.1534C215.327 98.1534 215.802 98.2557 216.219 98.4602C216.64 98.6619 216.971 98.9389 217.212 99.2912C217.454 99.6406 217.576 100.037 217.579 100.48C217.576 100.949 217.442 101.364 217.178 101.724C216.914 102.085 216.57 102.318 216.147 102.423V102.474C216.474 102.531 216.768 102.665 217.029 102.875C217.293 103.082 217.504 103.342 217.66 103.655C217.819 103.964 217.9 104.304 217.903 104.673C217.9 105.145 217.766 105.565 217.502 105.935C217.238 106.304 216.871 106.594 216.403 106.804C215.937 107.014 215.401 107.119 214.796 107.119ZM214.796 106.041C215.157 106.041 215.469 105.982 215.734 105.862C215.998 105.74 216.202 105.571 216.347 105.355C216.492 105.136 216.566 104.881 216.569 104.588C216.566 104.284 216.487 104.016 216.33 103.783C216.177 103.55 215.968 103.366 215.704 103.233C215.44 103.099 215.137 103.033 214.796 103.033C214.452 103.033 214.147 103.099 213.88 103.233C213.613 103.366 213.403 103.55 213.249 103.783C213.096 104.016 213.021 104.284 213.023 104.588C213.021 104.881 213.09 105.136 213.232 105.355C213.377 105.571 213.583 105.74 213.85 105.862C214.117 105.982 214.433 106.041 214.796 106.041ZM214.796 101.98C215.086 101.98 215.343 101.922 215.567 101.805C215.792 101.689 215.968 101.527 216.096 101.32C216.227 101.112 216.293 100.869 216.296 100.591C216.293 100.318 216.228 100.08 216.1 99.875C215.975 99.6705 215.8 99.5128 215.576 99.402C215.352 99.2884 215.092 99.2315 214.796 99.2315C214.495 99.2315 214.231 99.2884 214.004 99.402C213.779 99.5128 213.604 99.6705 213.479 99.875C213.354 100.08 213.293 100.318 213.296 100.591C213.293 100.869 213.356 101.112 213.484 101.32C213.612 101.527 213.788 101.689 214.012 101.805C214.239 101.922 214.501 101.98 214.796 101.98ZM222.468 107.145C221.794 107.142 221.219 106.964 220.742 106.612C220.265 106.26 219.9 105.747 219.647 105.074C219.394 104.401 219.267 103.589 219.267 102.641C219.267 101.695 219.394 100.886 219.647 100.216C219.902 99.5455 220.269 99.0341 220.746 98.6818C221.226 98.3295 221.8 98.1534 222.468 98.1534C223.135 98.1534 223.708 98.331 224.185 98.6861C224.662 99.0384 225.027 99.5497 225.28 100.22C225.536 100.888 225.664 101.695 225.664 102.641C225.664 103.592 225.537 104.405 225.284 105.078C225.032 105.749 224.667 106.261 224.189 106.616C223.712 106.969 223.138 107.145 222.468 107.145ZM222.468 106.007C223.059 106.007 223.52 105.719 223.853 105.142C224.188 104.565 224.355 103.732 224.355 102.641C224.355 101.916 224.279 101.304 224.125 100.804C223.975 100.301 223.757 99.9205 223.473 99.6619C223.192 99.4006 222.857 99.2699 222.468 99.2699C221.88 99.2699 221.418 99.5597 221.083 100.139C220.748 100.719 220.578 101.553 220.576 102.641C220.576 103.368 220.651 103.983 220.801 104.486C220.955 104.986 221.172 105.365 221.453 105.624C221.735 105.879 222.073 106.007 222.468 106.007Z" fill="white"/>
<path d="M2.01562 127C2.01562 122.582 5.59735 119 10.0156 119H84.0156V143H10.0156C5.59735 143 2.01562 139.418 2.01562 135V127Z" fill="#FF9702"/>
<path d="M23.1662 126.273V135H21.8452V127.594H21.794L19.706 128.957V127.696L21.8835 126.273H23.1662ZM28.5653 135.119C27.9801 135.119 27.4574 135.018 26.9972 134.817C26.5398 134.615 26.1776 134.335 25.9105 133.977C25.6463 133.616 25.5043 133.199 25.4844 132.724H26.8224C26.8395 132.983 26.9261 133.207 27.0824 133.398C27.2415 133.585 27.4489 133.73 27.7045 133.832C27.9602 133.935 28.2443 133.986 28.5568 133.986C28.9006 133.986 29.2045 133.926 29.4688 133.807C29.7358 133.687 29.9446 133.521 30.0952 133.308C30.2457 133.092 30.321 132.844 30.321 132.562C30.321 132.27 30.2457 132.013 30.0952 131.791C29.9474 131.567 29.7301 131.391 29.4432 131.263C29.1591 131.135 28.8153 131.071 28.4119 131.071H27.6747V129.997H28.4119C28.7358 129.997 29.0199 129.939 29.2642 129.822C29.5114 129.706 29.7045 129.544 29.8438 129.337C29.983 129.126 30.0526 128.881 30.0526 128.599C30.0526 128.33 29.9915 128.095 29.8693 127.896C29.75 127.695 29.5795 127.537 29.358 127.423C29.1392 127.31 28.8807 127.253 28.5824 127.253C28.2983 127.253 28.0327 127.305 27.7855 127.411C27.5412 127.513 27.3423 127.661 27.1889 127.854C27.0355 128.044 26.9531 128.273 26.9418 128.54H25.6676C25.6818 128.068 25.821 127.653 26.0852 127.295C26.3523 126.937 26.7045 126.658 27.142 126.456C27.5795 126.254 28.0653 126.153 28.5994 126.153C29.1591 126.153 29.642 126.263 30.0483 126.482C30.4574 126.697 30.7727 126.986 30.9943 127.347C31.2188 127.707 31.3295 128.102 31.3267 128.531C31.3295 129.02 31.1932 129.435 30.9176 129.776C30.6449 130.116 30.2813 130.345 29.8267 130.462V130.53C30.4063 130.618 30.8551 130.848 31.1733 131.22C31.4943 131.592 31.6534 132.054 31.6506 132.605C31.6534 133.085 31.5199 133.516 31.25 133.896C30.983 134.277 30.6179 134.577 30.1548 134.795C29.6918 135.011 29.1619 135.119 28.5653 135.119ZM36.2997 135.145C35.6264 135.142 35.0511 134.964 34.5739 134.612C34.0966 134.26 33.7315 133.747 33.4787 133.074C33.2259 132.401 33.0994 131.589 33.0994 130.641C33.0994 129.695 33.2259 128.886 33.4787 128.216C33.7344 127.545 34.1009 127.034 34.5781 126.682C35.0582 126.33 35.6321 126.153 36.2997 126.153C36.9673 126.153 37.5398 126.331 38.017 126.686C38.4943 127.038 38.8594 127.55 39.1122 128.22C39.3679 128.888 39.4957 129.695 39.4957 130.641C39.4957 131.592 39.3693 132.405 39.1165 133.078C38.8636 133.749 38.4986 134.261 38.0213 134.616C37.544 134.969 36.9702 135.145 36.2997 135.145ZM36.2997 134.007C36.8906 134.007 37.3523 133.719 37.6847 133.142C38.0199 132.565 38.1875 131.732 38.1875 130.641C38.1875 129.916 38.1108 129.304 37.9574 128.804C37.8068 128.301 37.5895 127.92 37.3054 127.662C37.0241 127.401 36.6889 127.27 36.2997 127.27C35.7116 127.27 35.25 127.56 34.9148 128.139C34.5795 128.719 34.4105 129.553 34.4077 130.641C34.4077 131.368 34.483 131.983 34.6335 132.486C34.7869 132.986 35.0043 133.365 35.2855 133.624C35.5668 133.879 35.9048 134.007 36.2997 134.007ZM44.881 130.082V131.19H41.0117V130.082H44.881ZM49.8732 126.273V135H48.5522V127.594H48.5011L46.413 128.957V127.696L48.5906 126.273H49.8732ZM55.2724 135.119C54.6871 135.119 54.1644 135.018 53.7042 134.817C53.2468 134.615 52.8846 134.335 52.6175 133.977C52.3533 133.616 52.2113 133.199 52.1914 132.724H53.5295C53.5465 132.983 53.6332 133.207 53.7894 133.398C53.9485 133.585 54.1559 133.73 54.4116 133.832C54.6673 133.935 54.9513 133.986 55.2638 133.986C55.6076 133.986 55.9116 133.926 56.1758 133.807C56.4428 133.687 56.6516 133.521 56.8022 133.308C56.9528 133.092 57.0281 132.844 57.0281 132.562C57.0281 132.27 56.9528 132.013 56.8022 131.791C56.6545 131.567 56.4371 131.391 56.1502 131.263C55.8661 131.135 55.5224 131.071 55.119 131.071H54.3817V129.997H55.119C55.4428 129.997 55.7269 129.939 55.9712 129.822C56.2184 129.706 56.4116 129.544 56.5508 129.337C56.69 129.126 56.7596 128.881 56.7596 128.599C56.7596 128.33 56.6985 128.095 56.5763 127.896C56.457 127.695 56.2866 127.537 56.065 127.423C55.8462 127.31 55.5877 127.253 55.2894 127.253C55.0053 127.253 54.7397 127.305 54.4925 127.411C54.2482 127.513 54.0494 127.661 53.896 127.854C53.7425 128.044 53.6602 128.273 53.6488 128.54H52.3746C52.3888 128.068 52.5281 127.653 52.7923 127.295C53.0593 126.937 53.4116 126.658 53.8491 126.456C54.2866 126.254 54.7724 126.153 55.3065 126.153C55.8661 126.153 56.3491 126.263 56.7553 126.482C57.1644 126.697 57.4798 126.986 57.7013 127.347C57.9258 127.707 58.0366 128.102 58.0337 128.531C58.0366 129.02 57.9002 129.435 57.6246 129.776C57.3519 130.116 56.9883 130.345 56.5337 130.462V130.53C57.1133 130.618 57.5621 130.848 57.8803 131.22C58.2013 131.592 58.3604 132.054 58.3576 132.605C58.3604 133.085 58.2269 133.516 57.957 133.896C57.69 134.277 57.3249 134.577 56.8619 134.795C56.3988 135.011 55.869 135.119 55.2724 135.119ZM62.8704 126.153C63.2596 126.156 63.6431 126.227 64.021 126.366C64.3988 126.506 64.7397 126.733 65.0437 127.048C65.3505 127.364 65.5948 127.79 65.7766 128.327C65.9613 128.861 66.055 129.526 66.0579 130.321C66.0579 131.085 65.9812 131.766 65.8278 132.362C65.6744 132.956 65.4542 133.457 65.1673 133.866C64.8832 134.276 64.538 134.587 64.1317 134.8C63.7255 135.013 63.2681 135.119 62.7596 135.119C62.2397 135.119 61.7781 135.017 61.3746 134.812C60.9712 134.608 60.6431 134.325 60.3903 133.964C60.1374 133.601 59.9798 133.183 59.9173 132.712H61.217C61.3022 133.087 61.4755 133.391 61.7369 133.624C62.0011 133.854 62.342 133.969 62.7596 133.969C63.3988 133.969 63.8974 133.69 64.2553 133.134C64.6133 132.574 64.7937 131.793 64.7965 130.79H64.7283C64.5806 131.034 64.396 131.244 64.1744 131.42C63.9556 131.597 63.7099 131.733 63.4371 131.83C63.1644 131.926 62.8732 131.974 62.5636 131.974C62.0607 131.974 61.6033 131.851 61.1914 131.604C60.7795 131.357 60.4513 131.017 60.207 130.585C59.9627 130.153 59.8406 129.661 59.8406 129.107C59.8406 128.555 59.9656 128.055 60.2156 127.607C60.4684 127.158 60.8207 126.803 61.2724 126.541C61.7269 126.277 62.2596 126.148 62.8704 126.153ZM62.8746 127.261C62.5423 127.261 62.2425 127.344 61.9755 127.509C61.7113 127.67 61.5025 127.891 61.3491 128.169C61.1957 128.445 61.119 128.751 61.119 129.089C61.119 129.428 61.1928 129.734 61.3406 130.01C61.4911 130.283 61.6957 130.5 61.9542 130.662C62.2156 130.821 62.5138 130.901 62.8491 130.901C63.0991 130.901 63.332 130.852 63.5479 130.756C63.7638 130.659 63.9528 130.526 64.1147 130.355C64.2766 130.182 64.4031 129.986 64.494 129.767C64.5849 129.548 64.6303 129.318 64.6303 129.077C64.6303 128.756 64.5536 128.457 64.4002 128.182C64.2496 127.906 64.0423 127.685 63.7781 127.517C63.5138 127.347 63.2127 127.261 62.8746 127.261Z" fill="white"/>
<rect width="82" height="24" transform="translate(88.0156 119)" fill="#FF9702"/>
<path d="M112.777 135.145C112.362 135.145 111.987 135.068 111.652 134.915C111.317 134.759 111.051 134.533 110.855 134.237C110.662 133.942 110.565 133.58 110.565 133.151C110.565 132.781 110.636 132.477 110.778 132.239C110.92 132 111.112 131.811 111.354 131.672C111.595 131.533 111.865 131.428 112.163 131.357C112.462 131.286 112.766 131.232 113.075 131.195C113.467 131.149 113.786 131.112 114.03 131.084C114.274 131.053 114.452 131.003 114.562 130.935C114.673 130.866 114.729 130.756 114.729 130.602V130.572C114.729 130.2 114.624 129.912 114.413 129.707C114.206 129.503 113.896 129.401 113.484 129.401C113.055 129.401 112.717 129.496 112.47 129.686C112.226 129.874 112.057 130.082 111.963 130.312L110.766 130.04C110.908 129.642 111.115 129.321 111.388 129.077C111.663 128.83 111.98 128.651 112.338 128.54C112.696 128.426 113.072 128.369 113.467 128.369C113.729 128.369 114.006 128.401 114.298 128.463C114.594 128.523 114.869 128.634 115.125 128.795C115.384 128.957 115.595 129.189 115.76 129.49C115.925 129.788 116.007 130.176 116.007 130.653V135H114.763V134.105H114.712C114.629 134.27 114.506 134.432 114.341 134.591C114.176 134.75 113.964 134.882 113.706 134.987C113.447 135.092 113.138 135.145 112.777 135.145ZM113.054 134.122C113.406 134.122 113.707 134.053 113.957 133.913C114.21 133.774 114.402 133.592 114.533 133.368C114.666 133.141 114.733 132.898 114.733 132.639V131.795C114.688 131.841 114.599 131.884 114.469 131.923C114.341 131.96 114.195 131.993 114.03 132.021C113.865 132.047 113.705 132.071 113.548 132.094C113.392 132.114 113.261 132.131 113.156 132.145C112.909 132.176 112.683 132.229 112.479 132.303C112.277 132.376 112.115 132.483 111.993 132.622C111.874 132.759 111.814 132.94 111.814 133.168C111.814 133.483 111.93 133.722 112.163 133.884C112.396 134.043 112.693 134.122 113.054 134.122ZM118.978 131.114V135H117.704V128.455H118.927V129.52H119.008C119.159 129.173 119.395 128.895 119.716 128.685C120.039 128.474 120.447 128.369 120.939 128.369C121.385 128.369 121.775 128.463 122.11 128.651C122.446 128.835 122.706 129.111 122.89 129.477C123.075 129.844 123.167 130.297 123.167 130.837V135H121.893V130.99C121.893 130.516 121.77 130.145 121.522 129.878C121.275 129.608 120.936 129.473 120.504 129.473C120.208 129.473 119.946 129.537 119.716 129.665C119.488 129.793 119.308 129.98 119.174 130.227C119.044 130.472 118.978 130.767 118.978 131.114ZM127.326 135.128C126.798 135.128 126.326 134.993 125.912 134.723C125.5 134.45 125.176 134.062 124.94 133.56C124.707 133.054 124.591 132.447 124.591 131.74C124.591 131.033 124.708 130.428 124.944 129.925C125.183 129.422 125.51 129.037 125.924 128.77C126.339 128.503 126.809 128.369 127.335 128.369C127.741 128.369 128.068 128.438 128.315 128.574C128.565 128.707 128.758 128.864 128.895 129.043C129.034 129.222 129.142 129.379 129.218 129.516H129.295V126.273H130.569V135H129.325V133.982H129.218C129.142 134.121 129.031 134.28 128.886 134.459C128.744 134.638 128.548 134.794 128.298 134.928C128.048 135.061 127.724 135.128 127.326 135.128ZM127.608 134.041C127.974 134.041 128.284 133.945 128.537 133.751C128.792 133.555 128.985 133.284 129.116 132.938C129.25 132.591 129.316 132.187 129.316 131.727C129.316 131.273 129.251 130.875 129.12 130.534C128.99 130.193 128.798 129.928 128.545 129.737C128.292 129.547 127.98 129.452 127.608 129.452C127.224 129.452 126.904 129.551 126.649 129.75C126.393 129.949 126.2 130.22 126.069 130.564C125.941 130.908 125.877 131.295 125.877 131.727C125.877 132.165 125.943 132.558 126.074 132.908C126.204 133.257 126.397 133.534 126.653 133.739C126.912 133.94 127.23 134.041 127.608 134.041ZM135.712 125.864L132.899 136.312H131.761L134.574 125.864H135.712ZM139.551 135.132C138.938 135.132 138.402 134.991 137.945 134.71C137.487 134.429 137.132 134.036 136.879 133.53C136.626 133.024 136.5 132.433 136.5 131.757C136.5 131.078 136.626 130.484 136.879 129.976C137.132 129.467 137.487 129.072 137.945 128.791C138.402 128.51 138.938 128.369 139.551 128.369C140.165 128.369 140.7 128.51 141.158 128.791C141.615 129.072 141.97 129.467 142.223 129.976C142.476 130.484 142.602 131.078 142.602 131.757C142.602 132.433 142.476 133.024 142.223 133.53C141.97 134.036 141.615 134.429 141.158 134.71C140.7 134.991 140.165 135.132 139.551 135.132ZM139.555 134.062C139.953 134.062 140.283 133.957 140.544 133.747C140.805 133.537 140.999 133.257 141.124 132.908C141.251 132.558 141.315 132.173 141.315 131.753C141.315 131.335 141.251 130.952 141.124 130.602C140.999 130.25 140.805 129.967 140.544 129.754C140.283 129.541 139.953 129.435 139.555 129.435C139.155 129.435 138.822 129.541 138.558 129.754C138.297 129.967 138.102 130.25 137.974 130.602C137.849 130.952 137.787 131.335 137.787 131.753C137.787 132.173 137.849 132.558 137.974 132.908C138.102 133.257 138.297 133.537 138.558 133.747C138.822 133.957 139.155 134.062 139.555 134.062ZM144.025 135V128.455H145.256V129.494H145.324C145.444 129.142 145.654 128.865 145.955 128.663C146.259 128.459 146.603 128.357 146.986 128.357C147.066 128.357 147.159 128.359 147.267 128.365C147.378 128.371 147.465 128.378 147.527 128.386V129.605C147.476 129.591 147.385 129.575 147.255 129.558C147.124 129.538 146.993 129.528 146.863 129.528C146.561 129.528 146.293 129.592 146.057 129.72C145.824 129.845 145.64 130.02 145.503 130.244C145.367 130.466 145.299 130.719 145.299 131.003V135H144.025Z" fill="white"/>
<path d="M174.016 119H248.016C252.434 119 256.016 122.582 256.016 127V135C256.016 139.418 252.434 143 248.016 143H174.016V119Z" fill="#FF9702"/>
<path d="M200.304 135.119C199.693 135.119 199.153 135.014 198.685 134.804C198.219 134.594 197.854 134.304 197.589 133.935C197.325 133.565 197.195 133.145 197.197 132.673C197.195 132.304 197.27 131.964 197.423 131.655C197.58 131.342 197.791 131.082 198.058 130.875C198.325 130.665 198.624 130.531 198.953 130.474V130.423C198.518 130.318 198.17 130.085 197.909 129.724C197.648 129.364 197.518 128.949 197.521 128.48C197.518 128.034 197.636 127.636 197.875 127.287C198.116 126.935 198.447 126.658 198.868 126.456C199.288 126.254 199.767 126.153 200.304 126.153C200.835 126.153 201.31 126.256 201.727 126.46C202.148 126.662 202.479 126.939 202.72 127.291C202.962 127.641 203.084 128.037 203.087 128.48C203.084 128.949 202.95 129.364 202.686 129.724C202.422 130.085 202.078 130.318 201.655 130.423V130.474C201.982 130.531 202.276 130.665 202.537 130.875C202.801 131.082 203.011 131.342 203.168 131.655C203.327 131.964 203.408 132.304 203.411 132.673C203.408 133.145 203.274 133.565 203.01 133.935C202.746 134.304 202.379 134.594 201.911 134.804C201.445 135.014 200.909 135.119 200.304 135.119ZM200.304 134.041C200.665 134.041 200.977 133.982 201.241 133.862C201.506 133.74 201.71 133.571 201.855 133.355C202 133.136 202.074 132.881 202.077 132.588C202.074 132.284 201.994 132.016 201.838 131.783C201.685 131.55 201.476 131.366 201.212 131.233C200.947 131.099 200.645 131.033 200.304 131.033C199.96 131.033 199.655 131.099 199.388 131.233C199.121 131.366 198.911 131.55 198.757 131.783C198.604 132.016 198.528 132.284 198.531 132.588C198.528 132.881 198.598 133.136 198.74 133.355C198.885 133.571 199.091 133.74 199.358 133.862C199.625 133.982 199.94 134.041 200.304 134.041ZM200.304 129.98C200.594 129.98 200.851 129.922 201.075 129.805C201.3 129.689 201.476 129.527 201.604 129.32C201.734 129.112 201.801 128.869 201.804 128.591C201.801 128.318 201.736 128.08 201.608 127.875C201.483 127.67 201.308 127.513 201.084 127.402C200.859 127.288 200.599 127.232 200.304 127.232C200.003 127.232 199.739 127.288 199.511 127.402C199.287 127.513 199.112 127.67 198.987 127.875C198.862 128.08 198.801 128.318 198.804 128.591C198.801 128.869 198.864 129.112 198.991 129.32C199.119 129.527 199.295 129.689 199.52 129.805C199.747 129.922 200.009 129.98 200.304 129.98ZM207.975 135.145C207.302 135.142 206.727 134.964 206.25 134.612C205.772 134.26 205.407 133.747 205.154 133.074C204.902 132.401 204.775 131.589 204.775 130.641C204.775 129.695 204.902 128.886 205.154 128.216C205.41 127.545 205.777 127.034 206.254 126.682C206.734 126.33 207.308 126.153 207.975 126.153C208.643 126.153 209.216 126.331 209.693 126.686C210.17 127.038 210.535 127.55 210.788 128.22C211.044 128.888 211.172 129.695 211.172 130.641C211.172 131.592 211.045 132.405 210.792 133.078C210.539 133.749 210.174 134.261 209.697 134.616C209.22 134.969 208.646 135.145 207.975 135.145ZM207.975 134.007C208.566 134.007 209.028 133.719 209.36 133.142C209.696 132.565 209.863 131.732 209.863 130.641C209.863 129.916 209.787 129.304 209.633 128.804C209.483 128.301 209.265 127.92 208.981 127.662C208.7 127.401 208.365 127.27 207.975 127.27C207.387 127.27 206.926 127.56 206.591 128.139C206.255 128.719 206.086 129.553 206.083 130.641C206.083 131.368 206.159 131.983 206.309 132.486C206.463 132.986 206.68 133.365 206.961 133.624C207.243 133.879 207.581 134.007 207.975 134.007ZM216.557 130.082V131.19H212.688V130.082H216.557ZM221.187 135.119C220.576 135.119 220.036 135.014 219.567 134.804C219.102 134.594 218.737 134.304 218.472 133.935C218.208 133.565 218.077 133.145 218.08 132.673C218.077 132.304 218.153 131.964 218.306 131.655C218.462 131.342 218.674 131.082 218.941 130.875C219.208 130.665 219.506 130.531 219.836 130.474V130.423C219.401 130.318 219.053 130.085 218.792 129.724C218.531 129.364 218.401 128.949 218.404 128.48C218.401 128.034 218.519 127.636 218.758 127.287C218.999 126.935 219.33 126.658 219.751 126.456C220.171 126.254 220.65 126.153 221.187 126.153C221.718 126.153 222.192 126.256 222.61 126.46C223.031 126.662 223.362 126.939 223.603 127.291C223.844 127.641 223.967 128.037 223.969 128.48C223.967 128.949 223.833 129.364 223.569 129.724C223.305 130.085 222.961 130.318 222.538 130.423V130.474C222.864 130.531 223.158 130.665 223.42 130.875C223.684 131.082 223.894 131.342 224.05 131.655C224.21 131.964 224.29 132.304 224.293 132.673C224.29 133.145 224.157 133.565 223.893 133.935C223.629 134.304 223.262 134.594 222.793 134.804C222.327 135.014 221.792 135.119 221.187 135.119ZM221.187 134.041C221.548 134.041 221.86 133.982 222.124 133.862C222.388 133.74 222.593 133.571 222.738 133.355C222.883 133.136 222.957 132.881 222.96 132.588C222.957 132.284 222.877 132.016 222.721 131.783C222.567 131.55 222.359 131.366 222.094 131.233C221.83 131.099 221.528 131.033 221.187 131.033C220.843 131.033 220.538 131.099 220.271 131.233C220.004 131.366 219.793 131.55 219.64 131.783C219.487 132.016 219.411 132.284 219.414 132.588C219.411 132.881 219.481 133.136 219.623 133.355C219.768 133.571 219.974 133.74 220.241 133.862C220.508 133.982 220.823 134.041 221.187 134.041ZM221.187 129.98C221.477 129.98 221.734 129.922 221.958 129.805C222.183 129.689 222.359 129.527 222.487 129.32C222.617 129.112 222.684 128.869 222.687 128.591C222.684 128.318 222.619 128.08 222.491 127.875C222.366 127.67 222.191 127.513 221.967 127.402C221.742 127.288 221.482 127.232 221.187 127.232C220.886 127.232 220.621 127.288 220.394 127.402C220.17 127.513 219.995 127.67 219.87 127.875C219.745 128.08 219.684 128.318 219.687 128.591C219.684 128.869 219.746 129.112 219.874 129.32C220.002 129.527 220.178 129.689 220.403 129.805C220.63 129.922 220.891 129.98 221.187 129.98ZM228.722 126.153C229.111 126.156 229.495 126.227 229.873 126.366C230.25 126.506 230.591 126.733 230.895 127.048C231.202 127.364 231.446 127.79 231.628 128.327C231.813 128.861 231.907 129.526 231.909 130.321C231.909 131.085 231.833 131.766 231.679 132.362C231.526 132.956 231.306 133.457 231.019 133.866C230.735 134.276 230.39 134.587 229.983 134.8C229.577 135.013 229.12 135.119 228.611 135.119C228.091 135.119 227.63 135.017 227.226 134.812C226.823 134.608 226.495 134.325 226.242 133.964C225.989 133.601 225.831 133.183 225.769 132.712H227.069C227.154 133.087 227.327 133.391 227.588 133.624C227.853 133.854 228.194 133.969 228.611 133.969C229.25 133.969 229.749 133.69 230.107 133.134C230.465 132.574 230.645 131.793 230.648 130.79H230.58C230.432 131.034 230.248 131.244 230.026 131.42C229.807 131.597 229.561 131.733 229.289 131.83C229.016 131.926 228.725 131.974 228.415 131.974C227.912 131.974 227.455 131.851 227.043 131.604C226.631 131.357 226.303 131.017 226.059 130.585C225.814 130.153 225.692 129.661 225.692 129.107C225.692 128.555 225.817 128.055 226.067 127.607C226.32 127.158 226.672 126.803 227.124 126.541C227.578 126.277 228.111 126.148 228.722 126.153ZM228.726 127.261C228.394 127.261 228.094 127.344 227.827 127.509C227.563 127.67 227.354 127.891 227.201 128.169C227.047 128.445 226.971 128.751 226.971 129.089C226.971 129.428 227.044 129.734 227.192 130.01C227.343 130.283 227.547 130.5 227.806 130.662C228.067 130.821 228.365 130.901 228.701 130.901C228.951 130.901 229.184 130.852 229.4 130.756C229.615 130.659 229.804 130.526 229.966 130.355C230.128 130.182 230.255 129.986 230.346 129.767C230.436 129.548 230.482 129.318 230.482 129.077C230.482 128.756 230.405 128.457 230.252 128.182C230.101 127.906 229.894 127.685 229.63 127.517C229.365 127.347 229.064 127.261 228.726 127.261Z" fill="white"/>
<path d="M2.01562 155C2.01562 150.582 5.59735 147 10.0156 147H84.0156V171H10.0156C5.59735 171 2.01562 167.418 2.01562 163V155Z" fill="#EF423E"/>
<path d="M28.1662 154.273V163H26.8452V155.594H26.794L24.706 156.957V155.696L26.8835 154.273H28.1662ZM30.3438 161.295V160.23L34.1151 154.273H34.9545V155.841H34.4219L31.7244 160.111V160.179H36.8935V161.295H30.3438ZM34.4815 163V160.972L34.4901 160.486V154.273H35.7386V163H34.4815ZM41.4169 163.145C40.7436 163.142 40.1683 162.964 39.6911 162.612C39.2138 162.26 38.8487 161.747 38.5959 161.074C38.343 160.401 38.2166 159.589 38.2166 158.641C38.2166 157.695 38.343 156.886 38.5959 156.216C38.8516 155.545 39.218 155.034 39.6953 154.682C40.1754 154.33 40.7493 154.153 41.4169 154.153C42.0845 154.153 42.657 154.331 43.1342 154.686C43.6115 155.038 43.9766 155.55 44.2294 156.22C44.4851 156.888 44.6129 157.695 44.6129 158.641C44.6129 159.592 44.4865 160.405 44.2337 161.078C43.9808 161.749 43.6158 162.261 43.1385 162.616C42.6612 162.969 42.0874 163.145 41.4169 163.145ZM41.4169 162.007C42.0078 162.007 42.4695 161.719 42.8018 161.142C43.1371 160.565 43.3047 159.732 43.3047 158.641C43.3047 157.916 43.228 157.304 43.0746 156.804C42.924 156.301 42.7067 155.92 42.4226 155.662C42.1413 155.401 41.8061 155.27 41.4169 155.27C40.8288 155.27 40.3672 155.56 40.032 156.139C39.6967 156.719 39.5277 157.553 39.5249 158.641C39.5249 159.368 39.6001 159.983 39.7507 160.486C39.9041 160.986 40.1214 161.365 40.4027 161.624C40.6839 161.879 41.022 162.007 41.4169 162.007ZM46.5508 157.882V156.766H52.0096V157.882H46.5508ZM46.5508 160.507V159.391H52.0096V160.507H46.5508ZM54.445 159.224V158.27L60.104 155.526V156.825L55.9279 158.73L55.9663 158.653V158.837L55.9279 158.764L60.104 160.665V161.969L54.445 159.224Z" fill="white"/>
<rect width="82" height="24" transform="translate(88.0156 147)" fill="#EF423E"/>
<path d="M112.777 163.145C112.362 163.145 111.987 163.068 111.652 162.915C111.317 162.759 111.051 162.533 110.855 162.237C110.662 161.942 110.565 161.58 110.565 161.151C110.565 160.781 110.636 160.477 110.778 160.239C110.92 160 111.112 159.811 111.354 159.672C111.595 159.533 111.865 159.428 112.163 159.357C112.462 159.286 112.766 159.232 113.075 159.195C113.467 159.149 113.786 159.112 114.03 159.084C114.274 159.053 114.452 159.003 114.562 158.935C114.673 158.866 114.729 158.756 114.729 158.602V158.572C114.729 158.2 114.624 157.912 114.413 157.707C114.206 157.503 113.896 157.401 113.484 157.401C113.055 157.401 112.717 157.496 112.47 157.686C112.226 157.874 112.057 158.082 111.963 158.312L110.766 158.04C110.908 157.642 111.115 157.321 111.388 157.077C111.663 156.83 111.98 156.651 112.338 156.54C112.696 156.426 113.072 156.369 113.467 156.369C113.729 156.369 114.006 156.401 114.298 156.463C114.594 156.523 114.869 156.634 115.125 156.795C115.384 156.957 115.595 157.189 115.76 157.49C115.925 157.788 116.007 158.176 116.007 158.653V163H114.763V162.105H114.712C114.629 162.27 114.506 162.432 114.341 162.591C114.176 162.75 113.964 162.882 113.706 162.987C113.447 163.092 113.138 163.145 112.777 163.145ZM113.054 162.122C113.406 162.122 113.707 162.053 113.957 161.913C114.21 161.774 114.402 161.592 114.533 161.368C114.666 161.141 114.733 160.898 114.733 160.639V159.795C114.688 159.841 114.599 159.884 114.469 159.923C114.341 159.96 114.195 159.993 114.03 160.021C113.865 160.047 113.705 160.071 113.548 160.094C113.392 160.114 113.261 160.131 113.156 160.145C112.909 160.176 112.683 160.229 112.479 160.303C112.277 160.376 112.115 160.483 111.993 160.622C111.874 160.759 111.814 160.94 111.814 161.168C111.814 161.483 111.93 161.722 112.163 161.884C112.396 162.043 112.693 162.122 113.054 162.122ZM118.978 159.114V163H117.704V156.455H118.927V157.52H119.008C119.159 157.173 119.395 156.895 119.716 156.685C120.039 156.474 120.447 156.369 120.939 156.369C121.385 156.369 121.775 156.463 122.11 156.651C122.446 156.835 122.706 157.111 122.89 157.477C123.075 157.844 123.167 158.297 123.167 158.837V163H121.893V158.99C121.893 158.516 121.77 158.145 121.522 157.878C121.275 157.608 120.936 157.473 120.504 157.473C120.208 157.473 119.946 157.537 119.716 157.665C119.488 157.793 119.308 157.98 119.174 158.227C119.044 158.472 118.978 158.767 118.978 159.114ZM127.326 163.128C126.798 163.128 126.326 162.993 125.912 162.723C125.5 162.45 125.176 162.062 124.94 161.56C124.707 161.054 124.591 160.447 124.591 159.74C124.591 159.033 124.708 158.428 124.944 157.925C125.183 157.422 125.51 157.037 125.924 156.77C126.339 156.503 126.809 156.369 127.335 156.369C127.741 156.369 128.068 156.438 128.315 156.574C128.565 156.707 128.758 156.864 128.895 157.043C129.034 157.222 129.142 157.379 129.218 157.516H129.295V154.273H130.569V163H129.325V161.982H129.218C129.142 162.121 129.031 162.28 128.886 162.459C128.744 162.638 128.548 162.794 128.298 162.928C128.048 163.061 127.724 163.128 127.326 163.128ZM127.608 162.041C127.974 162.041 128.284 161.945 128.537 161.751C128.792 161.555 128.985 161.284 129.116 160.938C129.25 160.591 129.316 160.187 129.316 159.727C129.316 159.273 129.251 158.875 129.12 158.534C128.99 158.193 128.798 157.928 128.545 157.737C128.292 157.547 127.98 157.452 127.608 157.452C127.224 157.452 126.904 157.551 126.649 157.75C126.393 157.949 126.2 158.22 126.069 158.564C125.941 158.908 125.877 159.295 125.877 159.727C125.877 160.165 125.943 160.558 126.074 160.908C126.204 161.257 126.397 161.534 126.653 161.739C126.912 161.94 127.23 162.041 127.608 162.041ZM135.712 153.864L132.899 164.312H131.761L134.574 153.864H135.712ZM139.551 163.132C138.938 163.132 138.402 162.991 137.945 162.71C137.487 162.429 137.132 162.036 136.879 161.53C136.626 161.024 136.5 160.433 136.5 159.757C136.5 159.078 136.626 158.484 136.879 157.976C137.132 157.467 137.487 157.072 137.945 156.791C138.402 156.51 138.938 156.369 139.551 156.369C140.165 156.369 140.7 156.51 141.158 156.791C141.615 157.072 141.97 157.467 142.223 157.976C142.476 158.484 142.602 159.078 142.602 159.757C142.602 160.433 142.476 161.024 142.223 161.53C141.97 162.036 141.615 162.429 141.158 162.71C140.7 162.991 140.165 163.132 139.551 163.132ZM139.555 162.062C139.953 162.062 140.283 161.957 140.544 161.747C140.805 161.537 140.999 161.257 141.124 160.908C141.251 160.558 141.315 160.173 141.315 159.753C141.315 159.335 141.251 158.952 141.124 158.602C140.999 158.25 140.805 157.967 140.544 157.754C140.283 157.541 139.953 157.435 139.555 157.435C139.155 157.435 138.822 157.541 138.558 157.754C138.297 157.967 138.102 158.25 137.974 158.602C137.849 158.952 137.787 159.335 137.787 159.753C137.787 160.173 137.849 160.558 137.974 160.908C138.102 161.257 138.297 161.537 138.558 161.747C138.822 161.957 139.155 162.062 139.555 162.062ZM144.025 163V156.455H145.256V157.494H145.324C145.444 157.142 145.654 156.865 145.955 156.663C146.259 156.459 146.603 156.357 146.986 156.357C147.066 156.357 147.159 156.359 147.267 156.365C147.378 156.371 147.465 156.378 147.527 156.386V157.605C147.476 157.591 147.385 157.575 147.255 157.558C147.124 157.538 146.993 157.528 146.863 157.528C146.561 157.528 146.293 157.592 146.057 157.72C145.824 157.845 145.64 158.02 145.503 158.244C145.367 158.466 145.299 158.719 145.299 159.003V163H144.025Z" fill="white"/>
<path d="M174.016 147H248.016C252.434 147 256.016 150.582 256.016 155V163C256.016 167.418 252.434 171 248.016 171H174.016V147Z" fill="#EF423E"/>
<path d="M202.757 154.153C203.146 154.156 203.53 154.227 203.908 154.366C204.286 154.506 204.626 154.733 204.93 155.048C205.237 155.364 205.482 155.79 205.663 156.327C205.848 156.861 205.942 157.526 205.945 158.321C205.945 159.085 205.868 159.766 205.714 160.362C205.561 160.956 205.341 161.457 205.054 161.866C204.77 162.276 204.425 162.587 204.018 162.8C203.612 163.013 203.155 163.119 202.646 163.119C202.126 163.119 201.665 163.017 201.261 162.812C200.858 162.608 200.53 162.325 200.277 161.964C200.024 161.601 199.866 161.183 199.804 160.712H201.104C201.189 161.087 201.362 161.391 201.624 161.624C201.888 161.854 202.229 161.969 202.646 161.969C203.286 161.969 203.784 161.69 204.142 161.134C204.5 160.574 204.68 159.793 204.683 158.79H204.615C204.467 159.034 204.283 159.244 204.061 159.42C203.842 159.597 203.597 159.733 203.324 159.83C203.051 159.926 202.76 159.974 202.45 159.974C201.947 159.974 201.49 159.851 201.078 159.604C200.666 159.357 200.338 159.017 200.094 158.585C199.849 158.153 199.727 157.661 199.727 157.107C199.727 156.555 199.852 156.055 200.102 155.607C200.355 155.158 200.707 154.803 201.159 154.541C201.614 154.277 202.146 154.148 202.757 154.153ZM202.761 155.261C202.429 155.261 202.129 155.344 201.862 155.509C201.598 155.67 201.389 155.891 201.236 156.169C201.082 156.445 201.006 156.751 201.006 157.089C201.006 157.428 201.08 157.734 201.227 158.01C201.378 158.283 201.582 158.5 201.841 158.662C202.102 158.821 202.401 158.901 202.736 158.901C202.986 158.901 203.219 158.852 203.435 158.756C203.651 158.659 203.839 158.526 204.001 158.355C204.163 158.182 204.29 157.986 204.381 157.767C204.472 157.548 204.517 157.318 204.517 157.077C204.517 156.756 204.44 156.457 204.287 156.182C204.136 155.906 203.929 155.685 203.665 155.517C203.401 155.347 203.099 155.261 202.761 155.261ZM210.522 163.145C209.849 163.142 209.274 162.964 208.797 162.612C208.319 162.26 207.954 161.747 207.701 161.074C207.449 160.401 207.322 159.589 207.322 158.641C207.322 157.695 207.449 156.886 207.701 156.216C207.957 155.545 208.324 155.034 208.801 154.682C209.281 154.33 209.855 154.153 210.522 154.153C211.19 154.153 211.762 154.331 212.24 154.686C212.717 155.038 213.082 155.55 213.335 156.22C213.591 156.888 213.718 157.695 213.718 158.641C213.718 159.592 213.592 160.405 213.339 161.078C213.086 161.749 212.721 162.261 212.244 162.616C211.767 162.969 211.193 163.145 210.522 163.145ZM210.522 162.007C211.113 162.007 211.575 161.719 211.907 161.142C212.243 160.565 212.41 159.732 212.41 158.641C212.41 157.916 212.333 157.304 212.18 156.804C212.029 156.301 211.812 155.92 211.528 155.662C211.247 155.401 210.912 155.27 210.522 155.27C209.934 155.27 209.473 155.56 209.137 156.139C208.802 156.719 208.633 157.553 208.63 158.641C208.63 159.368 208.706 159.983 208.856 160.486C209.01 160.986 209.227 161.365 209.508 161.624C209.789 161.879 210.127 162.007 210.522 162.007ZM215.656 157.882V156.766H221.115V157.882H215.656ZM215.656 160.507V159.391H221.115V160.507H215.656ZM223.55 159.224V158.27L229.21 155.526V156.825L225.033 158.73L225.072 158.653V158.837L225.033 158.764L229.21 160.665V161.969L223.55 159.224Z" fill="white"/>
<path d="M2.01562 183C2.01562 178.582 5.59735 175 10.0156 175H84.0156V199H10.0156C5.59735 199 2.01562 195.418 2.01562 191V183Z" fill="#AC2D27"/>
<path d="M32.6662 182.273V191H31.3452V183.594H31.294L29.206 184.957V183.696L31.3835 182.273H32.6662ZM37.9759 191.119C37.3651 191.119 36.8253 191.014 36.3565 190.804C35.8906 190.594 35.5256 190.304 35.2614 189.935C34.9972 189.565 34.8665 189.145 34.8693 188.673C34.8665 188.304 34.9418 187.964 35.0952 187.655C35.2514 187.342 35.4631 187.082 35.7301 186.875C35.9972 186.665 36.2955 186.531 36.625 186.474V186.423C36.1903 186.318 35.8423 186.085 35.581 185.724C35.3196 185.364 35.1903 184.949 35.1932 184.48C35.1903 184.034 35.3082 183.636 35.5469 183.287C35.7884 182.935 36.1193 182.658 36.5398 182.456C36.9602 182.254 37.4389 182.153 37.9759 182.153C38.5071 182.153 38.9815 182.256 39.3991 182.46C39.8196 182.662 40.1506 182.939 40.392 183.291C40.6335 183.641 40.7557 184.037 40.7585 184.48C40.7557 184.949 40.6222 185.364 40.358 185.724C40.0938 186.085 39.75 186.318 39.3267 186.423V186.474C39.6534 186.531 39.9474 186.665 40.2088 186.875C40.473 187.082 40.6832 187.342 40.8395 187.655C40.9986 187.964 41.0795 188.304 41.0824 188.673C41.0795 189.145 40.946 189.565 40.6818 189.935C40.4176 190.304 40.0511 190.594 39.5824 190.804C39.1165 191.014 38.581 191.119 37.9759 191.119ZM37.9759 190.041C38.3366 190.041 38.6491 189.982 38.9134 189.862C39.1776 189.74 39.3821 189.571 39.527 189.355C39.6719 189.136 39.7457 188.881 39.7486 188.588C39.7457 188.284 39.6662 188.016 39.5099 187.783C39.3565 187.55 39.1477 187.366 38.8835 187.233C38.6193 187.099 38.3168 187.033 37.9759 187.033C37.6321 187.033 37.3267 187.099 37.0597 187.233C36.7926 187.366 36.5824 187.55 36.429 187.783C36.2756 188.016 36.2003 188.284 36.2031 188.588C36.2003 188.881 36.2699 189.136 36.4119 189.355C36.5568 189.571 36.7628 189.74 37.0298 189.862C37.2969 189.982 37.6122 190.041 37.9759 190.041ZM37.9759 185.98C38.2656 185.98 38.5227 185.922 38.7472 185.805C38.9716 185.689 39.1477 185.527 39.2756 185.32C39.4063 185.112 39.473 184.869 39.4759 184.591C39.473 184.318 39.4077 184.08 39.2798 183.875C39.1548 183.67 38.9801 183.513 38.7557 183.402C38.5313 183.288 38.2713 183.232 37.9759 183.232C37.6747 183.232 37.4105 183.288 37.1832 183.402C36.9588 183.513 36.7841 183.67 36.6591 183.875C36.5341 184.08 36.473 184.318 36.4759 184.591C36.473 184.869 36.5355 185.112 36.6634 185.32C36.7912 185.527 36.9673 185.689 37.1918 185.805C37.419 185.922 37.6804 185.98 37.9759 185.98ZM45.6474 191.145C44.9741 191.142 44.3988 190.964 43.9215 190.612C43.4442 190.26 43.0792 189.747 42.8263 189.074C42.5735 188.401 42.4471 187.589 42.4471 186.641C42.4471 185.695 42.5735 184.886 42.8263 184.216C43.082 183.545 43.4485 183.034 43.9258 182.682C44.4059 182.33 44.9798 182.153 45.6474 182.153C46.315 182.153 46.8874 182.331 47.3647 182.686C47.842 183.038 48.207 183.55 48.4599 184.22C48.7156 184.888 48.8434 185.695 48.8434 186.641C48.8434 187.592 48.717 188.405 48.4641 189.078C48.2113 189.749 47.8462 190.261 47.369 190.616C46.8917 190.969 46.3178 191.145 45.6474 191.145ZM45.6474 190.007C46.2383 190.007 46.6999 189.719 47.0323 189.142C47.3675 188.565 47.5352 187.732 47.5352 186.641C47.5352 185.916 47.4585 185.304 47.305 184.804C47.1545 184.301 46.9371 183.92 46.6531 183.662C46.3718 183.401 46.0366 183.27 45.6474 183.27C45.0593 183.27 44.5977 183.56 44.2624 184.139C43.9272 184.719 43.7582 185.553 43.7553 186.641C43.7553 187.368 43.8306 187.983 43.9812 188.486C44.1346 188.986 44.3519 189.365 44.6332 189.624C44.9144 189.879 45.2525 190.007 45.6474 190.007ZM50.6832 187.224V186.27L56.3423 183.526V184.825L52.1662 186.73L52.2045 186.653V186.837L52.1662 186.764L56.3423 188.665V189.969L50.6832 187.224Z" fill="white"/>
<rect width="82" height="24" transform="translate(88.0156 175)" fill="#AC2D27"/>
<path d="M112.777 191.145C112.362 191.145 111.987 191.068 111.652 190.915C111.317 190.759 111.051 190.533 110.855 190.237C110.662 189.942 110.565 189.58 110.565 189.151C110.565 188.781 110.636 188.477 110.778 188.239C110.92 188 111.112 187.811 111.354 187.672C111.595 187.533 111.865 187.428 112.163 187.357C112.462 187.286 112.766 187.232 113.075 187.195C113.467 187.149 113.786 187.112 114.03 187.084C114.274 187.053 114.452 187.003 114.562 186.935C114.673 186.866 114.729 186.756 114.729 186.602V186.572C114.729 186.2 114.624 185.912 114.413 185.707C114.206 185.503 113.896 185.401 113.484 185.401C113.055 185.401 112.717 185.496 112.47 185.686C112.226 185.874 112.057 186.082 111.963 186.312L110.766 186.04C110.908 185.642 111.115 185.321 111.388 185.077C111.663 184.83 111.98 184.651 112.338 184.54C112.696 184.426 113.072 184.369 113.467 184.369C113.729 184.369 114.006 184.401 114.298 184.463C114.594 184.523 114.869 184.634 115.125 184.795C115.384 184.957 115.595 185.189 115.76 185.49C115.925 185.788 116.007 186.176 116.007 186.653V191H114.763V190.105H114.712C114.629 190.27 114.506 190.432 114.341 190.591C114.176 190.75 113.964 190.882 113.706 190.987C113.447 191.092 113.138 191.145 112.777 191.145ZM113.054 190.122C113.406 190.122 113.707 190.053 113.957 189.913C114.21 189.774 114.402 189.592 114.533 189.368C114.666 189.141 114.733 188.898 114.733 188.639V187.795C114.688 187.841 114.599 187.884 114.469 187.923C114.341 187.96 114.195 187.993 114.03 188.021C113.865 188.047 113.705 188.071 113.548 188.094C113.392 188.114 113.261 188.131 113.156 188.145C112.909 188.176 112.683 188.229 112.479 188.303C112.277 188.376 112.115 188.483 111.993 188.622C111.874 188.759 111.814 188.94 111.814 189.168C111.814 189.483 111.93 189.722 112.163 189.884C112.396 190.043 112.693 190.122 113.054 190.122ZM118.978 187.114V191H117.704V184.455H118.927V185.52H119.008C119.159 185.173 119.395 184.895 119.716 184.685C120.039 184.474 120.447 184.369 120.939 184.369C121.385 184.369 121.775 184.463 122.11 184.651C122.446 184.835 122.706 185.111 122.89 185.477C123.075 185.844 123.167 186.297 123.167 186.837V191H121.893V186.99C121.893 186.516 121.77 186.145 121.522 185.878C121.275 185.608 120.936 185.473 120.504 185.473C120.208 185.473 119.946 185.537 119.716 185.665C119.488 185.793 119.308 185.98 119.174 186.227C119.044 186.472 118.978 186.767 118.978 187.114ZM127.326 191.128C126.798 191.128 126.326 190.993 125.912 190.723C125.5 190.45 125.176 190.062 124.94 189.56C124.707 189.054 124.591 188.447 124.591 187.74C124.591 187.033 124.708 186.428 124.944 185.925C125.183 185.422 125.51 185.037 125.924 184.77C126.339 184.503 126.809 184.369 127.335 184.369C127.741 184.369 128.068 184.438 128.315 184.574C128.565 184.707 128.758 184.864 128.895 185.043C129.034 185.222 129.142 185.379 129.218 185.516H129.295V182.273H130.569V191H129.325V189.982H129.218C129.142 190.121 129.031 190.28 128.886 190.459C128.744 190.638 128.548 190.794 128.298 190.928C128.048 191.061 127.724 191.128 127.326 191.128ZM127.608 190.041C127.974 190.041 128.284 189.945 128.537 189.751C128.792 189.555 128.985 189.284 129.116 188.938C129.25 188.591 129.316 188.187 129.316 187.727C129.316 187.273 129.251 186.875 129.12 186.534C128.99 186.193 128.798 185.928 128.545 185.737C128.292 185.547 127.98 185.452 127.608 185.452C127.224 185.452 126.904 185.551 126.649 185.75C126.393 185.949 126.2 186.22 126.069 186.564C125.941 186.908 125.877 187.295 125.877 187.727C125.877 188.165 125.943 188.558 126.074 188.908C126.204 189.257 126.397 189.534 126.653 189.739C126.912 189.94 127.23 190.041 127.608 190.041ZM135.712 181.864L132.899 192.312H131.761L134.574 181.864H135.712ZM139.551 191.132C138.938 191.132 138.402 190.991 137.945 190.71C137.487 190.429 137.132 190.036 136.879 189.53C136.626 189.024 136.5 188.433 136.5 187.757C136.5 187.078 136.626 186.484 136.879 185.976C137.132 185.467 137.487 185.072 137.945 184.791C138.402 184.51 138.938 184.369 139.551 184.369C140.165 184.369 140.7 184.51 141.158 184.791C141.615 185.072 141.97 185.467 142.223 185.976C142.476 186.484 142.602 187.078 142.602 187.757C142.602 188.433 142.476 189.024 142.223 189.53C141.97 190.036 141.615 190.429 141.158 190.71C140.7 190.991 140.165 191.132 139.551 191.132ZM139.555 190.062C139.953 190.062 140.283 189.957 140.544 189.747C140.805 189.537 140.999 189.257 141.124 188.908C141.251 188.558 141.315 188.173 141.315 187.753C141.315 187.335 141.251 186.952 141.124 186.602C140.999 186.25 140.805 185.967 140.544 185.754C140.283 185.541 139.953 185.435 139.555 185.435C139.155 185.435 138.822 185.541 138.558 185.754C138.297 185.967 138.102 186.25 137.974 186.602C137.849 186.952 137.787 187.335 137.787 187.753C137.787 188.173 137.849 188.558 137.974 188.908C138.102 189.257 138.297 189.537 138.558 189.747C138.822 189.957 139.155 190.062 139.555 190.062ZM144.025 191V184.455H145.256V185.494H145.324C145.444 185.142 145.654 184.865 145.955 184.663C146.259 184.459 146.603 184.357 146.986 184.357C147.066 184.357 147.159 184.359 147.267 184.365C147.378 184.371 147.465 184.378 147.527 184.386V185.605C147.476 185.591 147.385 185.575 147.255 185.558C147.124 185.538 146.993 185.528 146.863 185.528C146.561 185.528 146.293 185.592 146.057 185.72C145.824 185.845 145.64 186.02 145.503 186.244C145.367 186.466 145.299 186.719 145.299 187.003V191H144.025Z" fill="white"/>
<path d="M174.016 175H248.016C252.434 175 256.016 178.582 256.016 183V191C256.016 195.418 252.434 199 248.016 199H174.016V175Z" fill="#AC2D27"/>
<path d="M204.666 182.273V191H203.345V183.594H203.294L201.206 184.957V183.696L203.384 182.273H204.666ZM207.027 191V190.045L209.98 186.986C210.295 186.653 210.555 186.362 210.76 186.112C210.967 185.859 211.122 185.619 211.224 185.392C211.327 185.165 211.378 184.923 211.378 184.668C211.378 184.378 211.31 184.128 211.173 183.918C211.037 183.705 210.851 183.541 210.615 183.428C210.379 183.311 210.114 183.253 209.818 183.253C209.506 183.253 209.233 183.317 209 183.445C208.767 183.572 208.588 183.753 208.463 183.986C208.338 184.219 208.276 184.491 208.276 184.804H207.018C207.018 184.273 207.141 183.808 207.385 183.411C207.629 183.013 207.964 182.705 208.391 182.486C208.817 182.264 209.301 182.153 209.844 182.153C210.392 182.153 210.875 182.263 211.293 182.482C211.713 182.697 212.041 182.993 212.277 183.368C212.513 183.74 212.631 184.161 212.631 184.629C212.631 184.953 212.57 185.27 212.447 185.58C212.328 185.889 212.119 186.234 211.821 186.615C211.523 186.993 211.108 187.452 210.577 187.991L208.842 189.807V189.871H212.771V191H207.027ZM217.425 191.145C216.751 191.142 216.176 190.964 215.699 190.612C215.222 190.26 214.857 189.747 214.604 189.074C214.351 188.401 214.224 187.589 214.224 186.641C214.224 185.695 214.351 184.886 214.604 184.216C214.859 183.545 215.226 183.034 215.703 182.682C216.183 182.33 216.757 182.153 217.425 182.153C218.092 182.153 218.665 182.331 219.142 182.686C219.619 183.038 219.984 183.55 220.237 184.22C220.493 184.888 220.621 185.695 220.621 186.641C220.621 187.592 220.494 188.405 220.241 189.078C219.989 189.749 219.624 190.261 219.146 190.616C218.669 190.969 218.095 191.145 217.425 191.145ZM217.425 190.007C218.016 190.007 218.477 189.719 218.81 189.142C219.145 188.565 219.312 187.732 219.312 186.641C219.312 185.916 219.236 185.304 219.082 184.804C218.932 184.301 218.714 183.92 218.43 183.662C218.149 183.401 217.814 183.27 217.425 183.27C216.837 183.27 216.375 183.56 216.04 184.139C215.705 184.719 215.536 185.553 215.533 186.641C215.533 187.368 215.608 187.983 215.759 188.486C215.912 188.986 216.129 189.365 216.411 189.624C216.692 189.879 217.03 190.007 217.425 190.007ZM222.461 187.224V186.27L228.12 183.526V184.825L223.944 186.73L223.982 186.653V186.837L223.944 186.764L228.12 188.665V189.969L222.461 187.224Z" fill="white"/>
</svg>
