<svg width="114" height="114" viewBox="0 0 114 114" fill="none" xmlns="http://www.w3.org/2000/svg">
<g filter="url(#filter0_d_11702_2108)">
<circle cx="57" cy="53" r="42" fill="#171717"/>
</g>
<g filter="url(#filter1_dd_11702_2108)">
<circle cx="57" cy="53" r="35" fill="#171717"/>
</g>
<g clipPath="url(#clip0_11702_2108)">
<path d="M69.3948 33.0091C62.982 33.5743 58.2499 36.7752 55.4913 41.4026C53.6426 43.7201 49.9496 50.7957 48.6065 54.4997C46.1713 59.1057 44.0477 64.586 42.3858 69.5263C41.37 72.5474 45.9314 74.5184 46.9531 71.4837C48.1959 67.7875 49.6974 63.7913 51.3942 60.0828C53.0781 63.8514 54.7891 67.6077 56.6262 71.3046C58.0501 74.1744 62.3347 71.6577 60.916 68.7976C59.0246 64.9921 57.2677 61.1258 55.5366 57.2466C55.5586 57.1716 55.5864 57.0985 55.6097 57.0241C55.8981 57.1063 56.2162 57.1315 56.5667 57.0649C59.2153 56.5676 61.864 56.0716 64.5146 55.5744C65.6468 55.3616 66.0807 54.1227 65.9023 53.1307C65.3669 50.1581 63.6733 48.0901 61.5652 46.1334C61.2523 45.069 60.2086 44.1275 59.0504 43.1918C61.3984 39.396 65.2317 37.3358 70.2212 36.8961C72.7677 36.673 71.9193 32.7873 69.3948 33.0091ZM59.7443 49.9053C60.3993 50.5868 60.9568 51.3039 61.3777 52.1342C60.0961 52.3748 58.8138 52.6147 57.5321 52.8552C58.1788 51.8141 58.9231 50.8312 59.7443 49.9053Z" fill="url(#paint0_linear_11702_2108)"/>
<path d="M65.2279 46.5213C67.1118 46.5213 68.639 44.9941 68.639 43.1103C68.639 41.2264 67.1118 39.6992 65.2279 39.6992C63.3441 39.6992 61.8169 41.2264 61.8169 43.1103C61.8169 44.9941 63.3441 46.5213 65.2279 46.5213Z" fill="url(#paint1_linear_11702_2108)"/>
</g>
<defs>
<filter id="filter0_d_11702_2108" x="0" y="0" width="114" height="114" filterUnits="userSpaceOnUse" colorInterpolationFilters="sRGB">
<feFlood floodOpacity="0" result="BackgroundImageFix"/>
<feColorMatrix in="SourceAlpha" type="matrix" values="0 0 0 0 0 0 0 0 0 0 0 0 0 0 0 0 0 0 127 0" result="hardAlpha"/>
<feOffset dy="4"/>
<feGaussianBlur stdDeviation="7.5"/>
<feComposite in2="hardAlpha" operator="out"/>
<feColorMatrix type="matrix" values="0 0 0 0 0.968627 0 0 0 0 0.396078 0 0 0 0 0.305882 0 0 0 0.24 0"/>
<feBlend mode="normal" in2="BackgroundImageFix" result="effect1_dropShadow_11702_2108"/>
<feBlend mode="normal" in="SourceGraphic" in2="effect1_dropShadow_11702_2108" result="shape"/>
</filter>
<filter id="filter1_dd_11702_2108" x="17.2" y="10.8" width="79.6" height="84.4" filterUnits="userSpaceOnUse" colorInterpolationFilters="sRGB">
<feFlood floodOpacity="0" result="BackgroundImageFix"/>
<feColorMatrix in="SourceAlpha" type="matrix" values="0 0 0 0 0 0 0 0 0 0 0 0 0 0 0 0 0 0 127 0" result="hardAlpha"/>
<feOffset dy="2.4"/>
<feGaussianBlur stdDeviation="2.4"/>
<feComposite in2="hardAlpha" operator="out"/>
<feColorMatrix type="matrix" values="0 0 0 0 0.968627 0 0 0 0 0.396078 0 0 0 0 0.305882 0 0 0 0.25 0"/>
<feBlend mode="normal" in2="BackgroundImageFix" result="effect1_dropShadow_11702_2108"/>
<feColorMatrix in="SourceAlpha" type="matrix" values="0 0 0 0 0 0 0 0 0 0 0 0 0 0 0 0 0 0 127 0" result="hardAlpha"/>
<feOffset dy="-2.4"/>
<feGaussianBlur stdDeviation="2.4"/>
<feComposite in2="hardAlpha" operator="out"/>
<feColorMatrix type="matrix" values="0 0 0 0 0.968627 0 0 0 0 0.396078 0 0 0 0 0.305882 0 0 0 0.25 0"/>
<feBlend mode="normal" in2="effect1_dropShadow_11702_2108" result="effect2_dropShadow_11702_2108"/>
<feBlend mode="normal" in="SourceGraphic" in2="effect2_dropShadow_11702_2108" result="shape"/>
</filter>
<linearGradient id="paint0_linear_11702_2108" x1="41.1038" y1="58.5321" x2="72.7541" y2="58.5358" gradientUnits="userSpaceOnUse">
<stop stopColor="#F43F5E"/>
<stop offset="1" stopColor="#FB923C"/>
</linearGradient>
<linearGradient id="paint1_linear_11702_2108" x1="61.5545" y1="44.0537" x2="68.8686" y2="44.0549" gradientUnits="userSpaceOnUse">
<stop stopColor="#F43F5E"/>
<stop offset="1" stopColor="#FB923C"/>
</linearGradient>
<clipPath id="clip0_11702_2108">
<rect width="40" height="40" fill="white" transform="translate(37 33)"/>
</clipPath>
</defs>
</svg>
